<svg width="220" height="220" viewBox="0 0 220 220" fill="none" xmlns="http://www.w3.org/2000/svg">
<path d="M190.016 37.2992L182.926 44.4513L180.998 42.5102L181.827 41.7203C181.247 41.7671 180.66 41.6699 180.141 41.4949C179.621 41.3199 179.094 41.0009 178.704 40.5264C177.778 39.5889 177.286 38.6163 177.374 37.5969C177.386 36.5114 177.908 35.457 178.942 34.4336L182.931 30.3517L184.936 32.3589L181.289 36.0517C180.118 37.2308 180.03 38.2501 180.956 39.1876C181.492 39.6505 181.942 39.9033 182.666 39.8449C183.246 39.7981 183.885 39.5295 184.501 38.8291L188.011 35.292L190.016 37.2992Z" fill="#020818"/>
<path d="M197.874 48.7392C197.718 49.8363 197.043 50.7583 195.856 51.6494L191.324 55.1242L189.669 52.8721L193.852 49.6425C194.552 49.1522 194.817 48.697 195.006 48.1757C195.05 47.6661 194.949 47.1682 194.627 46.6158C194.16 46.0752 193.633 45.7563 193.045 45.6591C192.458 45.562 191.818 45.8305 191.05 46.3987L187.073 49.3948L185.418 47.1428L193.441 41.0726L195.088 43.1807L194.183 43.9045C194.694 43.9355 195.289 44.1766 195.74 44.4293C196.191 44.6821 196.726 45.1449 197.117 45.6195C197.761 46.7241 198.031 47.6422 197.874 48.7392Z" fill="#020818"/>
<path d="M201.812 52.9745L203.258 55.4544L194.696 60.6183L193.25 58.1384L201.812 52.9745ZM203.505 52.1164C203.625 51.6739 203.822 51.2973 204.247 51.1187C204.596 50.8741 205.029 50.8391 205.471 50.9477C205.912 51.0563 206.217 51.3202 206.462 51.8053C206.708 52.2904 206.8 52.6436 206.756 53.1521C206.636 53.5946 206.439 53.9711 206.014 54.1497C205.665 54.3943 205.164 54.507 204.722 54.3984C204.281 54.2898 203.975 54.0259 203.662 53.6184C203.485 53.0557 203.385 52.5589 203.505 52.1164Z" fill="#020818"/>
<path d="M209.839 68.4603L197.523 74.3687L196.287 71.795L200.464 69.7957C199.426 69.446 198.662 68.7852 198.163 67.6694C197.825 66.8296 197.631 65.9782 197.727 65.1033C197.823 64.2285 198.072 63.4858 198.611 62.7198C199.149 61.9537 199.848 61.4637 200.837 60.9503C201.826 60.4368 202.618 60.3006 203.495 60.3743C204.371 60.448 205.188 60.7433 205.867 61.1942C206.547 61.6451 207.098 62.3954 207.505 63.1574C208.08 64.3393 208.145 65.4901 207.623 66.5439L208.688 66.0966L209.839 68.4603ZM202.051 68.2946C202.714 68.4578 203.438 68.3993 204.146 68.0532C204.853 67.707 205.408 67.2286 205.657 66.486C205.914 65.8872 205.873 65.1679 205.62 64.538C205.29 63.8421 204.831 63.4456 204.236 63.2047C203.572 63.0415 202.849 63.1 202.141 63.4462C201.434 63.7923 200.879 64.2707 200.63 65.0134C200.373 65.6122 200.414 66.3315 200.667 66.9613C200.921 67.5911 201.456 68.0537 202.051 68.2946Z" fill="#020818"/>
<path d="M214.519 82.5984L205.015 85.6069L204.214 82.9971L205.356 82.6157C204.837 82.4408 204.378 82.0441 204.064 81.6358C203.674 81.1613 203.428 80.6752 203.251 80.1112C202.888 78.8394 202.976 77.8203 203.43 76.8439C203.961 75.9336 204.866 75.21 206.366 74.7274L211.727 73.0655L212.537 75.8192L207.533 77.3799C206.033 77.8625 205.426 78.7067 205.789 79.9785C205.974 80.6864 206.288 81.0947 206.884 81.3357C207.479 81.5768 208.135 81.5961 208.996 81.382L213.709 79.8447L214.519 82.5984Z" fill="#020818"/>
<path d="M211.34 97.8441L210.27 90.4831C209.698 90.6738 209.288 91.1407 208.955 91.6738C208.697 92.273 208.585 92.8606 208.702 93.6465C208.803 94.1445 208.972 94.5646 209.141 94.9848C209.311 95.405 209.616 95.6695 210.067 95.9223L208.64 97.7006C207.432 96.9304 206.712 95.7595 206.393 93.9776C206.259 92.9037 206.347 91.8843 206.588 90.9972C206.898 90.0323 207.368 89.3435 208.06 88.7092C208.752 88.0749 209.604 87.7169 210.542 87.5689C211.479 87.4209 212.356 87.4946 213.25 87.8563C214.067 88.1519 214.823 88.6693 215.375 89.4201C215.927 90.1709 216.265 91.0112 216.39 91.9411C216.516 92.871 216.496 93.8125 216.178 94.6335C215.861 95.4545 215.391 96.1432 214.699 96.7775C214.007 97.4118 213.154 97.7699 212.072 97.9296C212.132 97.7078 211.843 97.7312 211.34 97.8441ZM213.481 90.6576C213.022 90.2608 212.503 90.0859 211.847 90.0665L212.626 94.8481C213.197 94.6573 213.684 94.2565 213.949 93.8013C214.283 93.2682 214.327 92.7585 214.218 92.1165C214.185 91.5407 213.94 91.0544 213.481 90.6576Z" fill="#020818"/>
<path d="M208.158 109.612C208.621 108.78 209.312 108.145 210.012 107.655C210.788 107.231 211.718 106.939 212.663 106.935C213.609 106.931 214.571 107.215 215.251 107.666C215.931 108.117 216.551 108.79 216.966 109.696C217.381 110.603 217.574 111.455 217.563 112.54C217.475 113.56 217.234 114.447 216.771 115.279C216.309 116.112 215.609 116.602 214.825 116.883L213.681 114.661C214.671 114.148 215.065 113.393 215.084 112.451C215.112 111.654 214.935 111.09 214.399 110.627C213.932 110.086 213.268 109.923 212.391 109.849C211.59 109.841 210.874 110.044 210.319 110.522C209.764 111.001 209.507 111.6 209.479 112.398C209.46 113.339 209.866 114.102 210.768 114.607L209.51 116.806C208.761 116.432 208.149 115.903 207.743 115.141C207.336 114.378 207.211 113.449 207.222 112.363C207.531 111.398 207.696 110.445 208.158 109.612Z" fill="#020818"/>
<path d="M207.456 121.233C207.995 120.466 208.763 119.898 209.616 119.54C210.469 119.182 211.338 119.112 212.291 119.252C213.245 119.392 214.138 119.753 214.75 120.282C215.362 120.811 215.913 121.562 216.183 122.48C216.453 123.398 216.579 124.328 216.346 125.359C216.113 126.39 215.727 127.289 215.188 128.055C214.65 128.822 213.881 129.39 213.097 129.67C212.244 130.028 211.375 130.099 210.422 129.959C209.468 129.819 208.575 129.457 207.963 128.928C207.275 128.333 206.8 127.648 206.53 126.73C206.259 125.812 206.134 124.882 206.367 123.851C206.455 122.832 206.773 122.011 207.456 121.233ZM209.044 126.166C209.511 126.706 210.038 127.025 210.915 127.099C211.724 127.251 212.44 127.048 213.003 126.714C213.566 126.379 213.968 125.768 214.072 125.037C214.177 124.305 214.068 123.663 213.601 123.122C213.134 122.582 212.607 122.263 211.798 122.111C210.989 121.96 210.273 122.162 209.71 122.497C209.078 122.909 208.745 123.442 208.64 124.174C208.468 124.983 208.577 125.625 209.044 126.166Z" fill="#020818"/>
<path d="M210.758 143.138C209.769 143.652 208.679 143.668 207.275 143.275L201.805 141.693L202.74 138.943L207.769 140.416C208.509 140.646 209.165 140.665 209.659 140.408C210.154 140.151 210.495 139.762 210.676 139.097C210.857 138.432 210.893 137.779 210.571 137.226C210.249 136.674 209.645 136.289 208.905 136.06L204.174 134.707L205.11 131.957L214.571 134.663L213.772 137.257L212.666 136.985C212.912 137.471 213.089 138.035 213.121 138.611C213.154 139.186 213.118 139.84 212.861 140.439C212.278 141.714 211.671 142.559 210.758 143.138Z" fill="#020818"/>
<path d="M200.169 146.999C200.938 146.431 201.791 146.073 202.66 146.003C203.597 145.855 204.483 146.073 205.376 146.434C206.27 146.796 206.958 147.391 207.51 148.142C208.062 148.893 208.255 149.745 208.304 150.609C208.284 151.551 208.12 152.504 207.665 153.481C207.211 154.458 206.596 155.158 205.896 155.648C205.196 156.139 204.343 156.497 203.466 156.423L203.396 153.898C204.41 153.816 205.179 153.248 205.641 152.415C205.966 151.738 206.002 151.084 205.749 150.454C205.495 149.824 205.028 149.283 204.211 148.987C203.394 148.692 202.661 148.606 202.09 148.797C201.45 149.065 200.963 149.466 200.638 150.143C200.252 151.042 200.301 151.906 200.929 152.723L198.906 154.26C198.362 153.653 198.024 152.813 197.975 151.949C197.926 151.085 198.091 150.132 198.545 149.155C198.794 148.412 199.401 147.568 200.169 146.999Z" fill="#020818"/>
<path d="M193.76 165.983L197.764 159.586C197.169 159.345 196.589 159.392 195.95 159.661C195.378 159.851 194.9 160.396 194.498 161.007C194.232 161.462 194.035 161.84 193.915 162.283C193.794 162.727 193.819 163.159 193.92 163.657L191.687 164.054C191.248 162.715 191.601 161.241 192.534 159.719C193.133 158.731 193.893 158.019 194.737 157.517C195.582 157.015 196.443 156.801 197.312 156.731C198.258 156.727 199.074 157.022 199.9 157.462C200.725 157.901 201.345 158.574 201.683 159.415C202.09 160.177 202.283 161.029 202.264 161.971C202.244 162.912 201.927 163.733 201.396 164.644C200.934 165.476 200.242 166.111 199.466 166.535C198.689 166.959 197.828 167.173 196.959 167.243C196.014 167.247 195.197 166.952 194.295 166.446C194.364 166.368 194.134 166.17 193.76 165.983ZM200.075 161.858C200.042 161.282 199.652 160.808 199.193 160.411L196.592 164.598C197.187 164.839 197.698 164.87 198.27 164.679C198.841 164.488 199.259 164.165 199.661 163.554C200.063 162.944 200.176 162.356 200.075 161.858Z" fill="#020818"/>
<path d="M190.394 178.411C189.609 178.691 188.739 178.761 187.861 178.688C187.051 178.536 186.157 178.174 185.391 177.512C184.626 176.85 184.074 176.098 183.811 175.323C183.549 174.548 183.424 173.618 183.597 172.807C183.77 171.997 184.087 171.175 184.703 170.474C185.525 169.539 186.439 168.959 187.53 168.943L184.017 166.042L185.856 163.795L196.168 172.299L194.396 174.468L193.554 173.74C193.764 174.881 193.386 175.925 192.496 176.938C191.88 177.639 191.18 178.13 190.394 178.411ZM186.255 173.461C186.365 174.104 186.695 174.801 187.376 175.253C187.989 175.782 188.73 176.012 189.31 175.965C190.035 175.906 190.599 175.571 191.078 175.026C191.557 174.481 191.738 173.815 191.697 173.094C191.588 172.451 191.257 171.754 190.576 171.303C189.964 170.773 189.223 170.543 188.643 170.59C188.063 170.637 187.354 170.984 186.875 171.529C186.396 172.075 186.146 172.819 186.255 173.461Z" fill="#020818"/>
<path d="M175.19 181.177C175.242 180.81 175.371 180.51 175.637 180.053C175.835 179.675 176.109 179.363 176.528 179.039C177.358 178.248 178.282 177.811 179.153 177.74C180.024 177.67 180.851 178.111 181.702 178.984L184.494 181.947L185.599 180.843L187.148 182.458L186.044 183.561L187.67 185.242L185.521 187.227L183.895 185.547L182.097 187.286L180.548 185.672L182.346 183.932L179.63 181.035C179.324 180.77 179.094 180.571 178.727 180.529C178.436 180.552 178.077 180.654 177.803 180.966C177.529 181.278 177.255 181.59 177.211 182.1L175.19 181.177Z" fill="#020818"/>
<path d="M172.479 190.967L156.644 200.752L155.689 199.243L171.524 189.458L172.479 190.967Z" fill="#020818"/>
<path d="M139.167 211.199L136.236 201.813L138.881 200.948L139.235 202.077C139.424 201.556 139.835 201.088 140.253 200.765C140.74 200.364 141.235 200.107 141.807 199.916C143.095 199.523 144.186 199.507 145.088 200.013C146.059 200.441 146.695 201.402 147.211 202.808L148.892 208.098L146.179 209.04L144.667 204.171C144.22 202.687 143.318 202.182 142.03 202.575C141.39 202.844 140.903 203.245 140.637 203.7C140.38 204.3 140.344 204.954 140.683 205.795L142.11 210.454L139.167 211.199Z" fill="#020818"/>
<path d="M125.253 213.163C124.42 212.579 123.851 211.54 123.625 210.111L122.729 204.54L125.611 204.018L126.483 209.157C126.6 209.943 126.846 210.43 127.305 210.827C127.688 211.157 128.276 211.255 128.924 211.13C129.64 210.927 130.136 210.67 130.546 210.203C130.88 209.67 130.984 208.938 130.867 208.151L130.088 203.367L132.97 202.845L134.537 212.557L131.799 213.068L131.59 211.927C131.324 212.383 130.837 212.784 130.35 213.185C129.787 213.52 129.215 213.711 128.567 213.836C127.186 213.875 126.155 213.669 125.253 213.163Z" fill="#020818"/>
<path d="M119.687 214.538L116.789 214.773L116.161 204.916L119.058 204.682L119.687 214.538ZM119.647 216.422C119.953 216.687 120.191 217.029 120.215 217.461C120.239 217.893 120.119 218.336 119.769 218.582C119.495 218.893 119.069 219.072 118.489 219.119C117.91 219.166 117.467 219.057 117.161 218.792C116.855 218.528 116.618 218.185 116.593 217.753C116.569 217.321 116.69 216.878 117.031 216.489C117.305 216.177 117.8 215.92 118.311 215.951C118.822 215.982 119.341 216.157 119.647 216.422Z" fill="#020818"/>
<path d="M102.073 214.856L102.699 201.418L105.614 201.472L105.363 206.051C106.047 205.272 107.19 204.89 108.358 204.941C109.305 204.937 110.122 205.233 110.871 205.606C111.552 206.058 112.164 206.587 112.503 207.428C112.91 208.191 113.035 209.122 113.016 210.064C112.927 211.084 112.686 211.972 112.292 212.728C111.829 213.561 111.205 214.118 110.428 214.542C109.652 214.967 108.79 215.181 107.912 215.108C106.599 215.069 105.552 214.575 104.924 213.757L104.844 214.921L102.073 214.856ZM105.911 208.033C105.356 208.512 105.175 209.178 105.079 210.054C105.051 210.852 105.237 211.561 105.704 212.102C106.171 212.643 106.767 212.884 107.424 212.904C108.225 212.911 108.797 212.72 109.276 212.175C109.831 211.696 110.012 211.03 110.108 210.154C110.136 209.356 109.951 208.647 109.483 208.106C109.016 207.565 108.42 207.324 107.695 207.382C107.03 207.219 106.39 207.488 105.911 208.033Z" fill="#020818"/>
<path d="M87.3225 212.693L89.1737 202.922L91.8913 203.353L91.6664 204.529C92.1534 204.128 92.6484 203.871 93.1516 203.758C93.6547 203.645 94.2344 203.598 94.8987 203.761C96.2193 203.944 97.1213 204.45 97.7578 205.411C98.3862 206.229 98.5277 207.447 98.2425 208.845L97.1702 214.357L94.3761 213.859L95.3278 208.791C95.6049 207.249 95.1133 206.276 93.7928 206.093C93.1284 205.93 92.5569 206.121 92.0699 206.522C91.583 206.923 91.2491 207.456 91.0845 208.41L90.1931 213.257L87.3225 212.693Z" fill="#020818"/>
<path d="M75.1838 203.086L82.2922 205.26C82.328 204.607 82.2272 204.108 81.8366 203.634C81.4459 203.159 80.9186 202.84 80.2463 202.533C79.7271 202.358 79.3608 202.315 78.9262 202.35C78.4916 202.385 78.0651 202.564 77.6385 202.743L76.724 200.72C77.9189 199.972 79.3676 199.855 81.1468 200.435C82.1853 200.785 83.087 201.291 83.7755 201.886C84.464 202.481 84.9473 203.31 85.0726 204.24C85.2662 205.093 85.2465 206.034 84.8606 206.933C84.5512 207.899 84.0807 208.587 83.3888 209.222C82.6969 209.856 81.9204 210.281 80.9828 210.429C80.0451 210.577 79.1678 210.503 78.2058 210.219C77.2438 209.935 76.5634 209.484 75.8749 208.888C75.2548 208.215 74.8479 207.453 74.6543 206.6C74.4607 205.748 74.5487 204.728 74.8581 203.763C74.8581 203.763 74.9949 203.608 75.1838 203.086ZM80.5631 208.148C81.1345 207.957 81.5447 207.49 81.802 206.891L77.1369 205.46C77.0245 206.047 77.1334 206.689 77.4476 207.098C77.6933 207.584 78.2207 207.903 78.8164 208.145C79.4122 208.386 79.9917 208.339 80.5631 208.148Z" fill="#020818"/>
<path d="M66.1472 194.928C66.6988 195.678 66.8924 196.531 67.0176 197.46C67.1428 198.39 66.8253 199.211 66.2946 200.122C65.8323 200.955 65.217 201.655 64.3722 202.157C63.5958 202.581 62.7348 202.796 61.7892 202.8C60.8436 202.804 59.8817 202.52 58.9801 202.014C58.0785 201.508 57.3901 200.913 56.9833 200.151C56.5765 199.388 56.3146 198.614 56.4107 197.738L58.9579 197.75C58.9463 198.835 59.4215 199.52 60.2466 199.96C60.9188 200.267 61.5828 200.43 62.2225 200.162C62.9386 199.959 63.4937 199.48 63.8876 198.726C64.2816 197.971 64.4623 197.305 64.2769 196.597C64.0914 195.889 63.7009 195.414 63.0287 195.107C62.2036 194.668 61.258 194.672 60.4213 195.318L59.0642 193.186C59.7641 192.695 60.5486 192.415 61.4178 192.345C62.3634 192.341 63.2488 192.559 64.1504 193.064C64.8306 193.515 65.5955 194.177 66.1472 194.928Z" fill="#020818"/>
<path d="M56.0772 188.932C56.4157 189.773 56.6093 190.625 56.5132 191.501C56.417 192.377 56.0311 193.276 55.4921 194.043C54.8848 194.887 54.1847 195.378 53.3316 195.736C52.4785 196.094 51.6092 196.165 50.7317 196.091C49.8542 196.017 48.884 195.589 48.0506 195.005C47.2171 194.422 46.5969 193.748 46.1819 192.842C45.8434 192.001 45.6498 191.149 45.7459 190.273C45.8421 189.397 46.1596 188.576 46.767 187.731C47.3743 186.887 48.0744 186.396 48.9275 186.038C49.7806 185.68 50.6499 185.61 51.5274 185.683C52.4814 185.823 53.3751 186.185 54.2085 186.769C55.1185 187.419 55.6703 188.17 56.0772 188.932ZM50.8727 188.268C50.2247 188.392 49.593 188.805 49.1224 189.494C48.6519 190.183 48.4711 190.849 48.5117 191.569C48.6207 192.211 48.943 192.763 49.4785 193.226C50.0824 193.612 50.7466 193.775 51.3946 193.65C52.0425 193.526 52.6742 193.113 53.1448 192.424C53.6154 191.735 53.7962 191.07 53.7555 190.35C53.6465 189.707 53.3243 189.155 52.7887 188.692C52.2532 188.229 51.5971 188.209 50.8727 188.268Z" fill="#020818"/>
<path d="M34.8906 182.246C34.9021 181.161 35.3563 180.184 36.4583 179.083L40.4479 175L42.5212 176.93L38.805 180.701C38.2581 181.324 37.9927 181.779 37.9487 182.289C37.9047 182.798 38.1504 183.285 38.6094 183.681C39.1448 184.144 39.7404 184.386 40.3198 184.339C40.8992 184.292 41.6073 183.946 42.1542 183.323L45.5888 179.719L47.662 181.649L40.648 188.868L38.6513 187.004L39.4798 186.214C38.9004 186.261 38.3128 186.164 37.7937 185.989C37.198 185.748 36.6707 185.429 36.2802 184.954C35.3705 184.305 34.8791 183.332 34.8906 182.246Z" fill="#020818"/>
<path d="M36.3605 171.064C36.4857 171.994 36.4661 172.935 36.1486 173.757C35.8311 174.578 35.2923 175.344 34.4557 175.99C33.6874 176.558 32.8345 176.916 31.897 177.064C30.9595 177.212 30.1506 177.061 29.2571 176.699C28.3636 176.337 27.6752 175.742 26.9706 174.859C26.3425 174.042 26.004 173.202 25.8105 172.35C25.6169 171.498 25.8579 170.61 26.2518 169.856L28.6345 170.82C28.1803 171.797 28.3739 172.649 28.9255 173.4C29.3926 173.94 29.9963 174.326 30.6522 174.345C31.3081 174.364 32.0243 174.162 32.7242 173.671C33.4241 173.181 33.7497 172.504 33.9305 171.839C34.0347 171.107 33.8574 170.543 33.3138 169.936C32.7622 169.185 31.9452 168.89 30.8628 169.049L30.5034 166.548C31.3645 166.333 32.1652 166.341 33.0587 166.703C33.8757 166.998 34.5641 167.594 35.1922 168.411C35.8204 169.228 36.2353 170.134 36.3605 171.064Z" fill="#020818"/>
<path d="M22.4617 157.019L26.3118 163.361C26.7985 162.96 27.0557 162.361 27.0232 161.785C27.0591 161.131 26.8818 160.567 26.5514 159.871C26.3057 159.384 25.9998 159.12 25.6938 158.855C25.3879 158.591 25.0136 158.404 24.4944 158.229L25.1734 156.077C26.5698 156.326 27.709 157.174 28.6674 158.687C29.2272 159.582 29.5737 160.567 29.6306 161.574C29.6874 162.582 29.5148 163.391 29.0525 164.224C28.5902 165.057 28.0432 165.68 27.1301 166.26C26.2853 166.762 25.4243 166.976 24.5552 167.046C23.6096 167.05 22.8007 166.898 22.0439 166.381C21.2188 165.941 20.5988 165.268 20.1155 164.44C19.6322 163.611 19.2938 162.771 19.3134 161.829C19.2647 160.965 19.5057 160.078 19.8996 159.323C20.362 158.49 21.0538 157.856 21.8985 157.354C21.7537 157.365 21.9669 157.276 22.4617 157.019ZM23.0972 164.416C23.6164 164.591 24.1958 164.544 24.8355 164.275L22.419 160.132C21.9323 160.533 21.5986 161.066 21.5546 161.576C21.4422 162.163 21.5431 162.661 21.8653 163.214C22.1191 163.844 22.578 164.241 23.0972 164.416Z" fill="#020818"/>
<path d="M12.7226 148.506C12.8187 147.63 13.1363 146.809 13.6834 146.186C14.2224 145.419 14.9224 144.929 15.9204 144.559C16.8419 144.123 17.7796 143.975 18.6571 144.048C19.5345 144.122 20.3517 144.418 20.9637 144.947C21.6441 145.398 22.1959 146.149 22.5343 146.99C23.0339 148.107 23.0224 149.193 22.568 150.169L26.9019 148.301L27.9938 150.888L15.4953 156.382L14.4799 153.861L15.5463 153.413C14.4393 153.141 13.6662 152.335 13.1584 151.074C12.7435 150.167 12.6264 149.381 12.7226 148.506ZM19.1857 146.971C18.5899 146.73 17.8655 146.788 17.0124 147.147C16.2277 147.427 15.749 147.972 15.4233 148.649C15.166 149.249 15.13 149.902 15.4604 150.599C15.7143 151.229 16.2498 151.692 16.8456 151.934C17.4414 152.175 18.1658 152.116 19.0189 151.758C19.8036 151.478 20.2823 150.933 20.608 150.255C20.8653 149.656 20.9012 149.002 20.5708 148.306C20.2405 147.609 19.7815 147.212 19.1857 146.971Z" fill="#020818"/>
<path d="M17.3886 133.699C17.6177 133.897 17.9231 134.161 18.092 134.58C18.3292 134.922 18.4981 135.342 18.5988 135.839C18.9528 136.966 18.9332 137.906 18.4716 138.737C18.0783 139.491 17.3113 140.058 16.1706 140.439L12.2464 141.695L12.693 143.175L10.5482 143.781L10.1016 142.301L7.74383 142.997L6.9351 140.247L9.29283 139.551L8.65301 137.22L10.7979 136.614L11.4377 138.944L15.2936 137.767C15.6511 137.665 16.0004 137.421 16.1288 137.122C16.2572 136.822 16.3857 136.523 16.2167 136.104C16.0478 135.684 15.8106 135.342 15.5052 135.078L17.3886 133.699Z" fill="#020818"/>
<path d="M9.79067 126.976L8.61502 108.703L10.3535 108.562L11.5291 126.836L9.79067 126.976Z" fill="#020818"/>
<path d="M7.2801 88.4229L17.035 89.8758L16.5335 92.5908L15.3589 92.3966C15.7493 92.871 15.9949 93.3572 16.0957 93.855C16.2729 94.419 16.3053 94.9947 16.193 95.582C15.9764 96.9007 15.4459 97.8109 14.6095 98.4568C13.7732 99.1026 12.6229 99.3401 11.0822 99.1031L5.58329 98.3185L6.0767 95.4595L11.2096 96.2014C12.7503 96.4384 13.6631 95.8587 13.8796 94.5401C13.9839 93.8088 13.8831 93.3109 13.4927 92.8365C13.1023 92.362 12.5069 92.121 11.6219 91.9033L6.77858 91.138L7.2801 88.4229Z" fill="#020818"/>
<path d="M12.0372 75.2698C13.0264 74.7562 14.1164 74.7404 15.5204 75.133L20.9913 76.715L20.0554 79.465L15.027 77.9919C14.2868 77.7625 13.6312 77.7432 13.1366 78C12.642 78.2568 12.3003 78.6458 12.1196 79.311C11.9389 79.9761 11.903 80.6296 12.225 81.1818C12.5471 81.7341 13.1506 82.119 13.8908 82.3483L18.5531 83.7788L17.6173 86.5288L8.22418 83.7458L9.09171 81.0735L10.1979 81.3456C9.95236 80.8594 9.77511 80.2955 9.74266 79.7198C9.71021 79.1442 9.74611 78.4908 10.0032 77.8917C10.4411 76.6276 11.048 75.7834 12.0372 75.2698Z" fill="#020818"/>
<path d="M11.5698 68.8035C11.1423 68.983 10.7066 69.0182 10.3313 68.831C9.95602 68.6438 9.64928 68.3785 9.47962 67.9572C9.30997 67.5359 9.35409 67.0249 9.62013 66.5684C9.80948 66.0456 10.0836 65.7334 10.5112 65.5539C10.9387 65.3744 11.3744 65.3392 11.7497 65.5264C12.125 65.7136 12.5084 66.0451 12.6781 66.4664C12.8477 66.8878 12.8036 67.3988 12.5376 67.8553C12.2716 68.3118 11.9974 68.624 11.5698 68.8035ZM13.1477 69.6186L14.3082 66.9148L23.4196 70.6742L22.259 73.3779L13.1477 69.6186Z" fill="#020818"/>
<path d="M21.2977 53.903L33.0157 60.3355L31.628 62.8349L27.6455 60.6246C27.9921 61.6094 27.8357 62.7072 27.1679 63.774C26.7053 64.6071 26.1581 65.2301 25.3813 65.6545C24.6811 66.1451 23.8197 66.3594 22.8736 66.3635C21.9275 66.3676 21.0418 66.1497 20.2163 65.71C19.3143 65.2041 18.6256 64.6087 18.2186 63.8458C17.8117 63.0828 17.5496 62.3082 17.5009 61.4441C17.4522 60.5799 17.7698 59.7584 18.2324 58.9253C18.8921 57.7145 19.7975 56.9903 20.8804 56.8304L19.9019 56.2584L21.2977 53.903ZM25.5922 60.3564C25.4067 59.6479 24.9394 59.1069 24.1905 58.7334C23.4415 58.3598 22.7772 58.1965 22.0607 58.399C21.3442 58.6016 20.8573 59.0026 20.455 59.6139C20.0527 60.2251 20.0168 60.8791 20.2023 61.5876C20.3878 62.296 20.855 62.837 21.604 63.2106C22.353 63.5841 23.0173 63.7475 23.7338 63.5449C24.4503 63.3424 24.9372 62.9413 25.263 62.2639C25.6653 61.6527 25.7012 60.9987 25.5922 60.3564Z" fill="#020818"/>
<path d="M30.125 41.8178L37.9536 47.7651L36.2608 49.9985L35.3512 49.3489C35.452 49.8469 35.4162 50.5005 35.2273 51.0219C35.0385 51.5432 34.8496 52.0646 34.4395 52.5315C33.6273 53.6093 32.7143 54.1891 31.6321 54.3488C30.5498 54.5085 29.5116 54.1585 28.2961 53.2444L23.8163 49.9188L25.5774 47.6075L29.6064 50.6804C30.8984 51.6606 31.9123 51.5787 32.7245 50.5009C33.203 49.9562 33.3154 49.3687 33.2064 48.7268C33.0974 48.0849 32.7069 47.6103 32.0186 47.0152L28.1426 44.0746L30.125 41.8178Z" fill="#020818"/>
<path d="M44.3012 35.3182L38.9283 40.6689C39.4555 40.9879 40.0431 41.085 40.6224 41.0383C41.2702 40.9137 41.8333 40.5789 42.3119 40.0342C42.6537 39.645 42.9955 39.2559 43.1925 38.8784C43.3894 38.501 43.5099 38.0574 43.4856 37.6256L45.7429 37.6602C45.8241 39.0998 45.2413 40.3761 43.9343 41.7108C43.1058 42.5008 42.2611 43.0029 41.4082 43.361C40.4789 43.6529 39.6098 43.7231 38.7245 43.5053C37.8392 43.2876 37.0141 42.8481 36.3941 42.1751C35.7741 41.502 35.2225 40.7512 35.029 39.8991C34.8354 39.0471 34.855 38.1055 35.096 37.2184C35.337 36.3312 35.8758 35.5646 36.5594 34.7864C37.1828 34.2299 37.951 33.6617 38.812 33.4476C39.6729 33.2334 40.542 33.1632 41.4273 33.381C42.3126 33.5987 43.0694 34.1161 43.8342 34.7774C43.8342 34.7774 43.9188 34.9875 44.3012 35.3182ZM37.1726 37.9184C37.0602 38.5059 37.2375 39.07 37.6281 39.5447L41.139 36.0073C40.6117 35.6884 40.0925 35.5134 39.5132 35.5602C38.9338 35.6069 38.439 35.8638 37.9523 36.2646C37.5503 36.8756 37.2849 37.3308 37.1726 37.9184Z" fill="#020818"/>
<path d="M55.6725 30.9716C54.735 31.1196 53.7813 30.9797 53.0327 30.6063C52.2841 30.2329 51.5273 29.7155 50.9676 28.8207C50.4159 28.0698 50.1459 27.1516 50.0971 26.2878C50.0484 25.424 50.2894 24.5369 50.7517 23.7041C51.214 22.8714 51.8977 22.0931 52.8108 21.5132C53.7239 20.9333 54.5768 20.5752 55.4459 20.505C56.315 20.4349 57.1239 20.5865 57.8806 21.1038L56.6988 23.3686C55.7288 22.9407 54.9281 22.9331 54.0914 23.5791C53.4599 23.9916 53.0578 24.6026 52.9454 25.1901C52.7647 25.8555 52.9502 26.5636 53.4253 27.2483C53.9005 27.9331 54.5042 28.3182 55.1683 28.4815C55.8323 28.6448 56.5484 28.4423 57.1799 28.0298C57.9482 27.4616 58.3422 26.7067 58.2853 25.699L60.8162 25.4223C61.0097 26.2744 60.8371 27.0837 60.3748 27.9165C59.9809 28.6714 59.2972 29.4497 58.3841 30.0296C57.5393 30.5316 56.61 30.8236 55.6725 30.9716Z" fill="#020818"/>
<path d="M65.6048 24.7533C64.6594 24.7574 63.7742 24.5397 63.0176 24.0224C62.261 23.5051 61.6412 22.8323 61.2344 22.0699C60.8196 21.1635 60.6261 20.3116 60.7222 19.4363C60.8183 18.561 61.1357 17.7402 61.6744 16.9737C62.2131 16.2073 62.9812 15.6392 63.8941 15.0594C64.8071 14.4796 65.7444 14.3317 66.6898 14.3276C67.6352 14.3236 68.452 14.6191 69.2769 15.0586C70.0335 15.5758 70.6534 16.2487 71.0601 17.0111C71.4749 17.9175 71.6685 18.7694 71.5724 19.6447C71.4763 20.5199 71.1588 21.3408 70.6202 22.1073C70.0815 22.8737 69.3133 23.4418 68.4004 24.0215C67.5558 24.5235 66.5502 24.7493 65.6048 24.7533ZM68.7084 20.4543C68.8891 19.789 68.8485 19.0693 68.5183 18.3731C68.1115 17.6107 67.6527 17.214 66.9807 16.9067C66.3852 16.6656 65.6611 16.7241 65.0297 17.1366C64.3218 17.4829 63.9117 17.9498 63.731 18.615C63.5503 19.2803 63.5909 19.9999 63.9211 20.6962C64.3278 21.4586 64.7867 21.8553 65.4587 22.1625C66.0542 22.4036 66.7783 22.3452 67.4097 21.9327C68.0411 21.5203 68.5277 21.1195 68.7084 20.4543Z" fill="#020818"/>
<path d="M81.6334 9.01887C82.6037 9.44687 83.3086 10.3304 83.6796 11.7472L85.4373 17.1031L82.7245 18.0456L81.1361 13.1101C80.8741 12.3355 80.5599 11.9269 80.109 11.6739C79.658 11.421 79.1467 11.39 78.5068 11.6587C77.7903 11.8612 77.3034 12.2623 77.0461 12.8618C76.7887 13.4613 76.7528 14.1153 77.0914 14.956L78.587 19.5373L75.8742 20.4799L72.7983 11.107L75.3662 10.1762L75.721 11.305C75.9099 10.7833 76.3203 10.3161 76.8072 9.91511C77.2941 9.51407 77.8575 9.1792 78.4291 8.98835C79.6405 8.52879 80.663 8.59087 81.6334 9.01887Z" fill="#020818"/>
<path d="M90.8341 15.3269C89.9487 15.1092 89.192 14.5918 88.5719 13.9187C87.9519 13.2456 87.5451 12.483 87.3434 11.4869C87.1417 10.4908 87.2378 9.61531 87.5553 8.79423C87.8728 7.97315 88.4116 7.20651 89.1799 6.63828C89.9482 6.07005 90.8695 5.6341 91.8754 5.40825C92.8813 5.1824 93.8269 5.17836 94.6439 5.47396C95.4609 5.76956 96.1412 6.22082 96.6929 6.97172L94.7461 8.57518C94.0496 7.83597 93.2325 7.54038 92.295 7.68839C91.5788 7.89084 91.0156 8.22557 90.6136 8.83655C90.2115 9.44752 90.1072 10.1791 90.2243 10.9651C90.3414 11.7511 90.7401 12.3697 91.3439 12.7548C91.9477 13.1399 92.5352 13.2371 93.3279 13.1008C94.3338 12.875 94.9572 12.3184 95.2666 11.3534L97.7095 12.0962C97.5369 12.9056 96.9981 13.6722 96.3746 14.2287C95.6828 14.8631 94.8299 15.2212 93.824 15.4471C92.6733 15.6846 91.7276 15.6887 90.8341 15.3269Z" fill="#020818"/>
<path d="M109.981 9.2473L102.447 9.85554C102.625 10.4198 103.015 10.8944 103.543 11.2134C104.07 11.5324 104.658 11.6296 105.458 11.6373C106.038 11.5905 106.396 11.4893 106.823 11.3102C107.249 11.1311 107.599 10.8859 107.941 10.4967L109.555 12.0296C108.675 13.1855 107.327 13.8005 105.588 13.9409C104.429 14.0345 103.476 13.8945 102.582 13.5328C101.688 13.171 101 12.5758 100.525 11.891C99.9731 11.1401 99.7795 10.2879 99.6543 9.3579C99.5974 8.35007 99.7701 7.54065 100.232 6.70784C100.695 5.87503 101.242 5.25234 102.01 4.68409C102.855 4.18197 103.64 3.90168 104.654 3.8198C105.668 3.73792 106.477 3.88955 107.37 4.2513C108.187 4.54691 108.876 5.14216 109.283 5.90479C109.758 6.58958 110.028 7.50788 110.085 8.51572C109.94 8.52742 109.956 8.81537 109.981 9.2473ZM102.993 6.62958C102.506 7.03046 102.317 7.55192 102.282 8.20566L107.207 7.80797C107.098 7.16592 106.784 6.75738 106.325 6.36054C105.866 5.96371 105.279 5.86652 104.699 5.9133C103.975 5.97179 103.48 6.2287 102.993 6.62958Z" fill="#020818"/>
<path d="M122.16 4.52305C122.84 4.97397 123.459 5.64652 123.789 6.34247C124.119 7.03841 124.321 8.03378 124.233 9.05254C124.145 10.0713 123.904 10.9579 123.366 11.724C122.827 12.4901 122.204 13.0462 121.497 13.3924C120.721 13.8164 119.852 13.8866 118.907 13.8906C117.665 13.7742 116.695 13.3467 116.068 12.5303L115.672 17.1147L112.829 16.983L113.888 3.52924L116.586 3.67259L116.507 4.83521C117.258 3.97964 118.332 3.67614 119.719 3.78086C120.664 3.77679 121.404 4.00605 122.16 4.52305ZM120.482 10.873C121.037 10.3946 121.294 9.79577 121.39 8.92088C121.486 8.04599 121.232 7.41614 120.842 6.94184C120.375 6.40145 119.78 6.16049 119.048 6.07509C118.317 5.98969 117.677 6.25811 117.123 6.73648C116.568 7.21485 116.311 7.81369 116.215 8.68858C116.187 9.48569 116.372 10.1933 116.763 10.6676C117.229 11.208 117.825 11.449 118.556 11.5344C119.357 11.542 119.927 11.3514 120.482 10.873Z" fill="#020818"/>
<path d="M133.095 15.1718C132.813 15.3392 132.455 15.4404 132.02 15.4755C131.586 15.5106 131.151 15.5457 130.708 15.4368C129.533 15.2424 128.708 14.8028 128.233 14.118C127.757 13.4332 127.556 12.437 127.857 11.328L128.652 7.35865L127.034 7.05538L127.492 4.84891L129.033 5.08604L129.483 2.73558L132.276 3.23323L131.826 5.58368L134.253 6.03859L133.795 8.24506L131.368 7.79016L130.574 11.7595C130.453 12.2031 130.546 12.5572 130.707 12.8335C130.868 13.1097 131.166 13.2303 131.532 13.2731C131.975 13.3819 132.333 13.2807 132.76 13.1016L133.095 15.1718Z" fill="#020818"/>
<path d="M142.753 11.7092L159.783 18.6042L159.077 20.3298L142.047 13.4347L142.753 11.7092Z" fill="#020818"/>
</svg>
