<svg width="308" height="308" viewBox="0 0 308 308" fill="none" xmlns="http://www.w3.org/2000/svg">
<path d="M266.022 52.2192L256.096 62.2322L253.397 59.5146L254.556 58.4087C253.745 58.4742 252.923 58.3381 252.196 58.0932C251.469 57.8482 250.731 57.4016 250.184 56.7372C248.888 55.4247 248.2 54.0631 248.323 52.636C248.339 51.1163 249.071 49.6401 250.518 48.2073L256.103 42.4926L258.91 45.3028L253.803 50.4727C252.165 52.1234 252.042 53.5505 253.338 54.863C254.087 55.511 254.718 55.865 255.732 55.7831C256.543 55.7176 257.439 55.3416 258.3 54.3611L263.215 49.409L266.022 52.2192Z" fill="white"/>
<path d="M277.019 68.235C276.8 69.7708 275.855 71.0618 274.194 72.3093L267.848 77.1739L265.532 74.021L271.387 69.4996C272.367 68.8131 272.739 68.1759 273.003 67.446C273.065 66.7326 272.923 66.0355 272.472 65.2622C271.819 64.5053 271.081 64.0589 270.258 63.9229C269.436 63.7869 268.541 64.1628 267.465 64.9582L261.897 69.1528L259.581 65.9999L270.813 57.5017L273.118 60.4531L271.851 61.4663C272.566 61.5098 273.4 61.8473 274.031 62.2011C274.662 62.555 275.412 63.203 275.958 63.8673C276.86 65.4138 277.238 66.6991 277.019 68.235Z" fill="white"/>
<path d="M282.539 74.1643L284.563 77.6363L272.577 84.8657L270.552 81.3938L282.539 74.1643ZM284.909 72.963C285.077 72.3435 285.352 71.8163 285.948 71.5663C286.436 71.2238 287.043 71.1748 287.661 71.3268C288.279 71.4789 288.706 71.8483 289.049 72.5275C289.392 73.2067 289.522 73.7011 289.46 74.413C289.292 75.0325 289.017 75.5596 288.422 75.8097C287.933 76.1521 287.231 76.3098 286.613 76.1578C285.995 76.0058 285.568 75.6364 285.129 75.0659C284.881 74.278 284.741 73.5825 284.909 72.963Z" fill="white"/>
<path d="M293.775 95.8444L276.531 104.116L274.802 100.513L280.649 97.7141C279.196 97.2244 278.126 96.2993 277.428 94.7372C276.954 93.5615 276.683 92.3695 276.818 91.1447C276.952 89.9199 277.301 88.8802 278.055 87.8077C278.809 86.7352 279.788 86.0491 281.172 85.3304C282.556 84.6116 283.665 84.4208 284.892 84.524C286.12 84.6272 287.262 85.0407 288.214 85.6719C289.166 86.3032 289.937 87.3536 290.506 88.4204C291.312 90.075 291.403 91.6862 290.672 93.1615L292.163 92.5352L293.775 95.8444ZM282.871 95.6125C283.8 95.8409 284.813 95.7591 285.804 95.2744C286.794 94.7898 287.571 94.1201 287.919 93.0804C288.279 92.242 288.222 91.235 287.867 90.3533C287.405 89.379 286.763 88.8239 285.93 88.4866C285.001 88.2581 283.988 88.34 282.997 88.8246C282.007 89.3093 281.23 89.979 280.882 91.0187C280.522 91.857 280.579 92.8641 280.934 93.7458C281.289 94.6276 282.038 95.2752 282.871 95.6125Z" fill="white"/>
<path d="M300.321 115.638L287.017 119.85L285.894 116.196L287.493 115.662C286.767 115.417 286.124 114.862 285.685 114.29C285.138 113.626 284.795 112.946 284.546 112.156C284.039 110.375 284.162 108.949 284.798 107.582C285.54 106.307 286.807 105.294 288.907 104.619L296.413 102.292L297.546 106.147L290.542 108.332C288.442 109.008 287.592 110.19 288.1 111.97C288.359 112.961 288.799 113.533 289.632 113.87C290.466 114.208 291.384 114.235 292.589 113.935L299.188 111.783L300.321 115.638Z" fill="white"/>
<path d="M295.872 136.982L294.374 126.676C293.575 126.943 293 127.597 292.533 128.343C292.173 129.182 292.016 130.005 292.18 131.105C292.321 131.802 292.558 132.391 292.795 132.979C293.032 133.567 293.46 133.937 294.091 134.291L292.093 136.781C290.402 135.703 289.393 134.063 288.947 131.569C288.76 130.065 288.883 128.638 289.221 127.396C289.654 126.045 290.312 125.081 291.281 124.193C292.249 123.305 293.443 122.804 294.755 122.597C296.068 122.389 297.296 122.493 298.547 122.999C299.69 123.413 300.75 124.137 301.522 125.188C302.294 126.239 302.768 127.416 302.943 128.718C303.119 130.019 303.091 131.338 302.647 132.487C302.202 133.636 301.544 134.601 300.575 135.489C299.607 136.377 298.413 136.878 296.898 137.102C296.982 136.791 296.576 136.824 295.872 136.982ZM298.87 126.921C298.227 126.365 297.501 126.12 296.582 126.093L297.673 132.787C298.473 132.52 299.154 131.959 299.525 131.322C299.993 130.576 300.054 129.862 299.902 128.963C299.856 128.157 299.512 127.476 298.87 126.921Z" fill="white"/>
<path d="M291.42 153.457C292.067 152.291 293.036 151.403 294.015 150.717C295.102 150.123 296.403 149.714 297.727 149.709C299.051 149.703 300.397 150.1 301.35 150.732C302.302 151.364 303.17 152.306 303.751 153.575C304.331 154.844 304.602 156.037 304.586 157.557C304.463 158.984 304.126 160.226 303.479 161.391C302.831 162.557 301.852 163.244 300.753 163.636L299.152 160.526C300.537 159.807 301.089 158.75 301.116 157.432C301.155 156.315 300.907 155.525 300.157 154.877C299.504 154.12 298.574 153.892 297.346 153.788C296.225 153.778 295.223 154.061 294.446 154.731C293.668 155.401 293.308 156.24 293.27 157.357C293.242 158.675 293.812 159.743 295.074 160.45L293.312 163.528C292.264 163.005 291.408 162.265 290.838 161.197C290.269 160.13 290.093 158.828 290.109 157.308C290.542 155.957 290.773 154.623 291.42 153.457Z" fill="white"/>
<path d="M290.436 169.726C291.19 168.653 292.265 167.857 293.459 167.356C294.653 166.855 295.87 166.757 297.205 166.952C298.54 167.148 299.79 167.655 300.647 168.395C301.504 169.136 302.276 170.187 302.654 171.472C303.032 172.758 303.207 174.059 302.881 175.503C302.555 176.946 302.015 178.205 301.261 179.278C300.507 180.351 299.431 181.146 298.333 181.539C297.139 182.04 295.922 182.138 294.587 181.942C293.252 181.746 292.002 181.24 291.145 180.499C290.182 179.666 289.516 178.708 289.138 177.422C288.76 176.137 288.585 174.835 288.911 173.392C289.034 171.965 289.479 170.815 290.436 169.726ZM292.658 176.632C293.312 177.389 294.05 177.836 295.278 177.939C296.411 178.151 297.413 177.868 298.201 177.399C298.99 176.931 299.553 176.075 299.698 175.051C299.844 174.027 299.692 173.129 299.038 172.372C298.384 171.615 297.646 171.168 296.514 170.956C295.382 170.744 294.379 171.027 293.591 171.496C292.707 172.073 292.24 172.819 292.094 173.843C291.852 174.976 292.005 175.875 292.658 176.632Z" fill="white"/>
<path d="M295.061 200.394C293.676 201.113 292.15 201.135 290.185 200.585L282.526 198.371L283.836 194.521L290.875 196.583C291.912 196.904 292.83 196.931 293.522 196.572C294.214 196.212 294.693 195.668 294.946 194.736C295.199 193.805 295.249 192.89 294.798 192.117C294.347 191.344 293.502 190.805 292.466 190.484L285.843 188.591L287.153 184.741L300.399 188.528L299.28 192.16L297.732 191.779C298.075 192.46 298.324 193.249 298.369 194.055C298.414 194.861 298.364 195.776 298.004 196.614C297.189 198.401 296.339 199.582 295.061 200.394Z" fill="white"/>
<path d="M280.231 205.799C281.307 205.004 282.501 204.502 283.718 204.404C285.03 204.197 286.27 204.502 287.521 205.008C288.772 205.515 289.736 206.348 290.508 207.399C291.28 208.45 291.551 209.643 291.62 210.853C291.592 212.171 291.362 213.506 290.726 214.873C290.09 216.241 289.228 217.221 288.249 217.908C287.269 218.594 286.075 219.096 284.846 218.992L284.749 215.457C286.168 215.342 287.244 214.547 287.891 213.381C288.347 212.433 288.397 211.518 288.042 210.635C287.687 209.753 287.033 208.996 285.889 208.582C284.745 208.168 283.72 208.049 282.92 208.316C282.024 208.692 281.343 209.253 280.887 210.201C280.347 211.459 280.415 212.669 281.295 213.812L278.462 215.965C277.701 215.115 277.227 213.938 277.159 212.729C277.091 211.52 277.321 210.185 277.957 208.818C278.306 207.777 279.156 206.595 280.231 205.799Z" fill="white"/>
<path d="M271.262 232.377L276.868 223.421C276.034 223.083 275.223 223.149 274.327 223.525C273.527 223.792 272.858 224.555 272.295 225.41C271.923 226.047 271.647 226.576 271.479 227.197C271.31 227.818 271.344 228.422 271.485 229.119L268.359 229.675C267.744 227.802 268.239 225.737 269.545 223.607C270.383 222.224 271.448 221.227 272.63 220.524C273.813 219.821 275.018 219.521 276.235 219.423C277.558 219.417 278.702 219.831 279.857 220.447C281.012 221.062 281.88 222.004 282.354 223.181C282.923 224.248 283.194 225.441 283.167 226.759C283.139 228.077 282.695 229.227 281.952 230.501C281.305 231.667 280.336 232.555 279.25 233.149C278.163 233.743 276.957 234.043 275.741 234.141C274.417 234.146 273.273 233.733 272.011 233.025C272.107 232.916 271.786 232.638 271.262 232.377ZM280.103 226.602C280.057 225.795 279.51 225.131 278.868 224.575L275.226 230.437C276.06 230.775 276.776 230.818 277.575 230.551C278.375 230.284 278.961 229.832 279.524 228.976C280.086 228.121 280.244 227.299 280.103 226.602Z" fill="white"/>
<path d="M266.55 249.775C265.451 250.168 264.233 250.266 263.004 250.163C261.87 249.951 260.618 249.444 259.546 248.517C258.474 247.59 257.701 246.538 257.334 245.453C256.967 244.368 256.792 243.065 257.034 241.931C257.276 240.796 257.721 239.646 258.583 238.664C259.733 237.355 261.012 236.543 262.541 236.521L257.621 232.459L260.197 229.313L274.633 241.218L272.153 244.256L270.974 243.237C271.268 244.834 270.739 246.296 269.493 247.714C268.631 248.695 267.65 249.382 266.55 249.775ZM260.756 242.846C260.909 243.746 261.371 244.722 262.325 245.354C263.182 246.095 264.22 246.417 265.032 246.351C266.047 246.269 266.836 245.8 267.507 245.037C268.178 244.273 268.431 243.341 268.374 242.332C268.221 241.432 267.758 240.456 266.805 239.824C265.948 239.083 264.91 238.761 264.098 238.827C263.286 238.892 262.294 239.378 261.623 240.141C260.952 240.905 260.603 241.946 260.756 242.846Z" fill="white"/>
<path d="M245.264 253.647C245.337 253.134 245.518 252.714 245.89 252.075C246.166 251.545 246.55 251.109 247.137 250.655C248.3 249.547 249.592 248.935 250.812 248.837C252.031 248.738 253.189 249.355 254.381 250.578L258.29 254.726L259.836 253.181L262.005 255.441L260.459 256.986L262.735 259.339L259.728 262.118L257.451 259.766L254.934 262.201L252.765 259.941L255.282 257.506L251.48 253.45C251.051 253.079 250.729 252.8 250.215 252.74C249.809 252.773 249.306 252.915 248.923 253.352C248.539 253.789 248.155 254.226 248.093 254.941L245.264 253.647Z" fill="white"/>
<path d="M241.474 267.353L219.306 281.053L217.968 278.941L240.137 265.241L241.474 267.353Z" fill="white"/>
<path d="M194.834 295.678L190.73 282.539L194.433 281.328L194.93 282.909C195.194 282.178 195.769 281.524 196.355 281.072C197.037 280.51 197.73 280.15 198.53 279.883C200.333 279.332 201.861 279.31 203.123 280.018C204.482 280.618 205.373 281.964 206.096 283.931L208.449 291.337L204.651 292.657L202.534 285.839C201.908 283.763 200.645 283.055 198.842 283.605C197.946 283.982 197.264 284.543 196.892 285.181C196.532 286.02 196.482 286.936 196.956 288.113L198.954 294.637L194.834 295.678Z" fill="white"/>
<path d="M175.351 298.428C174.184 297.611 173.389 296.155 173.072 294.155L171.817 286.357L175.853 285.625L177.073 292.819C177.237 293.92 177.582 294.601 178.224 295.157C178.76 295.62 179.583 295.756 180.49 295.582C181.494 295.298 182.187 294.938 182.761 294.284C183.229 293.538 183.375 292.513 183.211 291.412L182.12 284.714L186.155 283.983L188.348 297.581L184.516 298.295L184.222 296.698C183.851 297.336 183.169 297.898 182.487 298.459C181.698 298.928 180.898 299.195 179.991 299.37C178.057 299.425 176.614 299.136 175.351 298.428Z" fill="white"/>
<path d="M167.561 300.354L163.504 300.682L162.625 286.882L166.681 286.555L167.561 300.354ZM167.505 302.991C167.934 303.362 168.266 303.841 168.301 304.446C168.335 305.05 168.166 305.671 167.676 306.015C167.293 306.451 166.696 306.701 165.885 306.767C165.073 306.832 164.454 306.68 164.025 306.31C163.597 305.939 163.264 305.46 163.23 304.855C163.196 304.25 163.365 303.629 163.843 303.084C164.226 302.649 164.919 302.289 165.635 302.332C166.35 302.376 167.077 302.621 167.505 302.991Z" fill="white"/>
<path d="M142.899 300.798L143.775 281.986L147.857 282.061L147.505 288.472C148.462 287.382 150.063 286.847 151.698 286.918C153.023 286.912 154.167 287.326 155.216 287.849C156.169 288.481 157.026 289.222 157.501 290.4C158.07 291.468 158.246 292.771 158.218 294.09C158.095 295.518 157.757 296.761 157.205 297.819C156.558 298.986 155.684 299.765 154.596 300.36C153.509 300.954 152.302 301.254 151.073 301.151C149.236 301.097 147.769 300.405 146.889 299.26L146.778 300.89L142.899 300.798ZM148.273 291.246C147.495 291.917 147.242 292.849 147.107 294.076C147.068 295.193 147.328 296.185 147.982 296.943C148.636 297.701 149.471 298.038 150.39 298.066C151.512 298.076 152.312 297.809 152.982 297.046C153.76 296.375 154.013 295.443 154.148 294.216C154.187 293.099 153.927 292.107 153.273 291.349C152.619 290.591 151.784 290.254 150.769 290.336C149.839 290.107 148.943 290.483 148.273 291.246Z" fill="white"/>
<path d="M122.249 297.77L124.841 284.091L128.646 284.695L128.331 286.341C129.013 285.779 129.706 285.419 130.41 285.261C131.115 285.103 131.926 285.037 132.856 285.266C134.705 285.522 135.968 286.23 136.859 287.576C137.739 288.72 137.937 290.426 137.538 292.383L136.036 300.1L132.125 299.403L133.457 292.307C133.845 290.149 133.157 288.787 131.308 288.531C130.378 288.302 129.578 288.569 128.896 289.131C128.214 289.692 127.747 290.439 127.516 291.774L126.268 298.56L122.249 297.77Z" fill="white"/>
<path d="M105.257 284.321L115.209 287.365C115.259 286.449 115.118 285.752 114.571 285.087C114.024 284.423 113.286 283.976 112.344 283.546C111.618 283.301 111.105 283.241 110.496 283.29C109.888 283.339 109.291 283.59 108.694 283.841L107.413 281.008C109.086 279.961 111.114 279.798 113.605 280.609C115.059 281.099 116.321 281.807 117.285 282.641C118.249 283.474 118.926 284.635 119.101 285.937C119.372 287.13 119.345 288.448 118.805 289.707C118.371 291.058 117.713 292.023 116.744 292.911C115.775 293.799 114.688 294.393 113.375 294.6C112.063 294.808 110.834 294.704 109.488 294.307C108.141 293.909 107.188 293.277 106.224 292.444C105.356 291.501 104.787 290.434 104.516 289.241C104.245 288.047 104.368 286.62 104.801 285.269C104.801 285.269 104.992 285.051 105.257 284.321ZM112.788 291.408C113.588 291.141 114.162 290.487 114.522 289.648L107.991 287.644C107.834 288.466 107.986 289.365 108.426 289.937C108.77 290.618 109.509 291.065 110.343 291.403C111.177 291.74 111.988 291.675 112.788 291.408Z" fill="white"/>
<path d="M92.6088 272.899C93.3811 273.95 93.6521 275.143 93.8274 276.445C94.0027 277.747 93.5582 278.896 92.8152 280.171C92.168 281.337 91.3066 282.318 90.1239 283.02C89.0369 283.614 87.8315 283.914 86.5076 283.92C85.1838 283.925 83.8372 283.528 82.5749 282.82C81.3127 282.112 80.3489 281.279 79.7794 280.211C79.2099 279.144 78.8432 278.06 78.9777 276.834L82.5437 276.85C82.5276 278.37 83.1928 279.328 84.348 279.944C85.289 280.374 86.2187 280.602 87.1142 280.226C88.1168 279.943 88.8939 279.273 89.4454 278.216C89.997 277.159 90.25 276.228 89.9904 275.236C89.7307 274.245 89.184 273.58 88.243 273.15C87.0878 272.535 85.7639 272.541 84.5926 273.445L82.6926 270.46C83.6725 269.774 84.7708 269.381 85.9876 269.283C87.3115 269.277 88.551 269.582 89.8133 270.29C90.7656 270.922 91.8365 271.848 92.6088 272.899Z" fill="white"/>
<path d="M78.5075 264.506C78.9814 265.682 79.2525 266.876 79.1179 268.102C78.9833 269.328 78.443 270.586 77.6884 271.66C76.8382 272.843 75.858 273.529 74.6637 274.031C73.4693 274.532 72.2523 274.63 71.0238 274.527C69.7953 274.424 68.437 273.825 67.2702 273.008C66.1034 272.19 65.2351 271.248 64.6541 269.978C64.1802 268.802 63.9091 267.608 64.0437 266.382C64.1783 265.156 64.6229 264.006 65.4732 262.824C66.3234 261.641 67.3036 260.955 68.4979 260.453C69.6922 259.952 70.9093 259.854 72.1378 259.957C73.4734 260.153 74.7246 260.659 75.8914 261.476C77.1653 262.386 77.9378 263.438 78.5075 264.506ZM71.2211 263.575C70.314 263.75 69.4296 264.327 68.7708 265.292C68.112 266.256 67.8589 267.188 67.9158 268.196C68.0684 269.095 68.5196 269.869 69.2693 270.517C70.1148 271.056 71.0447 271.285 71.9518 271.111C72.859 270.936 73.7433 270.358 74.4021 269.394C75.0609 268.429 75.314 267.497 75.2572 266.489C75.1046 265.59 74.6534 264.817 73.9036 264.168C73.1539 263.52 72.2354 263.493 71.2211 263.575Z" fill="white"/>
<path d="M48.8423 255.145C48.8585 253.625 49.4943 252.258 51.0371 250.716L56.6226 245.001L59.5251 247.702L54.3225 252.982C53.5568 253.853 53.1854 254.491 53.1237 255.204C53.0621 255.918 53.4061 256.599 54.0486 257.154C54.7982 257.802 55.6321 258.14 56.4433 258.075C57.2545 258.009 58.2457 257.524 59.0114 256.652L63.8198 251.607L66.7223 254.309L56.9028 264.415L54.1073 261.806L55.2672 260.7C54.456 260.766 53.6335 260.63 52.9067 260.385C52.0727 260.047 51.3345 259.601 50.7878 258.936C49.5142 258.027 48.8262 256.665 48.8423 255.145Z" fill="white"/>
<path d="M50.8989 239.49C51.0742 240.792 51.0467 242.11 50.6022 243.259C50.1577 244.409 49.4034 245.482 48.2321 246.387C47.1565 247.182 45.9624 247.683 44.6499 247.891C43.3374 248.098 42.205 247.885 40.9541 247.379C39.7032 246.873 38.7395 246.039 37.753 244.803C36.8736 243.659 36.3998 242.483 36.1288 241.29C35.8578 240.097 36.1952 238.855 36.7467 237.798L40.0824 239.148C39.4465 240.516 39.7175 241.709 40.4898 242.76C41.1437 243.517 41.989 244.056 42.9073 244.083C43.8255 244.11 44.8282 243.827 45.808 243.14C46.7879 242.454 47.2438 241.506 47.4968 240.574C47.6428 239.55 47.3945 238.76 46.6335 237.911C45.8612 236.86 44.7174 236.446 43.2021 236.669L42.699 233.167C43.9044 232.867 45.0254 232.878 46.2763 233.384C47.4201 233.798 48.3839 234.631 49.2633 235.775C50.1427 236.919 50.7236 238.188 50.8989 239.49Z" fill="white"/>
<path d="M31.4454 219.827L36.8355 228.706C37.5169 228.144 37.877 227.305 37.8315 226.499C37.8818 225.584 37.6335 224.794 37.1711 223.819C36.8271 223.138 36.3987 222.768 35.9704 222.398C35.5421 222.027 35.018 221.766 34.2912 221.521L35.2417 218.508C37.1967 218.857 38.7916 220.044 40.1334 222.163C40.9171 223.415 41.4023 224.794 41.4819 226.204C41.5614 227.615 41.3198 228.748 40.6725 229.914C40.0253 231.08 39.2595 231.952 37.9812 232.764C36.7985 233.467 35.5931 233.766 34.3763 233.865C33.0524 233.87 31.92 233.658 30.8605 232.934C29.7054 232.318 28.8373 231.376 28.1607 230.216C27.4841 229.056 27.0103 227.879 27.0378 226.561C26.9696 225.352 27.307 224.109 27.8585 223.053C28.5058 221.887 29.4743 220.999 30.657 220.296C30.4542 220.312 30.7527 220.187 31.4454 219.827ZM32.3351 230.183C33.0619 230.428 33.8731 230.362 34.7687 229.986L31.3857 224.185C30.7043 224.746 30.2371 225.493 30.1755 226.206C30.0182 227.029 30.1594 227.726 30.6104 228.5C30.9658 229.382 31.6083 229.938 32.3351 230.183Z" fill="white"/>
<path d="M17.8081 207.908C17.9427 206.682 18.3873 205.533 19.1532 204.661C19.9078 203.587 20.8879 202.9 22.2851 202.383C23.5751 201.772 24.8879 201.565 26.1164 201.668C27.3448 201.771 28.4888 202.185 29.3457 202.926C30.2982 203.558 31.0707 204.609 31.5446 205.786C32.244 207.35 32.2278 208.87 31.5917 210.238L37.6591 207.621L39.1878 211.244L21.6899 218.936L20.2683 215.405L21.7612 214.778C20.2115 214.397 19.1291 213.27 18.4183 211.504C17.8373 210.235 17.6734 209.134 17.8081 207.908ZM26.8564 205.76C26.0223 205.422 25.0081 205.504 23.8138 206.006C22.7152 206.398 22.045 207.161 21.589 208.109C21.2288 208.948 21.1785 209.864 21.641 210.839C21.9965 211.722 22.7462 212.37 23.5803 212.707C24.4144 213.045 25.4286 212.963 26.6229 212.462C27.7215 212.069 28.3917 211.306 28.8477 210.358C29.2079 209.519 29.2582 208.604 28.7957 207.628C28.3331 206.653 27.6905 206.097 26.8564 205.76Z" fill="white"/>
<path d="M24.3413 187.178C24.662 187.456 25.0896 187.826 25.3261 188.413C25.6581 188.891 25.8946 189.479 26.0356 190.175C26.5312 191.752 26.5037 193.068 25.8575 194.232C25.3068 195.288 24.233 196.082 22.6361 196.615L17.1423 198.373L17.7675 200.445L14.7647 201.294L14.1394 199.222L10.8386 200.196L9.70639 196.346L13.0072 195.372L12.1115 192.108L15.1143 191.259L16.01 194.523L21.4083 192.874C21.9088 192.732 22.3979 192.389 22.5776 191.97C22.7574 191.552 22.9372 191.133 22.7007 190.545C22.4642 189.958 22.1322 189.48 21.7046 189.11L24.3413 187.178Z" fill="white"/>
<path d="M13.7081 177.767L12.0622 152.184L14.496 151.988L16.1419 177.571L13.7081 177.767Z" fill="white"/>
<path d="M10.1906 123.792L23.8475 125.826L23.1453 129.627L21.5009 129.356C22.0474 130.02 22.3913 130.7 22.5324 131.397C22.7805 132.187 22.8259 132.993 22.6686 133.815C22.3654 135.661 21.6227 136.936 20.4518 137.84C19.2809 138.744 17.6705 139.076 15.5136 138.745L7.81503 137.646L8.50581 133.644L15.6919 134.682C17.8488 135.014 19.1267 134.202 19.43 132.356C19.5759 131.333 19.4348 130.636 18.8882 129.971C18.3417 129.307 17.5081 128.97 16.269 128.665L9.48844 127.594L10.1906 123.792Z" fill="white"/>
<path d="M16.8513 105.378C18.2362 104.659 19.7622 104.637 21.7277 105.187L29.387 107.401L28.0768 111.251L21.037 109.189C20.0007 108.868 19.0829 108.841 18.3904 109.2C17.698 109.56 17.2196 110.105 16.9666 111.036C16.7137 111.967 16.6634 112.882 17.1143 113.655C17.5651 114.428 18.41 114.967 19.4463 115.288L25.9736 117.291L24.6634 121.141L11.5131 117.244L12.7276 113.503L14.2763 113.884C13.9325 113.204 13.6844 112.414 13.6389 111.608C13.5935 110.802 13.6438 109.887 14.0038 109.049C14.6167 107.279 15.4664 106.097 16.8513 105.378Z" fill="white"/>
<path d="M16.1942 96.3252C15.5957 96.5766 14.9857 96.6258 14.4603 96.3638C13.9349 96.1017 13.5055 95.7303 13.268 95.1405C13.0304 94.5507 13.0922 93.8352 13.4647 93.1961C13.7297 92.4642 14.1136 92.0272 14.7122 91.7759C15.3107 91.5245 15.9207 91.4753 16.4461 91.7373C16.9715 91.9994 17.5083 92.4636 17.7458 93.0534C17.9833 93.6432 17.9216 94.3587 17.5491 94.9978C17.1767 95.6369 16.7928 96.0739 16.1942 96.3252ZM18.4032 97.4664L20.0279 93.6811L32.7839 98.9442L31.1592 102.729L18.4032 97.4664Z" fill="white"/>
<path d="M29.8129 75.4644L46.2181 84.47L44.2753 87.9692L38.6998 84.8747C39.1851 86.2534 38.966 87.7904 38.0311 89.2838C37.3835 90.4502 36.6174 91.3223 35.53 91.9166C34.5496 92.6035 33.3436 92.9035 32.0191 92.9092C30.6947 92.9149 29.4546 92.6099 28.2989 91.9943C27.0361 91.286 26.0719 90.4524 25.5022 89.3843C24.9324 88.3162 24.5656 87.2318 24.4974 86.0219C24.4292 84.8121 24.8739 83.6621 25.5215 82.4956C26.445 80.8006 27.7126 79.7866 29.2286 79.5629L27.8587 78.762L29.8129 75.4644ZM35.8252 84.4992C35.5654 83.5074 34.9113 82.75 33.8627 82.227C32.8142 81.704 31.8841 81.4753 30.881 81.7589C29.878 82.0425 29.1962 82.6039 28.633 83.4597C28.0698 84.3154 28.0195 85.231 28.2793 86.2228C28.539 87.2147 29.1931 87.9721 30.2417 88.4951C31.2902 89.0181 32.2203 89.2468 33.2234 88.9632C34.2265 88.6796 34.9082 88.1181 35.3643 87.1698C35.9275 86.314 35.9778 85.3984 35.8252 84.4992Z" fill="white"/>
<path d="M42.1719 58.5448L53.1319 66.8711L50.762 69.9979L49.4886 69.0885C49.6297 69.7856 49.5795 70.7007 49.3151 71.4306C49.0508 72.1605 48.7864 72.8904 48.2122 73.5441C47.0751 75.053 45.7969 75.8648 44.2818 76.0883C42.7667 76.3119 41.3131 75.8219 39.6114 74.5422L33.3397 69.8863L35.8053 66.6505L41.4459 70.9525C43.2547 72.3248 44.6741 72.2102 45.8112 70.7013C46.4811 69.9386 46.6384 69.1162 46.4858 68.2175C46.3333 67.3188 45.7866 66.6544 44.823 65.8212L39.3965 61.7043L42.1719 58.5448Z" fill="white"/>
<path d="M62.0219 49.4453L54.4998 56.9364C55.238 57.3829 56.0605 57.519 56.8716 57.4535C57.7785 57.279 58.5669 56.8104 59.2368 56.0477C59.7154 55.5029 60.1939 54.9581 60.4697 54.4297C60.7454 53.9013 60.9141 53.2803 60.88 52.6757L64.0402 52.7242C64.1539 54.7396 63.338 56.5264 61.5082 58.3951C60.3483 59.5011 59.1657 60.2039 57.9717 60.7053C56.6707 61.114 55.4539 61.2122 54.2145 60.9074C52.9751 60.6026 51.82 59.9872 50.952 59.045C50.084 58.1028 49.3117 57.0516 49.0407 55.8587C48.7697 54.6658 48.7972 53.3476 49.1346 52.1056C49.472 50.8636 50.2263 49.7904 51.1834 48.7008C52.0561 47.9217 53.1316 47.1263 54.337 46.8265C55.5423 46.5267 56.759 46.4285 57.9985 46.7333C59.2379 47.0381 60.2973 47.7624 61.3681 48.6883C61.3681 48.6883 61.4865 48.9824 62.0219 49.4453ZM52.0418 53.0856C51.8845 53.9082 52.1327 54.698 52.6795 55.3624L57.5947 50.4102C56.8566 49.9636 56.1298 49.7186 55.3186 49.7841C54.5075 49.8496 53.8148 50.2092 53.1335 50.7704C52.5706 51.6257 52.1991 52.2631 52.0418 53.0856Z" fill="white"/>
<path d="M77.9323 43.3603C76.6198 43.5675 75.2846 43.3716 74.2366 42.8488C73.1885 42.3261 72.1291 41.6017 71.3454 40.349C70.5731 39.2978 70.195 38.0123 70.1268 36.803C70.0586 35.5937 70.396 34.3516 71.0432 33.1858C71.6905 32.02 72.6476 30.9304 73.9259 30.1185C75.2043 29.3067 76.3983 28.8053 77.6151 28.7071C78.8318 28.6089 79.9643 28.8211 81.0237 29.5454L79.3691 32.716C78.0111 32.117 76.8901 32.1063 75.7188 33.0108C74.8347 33.5883 74.2718 34.4436 74.1144 35.2662C73.8614 36.1977 74.121 37.1891 74.7863 38.1477C75.4515 39.1063 76.2968 39.6455 77.2264 39.8741C78.156 40.1028 79.1586 39.8194 80.0427 39.2418C81.1183 38.4463 81.6699 37.3895 81.5903 35.9786L85.1335 35.5913C85.4045 36.7842 85.1628 37.9173 84.5156 39.0831C83.964 40.14 83.0069 41.2296 81.7285 42.0414C80.5459 42.7443 79.2448 43.1531 77.9323 43.3603Z" fill="white"/>
<path d="M91.8428 34.655C90.5192 34.6606 89.28 34.3558 88.2208 33.6317C87.1615 32.9075 86.2937 31.9654 85.7243 30.8981C85.1436 29.6292 84.8726 28.4365 85.0072 27.2111C85.1417 25.9857 85.5861 24.8365 86.3403 23.7635C87.0944 22.6905 88.1698 21.8951 89.4479 21.0835C90.726 20.2718 92.0382 20.0646 93.3618 20.059C94.6853 20.0533 95.8289 20.467 96.9838 21.0823C98.043 21.8064 98.9109 22.7485 99.4803 23.8158C100.061 25.0847 100.332 26.2774 100.197 27.5028C100.063 28.7282 99.6185 29.8774 98.8643 30.9504C98.1101 32.0235 97.0348 32.8188 95.7567 33.6305C94.5743 34.3332 93.1664 34.6493 91.8428 34.655ZM96.1878 28.6362C96.4408 27.7049 96.384 26.6974 95.9217 25.7226C95.3523 24.6552 94.7099 24.0998 93.7691 23.6697C92.9354 23.3322 91.9216 23.414 91.0376 23.9915C90.0466 24.4763 89.4725 25.13 89.2195 26.0613C88.9665 26.9926 89.0233 28.0002 89.4857 28.975C90.0551 30.0423 90.6974 30.5977 91.6382 31.0278C92.472 31.3654 93.4857 31.2835 94.3697 30.7061C95.2536 30.1286 95.9349 29.5676 96.1878 28.6362Z" fill="white"/>
<path d="M114.287 12.6263C115.646 13.2255 116.633 14.4624 117.152 16.446L119.613 23.9442L115.815 25.2638L113.591 18.354C113.224 17.2696 112.785 16.6975 112.153 16.3434C111.522 15.9893 110.806 15.9458 109.91 16.322C108.907 16.6056 108.225 17.1671 107.865 18.0064C107.505 18.8457 107.455 19.7612 107.928 20.9383L110.022 27.3521L106.224 28.6717L101.918 15.5497L105.513 14.2466L106.01 15.8269C106.274 15.0966 106.849 14.4425 107.531 13.881C108.212 13.3196 109.001 12.8508 109.801 12.5836C111.497 11.9402 112.929 12.0271 114.287 12.6263Z" fill="white"/>
<path d="M127.161 21.4578C125.922 21.1529 124.862 20.4286 123.994 19.4863C123.126 18.544 122.556 17.4763 122.274 16.0818C121.992 14.6873 122.126 13.4615 122.571 12.312C123.015 11.1625 123.77 10.0892 124.845 9.29367C125.921 8.49815 127.211 7.88781 128.619 7.57163C130.027 7.25544 131.351 7.24979 132.495 7.66362C133.639 8.07746 134.591 8.70923 135.363 9.76049L132.638 12.0053C131.663 10.9704 130.519 10.5566 129.206 10.7638C128.204 11.0473 127.415 11.5159 126.852 12.3712C126.289 13.2266 126.143 14.2508 126.307 15.3512C126.471 16.4516 127.029 17.3176 127.875 17.8568C128.72 18.396 129.543 18.532 130.652 18.3412C132.061 18.025 132.933 17.2459 133.367 15.8948L136.787 16.9347C136.545 18.0679 135.791 19.1412 134.918 19.9203C133.949 20.8084 132.755 21.3098 131.347 21.626C129.736 21.9586 128.412 21.9642 127.161 21.4578Z" fill="white"/>
<path d="M153.968 12.9461L143.422 13.7977C143.67 14.5876 144.217 15.2521 144.955 15.6987C145.694 16.1453 146.516 16.2814 147.637 16.2921C148.449 16.2266 148.95 16.0849 149.547 15.8342C150.144 15.5835 150.634 15.2402 151.113 14.6953L153.373 16.8414C152.14 18.4596 150.253 19.3207 147.819 19.5172C146.197 19.6482 144.861 19.4523 143.61 18.9458C142.359 18.4394 141.396 17.606 140.73 16.6473C139.958 15.596 139.687 14.403 139.511 13.101C139.432 11.69 139.674 10.5568 140.321 9.39089C140.968 8.22495 141.734 7.35318 142.81 6.55763C143.993 5.85467 145.091 5.46225 146.511 5.34762C147.93 5.23299 149.063 5.44528 150.314 5.95172C151.458 6.36558 152.422 7.19894 152.991 8.26662C153.657 9.22533 154.035 10.5109 154.114 11.9219C153.912 11.9383 153.934 12.3414 153.968 12.9461ZM144.186 9.28132C143.504 9.84255 143.24 10.5726 143.19 11.4878L150.085 10.9311C149.933 10.0322 149.493 9.46025 148.851 8.90467C148.208 8.3491 147.385 8.21303 146.574 8.27854C145.56 8.36041 144.867 8.72008 144.186 9.28132Z" fill="white"/>
<path d="M171.022 6.33228C171.973 6.96356 172.841 7.90514 173.303 8.87947C173.765 9.85379 174.047 11.2473 173.924 12.6736C173.8 14.0998 173.463 15.341 172.709 16.4136C171.956 17.4861 171.083 18.2647 170.093 18.7494C169.007 19.343 167.791 19.4412 166.468 19.4469C164.728 19.2839 163.371 18.6854 162.493 17.5424L161.938 23.9606L157.958 23.7762L159.441 4.94095L163.219 5.14163L163.107 6.7693C164.159 5.5715 165.662 5.1466 167.604 5.29321C168.927 5.28751 169.963 5.60848 171.022 6.33228ZM168.673 15.2222C169.449 14.5525 169.809 13.7141 169.944 12.4892C170.078 11.2644 169.723 10.3826 169.177 9.71858C168.523 8.96204 167.69 8.6247 166.665 8.50514C165.641 8.38557 164.746 8.76136 163.969 9.43108C163.193 10.1008 162.833 10.9392 162.698 12.164C162.66 13.28 162.919 14.2707 163.465 14.9347C164.119 15.6912 164.952 16.0286 165.977 16.1481C167.097 16.1588 167.896 15.8919 168.673 15.2222Z" fill="white"/>
<path d="M186.332 21.2406C185.937 21.4749 185.436 21.6166 184.828 21.6658C184.219 21.7149 183.611 21.764 182.991 21.6116C181.346 21.3395 180.19 20.724 179.525 19.7653C178.86 18.8066 178.577 17.412 178.999 15.8592L180.112 10.3022L177.847 9.87761L178.487 6.78855L180.645 7.12053L181.275 3.82989L185.185 4.5266L184.556 7.81724L187.953 8.4541L187.313 11.5432L183.915 10.9063L182.802 16.4633C182.634 17.0844 182.763 17.5802 182.989 17.9669C183.215 18.3537 183.632 18.5225 184.144 18.5824C184.764 18.7348 185.266 18.5931 185.863 18.3424L186.332 21.2406Z" fill="white"/>
<path d="M199.855 16.393L223.697 26.046L222.71 28.4618L198.867 18.8087L199.855 16.393Z" fill="white"/>
</svg>
