<svg width="20" height="20" viewBox="0 0 20 20" fill="none" xmlns="http://www.w3.org/2000/svg">
<path d="M17.5014 15.8347L13.2064 11.5397C14.0004 10.333 14.3185 8.87455 14.0989 7.44678C13.8794 6.01901 13.1379 4.72349 12.018 3.81104C10.8981 2.89859 9.47948 2.43411 8.0368 2.50755C6.59412 2.58098 5.23 3.1871 4.20855 4.20855C3.1871 5.23 2.58098 6.59412 2.50755 8.0368C2.43411 9.47948 2.89859 10.8981 3.81104 12.018C4.72349 13.1379 6.01901 13.8794 7.44678 14.0989C8.87455 14.3185 10.333 14.0004 11.5397 13.2064L15.8347 17.5014L17.5014 15.8347ZM4.16807 8.33474C4.16807 6.03724 6.03724 4.16807 8.33474 4.16807C10.6322 4.16807 12.5014 6.03724 12.5014 8.33474C12.5014 10.6322 10.6322 12.5014 8.33474 12.5014C6.03724 12.5014 4.16807 10.6322 4.16807 8.33474Z" fill="black"/>
</svg>
