<svg width="128" height="40" viewBox="0 0 128 40" fill="none" xmlns="http://www.w3.org/2000/svg">
<rect width="128" height="40" fill="#020818"/>
<path d="M27 20.2919C27 17.2675 29.6 15.8041 29.7 15.7065C28.2 13.6577 26 13.365 25.2 13.2675C23.3 13.0724 21.4 14.3406 20.5 14.3406C19.5 14.3406 18 13.2675 16.4 13.2675C14.3 13.2675 12.4 14.4382 11.3 16.2919C9.10001 19.9992 10.7 25.4626 12.8 28.487C13.9 29.9504 15.1 31.6089 16.7 31.5114C18.3 31.4138 18.9 30.5358 20.8 30.5358C22.7 30.5358 23.2 31.5114 24.9 31.5114C26.6 31.5114 27.7 30.048 28.7 28.5845C29.9 26.926 30.4 25.2675 30.4 25.1699C30.3 25.0724 27 23.9016 27 20.2919Z" fill="white"/>
<path d="M23.9001 11.3165C24.7001 10.2433 25.3001 8.87748 25.2001 7.41406C24.0001 7.51162 22.4001 8.19455 21.6001 9.26772C20.8001 10.1458 20.1001 11.6092 20.3001 12.975C21.6001 13.0726 23.0001 12.2921 23.9001 11.3165Z" fill="white"/>
<path d="M49.8 31.3163H47.6L46.4 27.609H42.2L41.1 31.3163H39L43.2 18.731H45.8L49.8 31.3163ZM46 26.048L44.9 22.731C44.8 22.4383 44.6 21.5602 44.2 20.3895C44.1 20.8773 43.9 21.7553 43.6 22.731L42.5 26.048H46Z" fill="white"/>
<path d="M60.5 26.7309C60.5 28.2918 60.1 29.4626 59.2 30.4382C58.4 31.2187 57.5 31.6089 56.3 31.6089C55.1 31.6089 54.2 31.2187 53.7 30.3406V35.1211H51.6V25.365C51.6 24.3894 51.6 23.4138 51.5 22.3406H53.3L53.4 23.804C54.1 22.7309 55.1 22.1455 56.5 22.1455C57.6 22.1455 58.5 22.5358 59.2 23.4138C60.1 24.1943 60.5 25.2675 60.5 26.7309ZM58.4 26.7309C58.4 25.8528 58.2 25.0723 57.8 24.5845C57.4 23.9992 56.8 23.7065 56 23.7065C55.5 23.7065 55 23.9016 54.6 24.1943C54.2 24.487 53.9 24.9748 53.8 25.4626C53.7 25.7553 53.7 25.9504 53.7 26.0479V27.6089C53.7 28.2918 53.9 28.7797 54.3 29.2675C54.7 29.7553 55.3 29.9504 55.9 29.9504C56.7 29.9504 57.3 29.6577 57.7 29.0723C58.2 28.487 58.4 27.7065 58.4 26.7309Z" fill="white"/>
<path d="M71.2002 26.7309C71.2002 28.2918 70.8002 29.4626 69.9002 30.4382C69.1002 31.2187 68.2002 31.6089 67.0002 31.6089C65.8002 31.6089 64.9002 31.2187 64.4002 30.3406V35.1211H62.3002V25.365C62.3002 24.3894 62.3002 23.4138 62.2002 22.3406H64.0002L64.1002 23.804C64.8002 22.7309 65.8002 22.1455 67.2002 22.1455C68.3002 22.1455 69.2002 22.5358 69.9002 23.4138C70.8002 24.1943 71.2002 25.2675 71.2002 26.7309ZM69.1002 26.7309C69.1002 25.8528 68.9002 25.0723 68.5002 24.5845C68.1002 23.9992 67.5002 23.7065 66.7002 23.7065C66.2002 23.7065 65.7002 23.9016 65.3002 24.1943C64.9002 24.487 64.6002 24.9748 64.5002 25.4626C64.4002 25.7553 64.4002 25.9504 64.4002 26.0479V27.6089C64.4002 28.2918 64.6002 28.7797 65.0002 29.2675C65.4002 29.7553 66.0002 29.9504 66.6002 29.9504C67.4002 29.9504 68.0002 29.6577 68.4002 29.0723C68.9002 28.487 69.1002 27.7065 69.1002 26.7309Z" fill="white"/>
<path d="M83.1998 27.8045C83.1998 28.8777 82.7998 29.7557 82.0998 30.4387C81.2998 31.2192 80.0998 31.5118 78.5998 31.5118C77.1998 31.5118 76.0998 31.2192 75.2998 30.7314L75.7998 29.0728C76.6998 29.5606 77.6998 29.8533 78.7998 29.8533C79.5998 29.8533 80.1998 29.6582 80.5998 29.3655C80.9998 28.9753 81.1998 28.585 81.1998 27.9996C81.1998 27.5118 80.9998 27.024 80.6998 26.7314C80.2998 26.3411 79.6998 26.0484 78.8998 25.7557C76.5998 24.9753 75.4998 23.707 75.4998 22.146C75.4998 21.0728 75.8998 20.2923 76.6998 19.6094C77.4998 18.9265 78.4998 18.6338 79.8998 18.6338C81.0998 18.6338 81.9998 18.8289 82.7998 19.2192L82.2998 20.8777C81.5998 20.4875 80.7998 20.2923 79.7998 20.2923C79.0998 20.2923 78.4998 20.4874 78.0998 20.7801C77.7998 21.0728 77.5998 21.4631 77.5998 21.9509C77.5998 22.4387 77.7998 22.8289 78.1998 23.2192C78.4998 23.5118 79.1998 23.8045 80.0998 24.1948C81.1998 24.585 81.9998 25.1704 82.5998 25.7557C82.8998 26.2435 83.1998 26.9265 83.1998 27.8045Z" fill="white"/>
<path d="M89.9998 23.8049H87.6998V28.1951C87.6998 29.2683 88.0998 29.8537 88.8998 29.8537C89.2998 29.8537 89.5998 29.8537 89.7998 29.7561L89.8998 31.3171C89.4998 31.5122 88.9998 31.5122 88.2998 31.5122C87.4998 31.5122 86.7998 31.3171 86.3998 30.8293C85.8998 30.3415 85.6998 29.561 85.6998 28.3902V23.8049H84.2998V22.2439H85.6998V20.5854L87.6998 20V22.2439H89.9998V23.8049Z" fill="white"/>
<path d="M100.3 26.7313C100.3 28.0971 99.9002 29.2679 99.1002 30.1459C98.2002 31.024 97.1002 31.5118 95.7002 31.5118C94.3002 31.5118 93.2002 31.024 92.4002 30.1459C91.6002 29.2679 91.2002 28.1947 91.2002 26.8288C91.2002 25.463 91.6002 24.2922 92.5002 23.4142C93.3002 22.5361 94.5002 22.0483 95.9002 22.0483C97.3002 22.0483 98.4002 22.5361 99.2002 23.4142C99.9002 24.2922 100.3 25.3654 100.3 26.7313ZM98.1002 26.8288C98.1002 25.9508 97.9002 25.2679 97.5002 24.6825C97.1002 23.9996 96.4002 23.6093 95.6002 23.6093C94.8002 23.6093 94.1002 23.9996 93.7002 24.6825C93.3002 25.2679 93.1002 26.0483 93.1002 26.8288C93.1002 27.7069 93.3002 28.3898 93.7002 28.9752C94.1002 29.6581 94.8002 30.0483 95.6002 30.0483C96.4002 30.0483 97.0002 29.6581 97.5002 28.9752C97.9002 28.3898 98.1002 27.6093 98.1002 26.8288Z" fill="white"/>
<path d="M107 24C106.8 24 106.6 23.9024 106.3 23.9024C105.6 23.9024 105 24.1951 104.6 24.6829C104.3 25.1707 104.1 25.756 104.1 26.439V31.2195H102V24.9756C102 23.9024 102 23.0243 101.9 22.1463H103.7L103.8 23.9024H103.9C104.1 23.317 104.5 22.8292 104.9 22.439C105.4 22.1463 105.9 21.9512 106.4 21.9512C106.6 21.9512 106.8 21.9512 106.9 21.9512V24H107Z" fill="white"/>
<path d="M116.2 26.341C116.2 26.7313 116.2 27.024 116.1 27.2191H109.9C109.9 28.0971 110.2 28.78 110.8 29.2679C111.3 29.6581 112 29.9508 112.8 29.9508C113.7 29.9508 114.6 29.8532 115.3 29.5605L115.6 30.9264C114.7 31.3166 113.7 31.5118 112.5 31.5118C111.1 31.5118 109.9 31.1215 109.1 30.2435C108.3 29.463 107.9 28.2922 107.9 26.9264C107.9 25.5605 108.3 24.3898 109 23.5118C109.8 22.5361 110.9 22.0483 112.3 22.0483C113.6 22.0483 114.7 22.5361 115.3 23.5118C116 24.2922 116.2 25.2679 116.2 26.341ZM114.3 25.8532C114.3 25.2679 114.2 24.7801 113.9 24.2922C113.5 23.7069 113 23.4142 112.3 23.4142C111.6 23.4142 111.1 23.7069 110.7 24.1947C110.4 24.5849 110.2 25.1703 110.1 25.7557H114.3V25.8532Z" fill="white"/>
<path d="M39.312 8.61352C39.536 8.42152 39.8013 8.27218 40.108 8.16552C40.4173 8.05885 40.76 8.00552 41.136 8.00552C41.448 8.00552 41.7293 8.04285 41.98 8.11752C42.2333 8.19218 42.448 8.29752 42.624 8.43352C42.8 8.56685 42.9347 8.72685 43.028 8.91352C43.124 9.09752 43.172 9.30018 43.172 9.52152C43.172 9.79352 43.1093 10.0402 42.984 10.2615C42.8613 10.4802 42.6747 10.6575 42.424 10.7935C42.5573 10.8575 42.6787 10.9335 42.788 11.0215C42.9 11.1068 42.9947 11.2028 43.072 11.3095C43.152 11.4135 43.2133 11.5268 43.256 11.6495C43.3013 11.7722 43.324 11.9028 43.324 12.0415C43.324 12.3028 43.2747 12.5468 43.176 12.7735C43.08 13.0002 42.9387 13.1975 42.752 13.3655C42.568 13.5335 42.3413 13.6668 42.072 13.7655C41.8027 13.8615 41.4947 13.9095 41.148 13.9095C40.9453 13.9095 40.7467 13.8908 40.552 13.8535C40.36 13.8188 40.176 13.7682 40 13.7015C39.824 13.6348 39.6587 13.5548 39.504 13.4615C39.3493 13.3682 39.212 13.2642 39.092 13.1495L39.408 12.6335C39.4373 12.5962 39.472 12.5655 39.512 12.5415C39.5547 12.5148 39.6013 12.5015 39.652 12.5015C39.7213 12.5015 39.7973 12.5295 39.88 12.5855C39.9627 12.6388 40.0627 12.6988 40.18 12.7655C40.2973 12.8322 40.436 12.8935 40.596 12.9495C40.7587 13.0028 40.9533 13.0295 41.18 13.0295C41.54 13.0295 41.8187 12.9522 42.016 12.7975C42.2133 12.6428 42.312 12.4055 42.312 12.0855C42.312 11.9548 42.2853 11.8375 42.232 11.7335C42.1787 11.6295 42.1027 11.5415 42.004 11.4695C41.9053 11.3975 41.7853 11.3428 41.644 11.3055C41.5053 11.2655 41.3507 11.2455 41.18 11.2455H40.364L40.36 10.3815H41.104C41.4373 10.3815 41.6973 10.3162 41.884 10.1855C42.0733 10.0522 42.168 9.86018 42.168 9.60952C42.168 9.38818 42.0787 9.21218 41.9 9.08152C41.724 8.94818 41.468 8.88152 41.132 8.88152C40.9373 8.88152 40.7693 8.90285 40.628 8.94552C40.4893 8.98818 40.368 9.03485 40.264 9.08552C40.1627 9.13352 40.076 9.17885 40.004 9.22152C39.9347 9.26418 39.872 9.28552 39.816 9.28552C39.7627 9.28552 39.7173 9.27218 39.68 9.24552C39.6427 9.21885 39.608 9.17885 39.576 9.12552L39.312 8.61352ZM48.1208 11.6695L47.4168 9.74552C47.3821 9.66018 47.3461 9.55885 47.3088 9.44152C47.2715 9.32418 47.2341 9.19752 47.1968 9.06152C47.1621 9.19752 47.1261 9.32552 47.0888 9.44552C47.0515 9.56285 47.0155 9.66552 46.9808 9.75352L46.2808 11.6695H48.1208ZM50.0208 13.8535H49.1888C49.0955 13.8535 49.0195 13.8308 48.9608 13.7855C48.9021 13.7375 48.8581 13.6788 48.8288 13.6095L48.3968 12.4295H46.0008L45.5688 13.6095C45.5475 13.6708 45.5061 13.7268 45.4448 13.7775C45.3835 13.8282 45.3061 13.8535 45.2128 13.8535H44.3768L46.6488 8.06952H47.7488L50.0208 13.8535ZM54.9761 8.89752H52.4881V13.8535H51.4081V8.06952H54.9761V8.89752ZM58.4162 10.9775C58.6135 10.9775 58.7855 10.9535 58.9322 10.9055C59.0789 10.8548 59.2002 10.7842 59.2962 10.6935C59.3949 10.6002 59.4682 10.4882 59.5162 10.3575C59.5642 10.2242 59.5882 10.0762 59.5882 9.91352C59.5882 9.75885 59.5642 9.61885 59.5162 9.49352C59.4682 9.36818 59.3962 9.26152 59.3002 9.17352C59.2042 9.08552 59.0829 9.01885 58.9362 8.97352C58.7895 8.92552 58.6162 8.90152 58.4162 8.90152H57.6122V10.9775H58.4162ZM58.4162 8.06952C58.8029 8.06952 59.1375 8.11485 59.4202 8.20552C59.7029 8.29618 59.9362 8.42285 60.1202 8.58552C60.3042 8.74818 60.4402 8.94285 60.5282 9.16952C60.6189 9.39618 60.6642 9.64418 60.6642 9.91352C60.6642 10.1935 60.6175 10.4508 60.5242 10.6855C60.4309 10.9175 60.2909 11.1175 60.1042 11.2855C59.9175 11.4535 59.6829 11.5842 59.4002 11.6775C59.1202 11.7708 58.7922 11.8175 58.4162 11.8175H57.6122V13.8535H56.5362V8.06952H58.4162ZM66.8773 8.06952L64.5413 13.0495C64.4586 13.2228 64.3706 13.3655 64.2773 13.4775C64.184 13.5895 64.0826 13.6775 63.9733 13.7415C63.8666 13.8055 63.7506 13.8495 63.6253 13.8735C63.5026 13.9002 63.3706 13.9135 63.2293 13.9135C63.0373 13.9135 62.8973 13.8962 62.8093 13.8615C62.7213 13.8268 62.6773 13.7762 62.6773 13.7095V13.0375H62.9893C63.048 13.0375 63.108 13.0322 63.1693 13.0215C63.2306 13.0108 63.2906 12.9895 63.3493 12.9575C63.4106 12.9255 63.4693 12.8802 63.5253 12.8215C63.5813 12.7628 63.6333 12.6855 63.6813 12.5895L63.9093 12.1255L61.5893 8.06952H62.5973C62.6906 8.06952 62.7653 8.09218 62.8213 8.13752C62.8773 8.18285 62.924 8.24018 62.9613 8.30952L64.0853 10.4295C64.1466 10.5468 64.2013 10.6628 64.2493 10.7775C64.3 10.8922 64.344 11.0095 64.3813 11.1295C64.4506 10.8895 64.54 10.6562 64.6493 10.4295L65.6293 8.30952C65.6586 8.25085 65.7026 8.19618 65.7613 8.14552C65.82 8.09485 65.8946 8.06952 65.9853 8.06952H66.8773ZM67.8276 8.61352C68.0516 8.42152 68.317 8.27218 68.6236 8.16552C68.933 8.05885 69.2756 8.00552 69.6516 8.00552C69.9636 8.00552 70.245 8.04285 70.4956 8.11752C70.749 8.19218 70.9636 8.29752 71.1396 8.43352C71.3156 8.56685 71.4503 8.72685 71.5436 8.91352C71.6396 9.09752 71.6876 9.30018 71.6876 9.52152C71.6876 9.79352 71.625 10.0402 71.4996 10.2615C71.377 10.4802 71.1903 10.6575 70.9396 10.7935C71.073 10.8575 71.1943 10.9335 71.3036 11.0215C71.4156 11.1068 71.5103 11.2028 71.5876 11.3095C71.6676 11.4135 71.729 11.5268 71.7716 11.6495C71.817 11.7722 71.8396 11.9028 71.8396 12.0415C71.8396 12.3028 71.7903 12.5468 71.6916 12.7735C71.5956 13.0002 71.4543 13.1975 71.2676 13.3655C71.0836 13.5335 70.857 13.6668 70.5876 13.7655C70.3183 13.8615 70.0103 13.9095 69.6636 13.9095C69.461 13.9095 69.2623 13.8908 69.0676 13.8535C68.8756 13.8188 68.6916 13.7682 68.5156 13.7015C68.3396 13.6348 68.1743 13.5548 68.0196 13.4615C67.865 13.3682 67.7276 13.2642 67.6076 13.1495L67.9236 12.6335C67.953 12.5962 67.9876 12.5655 68.0276 12.5415C68.0703 12.5148 68.117 12.5015 68.1676 12.5015C68.237 12.5015 68.313 12.5295 68.3956 12.5855C68.4783 12.6388 68.5783 12.6988 68.6956 12.7655C68.813 12.8322 68.9516 12.8935 69.1116 12.9495C69.2743 13.0028 69.469 13.0295 69.6956 13.0295C70.0556 13.0295 70.3343 12.9522 70.5316 12.7975C70.729 12.6428 70.8276 12.4055 70.8276 12.0855C70.8276 11.9548 70.801 11.8375 70.7476 11.7335C70.6943 11.6295 70.6183 11.5415 70.5196 11.4695C70.421 11.3975 70.301 11.3428 70.1596 11.3055C70.021 11.2655 69.8663 11.2455 69.6956 11.2455H68.8796L68.8756 10.3815H69.6196C69.953 10.3815 70.213 10.3162 70.3996 10.1855C70.589 10.0522 70.6836 9.86018 70.6836 9.60952C70.6836 9.38818 70.5943 9.21218 70.4156 9.08152C70.2396 8.94818 69.9836 8.88152 69.6476 8.88152C69.453 8.88152 69.285 8.90285 69.1436 8.94552C69.005 8.98818 68.8836 9.03485 68.7796 9.08552C68.6783 9.13352 68.5916 9.17885 68.5196 9.22152C68.4503 9.26418 68.3876 9.28552 68.3316 9.28552C68.2783 9.28552 68.233 9.27218 68.1956 9.24552C68.1583 9.21885 68.1236 9.17885 68.0916 9.12552L67.8276 8.61352ZM78.4841 8.06952V13.8535H77.4041V10.2295C77.4041 10.0935 77.4067 9.95085 77.4121 9.80152C77.4201 9.65218 77.4361 9.49352 77.4601 9.32552C77.4067 9.47485 77.3481 9.61352 77.2841 9.74152C77.2227 9.86685 77.1627 9.97752 77.1041 10.0735L74.8921 13.5215C74.8681 13.5615 74.8387 13.6015 74.8041 13.6415C74.7721 13.6815 74.7361 13.7175 74.6961 13.7495C74.6561 13.7788 74.6121 13.8042 74.5641 13.8255C74.5161 13.8442 74.4667 13.8535 74.4161 13.8535H73.6081V8.06952H74.6881V11.6935C74.6881 11.8295 74.6841 11.9735 74.6761 12.1255C74.6707 12.2748 74.6561 12.4335 74.6321 12.6015C74.6854 12.4522 74.7427 12.3135 74.8041 12.1855C74.8681 12.0575 74.9307 11.9455 74.9921 11.8495L77.2001 8.40152C77.2241 8.36152 77.2521 8.32152 77.2841 8.28152C77.3187 8.24152 77.3561 8.20685 77.3961 8.17752C77.4361 8.14552 77.4787 8.12018 77.5241 8.10152C77.5721 8.08018 77.6227 8.06952 77.6761 8.06952H78.4841ZM84.6121 8.95352H82.8681V13.8535H81.7921V8.95352H80.0481V8.06952H84.6121V8.95352ZM87.249 8.92552V10.5295H89.273V11.3575H87.249V12.9935H89.817V13.8535H86.169V8.06952H89.817V8.92552H87.249ZM96.4799 13.0135C96.6799 13.0135 96.8479 12.9895 96.9839 12.9415C97.1199 12.8935 97.2279 12.8295 97.3079 12.7495C97.3905 12.6695 97.4492 12.5762 97.4839 12.4695C97.5212 12.3628 97.5399 12.2495 97.5399 12.1295C97.5399 12.0042 97.5199 11.8922 97.4799 11.7935C97.4399 11.6922 97.3772 11.6068 97.2919 11.5375C97.2065 11.4655 97.0959 11.4108 96.9599 11.3735C96.8265 11.3362 96.6652 11.3175 96.4759 11.3175H95.3919V13.0135H96.4799ZM95.3919 8.90152V10.5735H96.2479C96.6159 10.5735 96.8932 10.5068 97.0799 10.3735C97.2692 10.2402 97.3639 10.0282 97.3639 9.73752C97.3639 9.43618 97.2785 9.22152 97.1079 9.09352C96.9372 8.96552 96.6705 8.90152 96.3079 8.90152H95.3919ZM96.3079 8.06952C96.6865 8.06952 97.0105 8.10552 97.2799 8.17752C97.5492 8.24952 97.7692 8.35218 97.9399 8.48552C98.1132 8.61885 98.2399 8.78018 98.3199 8.96952C98.3999 9.15885 98.4399 9.37218 98.4399 9.60952C98.4399 9.74552 98.4199 9.87618 98.3799 10.0015C98.3399 10.1242 98.2772 10.2402 98.1919 10.3495C98.1092 10.4562 98.0025 10.5535 97.8719 10.6415C97.7439 10.7295 97.5905 10.8042 97.4119 10.8655C98.2065 11.0442 98.6039 11.4735 98.6039 12.1535C98.6039 12.3988 98.5572 12.6255 98.4639 12.8335C98.3705 13.0415 98.2345 13.2215 98.0559 13.3735C97.8772 13.5228 97.6572 13.6402 97.3959 13.7255C97.1345 13.8108 96.8359 13.8535 96.4999 13.8535H94.3159V8.06952H96.3079Z" fill="white"/>
</svg>
