<svg width="136" height="40" viewBox="0 0 136 40" fill="none" xmlns="http://www.w3.org/2000/svg">
<rect width="136" height="40" fill="#020818"/>
<path d="M68.0996 21.7996C65.6996 21.7996 63.7996 23.5996 63.7996 26.0996C63.7996 28.4996 65.6996 30.3996 68.0996 30.3996C70.4996 30.3996 72.3996 28.5996 72.3996 26.0996C72.3996 23.4996 70.4996 21.7996 68.0996 21.7996ZM68.0996 28.5996C66.7996 28.5996 65.6996 27.4996 65.6996 25.9996C65.6996 24.4996 66.7996 23.3996 68.0996 23.3996C69.3996 23.3996 70.4996 24.3996 70.4996 25.9996C70.4996 27.4996 69.3996 28.5996 68.0996 28.5996ZM58.7996 21.7996C56.3996 21.7996 54.4996 23.5996 54.4996 26.0996C54.4996 28.4996 56.3996 30.3996 58.7996 30.3996C61.1996 30.3996 63.0996 28.5996 63.0996 26.0996C63.0996 23.4996 61.1996 21.7996 58.7996 21.7996ZM58.7996 28.5996C57.4996 28.5996 56.3996 27.4996 56.3996 25.9996C56.3996 24.4996 57.4996 23.3996 58.7996 23.3996C60.0996 23.3996 61.1996 24.3996 61.1996 25.9996C61.1996 27.4996 60.0996 28.5996 58.7996 28.5996ZM47.6996 23.0996V24.8996H51.9996C51.8996 25.8996 51.4996 26.6996 50.9996 27.1996C50.3996 27.7996 49.3996 28.4996 47.6996 28.4996C44.9996 28.4996 42.9996 26.3996 42.9996 23.6996C42.9996 20.9996 45.0996 18.8996 47.6996 18.8996C49.0996 18.8996 50.1996 19.4996 50.9996 20.1996L52.2996 18.8996C51.1996 17.8996 49.7996 17.0996 47.7996 17.0996C44.1996 17.0996 41.0996 20.0996 41.0996 23.6996C41.0996 27.2996 44.1996 30.2996 47.7996 30.2996C49.7996 30.2996 51.1996 29.6996 52.3996 28.3996C53.5996 27.1996 53.9996 25.4996 53.9996 24.1996C53.9996 23.7996 53.9996 23.3996 53.8996 23.0996H47.6996ZM93.0996 24.4996C92.6996 23.4996 91.6996 21.7996 89.4996 21.7996C87.2996 21.7996 85.4996 23.4996 85.4996 26.0996C85.4996 28.4996 87.2996 30.3996 89.6996 30.3996C91.5996 30.3996 92.7996 29.1996 93.1996 28.4996L91.7996 27.4996C91.2996 28.1996 90.6996 28.6996 89.6996 28.6996C88.6996 28.6996 88.0996 28.2996 87.5996 27.3996L93.2996 24.9996L93.0996 24.4996ZM87.2996 25.8996C87.2996 24.2996 88.5996 23.3996 89.4996 23.3996C90.1996 23.3996 90.8996 23.7996 91.0996 24.2996L87.2996 25.8996ZM82.5996 29.9996H84.4996V17.4996H82.5996V29.9996ZM79.5996 22.6996C79.0996 22.1996 78.2996 21.6996 77.2996 21.6996C75.1996 21.6996 73.1996 23.5996 73.1996 25.9996C73.1996 28.3996 75.0996 30.1996 77.2996 30.1996C78.2996 30.1996 79.0996 29.6996 79.4996 29.1996H79.5996V29.7996C79.5996 31.3996 78.6996 32.2996 77.2996 32.2996C76.1996 32.2996 75.3996 31.4996 75.1996 30.7996L73.5996 31.4996C74.0996 32.5996 75.2996 33.9996 77.3996 33.9996C79.5996 33.9996 81.3996 32.6996 81.3996 29.5996V21.9996H79.5996V22.6996ZM77.3996 28.5996C76.0996 28.5996 74.9996 27.4996 74.9996 25.9996C74.9996 24.4996 76.0996 23.3996 77.3996 23.3996C78.6996 23.3996 79.6996 24.4996 79.6996 25.9996C79.6996 27.4996 78.6996 28.5996 77.3996 28.5996ZM101.8 17.4996H97.2996V29.9996H99.1996V25.2996H101.8C103.9 25.2996 105.9 23.7996 105.9 21.3996C105.9 18.9996 103.9 17.4996 101.8 17.4996ZM101.9 23.4996H99.1996V19.1996H101.9C103.3 19.1996 104.1 20.3996 104.1 21.2996C104 22.3996 103.2 23.4996 101.9 23.4996ZM113.4 21.6996C112 21.6996 110.6 22.2996 110.1 23.5996L111.8 24.2996C112.2 23.5996 112.8 23.3996 113.5 23.3996C114.5 23.3996 115.4 23.9996 115.5 24.9996V25.0996C115.2 24.8996 114.4 24.5996 113.6 24.5996C111.8 24.5996 110 25.5996 110 27.3996C110 29.0996 111.5 30.1996 113.1 30.1996C114.4 30.1996 115 29.5996 115.5 28.9996H115.6V29.9996H117.4V25.1996C117.2 22.9996 115.5 21.6996 113.4 21.6996ZM113.2 28.5996C112.6 28.5996 111.7 28.2996 111.7 27.4996C111.7 26.4996 112.8 26.1996 113.7 26.1996C114.5 26.1996 114.9 26.3996 115.4 26.5996C115.2 27.7996 114.2 28.5996 113.2 28.5996ZM123.7 21.9996L121.6 27.3996H121.5L119.3 21.9996H117.3L120.6 29.5996L118.7 33.7996H120.6L125.7 21.9996H123.7ZM106.9 29.9996H108.8V17.4996H106.9V29.9996Z" fill="white"/>
<path d="M10.4 7.5C10.1 7.8 10 8.3 10 8.9V31C10 31.6 10.2 32.1 10.5 32.4L10.6 32.5L23 20.1V20V19.9L10.4 7.5Z" fill="url(#paint0_linear_3562_5723)"/>
<path d="M27.0004 24.2988L22.9004 20.1988V19.9988V19.8988L27.0004 15.7988L27.1004 15.8988L32.0004 18.6988C33.4004 19.4988 33.4004 20.7988 32.0004 21.5988L27.0004 24.2988Z" fill="url(#paint1_linear_3562_5723)"/>
<path d="M27.1004 24.2L22.9004 20L10.4004 32.5C10.9004 33 11.6004 33 12.5004 32.6L27.1004 24.2Z" fill="url(#paint2_linear_3562_5723)"/>
<path d="M27.1004 15.7996L12.5004 7.49962C11.6004 6.99962 10.9004 7.09962 10.4004 7.59962L22.9004 19.9996L27.1004 15.7996Z" fill="url(#paint3_linear_3562_5723)"/>
<path opacity="0.2" d="M27.0004 24.0996L12.5004 32.2996C11.7004 32.7996 11.0004 32.6996 10.5004 32.2996L10.4004 32.3996L10.5004 32.4996C11.0004 32.8996 11.7004 32.9996 12.5004 32.4996L27.0004 24.0996Z" fill="black"/>
<path opacity="0.12" d="M10.4 32.2994C10.1 31.9994 10 31.4994 10 30.8994V30.9994C10 31.5994 10.2 32.0994 10.5 32.3994V32.2994H10.4Z" fill="black"/>
<path opacity="0.12" d="M32 21.3L27 24.1L27.1 24.2L32 21.4C32.7 21 33 20.5 33 20C33 20.5 32.6 20.9 32 21.3Z" fill="black"/>
<path opacity="0.25" d="M12.5 7.59929L32 18.6993C32.6 19.0993 33 19.4993 33 19.9993C33 19.4993 32.7 18.9993 32 18.5993L12.5 7.49929C11.1 6.69929 10 7.29929 10 8.89929V8.99929C10 7.49929 11.1 6.79929 12.5 7.59929Z" fill="white"/>
<path d="M45.3 12.1715V8.04351H43.72C43.688 8.61151 43.644 9.11551 43.588 9.55551C43.5347 9.99551 43.472 10.3822 43.4 10.7155C43.328 11.0488 43.248 11.3342 43.16 11.5715C43.072 11.8088 42.9773 12.0088 42.876 12.1715H45.3ZM47.28 12.1715V14.0675C47.28 14.1608 47.248 14.2355 47.184 14.2915C47.1227 14.3475 47.0413 14.3755 46.94 14.3755H46.292V12.9995H42.044V14.0675C42.044 14.1608 42.012 14.2355 41.948 14.2915C41.8867 14.3475 41.8053 14.3755 41.704 14.3755H41.056V12.1715H41.688C41.7627 12.1315 41.836 12.0675 41.908 11.9795C41.9827 11.8915 42.0547 11.7675 42.124 11.6075C42.1933 11.4475 42.2587 11.2448 42.32 10.9995C42.384 10.7542 42.4413 10.4555 42.492 10.1035C42.5427 9.74884 42.5853 9.33418 42.62 8.85951C42.6573 8.38484 42.6853 7.83684 42.704 7.21551H46.38V12.1715H47.28ZM54.2647 10.1075C54.2647 10.5315 54.194 10.9248 54.0527 11.2875C53.914 11.6475 53.7167 11.9595 53.4607 12.2235C53.2047 12.4875 52.8967 12.6942 52.5367 12.8435C52.1767 12.9902 51.7767 13.0635 51.3367 13.0635C50.8994 13.0635 50.5007 12.9902 50.1407 12.8435C49.7807 12.6942 49.4714 12.4875 49.2127 12.2235C48.9567 11.9595 48.758 11.6475 48.6167 11.2875C48.4754 10.9248 48.4047 10.5315 48.4047 10.1075C48.4047 9.68351 48.4754 9.29151 48.6167 8.93151C48.758 8.56884 48.9567 8.25551 49.2127 7.99151C49.4714 7.72751 49.7807 7.52218 50.1407 7.37551C50.5007 7.22618 50.8994 7.15151 51.3367 7.15151C51.63 7.15151 51.906 7.18618 52.1647 7.25551C52.4234 7.32218 52.6607 7.41818 52.8767 7.54351C53.0927 7.66618 53.286 7.81684 53.4567 7.99551C53.63 8.17151 53.7767 8.36884 53.8967 8.58751C54.0167 8.80618 54.1074 9.04351 54.1687 9.29951C54.2327 9.55551 54.2647 9.82484 54.2647 10.1075ZM53.1647 10.1075C53.1647 9.79018 53.122 9.50618 53.0367 9.25551C52.9514 9.00218 52.83 8.78751 52.6727 8.61151C52.5154 8.43551 52.3234 8.30084 52.0967 8.20751C51.8727 8.11418 51.6194 8.06751 51.3367 8.06751C51.054 8.06751 50.7994 8.11418 50.5727 8.20751C50.3487 8.30084 50.1567 8.43551 49.9967 8.61151C49.8394 8.78751 49.718 9.00218 49.6327 9.25551C49.5474 9.50618 49.5047 9.79018 49.5047 10.1075C49.5047 10.4248 49.5474 10.7102 49.6327 10.9635C49.718 11.2142 49.8394 11.4275 49.9967 11.6035C50.1567 11.7768 50.3487 11.9102 50.5727 12.0035C50.7994 12.0968 51.054 12.1435 51.3367 12.1435C51.6194 12.1435 51.8727 12.0968 52.0967 12.0035C52.3234 11.9102 52.5154 11.7768 52.6727 11.6035C52.83 11.4275 52.9514 11.2142 53.0367 10.9635C53.122 10.7102 53.1647 10.4248 53.1647 10.1075ZM59.9816 11.6355C60.0403 11.6355 60.0923 11.6582 60.1376 11.7035L60.5616 12.1635C60.327 12.4542 60.0376 12.6768 59.6936 12.8315C59.3523 12.9862 58.9416 13.0635 58.4616 13.0635C58.0323 13.0635 57.6456 12.9902 57.3016 12.8435C56.9603 12.6968 56.6683 12.4928 56.4256 12.2315C56.183 11.9702 55.9963 11.6582 55.8656 11.2955C55.7376 10.9328 55.6736 10.5368 55.6736 10.1075C55.6736 9.67284 55.743 9.27551 55.8816 8.91551C56.0203 8.55284 56.215 8.24084 56.4656 7.97951C56.719 7.71818 57.0203 7.51551 57.3696 7.37151C57.719 7.22484 58.1056 7.15151 58.5296 7.15151C58.951 7.15151 59.3243 7.22084 59.6496 7.35951C59.9776 7.49818 60.2563 7.67951 60.4856 7.90351L60.1256 8.40351C60.1043 8.43551 60.0763 8.46351 60.0416 8.48751C60.0096 8.51151 59.9643 8.52351 59.9056 8.52351C59.8656 8.52351 59.8243 8.51284 59.7816 8.49151C59.739 8.46751 59.6923 8.43951 59.6416 8.40751C59.591 8.37285 59.5323 8.33551 59.4656 8.29551C59.399 8.25551 59.3216 8.21951 59.2336 8.18751C59.1456 8.15284 59.043 8.12484 58.9256 8.10351C58.811 8.07951 58.6776 8.06751 58.5256 8.06751C58.267 8.06751 58.0296 8.11418 57.8136 8.20751C57.6003 8.29818 57.4163 8.43151 57.2616 8.60751C57.107 8.78085 56.987 8.99418 56.9016 9.24751C56.8163 9.49818 56.7736 9.78484 56.7736 10.1075C56.7736 10.4328 56.819 10.7222 56.9096 10.9755C57.003 11.2288 57.1283 11.4422 57.2856 11.6155C57.443 11.7888 57.6283 11.9222 57.8416 12.0155C58.055 12.1062 58.2843 12.1515 58.5296 12.1515C58.6763 12.1515 58.8083 12.1435 58.9256 12.1275C59.0456 12.1115 59.155 12.0862 59.2536 12.0515C59.355 12.0168 59.4496 11.9728 59.5376 11.9195C59.6283 11.8635 59.7176 11.7955 59.8056 11.7155C59.8323 11.6915 59.8603 11.6728 59.8896 11.6595C59.919 11.6435 59.9496 11.6355 59.9816 11.6355ZM66.1387 8.09951H64.3947V12.9995H63.3187V8.09951H61.5747V7.21551H66.1387V8.09951ZM72.2836 7.21551L69.9476 12.1955C69.8649 12.3688 69.7769 12.5115 69.6836 12.6235C69.5902 12.7355 69.4889 12.8235 69.3796 12.8875C69.2729 12.9515 69.1569 12.9955 69.0316 13.0195C68.9089 13.0462 68.7769 13.0595 68.6356 13.0595C68.4436 13.0595 68.3036 13.0422 68.2156 13.0075C68.1276 12.9728 68.0836 12.9222 68.0836 12.8555V12.1835H68.3956C68.4542 12.1835 68.5142 12.1782 68.5756 12.1675C68.6369 12.1568 68.6969 12.1355 68.7556 12.1035C68.8169 12.0715 68.8756 12.0262 68.9316 11.9675C68.9876 11.9088 69.0396 11.8315 69.0876 11.7355L69.3156 11.2715L66.9956 7.21551H68.0036C68.0969 7.21551 68.1716 7.23818 68.2276 7.28351C68.2836 7.32884 68.3302 7.38618 68.3676 7.45551L69.4916 9.57551C69.5529 9.69284 69.6076 9.80884 69.6556 9.92351C69.7062 10.0382 69.7502 10.1555 69.7876 10.2755C69.8569 10.0355 69.9462 9.80218 70.0556 9.57551L71.0356 7.45551C71.0649 7.39684 71.1089 7.34218 71.1676 7.29151C71.2262 7.24084 71.3009 7.21551 71.3916 7.21551H72.2836ZM78.3278 12.9995H77.2438V8.04351H74.7318V12.9995H73.6518V7.21551H78.3278V12.9995ZM85.2887 7.21551V12.9995H84.2087V10.4715H81.4927V12.9995H80.4127V7.21551H81.4927V9.70351H84.2087V7.21551H85.2887ZM92.8928 10.1075C92.8928 10.5315 92.8221 10.9248 92.6808 11.2875C92.5421 11.6475 92.3448 11.9595 92.0888 12.2235C91.8328 12.4875 91.5248 12.6942 91.1648 12.8435C90.8048 12.9902 90.4048 13.0635 89.9648 13.0635C89.5275 13.0635 89.1288 12.9902 88.7688 12.8435C88.4088 12.6942 88.0995 12.4875 87.8408 12.2235C87.5848 11.9595 87.3861 11.6475 87.2448 11.2875C87.1035 10.9248 87.0328 10.5315 87.0328 10.1075C87.0328 9.68351 87.1035 9.29151 87.2448 8.93151C87.3861 8.56884 87.5848 8.25551 87.8408 7.99151C88.0995 7.72751 88.4088 7.52218 88.7688 7.37551C89.1288 7.22618 89.5275 7.15151 89.9648 7.15151C90.2581 7.15151 90.5341 7.18618 90.7928 7.25551C91.0515 7.32218 91.2888 7.41818 91.5048 7.54351C91.7208 7.66618 91.9141 7.81684 92.0848 7.99551C92.2581 8.17151 92.4048 8.36884 92.5248 8.58751C92.6448 8.80618 92.7355 9.04351 92.7968 9.29951C92.8608 9.55551 92.8928 9.82484 92.8928 10.1075ZM91.7928 10.1075C91.7928 9.79018 91.7501 9.50618 91.6648 9.25551C91.5795 9.00218 91.4581 8.78751 91.3008 8.61151C91.1435 8.43551 90.9515 8.30084 90.7248 8.20751C90.5008 8.11418 90.2475 8.06751 89.9648 8.06751C89.6821 8.06751 89.4275 8.11418 89.2008 8.20751C88.9768 8.30084 88.7848 8.43551 88.6248 8.61151C88.4675 8.78751 88.3461 9.00218 88.2608 9.25551C88.1755 9.50618 88.1328 9.79018 88.1328 10.1075C88.1328 10.4248 88.1755 10.7102 88.2608 10.9635C88.3461 11.2142 88.4675 11.4275 88.6248 11.6035C88.7848 11.7768 88.9768 11.9102 89.2008 12.0035C89.4275 12.0968 89.6821 12.1435 89.9648 12.1435C90.2475 12.1435 90.5008 12.0968 90.7248 12.0035C90.9515 11.9102 91.1435 11.7768 91.3008 11.6035C91.4581 11.4275 91.5795 11.2142 91.6648 10.9635C91.7501 10.7102 91.7928 10.4248 91.7928 10.1075ZM99.5471 12.1595C99.7471 12.1595 99.9151 12.1355 100.051 12.0875C100.187 12.0395 100.295 11.9755 100.375 11.8955C100.458 11.8155 100.516 11.7222 100.551 11.6155C100.588 11.5088 100.607 11.3955 100.607 11.2755C100.607 11.1502 100.587 11.0382 100.547 10.9395C100.507 10.8382 100.444 10.7528 100.359 10.6835C100.274 10.6115 100.163 10.5568 100.027 10.5195C99.8937 10.4822 99.7324 10.4635 99.5431 10.4635H98.4591V12.1595H99.5471ZM98.4591 8.04751V9.71951H99.3151C99.6831 9.71951 99.9604 9.65284 100.147 9.51951C100.336 9.38618 100.431 9.17418 100.431 8.88351C100.431 8.58218 100.346 8.36751 100.175 8.23951C100.004 8.11151 99.7377 8.04751 99.3751 8.04751H98.4591ZM99.3751 7.21551C99.7537 7.21551 100.078 7.25151 100.347 7.32351C100.616 7.39551 100.836 7.49818 101.007 7.63151C101.18 7.76484 101.307 7.92618 101.387 8.11551C101.467 8.30484 101.507 8.51818 101.507 8.75551C101.507 8.89151 101.487 9.02218 101.447 9.14751C101.407 9.27018 101.344 9.38618 101.259 9.49551C101.176 9.60218 101.07 9.69951 100.939 9.78751C100.811 9.87551 100.658 9.95018 100.479 10.0115C101.274 10.1902 101.671 10.6195 101.671 11.2995C101.671 11.5448 101.624 11.7715 101.531 11.9795C101.438 12.1875 101.302 12.3675 101.123 12.5195C100.944 12.6688 100.724 12.7862 100.463 12.8715C100.202 12.9568 99.9031 12.9995 99.5671 12.9995H97.3831V7.21551H99.3751Z" fill="white"/>
<defs>
<linearGradient id="paint0_linear_3562_5723" x1="21.7996" y1="8.7098" x2="5.0172" y2="25.4922" gradientUnits="userSpaceOnUse">
<stop stop-color="#00A0FF"/>
<stop offset="0.00657445" stop-color="#00A1FF"/>
<stop offset="0.2601" stop-color="#00BEFF"/>
<stop offset="0.5122" stop-color="#00D2FF"/>
<stop offset="0.7604" stop-color="#00DFFF"/>
<stop offset="1" stop-color="#00E3FF"/>
</linearGradient>
<linearGradient id="paint1_linear_3562_5723" x1="33.8347" y1="20.0004" x2="9.63779" y2="20.0004" gradientUnits="userSpaceOnUse">
<stop stop-color="#FFE000"/>
<stop offset="0.4087" stop-color="#FFBD00"/>
<stop offset="0.7754" stop-color="#FFA500"/>
<stop offset="1" stop-color="#FF9C00"/>
</linearGradient>
<linearGradient id="paint2_linear_3562_5723" x1="24.8273" y1="22.2962" x2="2.06899" y2="45.0545" gradientUnits="userSpaceOnUse">
<stop stop-color="#FF3A44"/>
<stop offset="1" stop-color="#C31162"/>
</linearGradient>
<linearGradient id="paint3_linear_3562_5723" x1="7.29759" y1="0.175923" x2="17.4602" y2="10.3384" gradientUnits="userSpaceOnUse">
<stop stop-color="#32A071"/>
<stop offset="0.0685" stop-color="#2DA771"/>
<stop offset="0.4762" stop-color="#15CF74"/>
<stop offset="0.8009" stop-color="#06E775"/>
<stop offset="1" stop-color="#00F076"/>
</linearGradient>
</defs>
</svg>
