<svg width="1193" height="551" viewBox="0 0 1193 551" fill="none" xmlns="http://www.w3.org/2000/svg">
<path d="M538.561 272L530 280.561L538.582 289.1L547.143 280.539L538.561 272Z" fill="#FFCC48"/>
<path fill-rule="evenodd" clip-rule="evenodd" d="M1172 10.166L1182.17 -6.14711e-06L1192.36 10.1404L1182.19 20.3065L1172 10.166ZM1175.21 10.162L1182.19 17.1002L1189.14 10.1445L1182.17 3.20625L1175.21 10.162Z" fill="#020818"/>
<path fill-rule="evenodd" clip-rule="evenodd" d="M946.741 542.496L946.743 538.967L952.831 538.964L952.834 532.858L956.363 532.857L956.36 538.963L962.466 538.96L962.465 542.489L956.359 542.492L956.356 548.58L952.827 548.582L952.829 542.494L946.741 542.496Z" fill="#FFCC48"/>
<path fill-rule="evenodd" clip-rule="evenodd" d="M147.81 353.309L152.123 349L154.62 351.495L150.307 355.804L154.62 360.113L152.123 362.608L147.81 358.298L143.497 362.608L141 360.113L145.313 355.804L141 351.495L143.497 349L147.81 353.309Z" fill="#0AB3CA"/>
<ellipse cx="1174.5" cy="431" rx="7.5" ry="7" fill="#0AB3CA"/>
<path fill-rule="evenodd" clip-rule="evenodd" d="M8.5 55.0871C5.03021 55.0871 2.21739 57.7344 2.21739 61.0001C2.21739 64.2658 5.03021 66.9132 8.5 66.9132C11.9698 66.9132 14.7826 64.2658 14.7826 61.0001C14.7826 57.7344 11.9698 55.0871 8.5 55.0871ZM0 61.0001C0 56.5818 3.80558 53.0001 8.5 53.0001C13.1944 53.0001 17 56.5818 17 61.0001C17 65.4184 13.1944 69.0001 8.5 69.0001C3.80558 69.0001 0 65.4184 0 61.0001Z" fill="#020818"/>
</svg>
