<svg width="313" height="170" viewBox="0 0 313 170" fill="none" xmlns="http://www.w3.org/2000/svg">
<path d="M8.56087 88.9999L0 97.5608L8.58236 106.1L17.1432 97.5393L8.56087 88.9999Z" fill="#FFCC48"/>
<path fill-rule="evenodd" clip-rule="evenodd" d="M202.804 4.31581L207.123 0L209.62 2.49452L205.3 6.81033L209.62 11.1261L207.123 13.6207L202.804 9.30485L198.497 13.6076L196 11.1131L200.307 6.81033L196 2.50757L198.497 0.0130493L202.804 4.31581Z" fill="#0AB3CA"/>
<path fill-rule="evenodd" clip-rule="evenodd" d="M305 156.087C301.734 156.087 299.087 158.734 299.087 162C299.087 165.266 301.734 167.913 305 167.913C308.266 167.913 310.913 165.266 310.913 162C310.913 158.734 308.266 156.087 305 156.087ZM297 162C297 157.582 300.582 154 305 154C309.418 154 313 157.582 313 162C313 166.418 309.418 170 305 170C300.582 170 297 166.418 297 162Z" fill="#020818"/>
</svg>
