<svg width="1647" height="429" viewBox="0 0 1647 429" fill="none" xmlns="http://www.w3.org/2000/svg">
<path d="M211.561 325L203 333.561L211.582 342.1L220.143 333.539L211.561 325Z" fill="#FFCC48"/>
<path fill-rule="evenodd" clip-rule="evenodd" d="M1372.12 10.166L1382.28 -4.43323e-06L1392.47 10.1404L1382.31 20.3065L1372.12 10.166ZM1375.33 10.162L1382.3 17.1002L1389.26 10.1445L1382.29 3.20625L1375.33 10.162Z" fill="#020818"/>
<path fill-rule="evenodd" clip-rule="evenodd" d="M1634.86 57.8714L1634.87 51.7655L1638.39 51.7639L1638.39 57.8697L1644.5 57.8669L1644.5 61.3963L1638.39 61.3991L1638.39 67.4874L1634.86 67.489L1634.86 61.4008L1628.77 61.4035L1628.77 57.8741L1634.86 57.8714Z" fill="#FFCC48"/>
<path fill-rule="evenodd" clip-rule="evenodd" d="M6.80352 185.316L11.1233 181L13.6201 183.495L9.30033 187.81L13.6201 192.126L11.1233 194.621L6.80351 190.305L2.49681 194.608L0 192.113L4.30671 187.81L0 183.508L2.49681 181.013L6.80352 185.316Z" fill="#0AB3CA"/>
<ellipse cx="1516.5" cy="422" rx="7.5" ry="7" fill="#0AB3CA"/>
<path fill-rule="evenodd" clip-rule="evenodd" d="M156.5 17.087C153.03 17.087 150.217 19.7343 150.217 23C150.217 26.2657 153.03 28.913 156.5 28.913C159.97 28.913 162.783 26.2657 162.783 23C162.783 19.7343 159.97 17.087 156.5 17.087ZM148 23C148 18.5817 151.806 15 156.5 15C161.194 15 165 18.5817 165 23C165 27.4183 161.194 31 156.5 31C151.806 31 148 27.4183 148 23Z" fill="#020818"/>
</svg>
