<svg width="1548" height="245" viewBox="0 0 1548 245" fill="none" xmlns="http://www.w3.org/2000/svg">
<path d="M652.357 195L643 204.357L652.38 213.69L661.737 204.333L652.357 195Z" fill="#FFCC48"/>
<path fill-rule="evenodd" clip-rule="evenodd" d="M1382.61 11.7726L1393.55 0.835327L1404.52 11.745L1393.58 22.6823L1382.61 11.7726ZM1386.07 11.7682L1393.57 19.2328L1401.06 11.7494L1393.55 4.28482L1386.07 11.7682Z" fill="#95A0AF"/>
<path fill-rule="evenodd" clip-rule="evenodd" d="M1311.46 232.007L1311.46 225.438L1315.26 225.437L1315.26 232.006L1321.83 232.003L1321.82 235.8L1315.25 235.803L1315.25 242.353L1311.45 242.355L1311.46 235.805L1304.91 235.808L1304.91 232.01L1311.46 232.007Z" fill="#FFCC48"/>
<path fill-rule="evenodd" clip-rule="evenodd" d="M7.54051 217.451L12.2619 212.734L14.9908 215.46L10.2694 220.177L14.9908 224.895L12.2619 227.621L7.54051 222.904L2.83342 227.607L0.104492 224.88L4.81158 220.177L0.104492 215.475L2.83342 212.748L7.54051 217.451Z" fill="#0AB3CA"/>
<ellipse cx="1540" cy="176.5" rx="8" ry="7.5" fill="#0AB3CA"/>
<path fill-rule="evenodd" clip-rule="evenodd" d="M82.5 18.2174C78.622 18.2174 75.4783 21.0302 75.4783 24.5C75.4783 27.9698 78.622 30.7826 82.5 30.7826C86.378 30.7826 89.5217 27.9698 89.5217 24.5C89.5217 21.0302 86.378 18.2174 82.5 18.2174ZM73 24.5C73 19.8056 77.2533 16 82.5 16C87.7467 16 92 19.8056 92 24.5C92 29.1944 87.7467 33 82.5 33C77.2533 33 73 29.1944 73 24.5Z" fill="#95A0AF"/>
</svg>
