<svg width="1592" height="205" viewBox="0 0 1592 205" fill="none" xmlns="http://www.w3.org/2000/svg">
<path fill-rule="evenodd" clip-rule="evenodd" d="M240.804 193.316L245.123 189L247.62 191.495L243.3 195.81L247.62 200.126L245.123 202.621L240.804 198.305L236.497 202.608L234 200.113L238.307 195.81L234 191.508L236.497 189.013L240.804 193.316Z" fill="white"/>
<path fill-rule="evenodd" clip-rule="evenodd" d="M1439.8 15.3158L1444.12 11L1446.62 13.4945L1442.3 17.8103L1446.62 22.1261L1444.12 24.6207L1439.8 20.3048L1435.5 24.6076L1433 22.1131L1437.31 17.8103L1433 13.5076L1435.5 11.013L1439.8 15.3158Z" fill="white"/>
<path fill-rule="evenodd" clip-rule="evenodd" d="M8.5 2.08696C5.03021 2.08696 2.21739 4.73432 2.21739 8C2.21739 11.2657 5.03021 13.913 8.5 13.913C11.9698 13.913 14.7826 11.2657 14.7826 8C14.7826 4.73432 11.9698 2.08696 8.5 2.08696ZM0 8C0 3.58172 3.80558 0 8.5 0C13.1944 0 17 3.58172 17 8C17 12.4183 13.1944 16 8.5 16C3.80558 16 0 12.4183 0 8Z" fill="white"/>
<path fill-rule="evenodd" clip-rule="evenodd" d="M699.5 39.087C696.03 39.087 693.217 41.7343 693.217 45C693.217 48.2657 696.03 50.913 699.5 50.913C702.97 50.913 705.783 48.2657 705.783 45C705.783 41.7343 702.97 39.087 699.5 39.087ZM691 45C691 40.5817 694.806 37 699.5 37C704.194 37 708 40.5817 708 45C708 49.4183 704.194 53 699.5 53C694.806 53 691 49.4183 691 45Z" fill="white"/>
<path fill-rule="evenodd" clip-rule="evenodd" d="M1583.5 191.087C1580.03 191.087 1577.22 193.734 1577.22 197C1577.22 200.266 1580.03 202.913 1583.5 202.913C1586.97 202.913 1589.78 200.266 1589.78 197C1589.78 193.734 1586.97 191.087 1583.5 191.087ZM1575 197C1575 192.582 1578.81 189 1583.5 189C1588.19 189 1592 192.582 1592 197C1592 201.418 1588.19 205 1583.5 205C1578.81 205 1575 201.418 1575 197Z" fill="white"/>
<path d="M1521.56 10.9999L1513 19.5608L1521.58 28.1001L1530.14 19.5393L1521.56 10.9999Z" fill="white"/>
</svg>
