<svg width="1614" height="356" viewBox="0 0 1614 356" fill="none" xmlns="http://www.w3.org/2000/svg">
<path d="M204.561 314L196 322.561L204.582 331.1L213.143 322.539L204.561 314Z" fill="white"/>
<path fill-rule="evenodd" clip-rule="evenodd" d="M617.804 346.316L622.123 342L624.62 344.495L620.3 348.81L624.62 353.126L622.123 355.621L617.804 351.305L613.497 355.608L611 353.113L615.307 348.81L611 344.508L613.497 342.013L617.804 346.316Z" fill="white"/>
<path fill-rule="evenodd" clip-rule="evenodd" d="M1490.8 152.316L1495.12 148L1497.62 150.495L1493.3 154.81L1497.62 159.126L1495.12 161.621L1490.8 157.305L1486.5 161.608L1484 159.113L1488.31 154.81L1484 150.508L1486.5 148.013L1490.8 152.316Z" fill="white"/>
<path fill-rule="evenodd" clip-rule="evenodd" d="M8.5 2.08696C5.03021 2.08696 2.21739 4.73432 2.21739 8C2.21739 11.2657 5.03021 13.913 8.5 13.913C11.9698 13.913 14.7826 11.2657 14.7826 8C14.7826 4.73432 11.9698 2.08696 8.5 2.08696ZM0 8C0 3.58172 3.80558 0 8.5 0C13.1944 0 17 3.58172 17 8C17 12.4183 13.1944 16 8.5 16C3.80558 16 0 12.4183 0 8Z" fill="white"/>
<path fill-rule="evenodd" clip-rule="evenodd" d="M523.5 84.087C520.03 84.087 517.217 86.7343 517.217 90C517.217 93.2657 520.03 95.913 523.5 95.913C526.97 95.913 529.783 93.2657 529.783 90C529.783 86.7343 526.97 84.087 523.5 84.087ZM515 90C515 85.5817 518.806 82 523.5 82C528.194 82 532 85.5817 532 90C532 94.4183 528.194 98 523.5 98C518.806 98 515 94.4183 515 90Z" fill="white"/>
<path fill-rule="evenodd" clip-rule="evenodd" d="M1605.5 316.087C1602.03 316.087 1599.22 318.734 1599.22 322C1599.22 325.266 1602.03 327.913 1605.5 327.913C1608.97 327.913 1611.78 325.266 1611.78 322C1611.78 318.734 1608.97 316.087 1605.5 316.087ZM1597 322C1597 317.582 1600.81 314 1605.5 314C1610.19 314 1614 317.582 1614 322C1614 326.418 1610.19 330 1605.5 330C1600.81 330 1597 326.418 1597 322Z" fill="white"/>
</svg>
