<svg width="234" height="234" viewBox="0 0 234 234" fill="none" xmlns="http://www.w3.org/2000/svg">
<g opacity="0.1">
<path d="M226.846 189.525C226.846 191.182 228.448 192.524 230.423 192.524C232.399 192.524 234 191.182 234 189.525C234 187.869 232.399 186.527 230.423 186.527C228.448 186.527 226.846 187.869 226.846 189.525Z" fill="#020818"/>
<path d="M226.846 210.286C226.846 211.942 228.448 213.285 230.423 213.285C232.399 213.285 234 211.942 234 210.286C234 208.63 232.399 207.287 230.423 207.287C228.448 207.287 226.846 208.63 226.846 210.286Z" fill="#020818"/>
<path d="M226.846 231.001C226.846 232.657 228.448 234 230.423 234C232.399 234 234 232.657 234 231.001C234 229.345 232.399 228.002 230.423 228.002C228.448 228.002 226.846 229.345 226.846 231.001Z" fill="#020818"/>
<path d="M226.846 168.81C226.846 170.467 228.448 171.809 230.423 171.809C232.399 171.809 234 170.467 234 168.81C234 167.154 232.399 165.812 230.423 165.812C228.448 165.812 226.846 167.154 226.846 168.81Z" fill="#020818"/>
<path d="M226.846 148.095C226.846 149.751 228.448 151.094 230.423 151.094C232.399 151.094 234 149.751 234 148.095C234 146.439 232.399 145.096 230.423 145.096C228.448 145.096 226.846 146.439 226.846 148.095Z" fill="#020818"/>
<path d="M226.846 44.4287C226.846 46.085 228.448 47.4276 230.423 47.4276C232.399 47.4276 234 46.085 234 44.4287C234 42.7725 232.399 41.4299 230.423 41.4299C228.448 41.4299 226.846 42.7725 226.846 44.4287Z" fill="#020818"/>
<path d="M226.846 65.1897C226.846 66.8459 228.448 68.1885 230.423 68.1885C232.399 68.1885 234 66.8459 234 65.1897C234 63.5335 232.399 62.1909 230.423 62.1909C228.448 62.1909 226.846 63.5335 226.846 65.1897Z" fill="#020818"/>
<path d="M226.846 85.9046C226.846 87.5608 228.448 88.9034 230.423 88.9034C232.399 88.9034 234 87.5608 234 85.9046C234 84.2484 232.399 82.9058 230.423 82.9058C228.448 82.9058 226.846 84.2484 226.846 85.9046Z" fill="#020818"/>
<path d="M226.846 106.619C226.846 108.276 228.448 109.618 230.423 109.618C232.399 109.618 234 108.276 234 106.619C234 104.963 232.399 103.621 230.423 103.621C228.448 103.621 226.846 104.963 226.846 106.619Z" fill="#020818"/>
<path d="M226.846 127.381C226.846 129.037 228.448 130.379 230.423 130.379C232.399 130.379 234 129.037 234 127.381C234 125.724 232.399 124.382 230.423 124.382C228.448 124.382 226.846 125.724 226.846 127.381Z" fill="#020818"/>
<path d="M226.846 23.7137C226.846 25.3699 228.448 26.7125 230.423 26.7125C232.399 26.7125 234 25.3699 234 23.7137C234 22.0575 232.399 20.7148 230.423 20.7148C228.448 20.7148 226.846 22.0575 226.846 23.7137Z" fill="#020818"/>
<path d="M226.845 2.99906C226.845 4.65526 228.447 5.99788 230.422 5.99788C232.398 5.99788 233.999 4.65526 233.999 2.99906C233.999 1.34286 232.398 0.0002441 230.422 0.00024405C228.447 0.000243999 226.845 1.34286 226.845 2.99906Z" fill="#020818"/>
<path d="M181.477 189.525C181.477 191.181 183.078 192.524 185.054 192.524C187.029 192.524 188.631 191.181 188.631 189.525C188.631 187.869 187.029 186.526 185.054 186.526C183.078 186.526 181.477 187.869 181.477 189.525Z" fill="#020818"/>
<path d="M181.477 210.286C181.477 211.942 183.078 213.285 185.054 213.285C187.029 213.285 188.631 211.942 188.631 210.286C188.631 208.63 187.029 207.287 185.054 207.287C183.078 207.287 181.477 208.63 181.477 210.286Z" fill="#020818"/>
<path d="M181.477 231.001C181.477 232.657 183.078 234 185.054 234C187.029 234 188.631 232.657 188.631 231.001C188.631 229.345 187.029 228.002 185.054 228.002C183.078 228.002 181.477 229.345 181.477 231.001Z" fill="#020818"/>
<path d="M181.477 168.81C181.477 170.467 183.078 171.809 185.054 171.809C187.029 171.809 188.631 170.467 188.631 168.81C188.631 167.154 187.029 165.812 185.054 165.812C183.078 165.812 181.477 167.154 181.477 168.81Z" fill="#020818"/>
<path d="M181.477 148.095C181.477 149.751 183.078 151.094 185.054 151.094C187.029 151.094 188.631 149.751 188.631 148.095C188.631 146.439 187.029 145.096 185.054 145.096C183.078 145.096 181.477 146.439 181.477 148.095Z" fill="#020818"/>
<path d="M181.477 44.4287C181.477 46.085 183.078 47.4276 185.054 47.4276C187.029 47.4276 188.631 46.085 188.631 44.4287C188.631 42.7725 187.029 41.4299 185.054 41.4299C183.078 41.4299 181.477 42.7725 181.477 44.4287Z" fill="#020818"/>
<path d="M181.477 65.1897C181.477 66.8459 183.078 68.1885 185.054 68.1885C187.029 68.1885 188.631 66.8459 188.631 65.1897C188.631 63.5335 187.029 62.1909 185.054 62.1909C183.078 62.1909 181.477 63.5335 181.477 65.1897Z" fill="#020818"/>
<path d="M181.477 85.9046C181.477 87.5608 183.078 88.9034 185.054 88.9034C187.029 88.9034 188.631 87.5608 188.631 85.9046C188.631 84.2484 187.029 82.9058 185.054 82.9058C183.078 82.9058 181.477 84.2484 181.477 85.9046Z" fill="#020818"/>
<path d="M181.477 106.619C181.477 108.276 183.078 109.618 185.054 109.618C187.029 109.618 188.631 108.276 188.631 106.619C188.631 104.963 187.029 103.621 185.054 103.621C183.078 103.621 181.477 104.963 181.477 106.619Z" fill="#020818"/>
<path d="M181.477 127.381C181.477 129.037 183.078 130.379 185.054 130.379C187.029 130.379 188.631 129.037 188.631 127.381C188.631 125.724 187.029 124.382 185.054 124.382C183.078 124.382 181.477 125.724 181.477 127.381Z" fill="#020818"/>
<path d="M181.477 23.7137C181.477 25.3699 183.078 26.7125 185.054 26.7125C187.029 26.7125 188.631 25.3699 188.631 23.7137C188.631 22.0575 187.029 20.7148 185.054 20.7148C183.078 20.7148 181.477 22.0575 181.477 23.7137Z" fill="#020818"/>
<path d="M181.477 2.99882C181.477 4.65502 183.078 5.99763 185.054 5.99763C187.029 5.99763 188.631 4.65502 188.631 2.99882C188.631 1.34262 187.029 -4.07204e-08 185.054 -9.09515e-08C183.078 -1.41183e-07 181.477 1.34262 181.477 2.99882Z" fill="#020818"/>
<path d="M136.108 189.525C136.108 191.181 137.709 192.524 139.685 192.524C141.66 192.524 143.262 191.181 143.262 189.525C143.262 187.869 141.66 186.526 139.685 186.526C137.709 186.526 136.108 187.869 136.108 189.525Z" fill="#020818"/>
<path d="M136.108 210.286C136.108 211.942 137.709 213.285 139.685 213.285C141.66 213.285 143.262 211.942 143.262 210.286C143.262 208.63 141.66 207.287 139.685 207.287C137.709 207.287 136.108 208.63 136.108 210.286Z" fill="#020818"/>
<path d="M136.108 231.001C136.108 232.657 137.709 234 139.685 234C141.66 234 143.262 232.657 143.262 231.001C143.262 229.345 141.66 228.002 139.685 228.002C137.709 228.002 136.108 229.345 136.108 231.001Z" fill="#020818"/>
<path d="M136.108 168.81C136.108 170.467 137.709 171.809 139.685 171.809C141.66 171.809 143.262 170.467 143.262 168.81C143.262 167.154 141.66 165.812 139.685 165.812C137.709 165.812 136.108 167.154 136.108 168.81Z" fill="#020818"/>
<path d="M136.108 148.095C136.108 149.751 137.709 151.094 139.685 151.094C141.66 151.094 143.262 149.751 143.262 148.095C143.262 146.439 141.66 145.096 139.685 145.096C137.709 145.096 136.108 146.439 136.108 148.095Z" fill="#020818"/>
<path d="M136.108 44.4287C136.108 46.085 137.709 47.4276 139.685 47.4276C141.66 47.4276 143.262 46.085 143.262 44.4287C143.262 42.7725 141.66 41.4299 139.685 41.4299C137.709 41.4299 136.108 42.7725 136.108 44.4287Z" fill="#020818"/>
<path d="M136.108 65.1897C136.108 66.8459 137.709 68.1885 139.685 68.1885C141.66 68.1885 143.262 66.8459 143.262 65.1897C143.262 63.5335 141.66 62.1909 139.685 62.1909C137.709 62.1909 136.108 63.5335 136.108 65.1897Z" fill="#020818"/>
<path d="M136.108 85.9046C136.108 87.5608 137.709 88.9034 139.685 88.9034C141.66 88.9034 143.262 87.5608 143.262 85.9046C143.262 84.2484 141.66 82.9058 139.685 82.9058C137.709 82.9058 136.108 84.2484 136.108 85.9046Z" fill="#020818"/>
<path d="M136.108 106.619C136.108 108.276 137.709 109.618 139.685 109.618C141.66 109.618 143.262 108.276 143.262 106.619C143.262 104.963 141.66 103.621 139.685 103.621C137.709 103.621 136.108 104.963 136.108 106.619Z" fill="#020818"/>
<path d="M136.108 127.381C136.108 129.037 137.709 130.379 139.685 130.379C141.66 130.379 143.262 129.037 143.262 127.381C143.262 125.724 141.66 124.382 139.685 124.382C137.709 124.382 136.108 125.724 136.108 127.381Z" fill="#020818"/>
<path d="M136.108 23.7137C136.108 25.3699 137.709 26.7125 139.685 26.7125C141.66 26.7125 143.262 25.3699 143.262 23.7137C143.262 22.0575 141.66 20.7148 139.685 20.7148C137.709 20.7148 136.108 22.0575 136.108 23.7137Z" fill="#020818"/>
<path d="M136.108 2.99882C136.108 4.65502 137.709 5.99763 139.685 5.99763C141.66 5.99763 143.262 4.65502 143.262 2.99882C143.262 1.34262 141.66 -4.07204e-08 139.685 -9.09515e-08C137.709 -1.41183e-07 136.108 1.34262 136.108 2.99882Z" fill="#020818"/>
<path d="M90.7386 189.525C90.7386 191.181 92.3401 192.524 94.3156 192.524C96.2911 192.524 97.8926 191.181 97.8926 189.525C97.8926 187.869 96.2911 186.526 94.3156 186.526C92.3401 186.526 90.7386 187.869 90.7386 189.525Z" fill="#020818"/>
<path d="M90.7386 210.286C90.7386 211.942 92.3401 213.285 94.3156 213.285C96.2911 213.285 97.8926 211.942 97.8926 210.286C97.8926 208.63 96.2911 207.287 94.3156 207.287C92.3401 207.287 90.7386 208.63 90.7386 210.286Z" fill="#020818"/>
<path d="M90.7386 231.001C90.7386 232.657 92.3401 234 94.3156 234C96.2911 234 97.8926 232.657 97.8926 231.001C97.8926 229.345 96.2911 228.002 94.3156 228.002C92.3401 228.002 90.7386 229.345 90.7386 231.001Z" fill="#020818"/>
<path d="M90.7386 168.81C90.7386 170.467 92.3401 171.809 94.3156 171.809C96.2911 171.809 97.8926 170.467 97.8926 168.81C97.8926 167.154 96.2911 165.812 94.3156 165.812C92.3401 165.812 90.7386 167.154 90.7386 168.81Z" fill="#020818"/>
<path d="M90.7386 148.095C90.7386 149.751 92.3401 151.094 94.3156 151.094C96.2911 151.094 97.8926 149.751 97.8926 148.095C97.8926 146.439 96.2911 145.096 94.3156 145.096C92.3401 145.096 90.7386 146.439 90.7386 148.095Z" fill="#020818"/>
<path d="M90.7386 44.4287C90.7386 46.085 92.3401 47.4276 94.3156 47.4276C96.2911 47.4276 97.8926 46.085 97.8926 44.4287C97.8926 42.7725 96.2911 41.4299 94.3156 41.4299C92.3401 41.4299 90.7386 42.7725 90.7386 44.4287Z" fill="#020818"/>
<path d="M90.7386 65.1897C90.7386 66.8459 92.3401 68.1885 94.3156 68.1885C96.2911 68.1885 97.8926 66.8459 97.8926 65.1897C97.8926 63.5335 96.2911 62.1909 94.3156 62.1909C92.3401 62.1909 90.7386 63.5335 90.7386 65.1897Z" fill="#020818"/>
<path d="M90.7386 85.9046C90.7386 87.5608 92.3401 88.9034 94.3156 88.9034C96.2911 88.9034 97.8926 87.5608 97.8926 85.9046C97.8926 84.2484 96.2911 82.9058 94.3156 82.9058C92.3401 82.9058 90.7386 84.2484 90.7386 85.9046Z" fill="#020818"/>
<path d="M90.7386 106.619C90.7386 108.276 92.3401 109.618 94.3156 109.618C96.2911 109.618 97.8926 108.276 97.8926 106.619C97.8926 104.963 96.2911 103.621 94.3156 103.621C92.3401 103.621 90.7386 104.963 90.7386 106.619Z" fill="#020818"/>
<path d="M90.7386 127.381C90.7386 129.037 92.3401 130.379 94.3156 130.379C96.2911 130.379 97.8926 129.037 97.8926 127.381C97.8926 125.724 96.2911 124.382 94.3156 124.382C92.3401 124.382 90.7386 125.724 90.7386 127.381Z" fill="#020818"/>
<path d="M90.7386 23.7137C90.7386 25.3699 92.3401 26.7125 94.3156 26.7125C96.2911 26.7125 97.8926 25.3699 97.8926 23.7137C97.8926 22.0575 96.2911 20.7148 94.3156 20.7148C92.3401 20.7148 90.7386 22.0575 90.7386 23.7137Z" fill="#020818"/>
<path d="M90.7386 2.99882C90.7386 4.65502 92.3401 5.99763 94.3156 5.99763C96.2911 5.99763 97.8926 4.65502 97.8926 2.99882C97.8926 1.34262 96.2911 -4.07203e-08 94.3156 -9.09514e-08C92.3401 -1.41182e-07 90.7386 1.34262 90.7386 2.99882Z" fill="#020818"/>
<path d="M45.3695 189.525C45.3695 191.181 46.971 192.524 48.9465 192.524C50.922 192.524 52.5234 191.181 52.5234 189.525C52.5234 187.869 50.922 186.526 48.9465 186.526C46.971 186.526 45.3695 187.869 45.3695 189.525Z" fill="#020818"/>
<path d="M45.3695 210.286C45.3695 211.942 46.971 213.285 48.9465 213.285C50.922 213.285 52.5234 211.942 52.5234 210.286C52.5234 208.63 50.922 207.287 48.9465 207.287C46.971 207.287 45.3695 208.63 45.3695 210.286Z" fill="#020818"/>
<path d="M45.3695 231.001C45.3695 232.657 46.971 234 48.9465 234C50.922 234 52.5234 232.657 52.5234 231.001C52.5234 229.345 50.922 228.002 48.9465 228.002C46.971 228.002 45.3695 229.345 45.3695 231.001Z" fill="#020818"/>
<path d="M45.3695 168.81C45.3695 170.467 46.971 171.809 48.9465 171.809C50.922 171.809 52.5234 170.467 52.5234 168.81C52.5234 167.154 50.922 165.812 48.9465 165.812C46.971 165.812 45.3695 167.154 45.3695 168.81Z" fill="#020818"/>
<path d="M45.3695 148.095C45.3695 149.751 46.971 151.094 48.9465 151.094C50.922 151.094 52.5234 149.751 52.5234 148.095C52.5234 146.439 50.922 145.096 48.9465 145.096C46.971 145.096 45.3695 146.439 45.3695 148.095Z" fill="#020818"/>
<path d="M45.3695 44.4287C45.3695 46.085 46.971 47.4276 48.9465 47.4276C50.922 47.4276 52.5234 46.085 52.5234 44.4287C52.5234 42.7725 50.922 41.4299 48.9465 41.4299C46.971 41.4299 45.3695 42.7725 45.3695 44.4287Z" fill="#020818"/>
<path d="M45.3695 65.1897C45.3695 66.8459 46.971 68.1885 48.9465 68.1885C50.922 68.1885 52.5234 66.8459 52.5234 65.1897C52.5234 63.5335 50.922 62.1909 48.9465 62.1909C46.971 62.1909 45.3695 63.5335 45.3695 65.1897Z" fill="#020818"/>
<path d="M45.3695 85.9046C45.3695 87.5608 46.971 88.9034 48.9465 88.9034C50.922 88.9034 52.5234 87.5608 52.5234 85.9046C52.5234 84.2484 50.922 82.9058 48.9465 82.9058C46.971 82.9058 45.3695 84.2484 45.3695 85.9046Z" fill="#020818"/>
<path d="M45.3695 106.619C45.3695 108.276 46.971 109.618 48.9465 109.618C50.922 109.618 52.5234 108.276 52.5234 106.619C52.5234 104.963 50.922 103.621 48.9465 103.621C46.971 103.621 45.3695 104.963 45.3695 106.619Z" fill="#020818"/>
<path d="M45.3695 127.381C45.3695 129.037 46.971 130.379 48.9465 130.379C50.922 130.379 52.5234 129.037 52.5234 127.381C52.5234 125.724 50.922 124.382 48.9465 124.382C46.971 124.382 45.3695 125.724 45.3695 127.381Z" fill="#020818"/>
<path d="M45.3695 23.7137C45.3695 25.3699 46.971 26.7125 48.9465 26.7125C50.922 26.7125 52.5234 25.3699 52.5234 23.7137C52.5234 22.0575 50.922 20.7148 48.9465 20.7148C46.971 20.7148 45.3695 22.0575 45.3695 23.7137Z" fill="#020818"/>
<path d="M45.3695 2.99882C45.3695 4.65502 46.971 5.99763 48.9465 5.99763C50.922 5.99763 52.5234 4.65502 52.5234 2.99882C52.5234 1.34262 50.922 -4.07203e-08 48.9465 -9.09513e-08C46.971 -1.41182e-07 45.3695 1.34262 45.3695 2.99882Z" fill="#020818"/>
<path d="M0.000342212 189.525C0.000342126 191.181 1.60181 192.524 3.57732 192.524C5.55283 192.524 7.1543 191.181 7.1543 189.525C7.1543 187.869 5.55283 186.526 3.57732 186.526C1.60181 186.526 0.000342299 187.869 0.000342212 189.525Z" fill="#020818"/>
<path d="M0.000342212 210.286C0.000342126 211.943 1.60181 213.285 3.57732 213.285C5.55283 213.285 7.1543 211.943 7.1543 210.286C7.1543 208.63 5.55283 207.288 3.57732 207.288C1.60181 207.288 0.000342299 208.63 0.000342212 210.286Z" fill="#020818"/>
<path d="M0.000342212 231.001C0.000342126 232.657 1.60181 234 3.57732 234C5.55283 234 7.1543 232.657 7.1543 231.001C7.1543 229.345 5.55283 228.002 3.57732 228.002C1.60181 228.002 0.000342299 229.345 0.000342212 231.001Z" fill="#020818"/>
<path d="M0.000342212 168.81C0.000342126 170.467 1.60181 171.809 3.57732 171.809C5.55283 171.809 7.1543 170.467 7.1543 168.81C7.1543 167.154 5.55283 165.812 3.57732 165.812C1.60181 165.812 0.000342299 167.154 0.000342212 168.81Z" fill="#020818"/>
<path d="M0.000342212 148.095C0.000342126 149.751 1.60181 151.094 3.57732 151.094C5.55283 151.094 7.1543 149.751 7.1543 148.095C7.1543 146.439 5.55283 145.096 3.57732 145.096C1.60181 145.096 0.000342299 146.439 0.000342212 148.095Z" fill="#020818"/>
<path d="M0.000342212 44.4287C0.000342126 46.085 1.60181 47.4276 3.57732 47.4276C5.55283 47.4276 7.1543 46.085 7.1543 44.4287C7.1543 42.7725 5.55283 41.4299 3.57732 41.4299C1.60181 41.4299 0.000342299 42.7725 0.000342212 44.4287Z" fill="#020818"/>
<path d="M0.000342212 65.1897C0.000342126 66.8459 1.60181 68.1885 3.57732 68.1885C5.55283 68.1885 7.1543 66.8459 7.1543 65.1897C7.1543 63.5335 5.55283 62.1909 3.57732 62.1909C1.60181 62.1909 0.000342299 63.5335 0.000342212 65.1897Z" fill="#020818"/>
<path d="M0.000342212 85.9046C0.000342126 87.5608 1.60181 88.9034 3.57732 88.9034C5.55283 88.9034 7.1543 87.5608 7.1543 85.9046C7.1543 84.2484 5.55283 82.9058 3.57732 82.9058C1.60181 82.9058 0.000342299 84.2484 0.000342212 85.9046Z" fill="#020818"/>
<path d="M0.000342212 106.619C0.000342126 108.276 1.60181 109.618 3.57732 109.618C5.55283 109.618 7.1543 108.276 7.1543 106.619C7.1543 104.963 5.55283 103.621 3.57732 103.621C1.60181 103.621 0.000342299 104.963 0.000342212 106.619Z" fill="#020818"/>
<path d="M0.000342212 127.381C0.000342126 129.037 1.60181 130.379 3.57732 130.379C5.55283 130.379 7.1543 129.037 7.1543 127.381C7.1543 125.724 5.55283 124.382 3.57732 124.382C1.60181 124.382 0.000342299 125.724 0.000342212 127.381Z" fill="#020818"/>
<path d="M0.000342212 23.7137C0.000342126 25.3699 1.60181 26.7125 3.57732 26.7125C5.55283 26.7125 7.1543 25.3699 7.1543 23.7137C7.1543 22.0575 5.55283 20.7148 3.57732 20.7148C1.60181 20.7148 0.000342299 22.0575 0.000342212 23.7137Z" fill="#020818"/>
<path d="M0.000342144 2.99882C0.000342019 4.65502 1.60181 5.99763 3.57732 5.99763C5.55283 5.99763 7.1543 4.65502 7.1543 2.99882C7.1543 1.34262 5.55283 -4.07204e-08 3.57732 -9.09515e-08C1.60181 -1.41183e-07 0.000342268 1.34262 0.000342144 2.99882Z" fill="#020818"/>
</g>
</svg>
