<svg width="532" height="600" viewBox="0 0 532 600" fill="none" xmlns="http://www.w3.org/2000/svg">
<path d="M362.561 453L354 461.561L362.582 470.1L371.143 461.539L362.561 453Z" fill="#FFCC48"/>
<path d="M8.56087 582L0 590.561L8.58236 599.1L17.1432 590.539L8.56087 582Z" fill="#020818"/>
<path fill-rule="evenodd" clip-rule="evenodd" d="M524.804 380.316L529.123 376L531.62 378.495L527.3 382.81L531.62 387.126L529.123 389.621L524.804 385.305L520.497 389.608L518 387.113L522.307 382.81L518 378.508L520.497 376.013L524.804 380.316Z" fill="#0AB3CA"/>
<path fill-rule="evenodd" clip-rule="evenodd" d="M32.5 2.08696C29.0302 2.08696 26.2174 4.73432 26.2174 8C26.2174 11.2657 29.0302 13.913 32.5 13.913C35.9698 13.913 38.7826 11.2657 38.7826 8C38.7826 4.73432 35.9698 2.08696 32.5 2.08696ZM24 8C24 3.58172 27.8056 0 32.5 0C37.1944 0 41 3.58172 41 8C41 12.4183 37.1944 16 32.5 16C27.8056 16 24 12.4183 24 8Z" fill="#020818"/>
</svg>
