<svg width="1553" height="455" viewBox="0 0 1553 455" fill="none" xmlns="http://www.w3.org/2000/svg">
<path d="M420.561 364L412 372.561L420.582 381.1L429.143 372.539L420.561 364Z" fill="#FFCC48"/>
<path fill-rule="evenodd" clip-rule="evenodd" d="M1392 138.166L1402.17 128L1412.36 138.14L1402.19 148.306L1392 138.166ZM1395.21 138.162L1402.19 145.1L1409.14 138.144L1402.17 131.206L1395.21 138.162Z" fill="#020818"/>
<path fill-rule="evenodd" clip-rule="evenodd" d="M1534.71 212.661L1534.71 209.132L1540.79 209.129L1540.8 203.023L1544.33 203.022L1544.32 209.128L1550.43 209.125L1550.43 212.654L1544.32 212.657L1544.32 218.745L1540.79 218.747L1540.79 212.659L1534.71 212.661Z" fill="#FFCC48"/>
<path fill-rule="evenodd" clip-rule="evenodd" d="M6.81005 378.309L11.1233 374L13.6201 376.495L9.30685 380.804L13.6201 385.113L11.1233 387.608L6.81004 383.298L2.49681 387.608L0 385.113L4.31324 380.804L0 376.495L2.49681 374L6.81005 378.309Z" fill="#0AB3CA"/>
<ellipse cx="1180.5" cy="448" rx="7.5" ry="7" fill="#0AB3CA"/>
<path fill-rule="evenodd" clip-rule="evenodd" d="M33.5 2.08696C30.0302 2.08696 27.2174 4.73432 27.2174 8C27.2174 11.2657 30.0302 13.913 33.5 13.913C36.9698 13.913 39.7826 11.2657 39.7826 8C39.7826 4.73432 36.9698 2.08696 33.5 2.08696ZM25 8C25 3.58172 28.8056 0 33.5 0C38.1944 0 42 3.58172 42 8C42 12.4183 38.1944 16 33.5 16C28.8056 16 25 12.4183 25 8Z" fill="#020818"/>
</svg>
