<svg width="1383" height="600" viewBox="0 0 1383 600" fill="none" xmlns="http://www.w3.org/2000/svg">
<path d="M538.561 290L530 298.561L538.582 307.1L547.143 298.539L538.561 290Z" fill="#FFCC48"/>
<path fill-rule="evenodd" clip-rule="evenodd" d="M1362 10.166L1372.17 -6.14711e-06L1382.36 10.1404L1372.19 20.3065L1362 10.166ZM1365.21 10.162L1372.19 17.1002L1379.14 10.1445L1372.17 3.20625L1365.21 10.162Z" fill="#020818"/>
<path fill-rule="evenodd" clip-rule="evenodd" d="M958.732 591.539L958.733 588.009L964.821 588.007L964.824 581.901L968.353 581.899L968.351 588.005L974.457 588.002L974.455 591.532L968.349 591.534L968.346 597.623L964.817 597.624L964.82 591.536L958.732 591.539Z" fill="#FFCC48"/>
<path fill-rule="evenodd" clip-rule="evenodd" d="M120.81 218.309L125.123 214L127.62 216.495L123.307 220.804L127.62 225.113L125.123 227.608L120.81 223.298L116.497 227.608L114 225.113L118.313 220.804L114 216.495L116.497 214L120.81 218.309Z" fill="#0AB3CA"/>
<ellipse cx="1323.5" cy="587" rx="7.5" ry="7" fill="#0AB3CA"/>
<path fill-rule="evenodd" clip-rule="evenodd" d="M8.5 73.087C5.03021 73.087 2.21739 75.7343 2.21739 79C2.21739 82.2657 5.03021 84.913 8.5 84.913C11.9698 84.913 14.7826 82.2657 14.7826 79C14.7826 75.7343 11.9698 73.087 8.5 73.087ZM0 79C0 74.5817 3.80558 71 8.5 71C13.1944 71 17 74.5817 17 79C17 83.4183 13.1944 87 8.5 87C3.80558 87 0 83.4183 0 79Z" fill="#020818"/>
</svg>
