<svg width="758" height="492" viewBox="0 0 758 492" fill="none" xmlns="http://www.w3.org/2000/svg">
<path d="M623.561 30.0002L615 38.5611L623.582 47.1004L632.143 38.5396L623.561 30.0002Z" fill="#FFCC48"/>
<path fill-rule="evenodd" clip-rule="evenodd" d="M737 300.166L747.166 290L757.358 300.14L747.192 310.307L737 300.166ZM740.214 300.162L747.188 307.1L754.143 300.145L747.17 293.206L740.214 300.162Z" fill="#020818"/>
<path fill-rule="evenodd" clip-rule="evenodd" d="M566.732 483.539L566.733 480.009L572.821 480.007L572.824 473.901L576.353 473.899L576.351 480.005L582.457 480.002L582.455 483.532L576.349 483.534L576.346 489.623L572.817 489.624L572.82 483.536L566.732 483.539Z" fill="#FFCC48"/>
<path fill-rule="evenodd" clip-rule="evenodd" d="M8.5 2.08702C5.03021 2.08702 2.21739 4.73438 2.21739 8.00006C2.21739 11.2657 5.03021 13.9131 8.5 13.9131C11.9698 13.9131 14.7826 11.2657 14.7826 8.00006C14.7826 4.73438 11.9698 2.08702 8.5 2.08702ZM0 8.00006C0 3.58178 3.80558 6.10352e-05 8.5 6.10352e-05C13.1944 6.10352e-05 17 3.58178 17 8.00006C17 12.4183 13.1944 16.0001 8.5 16.0001C3.80558 16.0001 0 12.4183 0 8.00006Z" fill="#020818"/>
</svg>
