<svg width="1171" height="328" viewBox="0 0 1171 328" fill="none" xmlns="http://www.w3.org/2000/svg">
<mask id="path-1-inside-1_731_532" fill="white">
<path fill-rule="evenodd" clip-rule="evenodd" d="M0 280.168C0 280.168 124.291 286.015 128.471 282.216C132.652 278.418 134.63 272.384 124.552 276.444C114.475 280.466 77.1499 324.151 69.4984 324.337C61.8468 324.523 54.7178 317.931 63.7131 318.229C72.7083 318.49 716.296 325.64 707.488 326.236C698.679 326.795 665.385 281.248 677.516 285.494C689.609 289.702 429.494 285.792 423.895 288.622C418.297 291.452 414.564 307.615 380.076 311.265C345.588 314.877 316.289 301.172 314.049 295.102C311.772 288.994 317.52 277.077 330.808 254.397C344.245 231.493 352.568 210.898 348.462 211.196C344.357 211.494 364.624 213.952 364.624 213.952C364.624 213.952 366.938 259.052 363.84 240.952C360.742 222.704 377.464 109.414 385.712 99.4333C393.998 89.378 453.568 85.4676 487.72 83.9407C521.835 82.3766 540.908 78.3917 547.514 77.6841C554.121 76.9765 563.265 97.5712 557.032 99.2099C550.836 100.849 545.947 79.0248 553.561 73.662C561.175 68.2619 567.894 66.6233 574.5 50.6465C581.144 34.5953 587.004 13.5164 591.52 15.155C596.036 16.7937 608.951 26.0297 609.249 41.9319C609.548 57.7225 604.173 67.0329 602.829 77.3862C601.523 87.7022 604.845 101.444 601.001 105.951C597.193 110.457 565.281 111.165 565.729 107.44C566.177 103.716 570.021 98.7257 567.931 89.2663C565.841 79.7696 557.592 70.9433 558.301 76.6413C559.01 82.3393 563.863 99.9175 561.063 104.014C558.264 108.111 537.997 111.574 511.422 118.054C484.884 124.497 460.884 133.845 447.111 133.323C433.301 132.839 427.964 130.791 429.27 131.759C430.576 132.728 433.189 179.019 435.653 201.178C438.116 223.114 436.623 262.18 430.166 278.492C423.746 294.655 387.877 313.239 377.464 304.785C367.013 296.331 364.176 281.583 357.458 287.43C350.739 293.24 342.043 301.992 339.281 297.188C336.519 292.383 342.714 281.36 334.391 284.525C326.105 287.728 315.206 302.848 324.313 287.654C333.495 272.347 360.033 225.385 354.248 217.602C348.462 209.818 345.663 204.828 338.422 204.12C331.181 203.413 289.116 218.98 306.659 215.107C324.239 211.233 340.4 201.923 333.085 195.406C325.769 188.851 319.125 192.24 317.931 183.153C316.699 174.029 319.275 156.339 307.331 155.482C295.387 154.589 236.339 151.609 251.68 159.02C266.983 166.394 322.559 161.962 340.662 159.84C358.764 157.717 383.809 160.882 404.636 159.355C425.426 157.791 450.321 151.833 459.951 152.168C469.543 152.503 477.419 156.451 487.011 156.786C496.604 157.121 523.627 152.577 525.157 151.274C526.687 149.971 491.826 150.082 500.448 150.864C509.07 151.646 532.099 150.604 531.353 145.092C530.606 139.543 487.832 144.459 498.843 144.384C509.854 144.31 531.428 144.161 530.606 139.543C529.748 134.925 492.498 134.962 498.358 136.079C504.218 137.197 533.555 137.792 529.487 133.063C525.418 128.296 487.795 126.955 489.997 127.961C492.199 128.966 505.114 111.798 499.216 110.643C493.319 109.489 490.109 127.03 468.274 128.556C446.439 130.083 433.637 133.77 412.474 133.025C391.274 132.281 381.98 132.839 368.207 131.424C354.434 130.009 306.062 131.983 293.371 126.881C280.644 121.778 247.835 116.416 233.241 119.134C218.647 121.853 202.038 128.705 201.142 149.933C200.358 170.938 241.378 208.924 260.75 197.454C280.196 185.946 279.785 169.597 279.785 169.597C279.785 169.597 280.905 181.44 274.186 194.772C267.468 208.031 249.179 216.782 234.884 210.489C220.551 204.195 216.557 191.011 208.794 179.429C200.993 167.772 186.026 147.55 198.753 131.834C211.556 116.006 233.54 115.41 222.716 116.9C211.892 118.389 199.089 133.137 199.015 122.896C198.977 112.58 206.293 103.381 201.739 99.4333C197.186 95.4857 182.107 96.8264 172.888 77.0137C163.594 57.0521 168.67 47.5927 169.379 54.8548C170.088 62.0798 159.861 69.8633 160.496 79.8814C161.13 89.8622 183.152 99.0609 173.671 114.181C164.266 129.227 150.829 140.772 158.406 137.83C165.982 134.85 163.706 132.467 151.277 111.5C138.698 90.3463 121.641 81.2966 136.907 59.8453C152.284 38.245 171.208 43.3099 167.849 44.1664C164.489 45.023 161.839 23.5345 172.738 12.2129C183.712 0.854167 210.959 -3.80106 221.671 3.53558C232.346 10.835 220.252 13.2929 216.109 20.4806C211.966 27.6311 219.805 33.776 219.021 40.5167C218.237 47.2575 213.459 47.5554 213.198 53.8121C212.937 60.0687 215.438 67.815 214.094 65.357C212.787 62.8991 211.63 54.5197 205.845 56.6797C200.06 58.877 205.472 78.3917 209.092 81.8552C212.713 85.3187 188.676 96.5285 185.764 72.6937C182.853 48.5982 189.348 15.304 206.293 11.0584C223.238 6.81286 235.294 8.0046 245.036 24.0186C254.703 39.9209 254.554 50.3858 256.084 66.2881C257.577 82.0786 252.053 91.3146 243.58 91.4636C235.108 91.6126 229.061 88.2608 229.061 88.2608C229.061 88.2608 234.622 88.2235 235.369 101.966C236.078 115.634 246.716 112.096 252.24 113.697C257.764 115.298 286.466 111.202 320.954 118.054C355.293 124.87 371.94 125.465 372.985 124.125C374.03 122.784 377.464 91.0912 381.943 87.4787C386.422 83.8662 398.851 75.3379 441.998 74.1089C485.07 72.8799 526.053 69.2302 528.404 69.3047C530.718 69.3792 533.443 74.2206 531.651 73.6992C529.86 73.1406 521.499 72.8427 528.964 64.575C536.429 56.27 542.998 47.9279 549.679 34.7443C556.398 21.4862 555.017 8.78668 563.489 9.12186C571.925 9.45703 577.561 21.3372 576.478 30.4614C575.359 39.5485 571.066 51.8755 566.027 58.8397C560.989 65.8039 550.314 73.4385 544.827 72.7682C539.303 72.0978 537.735 65.3943 542.028 68.8578C546.283 72.3213 552.777 104.089 547.626 104.833C542.438 105.578 521.872 82.749 523.403 94.1078C524.933 105.392 528.292 112.505 524 109.563C519.708 106.621 496.156 101.519 462.788 105.913C429.457 110.308 423.336 111.016 426.993 116.751C430.651 122.449 439.833 127.886 429.494 124.721C419.118 121.555 403.74 112.17 409.712 117.98C415.684 123.79 426.657 135.26 427.329 143.118C428.001 150.939 426.247 175.034 426.993 191.793C427.74 208.403 430.427 256.631 417.364 257.525C404.263 258.419 391.386 240.878 386.533 250.412C381.681 259.871 378.583 275.885 369.737 268.66C360.891 261.398 363.131 250.114 355.554 254.695C348.014 259.275 339.803 217.527 335.138 225.385C330.509 233.206 318.976 268.809 304.345 265.718C289.676 262.627 227.605 220.469 216.259 208.477C204.875 196.411 189.46 154.961 195.506 166.171C201.515 177.306 223.985 219.464 237.011 232.35C249.963 245.123 300.239 273.018 305.427 283.147C310.578 293.24 165.199 279.907 151.015 285.978C136.832 292.048 105.815 305.753 122.873 308.882C139.893 311.973 282.025 299.236 269.67 304.003C257.353 308.77 236.75 309.403 253.173 311.19C269.596 312.978 504.554 308.621 524.224 306.275C543.894 303.891 640.117 286.015 632.988 296.033C625.859 306.014 576.217 309.552 608.204 313.09C640.117 316.591 1170.8 327.8 1170.8 327.8"/>
</mask>
<path d="M0.0939813 278.17C-1.00937 278.118 -1.94589 278.971 -1.99779 280.074C-2.0497 281.177 -1.19733 282.114 -0.0939813 282.166L0.0939813 278.17ZM124.552 276.444L125.294 278.301L125.299 278.299L124.552 276.444ZM63.7131 318.229L63.6469 320.228L63.6551 320.228L63.7131 318.229ZM707.488 326.236L707.614 328.232L707.623 328.232L707.488 326.236ZM677.516 285.494L676.855 287.381L676.859 287.383L677.516 285.494ZM380.076 311.265L380.285 313.254L380.287 313.254L380.076 311.265ZM314.049 295.102L315.926 294.41L315.923 294.403L314.049 295.102ZM330.808 254.397L329.083 253.385L329.082 253.386L330.808 254.397ZM364.624 213.952L366.621 213.85C366.572 212.878 365.83 212.084 364.865 211.967L364.624 213.952ZM363.84 240.952L361.868 241.287L361.869 241.29L363.84 240.952ZM385.712 99.4333L387.254 100.707L387.256 100.705L385.712 99.4333ZM487.72 83.9407L487.81 85.9387L487.812 85.9386L487.72 83.9407ZM557.032 99.2099L556.524 97.2756L556.521 97.2764L557.032 99.2099ZM553.561 73.662L554.713 75.2971L554.718 75.2934L553.561 73.662ZM574.5 50.6465L572.652 49.8816L572.652 49.8823L574.5 50.6465ZM609.249 41.9319L607.25 41.9695V41.9697L609.249 41.9319ZM602.829 77.3862L600.846 77.1288L600.845 77.1349L602.829 77.3862ZM601.001 105.951L599.479 104.653L599.473 104.66L601.001 105.951ZM567.931 89.2663L565.978 89.6962L565.978 89.6978L567.931 89.2663ZM511.422 118.054L511.893 119.998L511.895 119.997L511.422 118.054ZM447.111 133.323L447.187 131.325L447.181 131.325L447.111 133.323ZM435.653 201.178L433.665 201.399L433.665 201.401L435.653 201.178ZM430.166 278.492L432.025 279.23L432.026 279.228L430.166 278.492ZM377.464 304.785L378.724 303.232L378.721 303.23L377.464 304.785ZM357.458 287.43L358.766 288.943L358.771 288.939L357.458 287.43ZM334.391 284.525L333.68 282.656L333.67 282.66L334.391 284.525ZM324.313 287.654L322.598 286.625L322.598 286.625L324.313 287.654ZM306.659 215.107L306.229 213.153L306.228 213.154L306.659 215.107ZM333.085 195.406L331.75 196.895L331.754 196.899L333.085 195.406ZM317.931 183.153L319.914 182.892L319.913 182.885L317.931 183.153ZM307.331 155.482L307.181 157.477L307.188 157.477L307.331 155.482ZM251.68 159.02L250.81 160.821L250.812 160.822L251.68 159.02ZM404.636 159.355L404.782 161.35L404.786 161.35L404.636 159.355ZM459.951 152.168L460.021 150.169L460.021 150.169L459.951 152.168ZM531.353 145.092L529.371 145.359L529.371 145.36L531.353 145.092ZM530.606 139.543L532.576 139.193C532.575 139.188 532.574 139.182 532.573 139.177L530.606 139.543ZM529.487 133.063L527.965 134.361L527.97 134.367L529.487 133.063ZM412.474 133.025L412.544 131.027L412.544 131.027L412.474 133.025ZM293.371 126.881L294.117 125.025L294.115 125.024L293.371 126.881ZM201.142 149.933L199.144 149.849L199.144 149.859L201.142 149.933ZM260.75 197.454L259.731 195.733L259.731 195.733L260.75 197.454ZM279.785 169.597L281.776 169.409C281.675 168.336 280.742 167.536 279.666 167.601C278.59 167.665 277.759 168.57 277.786 169.647L279.785 169.597ZM274.186 194.772L275.97 195.677L275.973 195.673L274.186 194.772ZM234.884 210.489L235.69 208.658L235.688 208.657L234.884 210.489ZM208.794 179.429L207.132 180.541L207.132 180.542L208.794 179.429ZM198.753 131.834L200.308 133.092L200.308 133.092L198.753 131.834ZM199.015 122.896L197.015 122.903L197.015 122.91L199.015 122.896ZM172.888 77.0137L174.701 76.17L174.701 76.1696L172.888 77.0137ZM169.379 54.8548L167.388 55.0492L167.389 55.0502L169.379 54.8548ZM160.496 79.8814L158.5 80.0078L158.5 80.0083L160.496 79.8814ZM173.671 114.181L171.977 113.119L171.975 113.121L173.671 114.181ZM158.406 137.83L159.13 139.694L159.137 139.691L158.406 137.83ZM151.277 111.5L152.997 110.48L152.996 110.478L151.277 111.5ZM136.907 59.8453L135.277 58.6853L135.277 58.6856L136.907 59.8453ZM172.738 12.2129L171.3 10.8233L171.297 10.8259L172.738 12.2129ZM221.671 3.53558L220.541 5.18567L220.542 5.18651L221.671 3.53558ZM216.109 20.4806L217.84 21.4833L217.842 21.4794L216.109 20.4806ZM214.094 65.357L212.328 66.2957C212.331 66.3026 212.335 66.3095 212.339 66.3164L214.094 65.357ZM205.845 56.6797L205.146 54.806L205.135 54.81L205.845 56.6797ZM185.764 72.6937L183.779 72.9336L183.779 72.9362L185.764 72.6937ZM245.036 24.0186L246.745 22.9797L246.745 22.9792L245.036 24.0186ZM256.084 66.2881L258.075 66.0998L258.075 66.0965L256.084 66.2881ZM229.061 88.2608L229.048 86.2608C228.138 86.2669 227.348 86.8855 227.123 87.7665C226.898 88.6475 227.296 89.5692 228.091 90.01L229.061 88.2608ZM235.369 101.966L237.366 101.862L237.366 101.857L235.369 101.966ZM252.24 113.697L251.683 115.618L252.24 113.697ZM320.954 118.054L320.564 120.016L320.565 120.016L320.954 118.054ZM441.998 74.1089L442.055 76.1081H442.055L441.998 74.1089ZM528.404 69.3047L528.469 67.3057L528.468 67.3057L528.404 69.3047ZM531.651 73.6992L531.056 75.6086C531.068 75.6123 531.08 75.616 531.093 75.6196L531.651 73.6992ZM528.964 64.575L530.449 65.9153L530.452 65.912L528.964 64.575ZM549.679 34.7443L551.463 35.6483V35.6483L549.679 34.7443ZM563.489 9.12186L563.569 7.12343L563.568 7.12342L563.489 9.12186ZM576.478 30.4614L578.463 30.706L578.464 30.697L576.478 30.4614ZM544.827 72.7682L545.07 70.7829L545.068 70.7827L544.827 72.7682ZM542.028 68.8578L543.29 67.3067L543.284 67.3013L542.028 68.8578ZM547.626 104.833L547.911 106.813L547.913 106.813L547.626 104.833ZM523.403 94.1078L521.421 94.3748L521.421 94.3765L523.403 94.1078ZM462.788 105.913L462.526 103.931L462.526 103.931L462.788 105.913ZM426.993 116.751L425.307 117.826L425.31 117.831L426.993 116.751ZM429.494 124.721L430.08 122.808L430.078 122.808L429.494 124.721ZM427.329 143.118L425.337 143.288L425.337 143.289L427.329 143.118ZM426.993 191.793L424.995 191.882L424.995 191.883L426.993 191.793ZM417.364 257.525L417.5 259.52L417.5 259.52L417.364 257.525ZM386.533 250.412L388.313 251.325L388.316 251.319L386.533 250.412ZM369.737 268.66L368.468 270.206L368.472 270.209L369.737 268.66ZM355.554 254.695L354.519 252.983L354.516 252.985L355.554 254.695ZM335.138 225.385L333.418 224.364L333.416 224.367L335.138 225.385ZM304.345 265.718L304.758 263.761L304.757 263.761L304.345 265.718ZM216.259 208.477L214.804 209.85L214.806 209.852L216.259 208.477ZM195.506 166.171L193.746 167.12L193.746 167.121L195.506 166.171ZM237.011 232.35L235.605 233.771L235.607 233.773L237.011 232.35ZM305.427 283.147L307.209 282.238L307.207 282.236L305.427 283.147ZM122.873 308.882L122.512 310.849L122.515 310.849L122.873 308.882ZM269.67 304.003L268.95 302.137L268.948 302.138L269.67 304.003ZM524.224 306.275L524.461 308.261L524.464 308.26L524.224 306.275ZM632.988 296.033L634.615 297.196L634.617 297.193L632.988 296.033ZM608.204 313.09L607.984 315.078L607.986 315.078L608.204 313.09ZM1170.76 329.8C1171.86 329.823 1172.77 328.947 1172.8 327.843C1172.82 326.738 1171.94 325.824 1170.84 325.801L1170.76 329.8ZM0 280.168C-0.0939813 282.166 -0.0934758 282.166 -0.092498 282.166C-0.0915411 282.166 -0.0900909 282.166 -0.0881807 282.166C-0.0843601 282.166 -0.0786575 282.167 -0.0710873 282.167C-0.0559469 282.168 -0.0333362 282.169 -0.00337184 282.17C0.0565568 282.173 0.1459 282.177 0.263727 282.183C0.499379 282.194 0.848962 282.21 1.30502 282.231C2.21713 282.273 3.55514 282.334 5.25937 282.41C8.66782 282.562 13.5413 282.776 19.4024 283.021C31.124 283.509 46.7985 284.122 62.6056 284.616C78.4084 285.109 94.3608 285.485 106.632 285.499C112.763 285.506 118.004 285.423 121.858 285.216C123.779 285.113 125.399 284.977 126.627 284.798C127.239 284.71 127.8 284.603 128.275 284.47C128.66 284.362 129.312 284.155 129.816 283.697L127.126 280.736C127.37 280.515 127.525 280.526 127.195 280.619C126.954 280.687 126.581 280.763 126.052 280.84C125 280.993 123.521 281.121 121.644 281.222C117.9 281.423 112.746 281.506 106.636 281.499C94.427 281.485 78.5229 281.111 62.7304 280.618C46.9422 280.125 31.2827 279.513 19.5691 279.024C13.7126 278.78 8.84324 278.566 5.4382 278.414C3.7357 278.338 2.39931 278.277 1.48871 278.235C1.03341 278.214 0.684565 278.198 0.449623 278.187C0.332152 278.181 0.243158 278.177 0.183574 278.174C0.153782 278.173 0.131342 278.172 0.116371 278.171C0.108885 278.171 0.103267 278.171 0.0995307 278.171C0.0976624 278.17 0.0962752 278.17 0.0953392 278.17C0.0944241 278.17 0.0939813 278.17 0 280.168ZM129.816 283.697C130.986 282.634 132.027 281.394 132.759 280.163C133.432 279.03 134.073 277.522 133.832 276.059C133.696 275.232 133.276 274.437 132.506 273.872C131.783 273.342 130.923 273.14 130.097 273.101C128.489 273.027 126.396 273.545 123.805 274.589L125.299 278.299C127.747 277.313 129.186 277.063 129.911 277.097C130.252 277.113 130.258 277.184 130.14 277.097C129.976 276.977 129.9 276.797 129.885 276.708C129.879 276.672 129.901 276.776 129.813 277.066C129.728 277.342 129.57 277.699 129.32 278.119C128.82 278.961 128.047 279.9 127.126 280.736L129.816 283.697ZM123.811 274.586C122.262 275.205 120.383 276.487 118.367 278.079C116.308 279.706 113.95 281.783 111.416 284.13C106.348 288.824 100.468 294.698 94.7075 300.408C88.9261 306.14 83.269 311.702 78.5866 315.842C76.2425 317.915 74.1876 319.591 72.5134 320.743C71.6758 321.32 70.9735 321.737 70.4077 322.006C69.8088 322.291 69.5144 322.336 69.4497 322.337L69.5471 326.336C70.4388 326.315 71.3327 325.996 72.1261 325.619C72.9525 325.225 73.8466 324.681 74.7815 324.038C76.6525 322.75 78.8476 320.951 81.2361 318.839C86.019 314.61 91.7576 308.965 97.5235 303.249C103.311 297.512 109.129 291.7 114.133 287.065C116.635 284.748 118.906 282.751 120.847 281.218C122.831 279.651 124.323 278.689 125.294 278.301L123.811 274.586ZM69.4497 322.337C67.8212 322.377 66.1909 322.054 64.7891 321.541C63.3623 321.019 62.3102 320.351 61.7655 319.815C61.483 319.537 61.4621 319.418 61.4852 319.493C61.5383 319.667 61.5419 320.053 61.2834 320.363C61.1218 320.558 61.0601 320.468 61.5182 320.362C61.939 320.264 62.6222 320.194 63.6469 320.228L63.7793 316.23C62.5551 316.19 61.4934 316.261 60.6123 316.466C59.7684 316.662 58.8476 317.037 58.209 317.805C57.4734 318.688 57.3819 319.756 57.661 320.666C57.9101 321.478 58.4363 322.151 58.9609 322.667C60.0305 323.719 61.6331 324.645 63.4139 325.297C65.2197 325.958 67.3498 326.39 69.5471 326.336L69.4497 322.337ZM63.6551 320.228C68.1757 320.359 231.357 322.212 392.253 324.107C472.713 325.054 552.616 326.012 611.853 326.77C641.472 327.149 665.923 327.479 682.693 327.732C691.079 327.858 697.541 327.965 701.768 328.051C703.883 328.093 705.43 328.13 706.377 328.161C706.861 328.176 707.154 328.189 707.286 328.199C707.319 328.201 707.317 328.201 707.295 328.199C707.281 328.197 707.223 328.188 707.188 328.182C707.114 328.166 706.83 328.077 706.633 327.985C705.903 327.315 705.817 325.276 706.603 324.478C706.823 324.372 707.139 324.274 707.219 324.258C707.317 324.241 707.384 324.239 707.353 324.241L707.623 328.232C707.66 328.229 707.776 328.221 707.903 328.2C707.998 328.181 708.324 328.08 708.548 327.973C709.339 327.171 709.253 325.13 708.517 324.457C708.315 324.363 708.022 324.27 707.933 324.252C707.883 324.243 707.804 324.231 707.766 324.227C707.695 324.218 707.624 324.212 707.569 324.209C707.349 324.193 706.982 324.178 706.506 324.163C705.533 324.131 703.965 324.094 701.848 324.051C697.611 323.966 691.14 323.859 682.754 323.732C665.979 323.479 641.524 323.15 611.905 322.771C552.665 322.012 472.761 321.055 392.3 320.107C231.356 318.212 68.2457 316.36 63.771 316.23L63.6551 320.228ZM707.361 324.24C707.234 324.248 706.911 324.218 706.335 323.978C705.778 323.746 705.098 323.365 704.303 322.821C702.712 321.733 700.832 320.108 698.789 318.087C694.712 314.054 690.172 308.632 686.263 303.3C682.333 297.941 679.145 292.813 677.684 289.367C677.323 288.514 677.092 287.822 676.975 287.293C676.848 286.719 676.9 286.535 676.886 286.585C676.826 286.802 676.57 287.12 676.221 287.203C676.084 287.236 676.224 287.16 676.855 287.381L678.177 283.606C677.292 283.296 676.271 283.079 675.293 283.312C674.103 283.596 673.327 284.456 673.033 285.512C672.786 286.4 672.891 287.349 673.07 288.157C673.258 289.01 673.586 289.948 674.001 290.928C675.647 294.81 679.058 300.238 683.037 305.665C687.036 311.119 691.712 316.713 695.976 320.931C698.104 323.035 700.175 324.844 702.044 326.122C702.978 326.762 703.905 327.299 704.797 327.67C705.671 328.034 706.64 328.294 707.614 328.232L707.361 324.24ZM676.859 287.383C677.045 287.447 676.737 287.384 676.427 287.054C676.224 286.838 675.861 286.325 675.934 285.581C676.003 284.881 676.413 284.476 676.579 284.336C676.866 284.094 677.107 284.059 676.931 284.109C676.843 284.134 676.674 284.172 676.399 284.217C675.281 284.4 673.207 284.572 670.219 284.723C664.295 285.022 655.138 285.225 643.753 285.36C620.996 285.629 589.454 285.623 557.343 285.575C525.24 285.526 492.57 285.434 467.578 285.531C455.084 285.579 444.496 285.675 436.851 285.848C433.032 285.934 429.929 286.04 427.684 286.17C426.564 286.235 425.632 286.307 424.92 286.389C424.566 286.43 424.24 286.476 423.959 286.531C423.733 286.575 423.346 286.658 422.993 286.837L424.798 290.407C424.619 290.497 424.532 290.495 424.726 290.457C424.864 290.43 425.077 290.398 425.379 290.363C425.98 290.293 426.825 290.226 427.915 290.163C430.089 290.037 433.136 289.933 436.942 289.847C444.547 289.675 455.104 289.579 467.594 289.531C492.571 289.434 525.224 289.526 557.337 289.575C589.443 289.623 621.012 289.629 643.801 289.36C655.189 289.225 664.413 289.021 670.421 288.718C673.399 288.567 675.679 288.388 677.045 288.165C677.392 288.108 677.727 288.041 678.022 287.958C678.229 287.899 678.733 287.752 679.158 287.394C679.392 287.196 679.84 286.732 679.915 285.972C679.994 285.168 679.605 284.594 679.344 284.316C678.918 283.863 678.365 283.671 678.173 283.605L676.859 287.383ZM422.993 286.837C422.008 287.335 421.157 288.076 420.391 288.858C419.625 289.64 418.832 290.583 418.013 291.545C416.348 293.502 414.377 295.784 411.555 298.087C405.956 302.655 396.784 307.486 379.866 309.276L380.287 313.254C397.856 311.395 407.794 306.318 414.084 301.186C417.206 298.638 419.373 296.12 421.06 294.137C421.918 293.128 422.604 292.315 423.248 291.657C423.892 291 424.384 290.616 424.798 290.407L422.993 286.837ZM379.868 309.276C362.932 311.05 347.261 308.57 335.568 304.906C329.72 303.074 324.91 300.959 321.462 298.965C319.735 297.967 318.389 297.021 317.433 296.183C316.431 295.306 316.031 294.696 315.926 294.41L312.173 295.794C312.627 297.025 313.633 298.172 314.797 299.192C316.006 300.252 317.586 301.344 319.46 302.428C323.213 304.598 328.304 306.822 334.372 308.723C346.51 312.526 362.732 315.093 380.285 313.254L379.868 309.276ZM315.923 294.403C315.525 293.336 315.417 291.843 315.806 289.714C316.195 287.59 317.053 284.972 318.431 281.751C321.189 275.302 325.888 266.751 332.534 255.408L329.082 253.386C322.441 264.722 317.622 273.47 314.753 280.178C313.318 283.534 312.335 286.458 311.871 288.995C311.408 291.527 311.435 293.815 312.175 295.801L315.923 294.403ZM332.533 255.409C339.285 243.899 344.773 232.936 348.066 224.85C349.703 220.831 350.842 217.415 351.293 214.961C351.509 213.782 351.62 212.567 351.378 211.561C351.252 211.033 350.985 210.378 350.4 209.87C349.768 209.322 349.006 209.151 348.318 209.201L348.607 213.191C348.432 213.204 348.086 213.159 347.777 212.891C347.515 212.663 347.477 212.442 347.489 212.494C347.526 212.647 347.555 213.17 347.358 214.238C346.984 216.278 345.972 219.386 344.361 223.342C341.16 231.204 335.767 241.991 329.083 253.385L332.533 255.409ZM348.318 209.201C348.156 209.213 347.987 209.23 347.825 209.256C347.698 209.277 347.432 209.325 347.153 209.449C347.018 209.509 346.734 209.65 346.467 209.935C346.158 210.264 345.847 210.828 345.925 211.549C345.994 212.179 346.327 212.583 346.494 212.756C346.676 212.944 346.856 213.06 346.957 213.12C347.3 213.323 347.702 213.436 347.903 213.491C348.177 213.565 348.502 213.639 348.852 213.711C350.242 213.997 352.446 214.34 354.72 214.666C357.011 214.993 359.427 215.311 361.267 215.547C362.188 215.665 362.966 215.763 363.515 215.831C363.789 215.865 364.006 215.891 364.154 215.91C364.228 215.919 364.285 215.926 364.324 215.93C364.343 215.933 364.358 215.934 364.368 215.936C364.373 215.936 364.377 215.937 364.379 215.937C364.38 215.937 364.381 215.937 364.382 215.937C364.382 215.937 364.383 215.937 364.383 215.937C364.383 215.937 364.383 215.937 364.624 213.952C364.865 211.967 364.865 211.967 364.865 211.967C364.864 211.967 364.864 211.967 364.864 211.966C364.863 211.966 364.863 211.966 364.861 211.966C364.859 211.966 364.855 211.965 364.851 211.965C364.841 211.964 364.827 211.962 364.808 211.96C364.77 211.955 364.714 211.948 364.641 211.939C364.494 211.921 364.279 211.895 364.007 211.861C363.463 211.794 362.69 211.697 361.775 211.58C359.944 211.345 357.55 211.03 355.287 210.706C353.007 210.38 350.915 210.052 349.659 209.794C349.347 209.729 349.114 209.675 348.956 209.632C348.724 209.568 348.817 209.572 348.999 209.68C349.059 209.716 349.209 209.809 349.369 209.975C349.515 210.125 349.836 210.508 349.902 211.117C349.978 211.818 349.674 212.362 349.383 212.672C349.134 212.938 348.878 213.06 348.782 213.103C348.664 213.155 348.572 213.18 348.536 213.19C348.514 213.195 348.497 213.199 348.487 213.201C348.477 213.203 348.471 213.204 348.47 213.204C348.468 213.204 348.478 213.203 348.504 213.2C348.528 213.197 348.562 213.194 348.607 213.191L348.318 209.201ZM364.624 213.952C362.627 214.055 362.627 214.055 362.627 214.055C362.627 214.055 362.627 214.056 362.627 214.056C362.627 214.058 362.627 214.06 362.627 214.062C362.627 214.068 362.628 214.076 362.628 214.086C362.629 214.108 362.631 214.14 362.633 214.182C362.637 214.266 362.644 214.391 362.652 214.553C362.668 214.878 362.691 215.352 362.72 215.95C362.777 217.145 362.855 218.833 362.939 220.801C363.107 224.741 363.299 229.797 363.394 234.282C363.491 238.844 363.481 242.612 363.286 244.112C363.264 244.283 363.245 244.372 363.238 244.403C363.213 244.502 363.25 244.267 363.461 243.984C363.578 243.828 363.883 243.475 364.439 243.313C365.074 243.129 365.635 243.306 365.983 243.523C366.28 243.708 366.437 243.923 366.485 243.992C366.547 244.08 366.574 244.14 366.575 244.142C366.576 244.144 366.546 244.076 366.491 243.893C366.44 243.721 366.379 243.488 366.308 243.182C366.167 242.57 366.002 241.727 365.811 240.615L361.869 241.29C362.066 242.44 362.245 243.366 362.411 244.082C362.565 244.752 362.737 245.378 362.951 245.836C363.01 245.962 363.094 246.123 363.21 246.288C363.312 246.434 363.521 246.702 363.868 246.918C364.266 247.166 364.874 247.352 365.555 247.154C366.157 246.98 366.506 246.591 366.665 246.379C366.96 245.985 367.073 245.553 367.117 245.38C367.178 245.137 367.22 244.877 367.253 244.627C367.495 242.761 367.488 238.647 367.393 234.197C367.297 229.67 367.104 224.581 366.935 220.631C366.851 218.654 366.772 216.96 366.715 215.759C366.686 215.159 366.663 214.682 366.647 214.355C366.639 214.191 366.632 214.065 366.628 213.98C366.626 213.937 366.624 213.905 366.623 213.883C366.622 213.872 366.622 213.864 366.622 213.858C366.622 213.855 366.622 213.853 366.621 213.852C366.621 213.851 366.621 213.851 366.621 213.85C366.621 213.85 366.621 213.85 364.624 213.952ZM365.812 240.618C365.462 238.558 365.374 234.973 365.551 230.114C365.726 225.303 366.153 219.383 366.782 212.733C368.038 199.436 370.091 183.29 372.499 167.392C374.907 151.492 377.666 135.87 380.333 123.615C381.668 117.485 382.973 112.228 384.191 108.212C384.801 106.203 385.38 104.534 385.92 103.235C386.477 101.896 386.934 101.095 387.254 100.707L384.171 98.1592C383.46 99.0198 382.82 100.273 382.227 101.699C381.617 103.165 380.994 104.971 380.363 107.051C379.101 111.212 377.77 116.586 376.425 122.765C373.734 135.13 370.96 150.842 368.544 166.793C366.128 182.746 364.065 198.968 362.8 212.357C362.167 219.05 361.732 225.053 361.553 229.969C361.376 234.837 361.444 238.785 361.868 241.287L365.812 240.618ZM387.256 100.705C387.984 99.8212 389.465 98.8142 391.865 97.7801C394.215 96.7675 397.24 95.8148 400.825 94.9266C407.992 93.1511 417.188 91.6835 427.255 90.4746C447.376 88.0584 470.746 86.7016 487.81 85.9387L487.631 81.9427C470.542 82.7067 447.052 84.0686 426.778 86.5032C416.648 87.7197 407.264 89.2105 399.863 91.044C396.165 91.9602 392.909 92.9746 390.282 94.1065C387.705 95.2169 385.512 96.5316 384.169 98.1614L387.256 100.705ZM487.812 85.9386C521.986 84.3718 541.343 80.3566 547.727 79.6727L547.301 75.6955C540.473 76.4268 521.684 80.3814 487.629 81.9428L487.812 85.9386ZM547.727 79.6727C548.351 79.6059 549.562 80.0789 551.186 81.8643C552.696 83.5249 554.157 85.8883 555.26 88.3773C556.37 90.8831 557.035 93.3295 557.105 95.1337C557.141 96.0408 557.019 96.6227 556.87 96.9433C556.756 97.1887 556.659 97.2401 556.524 97.2756L557.541 101.144C558.964 100.77 559.945 99.8194 560.498 98.6276C561.016 97.5111 561.151 96.2206 561.102 94.9776C561.005 92.4816 560.139 89.5163 558.917 86.757C557.687 83.9809 556.012 81.2259 554.145 79.1728C552.391 77.2445 549.981 75.4085 547.301 75.6955L547.727 79.6727ZM556.521 97.2764C556.342 97.3237 555.618 97.3546 554.492 95.5884C553.466 93.9792 552.581 91.5103 552.087 88.7139C551.596 85.9324 551.524 83.0004 551.986 80.5121C552.456 77.9831 553.416 76.2102 554.713 75.2971L552.409 72.0268C549.899 73.7952 548.615 76.7613 548.054 79.7813C547.485 82.8421 547.594 86.2692 548.148 89.4091C548.7 92.5341 549.723 95.549 551.119 97.7385C552.414 99.771 554.625 101.915 557.544 101.143L556.521 97.2764ZM554.718 75.2934C556.574 73.9773 558.333 72.9183 560.199 71.7155C562.034 70.5329 563.896 69.2569 565.739 67.6135C569.467 64.2904 572.956 59.6155 576.348 51.4108L572.652 49.8823C569.438 57.6542 566.264 61.7871 563.078 64.6276C561.464 66.0659 559.805 67.2106 558.032 68.3533C556.291 69.4757 554.355 70.6466 552.404 72.0306L554.718 75.2934ZM576.348 51.4114C578.026 47.3583 579.65 42.9975 581.203 38.7919C582.763 34.5703 584.246 30.5172 585.662 27.017C587.088 23.4903 588.393 20.661 589.57 18.8365C590.167 17.9118 590.638 17.3946 590.959 17.1553C591.243 16.944 591.124 17.1389 590.838 17.0351L592.202 13.275C590.787 12.7615 589.497 13.2566 588.57 13.9472C587.681 14.6097 586.901 15.5958 586.209 16.6677C584.81 18.8361 583.388 21.9725 581.954 25.5172C580.51 29.0882 579 33.212 577.451 37.4059C575.896 41.6159 574.296 45.9091 572.652 49.8816L576.348 51.4114ZM590.838 17.0351C592.716 17.7166 596.798 20.2064 600.443 24.4907C604.048 28.7276 607.111 34.583 607.25 41.9695L611.249 41.8944C611.089 33.3786 607.545 26.6649 603.49 21.8985C599.474 17.1796 594.84 14.2321 592.202 13.275L590.838 17.0351ZM607.25 41.9697C607.394 49.6128 606.17 55.6915 604.721 61.1885C603.295 66.5999 601.54 71.7822 600.846 77.1288L604.813 77.6436C605.463 72.6369 607.066 67.9873 608.589 62.2076C610.09 56.5134 611.403 50.0416 611.249 41.8941L607.25 41.9697ZM600.845 77.1349C600.165 82.5046 600.687 88.7869 600.868 93.9176C600.961 96.5497 600.969 98.8803 600.739 100.799C600.503 102.765 600.05 103.983 599.479 104.653L602.522 107.249C603.873 105.665 604.447 103.475 604.71 101.275C604.98 99.0274 604.959 96.4328 604.866 93.7765C604.673 88.3305 604.187 82.5837 604.814 77.6374L600.845 77.1349ZM599.473 104.66C599.357 104.797 598.875 105.157 597.698 105.579C596.604 105.971 595.164 106.33 593.461 106.641C590.065 107.26 585.836 107.648 581.704 107.783C577.565 107.918 573.616 107.797 570.773 107.429C569.329 107.242 568.297 107.006 567.69 106.768C567.375 106.645 567.324 106.578 567.382 106.632C567.479 106.723 567.784 107.097 567.715 107.679L563.743 107.202C563.617 108.249 564.12 109.054 564.636 109.541C565.115 109.993 565.707 110.287 566.23 110.492C567.297 110.911 568.715 111.196 570.259 111.396C573.392 111.802 577.575 111.92 581.834 111.781C586.1 111.641 590.535 111.24 594.179 110.576C595.997 110.244 597.671 109.838 599.049 109.344C600.344 108.879 601.692 108.231 602.528 107.241L599.473 104.66ZM567.715 107.679C567.798 106.988 568.05 106.169 568.448 105.009C568.826 103.904 569.315 102.548 569.717 101.009C570.538 97.8643 571.009 93.9266 569.884 88.8348L565.978 89.6978C566.943 94.0654 566.537 97.3527 565.847 99.9989C565.492 101.356 565.067 102.537 564.664 103.711C564.28 104.829 563.884 106.03 563.743 107.202L567.715 107.679ZM569.884 88.8364C568.762 83.7355 566.015 78.8695 563.603 75.9753C562.992 75.243 562.371 74.5979 561.768 74.0936C561.209 73.6262 560.492 73.1307 559.693 72.9331C559.267 72.8279 558.695 72.7772 558.089 72.9882C557.445 73.2129 556.976 73.6602 556.686 74.1722C556.188 75.0502 556.218 76.0947 556.317 76.8883L560.286 76.3943C560.207 75.7635 560.34 75.8373 560.166 76.1445C560.037 76.3711 559.786 76.6329 559.406 76.7653C559.065 76.884 558.806 76.8342 558.733 76.8162C558.64 76.7932 558.791 76.818 559.203 77.1623C559.57 77.4697 560.023 77.928 560.53 78.5363C562.588 81.0049 565.01 85.3004 565.978 89.6962L569.884 88.8364ZM556.317 76.8883C556.506 78.4076 556.962 80.6647 557.466 83.1445C557.978 85.6656 558.557 88.4913 559.026 91.2622C559.497 94.0432 559.845 96.6966 559.913 98.8726C559.947 99.9604 559.909 100.874 559.8 101.596C559.686 102.346 559.519 102.729 559.412 102.886L562.715 105.142C563.307 104.275 563.601 103.213 563.755 102.195C563.913 101.149 563.95 99.9729 563.911 98.7476C563.835 96.2974 563.451 93.4322 562.97 90.5942C562.487 87.7463 561.895 84.853 561.386 82.3477C560.868 79.8009 560.451 77.7241 560.286 76.3943L556.317 76.8883ZM559.412 102.886C559.314 103.029 558.998 103.349 558.224 103.791C557.483 104.215 556.47 104.668 555.169 105.149C552.567 106.111 549.029 107.11 544.673 108.2C535.857 110.407 524.402 112.831 510.948 116.111L511.895 119.997C525.016 116.798 536.982 114.249 545.644 112.08C550.026 110.983 553.74 109.942 556.557 108.901C557.965 108.38 559.202 107.839 560.209 107.264C561.183 106.708 562.113 106.023 562.715 105.142L559.412 102.886ZM510.95 116.111C497.641 119.342 484.898 123.32 473.943 126.374C462.854 129.465 453.71 131.572 447.187 131.325L447.036 135.322C454.285 135.596 464.028 133.29 475.017 130.227C486.138 127.127 498.664 123.21 511.893 119.998L510.95 116.111ZM447.181 131.325C440.371 131.086 435.665 130.462 432.83 130.021C431.483 129.811 430.375 129.609 429.801 129.541C429.646 129.523 429.448 129.503 429.251 129.503C429.154 129.502 428.998 129.506 428.819 129.537C428.682 129.56 428.291 129.634 427.9 129.925C427.375 130.316 427.012 130.989 427.089 131.763C427.147 132.332 427.425 132.71 427.518 132.832C427.732 133.109 427.987 133.298 428.079 133.366L430.461 130.153C430.39 130.1 430.534 130.191 430.688 130.392C430.753 130.476 431.015 130.821 431.069 131.362C431.144 132.108 430.791 132.759 430.291 133.132C429.924 133.406 429.57 133.467 429.484 133.481C429.356 133.503 429.264 133.503 429.245 133.503C429.204 133.503 429.217 133.5 429.328 133.513C429.819 133.572 430.664 133.731 432.214 133.973C435.174 134.434 440.041 135.077 447.041 135.322L447.181 131.325ZM428.079 133.366C427.772 133.139 427.628 132.886 427.594 132.826C427.566 132.778 427.548 132.74 427.539 132.718C427.528 132.695 427.523 132.681 427.522 132.677C427.521 132.677 427.543 132.74 427.581 132.903C427.654 133.219 427.741 133.712 427.839 134.396C428.033 135.75 428.249 137.687 428.481 140.091C428.946 144.892 429.471 151.443 430.034 158.677C431.156 173.118 432.428 190.277 433.665 201.399L437.64 200.957C436.413 189.92 435.148 172.854 434.021 158.367C433.459 151.138 432.932 144.55 432.463 139.706C432.229 137.287 432.006 135.276 431.798 133.827C431.695 133.109 431.589 132.486 431.479 132.007C431.425 131.772 431.358 131.518 431.271 131.284C431.228 131.168 431.164 131.012 431.071 130.849C430.995 130.715 430.809 130.41 430.461 130.153L428.079 133.366ZM433.665 201.401C434.881 212.228 435.126 227.36 434.258 241.824C433.387 256.351 431.409 269.919 428.306 277.756L432.026 279.228C435.38 270.754 437.377 256.633 438.251 242.064C439.128 227.433 438.888 212.064 437.64 200.955L433.665 201.401ZM428.307 277.754C426.869 281.375 423.687 285.318 419.369 289.104C415.08 292.865 409.812 296.348 404.408 299.086C398.995 301.829 393.533 303.779 388.866 304.542C384.091 305.323 380.64 304.788 378.724 303.232L376.203 306.338C379.494 309.009 384.432 309.321 389.512 308.49C394.699 307.641 400.559 305.521 406.216 302.654C411.884 299.782 417.438 296.117 422.006 292.112C426.544 288.132 430.253 283.691 432.025 279.23L428.307 277.754ZM378.721 303.23C373.777 299.23 370.698 293.812 367.691 289.585C366.29 287.617 364.723 285.645 362.848 284.7C361.828 284.186 360.68 283.952 359.447 284.185C358.251 284.411 357.157 285.04 356.145 285.922L358.771 288.939C359.437 288.359 359.902 288.17 360.188 288.116C360.437 288.069 360.695 288.094 361.048 288.272C361.921 288.712 362.977 289.86 364.431 291.904C367.135 295.703 370.699 301.886 376.206 306.34L378.721 303.23ZM356.149 285.917C352.675 288.922 348.989 292.411 345.751 294.642C344.117 295.767 342.855 296.382 341.987 296.538C341.588 296.61 341.4 296.561 341.331 296.533C341.288 296.515 341.171 296.463 341.014 296.191L337.547 298.184C338.081 299.113 338.839 299.838 339.827 300.239C340.788 300.629 341.786 300.639 342.696 300.475C344.445 300.16 346.295 299.124 348.02 297.936C351.5 295.539 355.521 291.749 358.766 288.943L356.149 285.917ZM341.014 296.191C340.621 295.507 340.46 294.407 340.52 292.812C340.549 292.05 340.623 291.258 340.705 290.433C340.784 289.631 340.874 288.773 340.918 287.978C340.962 287.189 340.968 286.344 340.843 285.559C340.719 284.784 340.435 283.857 339.725 283.112C338.961 282.311 337.951 281.977 336.902 281.964C335.913 281.951 334.831 282.218 333.68 282.656L335.102 286.395C336.032 286.041 336.577 285.96 336.853 285.963C337.07 285.966 336.963 286.011 336.831 285.873C336.753 285.792 336.832 285.812 336.893 286.189C336.951 286.555 336.962 287.066 336.924 287.758C336.887 288.443 336.808 289.19 336.724 290.038C336.642 290.862 336.557 291.764 336.523 292.662C336.458 294.387 336.559 296.466 337.547 298.184L341.014 296.191ZM333.67 282.66C331.303 283.575 328.873 285.28 326.793 286.938C324.705 288.604 322.766 290.393 321.517 291.48C320.828 292.079 320.45 292.374 320.299 292.463C320.273 292.478 320.336 292.437 320.464 292.394C320.538 292.37 320.979 292.221 321.544 292.398C322.313 292.639 322.701 293.265 322.818 293.752C322.906 294.118 322.848 294.387 322.844 294.405C322.83 294.48 322.835 294.413 322.974 294.105C323.097 293.833 323.285 293.459 323.552 292.962C324.087 291.969 324.894 290.575 326.029 288.682L322.598 286.625C321.456 288.531 320.611 289.988 320.031 291.064C319.742 291.602 319.506 292.067 319.329 292.458C319.168 292.815 318.996 293.236 318.917 293.646C318.881 293.831 318.819 294.229 318.929 294.688C319.069 295.267 319.505 295.95 320.348 296.215C320.987 296.415 321.528 296.256 321.726 296.19C321.977 296.107 322.188 295.993 322.331 295.908C322.859 295.597 323.521 295.038 324.142 294.497C325.516 293.303 327.286 291.661 329.287 290.066C331.297 288.463 333.336 287.077 335.112 286.391L333.67 282.66ZM326.028 288.682C330.636 281.002 339.599 265.378 346.694 250.676C350.238 243.334 353.348 236.155 355.209 230.283C356.137 227.353 356.782 224.666 356.991 222.402C357.19 220.241 357.04 218.006 355.853 216.409L352.643 218.795C352.901 219.143 353.188 220.079 353.008 222.035C352.836 223.889 352.285 226.267 351.396 229.074C349.621 234.675 346.608 241.653 343.092 248.937C336.069 263.489 327.173 278.999 322.598 286.625L326.028 288.682ZM355.853 216.409C353.055 212.645 350.759 209.237 348.289 206.787C345.689 204.209 342.767 202.535 338.617 202.13L338.228 206.111C341.318 206.413 343.416 207.588 345.472 209.628C347.659 211.796 349.655 214.775 352.643 218.795L355.853 216.409ZM338.617 202.13C337.394 202.01 335.691 202.233 333.878 202.584C331.998 202.949 329.774 203.498 327.403 204.156C322.657 205.471 317.22 207.246 312.57 208.918C307.981 210.569 303.978 212.183 302.214 213.186C301.98 213.319 301.747 213.463 301.538 213.614C301.37 213.737 301.055 213.979 300.809 214.335C300.683 214.518 300.47 214.88 300.425 215.383C300.371 215.976 300.571 216.555 300.968 216.987C301.304 217.353 301.686 217.512 301.895 217.583C302.123 217.659 302.332 217.691 302.483 217.707C303.019 217.763 303.689 217.69 304.344 217.591C305.06 217.483 305.972 217.306 307.09 217.059L306.228 213.154C305.153 213.391 304.338 213.547 303.746 213.636C303.093 213.735 302.875 213.726 302.897 213.728C302.919 213.73 303.023 213.742 303.168 213.791C303.295 213.833 303.617 213.957 303.915 214.282C304.273 214.673 304.457 215.203 304.409 215.741C304.368 216.19 304.181 216.49 304.102 216.606C303.949 216.827 303.809 216.909 303.892 216.849C303.934 216.817 304.028 216.756 304.191 216.663C305.607 215.858 309.284 214.351 313.924 212.682C318.502 211.036 323.842 209.294 328.472 208.01C330.788 207.368 332.901 206.848 334.639 206.511C336.444 206.162 337.639 206.053 338.228 206.111L338.617 202.13ZM307.089 217.06C316.031 215.09 324.731 211.717 330.334 207.901C333.093 206.021 335.376 203.85 336.364 201.45C336.878 200.199 337.056 198.845 336.71 197.474C336.366 196.115 335.554 194.927 334.415 193.912L331.754 196.899C332.444 197.513 332.727 198.042 332.832 198.454C332.933 198.856 332.911 199.328 332.664 199.928C332.13 201.227 330.645 202.848 328.082 204.595C323.038 208.031 314.866 211.25 306.229 213.153L307.089 217.06ZM334.419 193.916C330.423 190.335 326.42 189.374 323.966 188.376C322.707 187.865 321.891 187.38 321.296 186.682C320.715 185.999 320.179 184.911 319.914 182.892L315.948 183.414C316.28 185.938 317.023 187.834 318.251 189.276C319.467 190.704 320.992 191.485 322.459 192.082C325.454 193.3 328.431 193.921 331.75 196.895L334.419 193.916ZM319.913 182.885C319.621 180.725 319.554 178.041 319.433 175.021C319.315 172.066 319.145 168.851 318.617 165.869C318.093 162.906 317.183 159.966 315.446 157.675C313.642 155.297 311.035 153.743 307.474 153.487L307.188 157.477C309.598 157.65 311.149 158.629 312.259 160.093C313.437 161.645 314.199 163.859 314.678 166.566C315.154 169.253 315.318 172.225 315.436 175.181C315.552 178.07 315.625 181.019 315.949 183.421L319.913 182.885ZM307.48 153.488C301.474 153.038 283.67 152.067 269.264 152.137C262.117 152.172 255.605 152.461 251.813 153.258C250.858 153.458 249.961 153.713 249.234 154.06C248.617 154.355 247.575 154.97 247.246 156.18C246.868 157.577 247.685 158.648 248.271 159.203C248.902 159.799 249.788 160.328 250.81 160.821L252.55 157.219C251.654 156.787 251.204 156.47 251.019 156.296C250.791 156.081 251.316 156.456 251.107 157.227C250.948 157.812 250.538 157.87 250.957 157.67C251.266 157.523 251.807 157.346 252.635 157.173C255.973 156.471 262.093 156.172 269.283 156.137C283.552 156.067 301.244 157.032 307.181 157.477L307.48 153.488ZM250.812 160.822C255.005 162.843 261.682 163.963 269.34 164.552C277.08 165.147 286.102 165.217 295.171 164.991C313.312 164.537 331.793 162.893 340.895 161.826L340.429 157.853C331.427 158.909 313.07 160.542 295.071 160.992C286.07 161.217 277.198 161.145 269.647 160.564C262.014 159.976 256.006 158.885 252.548 157.219L250.812 160.822ZM340.895 161.826C349.773 160.785 360.408 161.037 371.567 161.373C382.658 161.707 394.243 162.123 404.782 161.35L404.49 157.361C394.202 158.115 382.85 157.711 371.687 157.375C360.591 157.041 349.652 156.772 340.429 157.853L340.895 161.826ZM404.786 161.35C415.284 160.56 426.796 158.663 436.802 157.023C446.944 155.361 455.318 154.008 459.881 154.167L460.021 150.169C454.954 149.993 446.066 151.451 436.155 153.076C426.109 154.722 414.777 156.587 404.486 157.361L404.786 161.35ZM459.881 154.167C464.44 154.326 468.613 155.343 473.005 156.419C477.347 157.484 481.908 158.609 486.941 158.785L487.081 154.787C482.522 154.628 478.349 153.611 473.957 152.534C469.615 151.47 465.054 150.345 460.021 150.169L459.881 154.167ZM486.941 158.785C491.952 158.96 501.281 157.876 509.412 156.621C513.509 155.989 517.366 155.303 520.308 154.69C521.775 154.384 523.04 154.092 524.002 153.827C524.48 153.696 524.914 153.563 525.273 153.431C525.542 153.332 526.055 153.136 526.454 152.797L523.86 149.751C524.068 149.574 524.191 149.567 523.89 149.678C523.681 149.755 523.368 149.853 522.942 149.97C522.096 150.203 520.923 150.476 519.492 150.774C516.637 151.369 512.852 152.043 508.802 152.668C500.642 153.927 491.664 154.947 487.081 154.787L486.941 158.785ZM526.454 152.797C526.63 152.647 526.939 152.337 527.103 151.837C527.294 151.254 527.207 150.663 526.95 150.195C526.731 149.795 526.436 149.563 526.273 149.452C526.095 149.329 525.926 149.25 525.807 149.2C525.39 149.026 524.88 148.933 524.482 148.873C523.591 148.737 522.308 148.634 520.839 148.553C517.873 148.39 513.891 148.306 510.153 148.287C506.42 148.268 502.875 148.315 500.788 148.418C500.267 148.443 499.809 148.474 499.452 148.511C499.276 148.529 499.093 148.552 498.925 148.583C498.842 148.598 498.734 148.62 498.619 148.653C498.534 148.677 498.309 148.744 498.065 148.891C497.983 148.94 496.951 149.548 497.086 150.841C497.148 151.433 497.447 151.831 497.641 152.033C497.835 152.235 498.028 152.353 498.133 152.411C498.478 152.602 498.84 152.669 498.932 152.687C499.263 152.753 499.723 152.807 500.267 152.856L500.629 148.873C500.096 148.824 499.818 148.785 499.711 148.764C499.584 148.739 499.803 148.763 500.074 148.914C500.162 148.962 500.341 149.07 500.525 149.262C500.71 149.454 501.003 149.842 501.064 150.425C501.198 151.698 500.18 152.287 500.129 152.317C499.917 152.445 499.739 152.493 499.717 152.499C499.666 152.514 499.637 152.519 499.648 152.517C499.669 152.513 499.735 152.503 499.864 152.489C500.116 152.463 500.491 152.437 500.985 152.413C502.962 152.315 506.42 152.268 510.133 152.287C513.841 152.306 517.749 152.389 520.62 152.547C522.069 152.627 523.191 152.723 523.88 152.827C524.272 152.887 524.346 152.925 524.267 152.892C524.232 152.877 524.133 152.834 524.008 152.748C523.899 152.673 523.64 152.478 523.442 152.117C523.206 151.686 523.124 151.134 523.302 150.591C523.453 150.13 523.732 149.861 523.86 149.751L526.454 152.797ZM500.267 152.856C504.734 153.261 512.791 153.191 519.664 152.323C523.086 151.89 526.36 151.243 528.783 150.29C529.984 149.818 531.133 149.212 531.981 148.394C532.874 147.533 533.537 146.315 533.335 144.823L529.371 145.36C529.371 145.361 529.371 145.358 529.371 145.352C529.371 145.346 529.371 145.338 529.372 145.33C529.375 145.312 529.379 145.301 529.378 145.302C529.377 145.305 529.344 145.38 529.205 145.515C528.902 145.806 528.308 146.179 527.32 146.568C525.365 147.336 522.483 147.934 519.163 148.354C512.552 149.189 504.785 149.249 500.629 148.873L500.267 152.856ZM533.335 144.825C533.195 143.787 532.576 143.053 531.959 142.581C531.356 142.12 530.626 141.803 529.909 141.569C528.466 141.1 526.594 140.822 524.572 140.657C520.494 140.326 515.315 140.423 510.577 140.688C505.832 140.953 501.431 141.392 498.882 141.767C498.245 141.861 497.693 141.955 497.267 142.047C497.059 142.092 496.842 142.145 496.646 142.208C496.549 142.239 496.421 142.284 496.286 142.346C496.191 142.39 495.908 142.523 495.639 142.789C495.496 142.931 495.26 143.206 495.127 143.627C494.976 144.105 495.004 144.632 495.225 145.101C495.578 145.85 496.244 146.103 496.327 146.137C496.673 146.279 497.028 146.317 497.177 146.333C497.586 146.376 498.158 146.389 498.857 146.384L498.83 142.384C498.152 142.389 497.768 142.373 497.594 142.354C497.452 142.339 497.609 142.339 497.845 142.436C497.872 142.447 498.505 142.676 498.845 143.398C499.06 143.855 499.088 144.368 498.941 144.833C498.812 145.24 498.585 145.501 498.457 145.628C498.218 145.865 497.984 145.968 497.959 145.979C497.893 146.009 497.855 146.021 497.866 146.017C497.886 146.011 497.961 145.99 498.114 145.956C498.412 145.892 498.864 145.813 499.464 145.725C501.861 145.372 506.136 144.943 510.801 144.682C515.474 144.421 520.44 144.335 524.248 144.644C526.169 144.8 527.675 145.049 528.671 145.373C529.173 145.537 529.429 145.682 529.529 145.759C529.615 145.825 529.417 145.703 529.371 145.359L533.335 144.825ZM498.857 146.384C504.343 146.347 512.579 146.292 519.348 145.659C522.711 145.344 525.853 144.875 528.147 144.142C529.276 143.781 530.385 143.301 531.213 142.607C532.101 141.863 532.842 140.693 532.576 139.193L528.637 139.893C528.576 139.547 528.823 139.392 528.645 139.54C528.407 139.739 527.88 140.028 526.929 140.332C525.065 140.928 522.28 141.367 518.975 141.676C512.411 142.29 504.355 142.347 498.83 142.384L498.857 146.384ZM532.573 139.177C532.397 138.231 531.801 137.576 531.283 137.165C530.754 136.745 530.117 136.423 529.481 136.167C528.202 135.652 526.541 135.25 524.733 134.927C521.089 134.277 516.438 133.879 512.061 133.663C507.676 133.447 503.486 133.41 500.738 133.501C499.427 133.544 498.269 133.62 497.605 133.763C497.47 133.792 497.119 133.869 496.778 134.066C496.638 134.147 496.156 134.438 495.893 135.062C495.534 135.914 495.833 136.699 496.189 137.14C496.466 137.484 496.787 137.654 496.907 137.714C497.065 137.794 497.212 137.847 497.318 137.881C497.533 137.951 497.766 138.002 497.983 138.044L498.733 134.115C498.584 134.086 498.534 134.071 498.546 134.074C498.551 134.076 498.617 134.097 498.713 134.145C498.77 134.174 499.048 134.313 499.301 134.627C499.632 135.037 499.926 135.792 499.579 136.616C499.328 137.211 498.877 137.473 498.784 137.527C498.539 137.669 498.352 137.694 498.447 137.673C498.702 137.618 499.5 137.544 500.87 137.499C503.485 137.412 507.562 137.446 511.864 137.658C516.175 137.87 520.631 138.259 524.03 138.865C525.743 139.171 527.087 139.515 527.987 139.877C528.44 140.06 528.686 140.21 528.794 140.296C528.913 140.391 528.709 140.278 528.64 139.908L532.573 139.177ZM497.983 138.044C501.141 138.646 510.122 139.066 517.725 138.762C521.523 138.61 525.176 138.272 527.668 137.622C528.825 137.32 530.147 136.855 530.988 135.994C531.473 135.497 531.897 134.764 531.871 133.832C531.846 132.953 531.428 132.253 531.003 131.758L527.97 134.367C528.054 134.464 527.883 134.313 527.873 133.945C527.861 133.523 528.066 133.261 528.127 133.198C528.16 133.165 528.095 133.24 527.807 133.369C527.537 133.49 527.159 133.621 526.659 133.751C524.611 134.285 521.326 134.615 517.565 134.765C510.053 135.066 501.435 134.63 498.733 134.115L497.983 138.044ZM531.008 131.764C530.122 130.726 528.626 130.044 527.188 129.544C525.645 129.009 523.745 128.548 521.667 128.149C517.503 127.349 512.409 126.759 507.557 126.354C502.698 125.948 498.031 125.723 494.702 125.664C493.049 125.634 491.68 125.644 490.773 125.699C490.378 125.723 489.879 125.764 489.486 125.876C489.379 125.906 489.174 125.971 488.95 126.098C488.807 126.18 488.175 126.551 487.965 127.386C487.709 128.41 488.29 129.122 488.541 129.361C488.797 129.605 489.06 129.731 489.167 129.78L490.828 126.141C490.866 126.159 491.08 126.254 491.304 126.469C491.525 126.68 492.095 127.363 491.845 128.36C491.642 129.168 491.035 129.514 490.935 129.571C490.754 129.674 490.609 129.715 490.58 129.724C490.499 129.747 490.586 129.718 491.016 129.692C491.761 129.647 493.003 129.634 494.631 129.663C497.864 129.721 502.444 129.941 507.224 130.34C512.012 130.74 516.948 131.316 520.913 132.077C522.9 132.459 524.59 132.877 525.875 133.323C527.264 133.805 527.834 134.208 527.965 134.361L531.008 131.764ZM489.167 129.78C489.967 130.146 490.731 129.984 491.156 129.843C491.616 129.691 492.038 129.447 492.392 129.207C493.109 128.719 493.881 128.015 494.638 127.227C496.168 125.635 497.884 123.441 499.327 121.192C500.748 118.979 502.025 116.528 502.52 114.438C502.762 113.414 502.886 112.201 502.487 111.086C502.022 109.788 500.968 108.948 499.601 108.68L498.832 112.606C498.939 112.627 498.772 112.576 498.721 112.434C498.721 112.434 498.728 112.454 498.735 112.502C498.741 112.55 498.747 112.62 498.745 112.716C498.741 112.912 498.708 113.177 498.627 113.517C498.29 114.939 497.307 116.934 495.961 119.032C494.638 121.093 493.08 123.076 491.754 124.455C491.083 125.154 490.531 125.635 490.143 125.899C489.945 126.034 489.869 126.056 489.901 126.046C489.922 126.038 490.016 126.009 490.166 126.004C490.322 125.999 490.561 126.02 490.828 126.141L489.167 129.78ZM499.601 108.68C497.003 108.172 495.006 109.836 493.534 111.343C492.744 112.151 491.919 113.118 491.076 114.096C490.217 115.093 489.307 116.143 488.282 117.207C484.247 121.395 478.421 125.842 468.135 126.561L468.414 130.552C479.962 129.744 486.659 124.657 491.162 119.982C492.272 118.83 493.247 117.706 494.107 116.706C494.984 115.688 495.714 114.835 496.395 114.138C497.865 112.633 498.482 112.537 498.832 112.606L499.601 108.68ZM468.135 126.561C457.153 127.329 448.395 128.645 439.886 129.657C431.362 130.67 422.983 131.394 412.544 131.027L412.404 135.024C423.128 135.402 431.731 134.655 440.358 133.629C449 132.602 457.561 131.311 468.414 130.552L468.135 126.561ZM412.544 131.027C391.161 130.275 382.105 130.842 368.412 129.435L368.003 133.414C381.855 134.837 391.386 134.286 412.404 135.024L412.544 131.027ZM368.412 129.435C361.418 128.716 345.679 128.854 330.425 128.535C322.736 128.375 315.12 128.1 308.65 127.551C302.103 126.995 296.979 126.175 294.117 125.025L292.625 128.736C296.109 130.137 301.79 130.983 308.312 131.537C314.912 132.097 322.629 132.374 330.342 132.535C345.889 132.859 361.223 132.717 368.003 133.414L368.412 129.435ZM294.115 125.024C287.53 122.384 275.961 119.741 264.286 118.094C252.642 116.452 240.514 115.745 232.875 117.168L233.608 121.1C240.562 119.805 252.136 120.42 263.727 122.055C275.286 123.685 286.485 126.275 292.627 128.737L294.115 125.024ZM232.875 117.168C225.458 118.55 217.29 121.018 210.832 126.01C204.283 131.073 199.617 138.638 199.144 149.849L203.14 150.018C203.563 140.001 207.65 133.526 213.278 129.175C218.997 124.755 226.431 122.437 233.608 121.1L232.875 117.168ZM199.144 149.859C198.925 155.708 201.592 162.439 205.715 168.908C209.872 175.431 215.67 181.938 222.093 187.396C228.507 192.846 235.639 197.33 242.497 199.711C249.323 202.081 256.206 202.469 261.769 199.175L259.731 195.733C255.608 198.174 250.099 198.116 243.809 195.932C237.553 193.76 230.847 189.586 224.683 184.348C218.527 179.117 213.006 172.906 209.088 166.758C205.134 160.555 202.967 154.661 203.141 150.008L199.144 149.859ZM261.768 199.175C271.884 193.189 276.919 185.882 279.403 179.987C280.639 177.052 281.235 174.487 281.522 172.638C281.665 171.712 281.731 170.964 281.762 170.436C281.777 170.171 281.783 169.962 281.785 169.812C281.786 169.737 281.786 169.677 281.786 169.633C281.786 169.61 281.785 169.592 281.785 169.578C281.785 169.571 281.785 169.564 281.785 169.559C281.785 169.557 281.785 169.554 281.785 169.552C281.785 169.551 281.785 169.55 281.785 169.549C281.785 169.548 281.785 169.547 279.785 169.597C277.786 169.647 277.786 169.646 277.786 169.645C277.786 169.645 277.786 169.644 277.786 169.643C277.786 169.642 277.786 169.641 277.786 169.641C277.786 169.64 277.786 169.639 277.786 169.64C277.786 169.642 277.786 169.647 277.786 169.656C277.786 169.674 277.786 169.707 277.785 169.755C277.784 169.85 277.78 170.003 277.768 170.208C277.745 170.619 277.691 171.238 277.569 172.025C277.325 173.601 276.808 175.843 275.717 178.434C273.544 183.59 269.062 190.211 259.731 195.733L261.768 199.175ZM279.785 169.597C277.794 169.785 277.794 169.785 277.794 169.784C277.794 169.784 277.794 169.783 277.794 169.783C277.794 169.783 277.794 169.782 277.794 169.782C277.794 169.782 277.794 169.782 277.794 169.783C277.794 169.786 277.794 169.791 277.795 169.799C277.796 169.814 277.799 169.841 277.801 169.879C277.807 169.954 277.815 170.072 277.823 170.232C277.839 170.55 277.855 171.032 277.855 171.656C277.855 172.904 277.789 174.72 277.52 176.945C276.981 181.397 275.633 187.457 272.4 193.872L275.973 195.673C279.458 188.755 280.91 182.227 281.491 177.425C281.781 175.022 281.855 173.044 281.855 171.656C281.855 170.961 281.837 170.413 281.818 170.032C281.808 169.841 281.798 169.693 281.791 169.588C281.787 169.535 281.784 169.494 281.781 169.464C281.78 169.449 281.779 169.437 281.778 169.428C281.778 169.423 281.777 169.419 281.777 169.416C281.777 169.415 281.777 169.413 281.777 169.412C281.776 169.411 281.776 169.41 281.776 169.41C281.776 169.409 281.776 169.409 279.785 169.597ZM272.402 193.868C269.282 200.027 263.414 205.224 256.594 208.122C249.781 211.017 242.222 211.534 235.69 208.658L234.078 212.319C241.841 215.737 250.574 215.025 258.158 211.803C265.736 208.584 272.373 202.777 275.97 195.677L272.402 193.868ZM235.688 208.657C228.978 205.711 224.66 201.157 221.029 195.817C219.2 193.128 217.563 190.266 215.867 187.292C214.184 184.34 212.443 181.281 210.455 178.315L207.132 180.542C209.026 183.368 210.696 186.3 212.393 189.274C214.077 192.226 215.79 195.225 217.721 198.066C221.612 203.788 226.457 208.972 234.08 212.32L235.688 208.657ZM210.456 178.316C206.495 172.398 200.976 164.661 197.952 156.462C194.952 148.326 194.567 140.181 200.308 133.092L197.199 130.575C190.213 139.202 190.947 149.026 194.199 157.846C197.427 166.6 203.291 174.803 207.132 180.541L210.456 178.316ZM200.308 133.092C206.378 125.587 214.679 121.645 220.235 119.767C223.017 118.827 225.017 118.436 225.59 118.363C225.661 118.354 225.661 118.357 225.617 118.358C225.612 118.358 225.499 118.364 225.346 118.344C225.29 118.336 225.066 118.308 224.803 118.191C224.655 118.125 223.635 117.641 223.621 116.391C223.615 115.85 223.825 115.452 223.971 115.24C224.117 115.027 224.272 114.891 224.357 114.821C224.526 114.684 224.677 114.609 224.725 114.586C224.84 114.53 224.927 114.503 224.931 114.502C224.96 114.492 224.948 114.497 224.866 114.517C224.545 114.591 223.776 114.735 222.443 114.918L222.989 118.881C224.362 118.692 225.273 118.529 225.772 118.413C225.894 118.384 226.034 118.349 226.163 118.307C226.216 118.29 226.341 118.249 226.481 118.18C226.54 118.151 226.701 118.071 226.876 117.929C226.964 117.857 227.122 117.718 227.269 117.503C227.416 117.289 227.627 116.889 227.621 116.346C227.607 115.092 226.583 114.605 226.43 114.536C226.16 114.417 225.928 114.386 225.86 114.377C225.682 114.354 225.534 114.359 225.481 114.36C225.342 114.365 225.201 114.38 225.087 114.395C224.182 114.51 221.916 114.977 218.954 115.978C213.024 117.982 203.931 122.252 197.198 130.576L200.308 133.092ZM222.443 114.918C219.388 115.339 216.311 116.67 213.526 118.135C210.785 119.576 207.989 121.34 205.846 122.558C204.726 123.195 203.756 123.702 202.929 124.044C202.068 124.399 201.547 124.496 201.277 124.49C201.168 124.487 201.165 124.468 201.213 124.493C201.271 124.522 201.293 124.558 201.28 124.539C201.217 124.443 201.023 124.018 201.015 122.881L197.015 122.91C197.025 124.334 197.247 125.688 197.941 126.74C198.733 127.943 199.937 128.457 201.178 128.488C202.288 128.516 203.429 128.165 204.457 127.74C205.518 127.302 206.661 126.696 207.822 126.036C210.243 124.66 212.681 123.099 215.387 121.675C218.049 120.276 220.631 119.205 222.989 118.881L222.443 114.918ZM201.015 122.888C200.997 118.116 202.676 113.613 203.982 109.364C204.607 107.332 205.175 105.253 205.229 103.371C205.285 101.4 204.777 99.4202 203.05 97.9222L200.429 100.945C200.978 101.42 201.264 102.071 201.23 103.257C201.194 104.533 200.789 106.138 200.159 108.189C198.955 112.105 196.995 117.359 197.015 122.903L201.015 122.888ZM203.05 97.9222C201.555 96.6267 199.343 95.8612 197.244 95.1553C195.006 94.4027 192.538 93.6222 189.928 92.3698C184.811 89.9144 179.096 85.6146 174.701 76.17L171.074 77.8575C175.899 88.2256 182.332 93.1618 188.198 95.9761C191.079 97.3585 193.812 98.2213 195.969 98.9467C198.266 99.7189 199.647 100.266 200.429 100.945L203.05 97.9222ZM174.701 76.1696C170.151 66.3986 169.204 59.3698 169.38 55.8244C169.424 54.9378 169.535 54.3385 169.639 53.9973C169.692 53.8238 169.725 53.7798 169.704 53.8135C169.692 53.8333 169.648 53.9003 169.562 53.9847C169.476 54.0686 169.32 54.1977 169.084 54.2953C168.483 54.5428 167.869 54.3985 167.478 54.1179C167.189 53.9113 167.11 53.7024 167.138 53.7605C167.181 53.8506 167.308 54.2294 167.388 55.0492L171.37 54.6605C171.272 53.6648 171.086 52.7506 170.752 52.046C170.591 51.7067 170.308 51.225 169.808 50.8671C169.206 50.4352 168.374 50.2612 167.559 50.5974C166.896 50.8707 166.51 51.3763 166.309 51.6979C166.087 52.0543 165.93 52.4484 165.815 52.8255C165.582 53.5853 165.439 54.5368 165.385 55.6263C165.168 59.9855 166.33 67.6673 171.074 77.8579L174.701 76.1696ZM167.389 55.0502C167.517 56.3586 167.162 57.8263 166.375 59.5892C165.582 61.3658 164.465 63.2056 163.237 65.3141C160.874 69.3715 158.139 74.316 158.5 80.0078L162.492 79.7549C162.218 75.4287 164.279 71.4724 166.694 67.3273C167.854 65.3345 169.122 63.2476 170.027 61.2197C170.939 59.1782 171.596 56.9635 171.369 54.6595L167.389 55.0502ZM158.5 80.0083C158.701 83.1686 160.559 86.0367 162.595 88.5759C163.637 89.8765 164.805 91.1824 165.952 92.466C167.112 93.7644 168.258 95.0472 169.322 96.362C171.466 99.0121 173.119 101.606 173.755 104.305C174.366 106.9 174.08 109.765 171.977 113.119L175.366 115.244C178.003 111.037 178.519 107.083 177.648 103.388C176.802 99.7974 174.687 96.6332 172.431 93.8459C171.296 92.4421 170.083 91.0865 168.934 89.8007C167.772 88.5001 166.679 87.2759 165.716 86.0742C163.74 83.6091 162.608 81.5845 162.492 79.7545L158.5 80.0083ZM171.975 113.121C167.356 120.509 161.75 127.036 158.12 131.487C157.221 132.589 156.428 133.584 155.811 134.427C155.232 135.22 154.678 136.051 154.401 136.785C154.278 137.111 154.056 137.794 154.266 138.558C154.387 138.998 154.64 139.42 155.037 139.742C155.412 140.047 155.816 140.182 156.132 140.241C156.715 140.35 157.281 140.255 157.678 140.162C158.121 140.059 158.61 139.896 159.13 139.694L157.682 135.965C157.254 136.131 156.96 136.223 156.772 136.266C156.539 136.321 156.625 136.264 156.868 136.309C157.015 136.337 157.284 136.415 157.558 136.637C157.853 136.877 158.039 137.191 158.124 137.5C158.261 138.001 158.095 138.324 158.143 138.198C158.207 138.028 158.455 137.589 159.041 136.787C159.59 136.036 160.325 135.112 161.22 134.015C164.766 129.667 170.58 122.898 175.367 115.241L171.975 113.121ZM159.137 139.691C161.017 138.952 162.851 138.063 163.891 136.53C165.062 134.804 164.909 132.819 164.244 130.788C163.585 128.775 162.273 126.256 160.435 123.047C158.583 119.811 156.089 115.695 152.997 110.48L149.556 112.52C152.679 117.788 155.131 121.832 156.964 125.034C158.812 128.262 159.926 130.456 160.443 132.033C160.953 133.591 160.726 134.07 160.581 134.285C160.305 134.691 159.582 135.218 157.674 135.968L159.137 139.691ZM152.996 110.478C149.787 105.082 146.298 100.466 143.176 96.3186C140.022 92.1281 137.299 88.4815 135.426 84.8647C133.578 81.2942 132.625 77.8708 132.936 74.1581C133.248 70.4263 134.856 66.1765 138.536 61.0049L135.277 58.6856C131.325 64.2397 129.34 69.1653 128.95 73.8246C128.558 78.5029 129.794 82.6861 131.874 86.7037C133.93 90.6749 136.875 94.5977 139.98 98.7238C143.117 102.893 146.477 107.341 149.558 112.522L152.996 110.478ZM138.536 61.0052C145.934 50.6131 154.077 46.7633 159.82 45.5407C162.724 44.9227 165 44.9787 166.264 45.19C166.576 45.2421 166.796 45.2988 166.932 45.3435C167.107 45.4014 167.035 45.4039 166.876 45.2785C166.799 45.2182 166.556 45.0147 166.39 44.631C166.187 44.1582 166.173 43.5586 166.46 43.021C166.695 42.5814 167.027 42.3814 167.139 42.3201C167.212 42.2805 167.269 42.2576 167.3 42.246C167.333 42.2339 167.353 42.2289 167.355 42.2284L168.343 46.1044C168.545 46.053 168.8 45.9708 169.059 45.8294C169.296 45.7 169.71 45.4256 169.987 44.9071C170.317 44.2907 170.305 43.6077 170.064 43.049C169.862 42.5794 169.543 42.2875 169.353 42.1381C168.968 41.8344 168.521 41.6558 168.185 41.545C167.81 41.4211 167.383 41.3215 166.923 41.2447C165.103 40.9405 162.317 40.9196 158.988 41.6284C152.265 43.0593 143.257 47.4771 135.277 58.6853L138.536 61.0052ZM167.355 42.2284C168.177 42.0188 168.505 42.6671 168.281 42.35C168.106 42.1028 167.845 41.5512 167.596 40.6133C167.109 38.7836 166.811 36.0335 166.945 32.8402C167.214 26.417 169.2 18.772 174.179 13.6L171.297 10.8259C165.378 16.9753 163.239 25.7354 162.948 32.6727C162.802 36.1597 163.115 39.3287 163.73 41.641C164.031 42.7741 164.443 43.8492 165.014 44.6574C165.535 45.3958 166.681 46.5282 168.343 46.1044L167.355 42.2284ZM174.177 13.6025C179.255 8.34556 188.344 4.46178 197.647 2.83353C202.263 2.02575 206.831 1.79229 210.853 2.18927C214.901 2.58893 218.243 3.61214 220.541 5.18567L222.801 1.88549C219.742 -0.209306 215.662 -1.35543 211.245 -1.79138C206.802 -2.23002 201.865 -1.96537 196.958 -1.10658C187.216 0.598324 177.195 4.72154 171.3 10.8233L174.177 13.6025ZM220.542 5.18651C223.132 6.95796 223.807 8.10444 223.935 8.68361C224.023 9.07943 223.936 9.63907 222.967 10.704C221.966 11.8051 220.605 12.8399 218.911 14.3217C217.326 15.7074 215.584 17.3866 214.377 19.4818L217.842 21.4794C218.706 19.9808 220.029 18.6574 221.544 17.3326C222.949 16.1039 224.721 14.7202 225.926 13.396C227.164 12.0356 228.359 10.1628 227.841 7.82022C227.363 5.66094 225.546 3.7629 222.8 1.88465L220.542 5.18651ZM214.379 19.478C211.807 23.9168 213.071 28.0407 214.455 31.4119C215.19 33.2003 215.885 34.6268 216.422 36.1955C216.934 37.6937 217.181 39.0183 217.034 40.2857L221.007 40.7477C221.252 38.6448 220.813 36.6735 220.206 34.9002C219.623 33.1975 218.765 31.3769 218.155 29.8927C216.852 26.7186 216.269 24.1949 217.84 21.4833L214.379 19.478ZM217.034 40.2857C216.709 43.0782 215.621 44.4685 214.336 46.1161C212.963 47.8778 211.358 49.9404 211.2 53.7286L215.196 53.8955C215.299 51.4272 216.214 50.2125 217.491 48.5758C218.856 46.8251 220.548 44.696 221.007 40.7477L217.034 40.2857ZM211.2 53.7286C211.059 57.098 211.659 60.7931 212.082 63.1993C212.311 64.5001 212.46 65.2805 212.491 65.6424C212.5 65.7442 212.482 65.6426 212.507 65.4627C212.515 65.4047 212.56 65.0538 212.815 64.6799C212.962 64.4644 213.216 64.1879 213.616 64.004C214.031 63.8128 214.45 63.7932 214.793 63.8565C215.368 63.9625 215.702 64.2905 215.754 64.3395C215.858 64.4385 215.915 64.5186 215.922 64.5285C215.941 64.5543 215.92 64.5276 215.849 64.3977L212.339 66.3164C212.436 66.4938 212.552 66.6945 212.682 66.8739C212.745 66.9605 212.851 67.0989 212.998 67.2383C213.092 67.3278 213.463 67.6785 214.068 67.7901C214.426 67.8562 214.858 67.8351 215.287 67.6383C215.699 67.4488 215.963 67.1624 216.12 66.9329C216.394 66.5313 216.452 66.1361 216.468 66.0183C216.51 65.7187 216.488 65.4348 216.477 65.2975C216.425 64.7027 216.217 63.6163 216.022 62.5057C215.596 60.0891 215.076 56.7828 215.196 53.8955L211.2 53.7286ZM215.86 64.4184C215.628 63.9812 215.382 63.2229 214.956 62.0022C214.571 60.8985 214.077 59.5477 213.4 58.3209C212.734 57.1114 211.778 55.8116 210.357 55.0277C208.836 54.1879 207.061 54.0907 205.146 54.806L206.545 58.5534C207.522 58.1886 208.061 58.3289 208.424 58.5296C208.889 58.7861 209.389 59.3298 209.898 60.2524C210.397 61.1577 210.798 62.2276 211.179 63.3188C211.519 64.2931 211.907 65.5039 212.328 66.2957L215.86 64.4184ZM205.135 54.81C202.559 55.7883 201.681 58.4987 201.416 60.8271C201.133 63.3066 201.419 66.2858 201.978 69.1731C202.542 72.0844 203.411 75.0353 204.383 77.5024C205.315 79.8681 206.462 82.1063 207.71 83.3004L210.475 80.41C209.913 79.8723 209.025 78.3724 208.105 76.0363C207.225 73.8016 206.423 71.0871 205.905 68.4122C205.382 65.7131 205.173 63.1852 205.39 61.2795C205.624 59.2226 206.238 58.6697 206.555 58.5494L205.135 54.81ZM207.71 83.3004C207.616 83.2108 207.488 83.0144 207.466 82.7503C207.447 82.527 207.519 82.4265 207.485 82.49C207.397 82.6554 207.061 83.0603 206.293 83.5607C204.81 84.5263 202.402 85.4003 199.791 85.5132C197.211 85.6247 194.586 84.9914 192.453 83.1527C190.323 81.3172 188.435 78.0653 187.75 72.4512L183.779 72.9362C184.549 79.2395 186.758 83.5244 189.841 86.1824C192.921 88.8371 196.624 89.6539 199.964 89.5094C203.274 89.3663 206.379 88.2781 208.476 86.9126C209.497 86.2474 210.468 85.3945 211.012 84.3771C211.295 83.8492 211.515 83.1759 211.452 82.4195C211.386 81.6224 211.021 80.9325 210.475 80.41L207.71 83.3004ZM187.75 72.4538C186.324 60.6478 187.207 46.5697 190.506 34.9799C192.155 29.1869 194.382 24.1077 197.151 20.2597C199.917 16.4154 203.138 13.9106 206.779 12.9985L205.807 9.1184C200.975 10.329 197.03 13.5781 193.904 17.9235C190.78 22.2652 188.388 27.8116 186.659 33.8848C183.202 46.0274 182.294 60.6441 183.779 72.9336L187.75 72.4538ZM206.779 12.9985C215.152 10.9007 221.988 10.2406 227.829 11.8678C233.572 13.4677 238.649 17.3675 243.327 25.058L246.745 22.9792C241.681 14.6557 235.859 9.95264 228.903 8.01455C222.044 6.10378 214.38 6.97056 205.807 9.1184L206.779 12.9985ZM243.327 25.0575C252.714 40.4988 252.553 50.4772 254.093 66.4797L258.075 66.0965C256.554 50.2945 256.692 39.343 246.745 22.9797L243.327 25.0575ZM254.093 66.4763C254.818 74.1444 253.81 79.9729 251.798 83.8133C249.826 87.5776 246.933 89.4043 243.545 89.4639L243.615 93.4633C248.7 93.3739 252.806 90.5082 255.341 85.6696C257.836 80.9071 258.843 74.2223 258.075 66.0998L254.093 66.4763ZM243.545 89.4639C239.577 89.5337 236.168 88.7829 233.751 88.0125C232.545 87.6281 231.593 87.2413 230.953 86.9556C230.633 86.8129 230.391 86.6958 230.235 86.6173C230.157 86.5781 230.1 86.5486 230.066 86.5304C230.049 86.5213 230.037 86.515 230.031 86.5118C230.028 86.5102 230.027 86.5094 230.027 86.5093C230.027 86.5093 230.027 86.5095 230.028 86.5098C230.028 86.51 230.028 86.5103 230.029 86.5106C230.029 86.5107 230.03 86.5109 230.03 86.511C230.03 86.5113 230.031 86.5116 229.061 88.2608C228.091 90.01 228.092 90.0103 228.092 90.0106C228.093 90.0107 228.093 90.0111 228.094 90.0113C228.095 90.0118 228.096 90.0124 228.097 90.0129C228.099 90.0141 228.101 90.0155 228.104 90.0171C228.11 90.0203 228.117 90.0242 228.126 90.029C228.144 90.0384 228.167 90.051 228.196 90.0664C228.254 90.0973 228.336 90.1396 228.44 90.1917C228.647 90.296 228.944 90.4395 229.323 90.6087C230.081 90.9468 231.172 91.3887 232.536 91.8236C235.26 92.6919 239.111 93.5425 243.615 93.4633L243.545 89.4639ZM229.061 88.2608C229.074 90.2607 229.072 90.2608 229.07 90.2608C229.069 90.2608 229.067 90.2608 229.065 90.2608C229.062 90.2608 229.059 90.2608 229.056 90.2608C229.05 90.2608 229.045 90.2607 229.039 90.2606C229.029 90.2605 229.019 90.2603 229.011 90.26C228.994 90.2595 228.982 90.2587 228.973 90.2581C228.957 90.2568 228.956 90.2561 228.97 90.2583C228.996 90.2628 229.08 90.2794 229.205 90.329C229.444 90.4239 229.896 90.6624 230.425 91.2713C231.5 92.5092 233.011 95.4277 233.372 102.074L237.366 101.857C236.98 94.7616 235.337 90.8276 233.445 88.6486C232.49 87.549 231.505 86.938 230.678 86.6104C230.271 86.4487 229.914 86.3609 229.633 86.3137C229.493 86.2902 229.372 86.2768 229.274 86.2694C229.225 86.2657 229.181 86.2634 229.143 86.2622C229.124 86.2616 229.107 86.2612 229.091 86.261C229.083 86.2609 229.075 86.2608 229.068 86.2608C229.064 86.2608 229.061 86.2608 229.058 86.2608C229.056 86.2608 229.053 86.2608 229.053 86.2608C229.05 86.2608 229.048 86.2608 229.061 88.2608ZM233.372 102.069C233.562 105.736 234.43 108.495 235.914 110.522C237.418 112.575 239.404 113.67 241.428 114.273C243.398 114.86 245.488 115.001 247.253 115.107C249.136 115.22 250.568 115.295 251.683 115.618L252.796 111.776C251.149 111.299 249.18 111.215 247.493 111.114C245.687 111.006 244.038 110.877 242.57 110.439C241.154 110.018 240.003 109.336 239.141 108.158C238.258 106.953 237.531 105.03 237.366 101.862L233.372 102.069ZM251.683 115.618C252.627 115.892 253.893 116.006 255.285 116.061C256.721 116.118 258.475 116.116 260.483 116.09C264.529 116.037 269.66 115.89 275.73 115.906C287.838 115.939 303.495 116.624 320.564 120.016L321.344 116.093C303.926 112.632 287.987 111.939 275.741 111.906C269.633 111.89 264.398 112.039 260.431 112.09C258.432 112.116 256.768 112.117 255.443 112.064C254.073 112.01 253.233 111.903 252.796 111.776L251.683 115.618ZM320.565 120.016C337.778 123.432 350.592 125.297 359.261 126.139C363.59 126.559 366.921 126.727 369.266 126.7C370.431 126.686 371.411 126.624 372.171 126.504C372.547 126.444 372.932 126.36 373.283 126.234C373.569 126.131 374.14 125.896 374.562 125.354L371.407 122.895C371.699 122.521 372.018 122.438 371.928 122.471C371.903 122.479 371.79 122.514 371.544 122.553C371.059 122.63 370.299 122.688 369.22 122.7C367.077 122.725 363.904 122.57 359.648 122.157C351.147 121.332 338.469 119.491 321.344 116.093L320.565 120.016ZM374.562 125.354C374.792 125.059 374.913 124.746 374.962 124.614C375.03 124.435 375.088 124.242 375.138 124.058C375.239 123.688 375.342 123.226 375.446 122.71C375.656 121.671 375.899 120.279 376.168 118.672C376.71 115.433 377.372 111.264 378.144 107.01C378.916 102.754 379.785 98.4836 380.728 95.0733C381.2 93.3651 381.678 91.9238 382.151 90.8283C382.659 89.6513 383.045 89.159 383.198 89.0355L380.687 85.9219C379.72 86.7015 379.019 87.9898 378.478 89.2427C377.902 90.5771 377.368 92.215 376.873 94.0069C375.88 97.5969 374.985 102.011 374.208 106.297C373.43 110.585 372.758 114.817 372.223 118.011C371.953 119.619 371.721 120.951 371.526 121.917C371.427 122.403 371.345 122.763 371.279 123.006C371.245 123.128 371.224 123.19 371.217 123.209C371.192 123.277 371.243 123.106 371.407 122.895L374.562 125.354ZM383.198 89.0355C387.217 85.7944 399.16 77.3298 442.055 76.1081L441.941 72.1097C398.541 73.3459 385.626 81.9381 380.687 85.9219L383.198 89.0355ZM442.055 76.1081C463.626 75.4926 484.668 74.2712 500.604 73.2136C508.573 72.6848 515.268 72.1967 520.113 71.8459C522.537 71.6703 524.493 71.5295 525.916 71.4349C526.628 71.3876 527.198 71.3523 527.624 71.3301C527.837 71.319 528.007 71.3116 528.136 71.3074C528.201 71.3053 528.251 71.3042 528.289 71.3038C528.329 71.3033 528.344 71.3038 528.341 71.3037L528.468 67.3057C528.048 67.2924 527.02 67.3527 525.65 67.4437C524.213 67.5393 522.245 67.681 519.824 67.8563C514.977 68.2073 508.294 68.6945 500.339 69.2224C484.428 70.2783 463.442 71.4962 441.941 72.1097L442.055 76.1081ZM528.34 71.3036C528.275 71.3016 528.458 71.3013 528.867 71.6387C529.235 71.9428 529.606 72.3752 529.888 72.8114C530.212 73.3128 530.246 73.547 530.236 73.4497C530.231 73.3994 530.219 73.2434 530.27 73.0283C530.325 72.8 530.464 72.462 530.788 72.1721C531.12 71.8753 531.491 71.768 531.761 71.7443C532.007 71.7227 532.172 71.7676 532.21 71.7789L531.093 75.6196C531.535 75.7482 532.578 75.9377 533.454 75.1542C534.284 74.412 534.254 73.4151 534.215 73.0363C534.125 72.1756 533.669 71.2925 533.247 70.6394C532.783 69.9211 532.15 69.1618 531.413 68.5535C530.716 67.9784 529.691 67.3451 528.469 67.3057L528.34 71.3036ZM532.247 71.7899C531.9 71.6817 531.45 71.5937 531.111 71.5254C530.721 71.4467 530.325 71.3663 529.923 71.2632C529.065 71.0433 528.461 70.7849 528.134 70.5062C528 70.3912 527.958 70.3107 527.941 70.2638C527.926 70.2222 527.887 70.0914 527.945 69.7992C528.077 69.1341 528.662 67.8944 530.449 65.9153L527.48 63.2347C525.534 65.3894 524.365 67.2873 524.021 69.0208C523.841 69.9279 523.884 70.8116 524.182 71.632C524.479 72.4471 524.983 73.0759 525.539 73.5497C526.593 74.4489 527.949 74.8864 528.929 75.1379C529.446 75.2704 529.939 75.3695 530.32 75.4464C530.752 75.5336 530.955 75.5771 531.056 75.6086L532.247 71.7899ZM530.452 65.912C537.995 57.5193 544.68 49.0329 551.463 35.6483L547.895 33.8402C541.316 46.8228 534.863 55.0208 527.477 63.238L530.452 65.912ZM551.463 35.6483C554.915 28.8364 556.36 21.9803 557.829 17.4526C558.597 15.0838 559.331 13.451 560.215 12.4271C560.984 11.5372 561.9 11.0606 563.41 11.1203L563.568 7.12342C560.842 7.01557 558.754 8.00066 557.189 9.81194C555.739 11.4892 554.809 13.7971 554.024 16.2185C552.385 21.2714 551.162 27.394 547.895 33.8402L551.463 35.6483ZM563.41 11.1203C566.643 11.2487 569.649 13.6221 571.808 17.4738C573.946 21.2872 574.98 26.1163 574.492 30.2258L578.464 30.697C579.059 25.6824 577.816 20.0092 575.298 15.5177C572.801 11.0645 568.771 7.33015 563.569 7.12343L563.41 11.1203ZM574.493 30.2168C573.405 39.0464 569.207 51.0337 564.407 57.6674L567.648 60.0121C572.926 52.7173 577.312 40.0505 578.463 30.706L574.493 30.2168ZM564.407 57.6674C562.049 60.9267 558.303 64.4206 554.475 67.0104C552.567 68.3006 550.692 69.3308 549.012 69.9936C547.293 70.6717 545.962 70.892 545.07 70.7829L544.585 74.7534C546.435 74.9796 548.496 74.4969 550.48 73.7144C552.502 72.9166 554.639 71.7287 556.716 70.3235C560.856 67.5224 564.967 63.717 567.648 60.0121L564.407 57.6674ZM545.068 70.7827C543.061 70.5392 541.881 69.1944 541.596 68.5018C541.526 68.333 541.581 68.3698 541.563 68.5708C541.541 68.8258 541.352 69.4703 540.636 69.7638C540.099 69.9843 539.756 69.7826 539.928 69.8536C540.041 69.9001 540.318 70.0478 540.772 70.4143L543.284 67.3013C542.665 66.8019 542.051 66.4014 541.45 66.1542C540.908 65.9315 540.027 65.6905 539.119 66.0629C538.033 66.5083 537.642 67.4958 537.578 68.2217C537.519 68.8936 537.693 69.5292 537.897 70.0238C538.703 71.9847 541.069 74.3268 544.586 74.7536L545.068 70.7827ZM540.765 70.4089C540.926 70.5396 541.335 71.0559 541.897 72.2305C542.42 73.3239 542.971 74.7615 543.519 76.452C544.613 79.8273 545.643 84.0556 546.385 88.2166C547.131 92.3927 547.569 96.3996 547.523 99.3538C547.5 100.851 547.353 101.933 547.137 102.599C546.886 103.371 546.79 102.934 547.34 102.854L547.913 106.813C549.751 106.547 550.578 104.954 550.942 103.833C551.34 102.605 551.497 101.056 551.523 99.4163C551.575 96.0964 551.089 91.8054 550.323 87.5136C549.554 83.2067 548.484 78.7973 547.325 75.2188C546.746 73.4324 546.132 71.8142 545.505 70.5044C544.918 69.2759 544.193 68.0418 543.29 67.3067L540.765 70.4089ZM547.342 102.854C547.357 102.852 546.961 102.851 545.931 102.334C545.008 101.869 543.88 101.15 542.59 100.24C539.975 98.3951 537.092 96.0605 534.194 93.8897C532.78 92.8303 531.383 91.827 530.093 91.0142C528.832 90.2194 527.548 89.5246 526.38 89.1787C525.315 88.8632 523.565 88.6268 522.318 89.9858C521.231 91.1697 521.222 92.899 521.421 94.3748L525.385 93.8407C525.201 92.4768 525.499 92.4348 525.265 92.6902C524.87 93.1206 524.516 92.7983 525.245 93.0141C525.871 93.1995 526.778 93.653 527.96 94.3981C529.114 95.1252 530.411 96.0532 531.796 97.091C534.497 99.1146 537.633 101.638 540.285 103.509C541.628 104.457 542.946 105.31 544.135 105.907C545.217 106.451 546.598 107.002 547.911 106.813L547.342 102.854ZM521.421 94.3765C522.183 99.9947 523.473 104.995 523.915 107.516C524.034 108.193 524.092 108.675 524.102 109.001C524.114 109.425 524.031 109.25 524.23 108.927C524.373 108.694 524.631 108.443 525.002 108.311C525.338 108.192 525.597 108.232 525.673 108.248C525.766 108.267 525.622 108.251 525.131 107.913L522.869 111.213C523.451 111.611 524.141 112.016 524.866 112.166C525.258 112.246 525.782 112.278 526.337 112.082C526.928 111.872 527.359 111.473 527.635 111.026C528.099 110.273 528.115 109.401 528.1 108.881C528.081 108.264 527.983 107.558 527.855 106.825C527.308 103.704 526.153 99.5051 525.385 93.839L521.421 94.3765ZM525.131 107.913C523.736 106.957 521.148 106.02 517.797 105.192C514.358 104.343 509.876 103.552 504.503 102.998C493.753 101.888 479.367 101.713 462.526 103.931L463.049 107.896C479.577 105.72 493.65 105.898 504.092 106.976C509.314 107.516 513.61 108.278 516.837 109.075C520.152 109.894 522.118 110.698 522.869 111.213L525.131 107.913ZM462.526 103.931C445.961 106.115 435.9 107.411 430.489 108.901C429.114 109.28 427.942 109.695 427 110.186C426.068 110.671 425.207 111.308 424.653 112.207C423.402 114.236 424.356 116.335 425.307 117.826L428.68 115.675C428.277 115.044 428.12 114.647 428.074 114.419C428.054 114.321 428.061 114.286 428.06 114.294C428.058 114.307 428.052 114.316 428.059 114.305C428.085 114.263 428.246 114.047 428.847 113.734C429.436 113.427 430.306 113.1 431.551 112.758C436.618 111.362 446.284 110.107 463.049 107.896L462.526 103.931ZM425.31 117.831C426.335 119.427 427.707 120.951 428.94 122.232C430.256 123.6 431.291 124.578 431.985 125.373C432.36 125.804 432.379 125.905 432.334 125.785C432.308 125.714 432.14 125.241 432.387 124.651C432.668 123.98 433.222 123.749 433.428 123.689C433.611 123.637 433.685 123.661 433.535 123.652C433.412 123.645 433.205 123.62 432.889 123.558C432.258 123.434 431.347 123.196 430.08 122.808L428.909 126.633C430.226 127.036 431.289 127.321 432.121 127.483C432.537 127.565 432.933 127.624 433.297 127.645C433.634 127.665 434.08 127.664 434.531 127.535C435.005 127.399 435.724 127.04 436.077 126.194C436.397 125.429 436.211 124.735 436.087 124.4C435.848 123.751 435.355 123.153 435 122.746C434.233 121.866 432.934 120.614 431.822 119.459C430.628 118.216 429.481 116.923 428.676 115.67L425.31 117.831ZM430.078 122.808C425.056 121.276 418.792 118.224 414.306 116.167C413.204 115.661 412.199 115.212 411.364 114.872C410.592 114.558 409.769 114.254 409.115 114.158C408.935 114.132 408.685 114.107 408.405 114.132C408.151 114.155 407.663 114.235 407.2 114.597C406.65 115.026 406.398 115.643 406.377 116.216C406.36 116.697 406.503 117.08 406.595 117.286C406.782 117.705 407.073 118.078 407.314 118.361C407.583 118.676 407.921 119.027 408.317 119.413L411.107 116.546C410.757 116.206 410.515 115.95 410.358 115.766C410.173 115.549 410.193 115.532 410.248 115.657C410.275 115.716 410.388 115.977 410.375 116.359C410.358 116.834 410.143 117.374 409.661 117.75C409.268 118.057 408.882 118.106 408.758 118.116C408.678 118.124 408.619 118.122 408.587 118.12C408.554 118.119 408.535 118.116 408.534 118.116C408.533 118.116 408.567 118.121 408.643 118.141C408.716 118.16 408.812 118.189 408.933 118.229C409.176 118.31 409.484 118.426 409.858 118.578C410.606 118.882 411.544 119.3 412.639 119.802C416.943 121.777 423.556 125 428.91 126.634L430.078 122.808ZM408.317 119.413C411.281 122.296 415.441 126.542 418.932 131.012C420.677 133.246 422.226 135.5 423.37 137.636C424.526 139.795 425.201 141.709 425.337 143.288L429.322 142.948C429.121 140.599 428.173 138.132 426.896 135.748C425.607 133.342 423.913 130.891 422.084 128.55C418.427 123.867 414.115 119.473 411.107 116.546L408.317 119.413ZM425.337 143.289C425.66 147.051 425.398 154.861 425.134 164.046C424.873 173.131 424.618 183.417 424.995 191.882L428.991 191.704C428.622 183.41 428.871 173.27 429.132 164.161C429.391 155.154 429.671 147.006 429.322 142.947L425.337 143.289ZM424.995 191.883C425.37 200.221 426.221 216.314 425.361 230.431C424.93 237.508 424.076 243.938 422.58 248.602C421.831 250.938 420.963 252.695 420.011 253.859C419.086 254.989 418.171 255.465 417.227 255.53L417.5 259.52C419.822 259.361 421.68 258.135 423.107 256.392C424.505 254.682 425.564 252.395 426.389 249.824C428.04 244.675 428.917 237.843 429.354 230.674C430.229 216.301 429.363 199.975 428.991 191.703L424.995 191.883ZM417.227 255.53C414.409 255.722 411.491 254.927 408.505 253.618C405.5 252.301 402.645 250.57 399.838 248.986C397.168 247.48 394.364 245.996 391.829 245.646C390.494 245.461 389.101 245.567 387.797 246.24C386.492 246.913 385.496 248.041 384.751 249.505L388.316 251.319C388.784 250.399 389.252 249.99 389.631 249.794C390.012 249.598 390.522 249.503 391.281 249.608C392.935 249.837 395.079 250.895 397.873 252.47C400.529 253.969 403.653 255.859 406.899 257.282C410.163 258.712 413.767 259.775 417.5 259.52L417.227 255.53ZM384.754 249.499C383.492 251.96 382.35 254.834 381.255 257.513C380.136 260.25 379.067 262.785 377.904 264.788C376.702 266.858 375.623 267.955 374.68 268.326C373.98 268.601 372.885 268.649 371.003 267.111L368.472 270.209C371.013 272.284 373.622 273.04 376.143 272.049C378.42 271.153 380.077 269.011 381.363 266.797C382.686 264.517 383.854 261.727 384.957 259.026C386.084 256.269 387.149 253.594 388.313 251.325L384.754 249.499ZM371.006 267.115C367.016 263.838 365.561 259.729 363.978 256.381C363.593 255.568 363.172 254.748 362.679 254.041C362.185 253.333 361.541 252.624 360.66 252.156C358.713 251.124 356.604 251.723 354.519 252.983L356.589 256.406C358.293 255.376 358.745 255.668 358.785 255.69C358.898 255.75 359.104 255.908 359.399 256.33C359.694 256.753 360 257.326 360.362 258.092C361.764 261.057 363.613 266.22 368.468 270.206L371.006 267.115ZM354.516 252.985C354.391 253.061 354.355 253.046 354.352 253.046C354.315 253.042 354.159 253.012 353.872 252.805C353.254 252.36 352.466 251.422 351.551 249.908C349.747 246.925 347.927 242.541 346.123 238.064C344.365 233.699 342.604 229.194 340.978 226.311C340.563 225.576 340.129 224.894 339.675 224.322C339.238 223.77 338.69 223.202 338.016 222.828C337.281 222.42 336.316 222.211 335.312 222.612C334.41 222.972 333.815 223.695 333.418 224.364L336.857 226.406C337.043 226.093 337.059 226.222 336.794 226.327C336.426 226.474 336.123 226.352 336.075 226.325C336.069 226.322 336.112 226.346 336.202 226.43C336.291 226.513 336.404 226.635 336.541 226.808C336.818 227.157 337.136 227.643 337.494 228.276C338.955 230.868 340.593 235.041 342.413 239.558C344.187 243.963 346.126 248.666 348.128 251.977C349.115 253.61 350.242 255.12 351.535 256.051C352.203 256.532 353.002 256.922 353.915 257.022C354.863 257.126 355.775 256.901 356.593 256.404L354.516 252.985ZM333.416 224.367C332.183 226.451 330.524 230.31 328.605 234.606C326.647 238.989 324.344 244.007 321.745 248.67C319.133 253.357 316.294 257.55 313.306 260.364C310.311 263.187 307.489 264.338 304.758 263.761L303.931 267.675C308.516 268.644 312.623 266.504 316.049 263.276C319.484 260.04 322.561 255.423 325.239 250.617C327.931 245.788 330.294 240.632 332.257 236.237C334.26 231.754 335.778 228.23 336.859 226.404L333.416 224.367ZM304.757 263.761C303.163 263.425 300.763 262.513 297.666 261.054C294.605 259.611 290.98 257.69 286.976 255.417C278.969 250.873 269.521 244.965 260.16 238.768C250.801 232.573 241.55 226.103 233.94 220.441C226.285 214.746 220.413 209.958 217.711 207.103L214.806 209.852C217.778 212.993 223.919 217.971 231.552 223.65C239.23 229.362 248.542 235.874 257.952 242.103C267.36 248.331 276.89 254.292 285.001 258.896C289.056 261.197 292.776 263.171 295.961 264.672C299.111 266.157 301.859 267.238 303.932 267.675L304.757 263.761ZM217.713 207.105C215.052 204.284 212.054 199.619 209.119 194.242C206.204 188.902 203.426 182.998 201.182 177.803C198.933 172.593 197.249 168.162 196.508 165.764C196.321 165.161 196.212 164.743 196.163 164.495C196.137 164.358 196.145 164.357 196.146 164.437C196.147 164.47 196.149 164.628 196.093 164.841C196.049 165.01 195.874 165.585 195.253 165.972C194.535 166.42 193.83 166.259 193.507 166.128C193.213 166.009 193.038 165.849 193 165.814C192.905 165.727 192.894 165.69 192.979 165.813C193.127 166.024 193.377 166.437 193.746 167.12L197.266 165.221C196.879 164.503 196.541 163.926 196.256 163.519C196.126 163.332 195.936 163.079 195.701 162.864C195.593 162.765 195.357 162.562 195.011 162.422C194.637 162.27 193.888 162.109 193.137 162.578C192.482 162.987 192.282 163.603 192.222 163.834C192.151 164.109 192.145 164.348 192.147 164.483C192.15 164.766 192.195 165.046 192.238 165.262C192.327 165.721 192.486 166.3 192.686 166.946C193.49 169.545 195.238 174.128 197.51 179.388C199.787 184.663 202.619 190.683 205.608 196.158C208.576 201.596 211.774 206.638 214.804 209.85L217.713 207.105ZM193.746 167.121C196.747 172.681 203.885 186.039 211.905 199.621C219.877 213.12 228.876 227.115 235.605 233.771L238.418 230.928C232.12 224.698 223.371 211.171 215.349 197.587C207.376 184.084 200.275 170.796 197.266 165.221L193.746 167.121ZM235.607 233.773C238.985 237.105 244.693 241.334 251.299 245.897C257.935 250.481 265.625 255.501 273.025 260.407C280.446 265.327 287.576 270.133 293.169 274.332C295.966 276.433 298.345 278.357 300.17 280.047C302.038 281.778 303.168 283.123 303.647 284.059L307.207 282.236C306.389 280.639 304.813 278.897 302.888 277.113C300.92 275.29 298.419 273.273 295.571 271.134C289.873 266.855 282.651 261.99 275.236 257.073C267.799 252.143 260.167 247.161 253.572 242.606C246.947 238.029 241.513 233.981 238.416 230.926L235.607 233.773ZM303.646 284.057C303.576 283.92 303.488 283.566 303.66 283.191C303.78 282.93 303.916 282.916 303.69 283.048C303.232 283.315 302.23 283.647 300.509 283.948C297.16 284.532 291.98 284.862 285.428 284.994C272.365 285.257 254.288 284.729 235.542 284.072C216.824 283.416 197.45 282.633 181.881 282.394C174.097 282.275 167.227 282.29 161.845 282.529C159.155 282.649 156.807 282.825 154.887 283.073C153.013 283.315 151.383 283.645 150.228 284.139L151.802 287.816C152.421 287.552 153.588 287.274 155.4 287.04C157.165 286.812 159.39 286.642 162.022 286.525C167.285 286.292 174.06 286.275 181.819 286.394C197.337 286.632 216.645 287.413 235.402 288.07C254.129 288.726 272.317 289.259 285.508 288.993C292.082 288.861 297.525 288.529 301.197 287.888C302.986 287.575 304.593 287.152 305.706 286.503C306.265 286.177 306.926 285.664 307.295 284.861C307.716 283.945 307.6 283.005 307.209 282.238L303.646 284.057ZM150.228 284.139C143.163 287.163 131.721 292.163 124.176 296.832C122.282 298.005 120.58 299.188 119.236 300.345C117.94 301.461 116.773 302.723 116.223 304.091C115.933 304.814 115.782 305.648 115.96 306.525C116.141 307.415 116.622 308.152 117.259 308.73C118.446 309.806 120.294 310.442 122.512 310.849L123.233 306.914C121.186 306.539 120.272 306.062 119.946 305.767C119.827 305.658 119.863 305.645 119.88 305.728C119.894 305.797 119.86 305.769 119.935 305.582C120.116 305.131 120.675 304.385 121.847 303.376C122.97 302.408 124.478 301.349 126.281 300.234C133.526 295.75 144.684 290.863 151.802 287.816L150.228 284.139ZM122.515 310.849C124.858 311.275 129.129 311.407 134.589 311.364C140.116 311.32 147.044 311.094 154.815 310.751C170.361 310.065 189.355 308.911 207.409 307.81C225.476 306.708 242.591 305.661 254.419 305.187C260.35 304.949 264.879 304.859 267.524 304.969C268.182 304.996 268.688 305.035 269.053 305.081C269.485 305.135 269.528 305.178 269.406 305.122C269.391 305.115 268.899 304.909 268.61 304.3C268.198 303.43 268.573 302.667 268.824 302.355C268.936 302.215 269.039 302.133 269.085 302.098C269.112 302.078 269.132 302.065 269.144 302.057C269.157 302.049 269.164 302.045 269.164 302.045C269.165 302.044 269.161 302.047 269.151 302.052C269.141 302.056 269.127 302.063 269.109 302.071C269.071 302.089 269.019 302.11 268.95 302.137L270.39 305.869C270.632 305.776 270.88 305.667 271.11 305.54C271.303 305.432 271.655 305.219 271.945 304.858C272.288 304.429 272.685 303.559 272.226 302.589C271.89 301.88 271.281 301.582 271.083 301.49C270.594 301.264 270.004 301.169 269.551 301.112C269.031 301.046 268.402 301.002 267.691 300.972C264.861 300.855 260.18 300.953 254.258 301.19C242.379 301.667 225.214 302.717 207.165 303.817C189.102 304.919 170.144 306.071 154.639 306.755C146.886 307.097 140.014 307.321 134.558 307.364C129.036 307.407 125.142 307.261 123.23 306.914L122.515 310.849ZM268.948 302.138C262.989 304.444 255.024 305.747 250.231 306.757C249.076 307 248.037 307.242 247.293 307.491C246.951 307.606 246.493 307.778 246.105 308.045C245.918 308.174 245.568 308.445 245.325 308.906C245.024 309.477 244.971 310.194 245.288 310.851C245.543 311.38 245.945 311.675 246.156 311.811C246.395 311.965 246.641 312.071 246.842 312.146C247.248 312.297 247.738 312.418 248.267 312.525C249.343 312.741 250.891 312.954 252.956 313.179L253.389 309.202C251.349 308.98 249.948 308.782 249.055 308.603C248.601 308.512 248.351 308.439 248.24 308.398C248.183 308.377 248.226 308.387 248.317 308.445C248.378 308.484 248.684 308.683 248.892 309.116C249.162 309.677 249.113 310.297 248.864 310.771C248.672 311.135 248.42 311.308 248.377 311.338C248.276 311.407 248.283 311.378 248.563 311.284C249.062 311.117 249.893 310.916 251.057 310.671C255.539 309.726 264.034 308.329 270.392 305.868L268.948 302.138ZM252.956 313.179C255.136 313.416 260.726 313.542 268.716 313.589C276.764 313.636 287.377 313.603 299.702 313.506C324.356 313.313 355.887 312.862 387.517 312.282C419.147 311.703 450.881 310.994 475.94 310.283C500.931 309.574 519.428 308.861 524.461 308.261L523.987 304.289C519.185 304.861 500.936 305.573 475.827 306.285C450.785 306.995 419.065 307.704 387.444 308.283C355.823 308.863 324.306 309.313 299.671 309.507C287.353 309.603 276.761 309.636 268.74 309.589C260.66 309.541 255.315 309.412 253.389 309.202L252.956 313.179ZM524.464 308.26C529.43 307.658 539.187 306.085 550.833 304.235C562.509 302.381 576.139 300.239 588.927 298.485C601.735 296.728 613.623 295.371 621.84 295.07C625.999 294.918 629.011 295.048 630.712 295.446C631.654 295.667 631.704 295.864 631.564 295.68C631.429 295.503 631.342 295.236 631.369 294.972C631.39 294.77 631.461 294.729 631.358 294.874L634.617 297.193C634.96 296.711 635.275 296.098 635.349 295.376C635.428 294.593 635.203 293.858 634.75 293.262C633.975 292.24 632.669 291.796 631.624 291.552C629.351 291.019 625.861 290.921 621.694 291.073C613.26 291.381 601.199 292.764 588.384 294.522C575.549 296.282 561.881 298.43 550.205 300.285C538.5 302.144 528.853 303.699 523.983 304.289L524.464 308.26ZM631.36 294.871C630.737 295.743 629.506 296.713 627.62 297.723C625.773 298.712 623.484 299.643 620.954 300.522C615.877 302.285 610.109 303.745 605.394 305.05C603.072 305.692 600.971 306.307 599.403 306.899C598.626 307.192 597.895 307.51 597.309 307.864C597.016 308.041 596.7 308.262 596.421 308.536C596.151 308.802 595.809 309.223 595.649 309.812C595.469 310.476 595.578 311.142 595.898 311.699C596.182 312.192 596.584 312.519 596.906 312.73C597.539 313.145 598.378 313.441 599.273 313.682C601.12 314.179 603.972 314.634 607.984 315.078L608.424 311.102C604.439 310.661 601.845 310.232 600.313 309.819C599.518 309.605 599.184 309.44 599.099 309.385C599.062 309.361 599.219 309.45 599.365 309.703C599.547 310.018 599.623 310.442 599.51 310.859C599.417 311.202 599.24 311.374 599.228 311.386C599.205 311.408 599.238 311.372 599.376 311.289C599.653 311.121 600.12 310.903 600.815 310.641C602.192 310.122 604.131 309.55 606.461 308.905C611.049 307.635 617.029 306.119 622.266 304.301C624.892 303.389 627.4 302.378 629.508 301.25C631.577 300.142 633.456 298.818 634.615 297.196L631.36 294.871ZM607.986 315.078C616.069 315.965 655.344 317.323 709.516 318.864C763.76 320.408 833.09 322.137 901.421 323.757C969.752 325.377 1037.09 326.888 1087.34 327.994C1112.46 328.546 1133.32 328.998 1147.89 329.311C1155.18 329.468 1160.89 329.59 1164.79 329.673C1166.73 329.715 1168.23 329.746 1169.23 329.768C1169.73 329.778 1170.12 329.786 1170.37 329.792C1170.5 329.794 1170.59 329.797 1170.66 329.798C1170.69 329.799 1170.72 329.799 1170.73 329.799C1170.74 329.8 1170.75 329.8 1170.75 329.8C1170.75 329.8 1170.76 329.8 1170.8 327.8C1170.84 325.801 1170.84 325.801 1170.83 325.801C1170.83 325.801 1170.82 325.8 1170.82 325.8C1170.8 325.8 1170.78 325.799 1170.74 325.799C1170.68 325.797 1170.58 325.795 1170.46 325.793C1170.2 325.787 1169.82 325.779 1169.32 325.769C1168.31 325.747 1166.82 325.716 1164.87 325.674C1160.98 325.591 1155.26 325.469 1147.98 325.312C1133.4 324.999 1112.55 324.547 1087.42 323.995C1037.17 322.889 969.844 321.378 901.516 319.758C833.187 318.138 763.864 316.409 709.629 314.866C655.323 313.321 616.295 311.965 608.422 311.102L607.986 315.078Z" fill="#DDDDDD" mask="url(#path-1-inside-1_731_532)"/>
</svg>
