<svg width="588" height="450" viewBox="0 0 588 450" fill="none" xmlns="http://www.w3.org/2000/svg">
<path opacity="0.2" fill-rule="evenodd" clip-rule="evenodd" d="M192.523 460.905H-29.5233C-30.3349 460.905 -30.9992 460.052 -30.9992 458.915C-30.9992 457.873 -30.3352 457.02 -29.5236 457.02H191.047C193.409 444.891 210.601 435.415 213.552 433.899L230.228 405.945C232.884 400.26 237.09 387.088 241.443 372.211C240.927 372.306 240.41 372.022 240.041 371.453L240.04 371.451C239.656 370.761 230.908 355.033 248.232 326.064L248.228 326.021C247.472 318.353 241.65 259.285 233.622 222.872C232.073 223.82 231.04 224.388 230.818 224.483C230.449 224.672 230.007 224.672 229.638 224.483C229.269 224.293 228.974 223.82 228.826 223.346C225.559 210.759 220.935 199.732 216.851 189.993L216.651 189.517L216.634 189.477C206.755 166.09 198.952 147.62 216.135 124.323C217.389 122.617 218.57 120.912 219.677 119.206C218.053 111.436 216.873 109.446 216.282 108.877C214.216 109.067 205.362 109.73 195.106 107.646C179.758 104.519 168.912 96.5589 163.747 84.6193C160.574 77.2282 159.91 60.7402 167.141 50.4115C172.232 43.2099 182.636 37.1453 203.517 48.5163C210.453 52.3067 225.506 65.1938 227.645 80.7342C227.941 82.8189 228.014 84.9036 227.793 86.8935C228.087 86.378 228.391 85.8625 228.698 85.3424C229.237 84.4286 229.784 83.5009 230.302 82.5346V82.2504C227.941 63.3934 213.183 52.8752 213.036 52.7805C212.519 52.4014 212.224 51.6434 212.298 50.8853C212.372 50.1272 212.814 49.4639 213.405 49.2744C213.921 49.0849 214.438 48.8954 214.88 48.7059C196.508 36.7663 174.519 29.9437 170.682 28.8066C161.66 35.2951 114.795 48.3119 106.056 50.739L105.529 50.8853L100.586 68.6051C100.512 68.8894 100.364 69.1737 100.217 69.3632L87.3042 85.5669C87.009 86.0407 86.5663 86.2302 86.1236 86.1355C85.6809 86.0407 85.2382 85.7564 85.0168 85.2826C82.4343 80.3552 87.0828 69.9318 89.444 65.2886C86.7139 65.4781 81.3275 70.7846 78.3761 74.3854C74.8344 81.9661 71.7353 85.8512 69.0052 86.2302C67.3819 86.4197 66.4965 85.3774 66.3489 85.1879C66.1276 84.9983 66.0537 84.7141 65.9799 84.4298C62.8071 71.4479 66.9392 58.5607 77.9333 47.0002C85.0868 39.4508 92.92 34.9571 94.8422 33.8545C94.9225 33.8084 94.9925 33.7682 95.0517 33.734C108.555 18.5727 167.362 0.758068 169.871 0H170.314C202.853 3.50606 224.546 12.5081 235.245 26.7219C236.574 22.4578 236.795 19.3307 236.795 18.9517C236.795 18.4779 237.016 18.0041 237.311 17.6251C237.607 17.246 238.049 17.0565 238.418 17.1513C275.09 22.363 311.983 49.9377 336.48 72.1112C362.895 96.0851 381.047 119.206 381.194 119.396C381.563 119.775 381.711 120.438 381.637 121.007C380.678 128.492 379.571 135.789 378.243 142.991C383.039 135.22 385.326 130.009 385.4 129.819C385.622 129.345 385.99 128.966 386.359 128.872C386.802 128.777 387.171 128.872 387.54 129.156C406.798 144.98 419.047 175.019 425.983 197.477C433.509 221.735 436.534 242.487 436.534 242.676C436.608 243.15 436.534 243.719 436.239 244.193C436.017 244.572 435.575 244.856 435.132 244.856H427.827L428.786 250.826C431.517 250.826 434.099 250.92 436.534 251.11C437.346 251.205 437.936 252.058 437.936 253.005C437.936 253.953 437.346 254.806 436.608 254.9C436.569 254.95 435.81 255.076 434.506 255.293C433.308 255.493 431.651 255.769 429.672 256.132L437.788 305.786C457.047 336.014 462.359 415.516 462.654 420.254C464.72 433.331 466.639 439.585 467.303 441.385C477.78 446.123 480.215 453.609 480.806 457.21H586.098C586.91 457.21 587.574 458.062 587.574 459.105C587.574 460.147 586.91 461 586.098 461H479.404C479.035 461 478.666 460.811 478.371 460.431C478.076 460.147 477.928 459.579 477.928 459.105C477.928 458.726 477.78 449.913 465.68 444.796C465.311 444.702 465.015 444.323 464.868 443.943C464.862 443.919 464.838 443.856 464.8 443.749C464.38 442.6 462.134 436.45 459.703 421.012V420.822C459.703 419.97 454.316 337.34 435.28 307.965C435.132 307.681 435.058 307.397 434.984 307.112L426.72 256.796C416.243 258.88 400.453 262.955 393.959 268.735L419.489 329.286C419.563 329.475 419.637 329.76 419.637 329.949C419.64 329.966 419.649 330.048 419.665 330.193C420.097 334.099 425.542 383.338 443.544 410.02C443.617 410.115 443.691 410.304 443.765 410.493L443.765 410.494C444.06 411.347 450.849 432.288 450.184 445.933C450.152 446.058 450.134 446.164 450.117 446.261C450.096 446.384 450.078 446.49 450.037 446.597L445.61 459.863C445.388 460.526 444.872 461 444.282 461H231.777C231.335 461 230.892 460.716 230.597 460.242C230.302 459.768 230.228 459.105 230.375 458.536C230.375 458.53 230.381 458.501 230.391 458.45C230.526 457.75 231.47 452.855 230.302 442.617C230.228 442.143 230.302 441.669 230.523 441.29C230.587 441.17 230.732 440.894 230.951 440.478C234.543 433.649 258.018 389.021 268.449 374.106C269.187 372.875 278.779 355.439 281.214 341.415C281.288 341.036 281.509 340.657 281.731 340.372C281.952 340.183 302.096 318.768 324.084 281.054C327.699 274.8 331.463 267.977 335.299 260.491L308.515 241.255C302.391 258.217 295.529 276.126 291.692 282.665L291.47 282.949C291.463 282.958 291.415 283.012 291.33 283.107C289.709 284.917 274.621 301.759 268.523 317.062C268.744 323.221 269.556 358.566 262.694 365.104C262.399 365.389 262.104 365.483 261.735 365.483C260.406 365.389 257.824 364.157 257.086 360.461C256.796 358.784 256.72 356.923 256.647 355.149L256.643 355.06C256.63 354.827 256.618 354.592 256.606 354.356C256.477 351.907 256.344 349.394 255.537 348.616C255.02 348.143 254.135 348.237 253.397 348.427C252.585 349.564 251.478 351.175 250.372 352.975C244.1 375.149 236.942 399.502 232.958 408.03C232.958 408.077 232.94 408.101 232.921 408.125C232.903 408.148 232.884 408.172 232.884 408.22L215.913 436.742C215.84 436.805 215.766 436.879 215.692 436.952C215.544 437.1 215.397 437.247 215.249 437.31C209.568 440.153 194.663 449.629 193.999 459.2C193.925 460.147 193.261 460.905 192.523 460.905ZM233.475 457.115H443.322L447.233 445.27C447.749 433.236 441.994 414.568 441.183 412.105C422.662 384.53 417.276 335.729 416.759 330.612L390.787 268.925C390.491 268.072 390.639 267.124 391.156 266.556C395.656 261.628 406.134 257.838 415.8 255.279C402.234 256.501 389.049 258.981 385.464 259.655C384.876 259.766 384.546 259.828 384.515 259.828C384.072 259.923 383.629 259.733 383.334 259.354L363.781 237.37L347.769 267.408C347.327 268.167 346.515 268.451 345.851 267.977L337.808 262.197C333.897 269.872 330.061 276.79 326.371 283.138C305.859 318.294 286.896 339.52 283.944 342.741C281.14 357.903 271.179 375.528 270.737 376.286C270.737 376.333 270.718 376.357 270.7 376.381C270.681 376.404 270.663 376.428 270.663 376.475C260.333 391.163 236.278 436.931 233.253 442.712C233.991 449.819 233.77 454.556 233.475 457.115ZM241.148 364.252C242.624 359.703 245.428 354.776 247.715 351.08C251.527 337.35 254.94 324.514 256.996 316.78C258.005 312.985 258.688 310.418 258.931 309.576V242.961C258.619 240.757 257.757 233.422 256.526 222.946C256.01 218.559 255.43 213.621 254.799 208.279C248.822 213.586 241.443 218.324 236.5 221.261C245.059 259.828 251.109 323.126 251.405 326.348C251.478 326.917 251.331 327.391 251.109 327.77C240.337 345.584 240.041 357.903 241.148 364.252ZM289.239 280.126L289.257 280.106C292.946 273.662 299.734 256.037 305.785 239.36L301.432 236.233C300.989 235.949 300.694 235.285 300.694 234.622C300.694 226.094 305.047 221.072 307.187 219.082C304.678 209.606 311.245 200.225 311.54 199.846C311.688 199.561 311.909 199.372 312.204 199.277C312.647 199.135 313.071 198.969 313.496 198.803C313.92 198.637 314.344 198.472 314.787 198.329C302.022 177.483 276.27 174.545 275.975 174.545C270.072 174.071 265.203 173.218 261.071 172.176C262.472 184.684 262.472 197.003 262.472 199.467C262.472 199.94 262.325 200.319 262.104 200.698C260.849 202.499 259.3 204.299 257.529 206.005C258.205 211.718 258.829 217.009 259.383 221.701C260.703 232.887 261.622 240.674 261.882 242.676V242.961V309.955C261.882 310.145 261.882 310.334 261.808 310.524C261.439 311.945 257.529 326.917 252.585 344.826C254.504 344.258 255.979 344.542 257.16 345.584C259.148 347.408 259.291 350.985 259.431 354.46C259.436 354.597 259.442 354.734 259.447 354.871L259.453 354.994C259.525 356.568 259.6 358.221 259.816 359.514C260.038 360.746 260.702 361.314 261.218 361.504C265.276 356.008 265.94 331.465 265.424 316.683C265.424 316.304 265.424 316.02 265.572 315.735C271.895 299.493 287.452 282.122 289.239 280.126ZM363.191 232.632H363.412C363.781 232.632 364.15 232.727 364.297 233.201L384.662 256.037C388.647 255.279 408.717 251.489 425.761 250.92L424.507 243.34C424.433 242.771 424.507 242.203 424.802 241.729C425.097 241.35 425.54 241.066 425.983 241.066H433.287C431.148 227.989 418.604 160.805 387.319 133.42C385.843 136.452 382.449 143.18 376.767 151.519C368.06 194.35 353.451 230.926 339.284 259.164L345.925 263.902L362.158 233.485C362.379 233.011 362.748 232.727 363.191 232.632ZM336.775 257.175C350.057 230.832 363.707 197.003 372.488 157.489C371.999 158.054 371.542 158.661 371.075 159.282C370.837 159.598 370.597 159.917 370.348 160.237C360.165 173.124 343.268 190.086 319.509 200.225C320.026 201.267 320.468 202.309 320.911 203.446C321.132 203.92 321.132 204.584 320.985 205.057C320.881 205.348 320.522 206.39 319.958 208.031C318.129 213.354 314.134 224.978 309.622 237.654L336.775 257.175ZM316.832 207.677C317.334 206.214 317.717 205.096 317.96 204.394C317.517 203.352 317.074 202.404 316.484 201.457C315.451 201.93 314.418 202.309 313.311 202.688C312.204 204.489 307.703 212.069 310.212 218.892C310.581 219.745 310.286 220.882 309.622 221.356C309.612 221.364 309.592 221.38 309.563 221.402C308.938 221.891 304.068 225.693 303.645 233.39L307.039 235.854C311.201 224.112 314.896 213.326 316.832 207.677ZM231.261 220.219C231.777 219.934 232.294 219.65 232.958 219.271C231.261 212.164 229.564 206.194 227.719 201.836C227.645 201.646 227.572 201.362 227.572 201.077C227.572 200.888 226.539 178.335 224.473 155.593C223.144 140.811 221.816 130.672 220.636 123.755C219.972 124.797 219.234 125.839 218.422 126.882C202.718 148.185 209.704 164.758 219.358 187.661L219.381 187.717C223.366 197.192 227.867 207.9 231.261 220.219ZM235.614 217.66C240.853 214.533 248.453 209.511 254.282 204.205C253.84 200.298 253.371 196.214 252.887 192.004C251.997 184.267 251.058 176.102 250.15 167.817C242.255 163.458 240.41 158.152 240.041 155.214C239.451 150.476 241.591 146.023 245.502 143.938C246.092 143.654 246.682 143.464 247.273 143.275C244.743 121.681 242.422 101.576 240.97 88.9956C240.134 81.7569 239.586 77.009 239.451 75.9015C239.267 75.4276 239.082 74.9773 238.898 74.527C238.713 74.0771 238.529 73.6272 238.344 73.1535C236.869 76.9439 235.245 80.4499 233.475 83.6717C234.36 95.327 230.892 107.551 223.071 120.154C224.399 127.45 225.948 138.537 227.424 155.214C229.269 176.346 230.375 197.382 230.523 200.509C232.294 204.868 233.991 210.838 235.614 217.66ZM259.521 198.614L259.521 198.614C259.521 192.265 259.152 181.368 257.972 171.039C256.395 170.617 254.994 170.045 253.716 169.524C253.559 169.459 253.403 169.396 253.249 169.333C253.865 174.558 254.464 179.721 255.048 184.748C255.724 190.571 256.379 196.211 257.012 201.551C257.971 200.604 258.783 199.562 259.521 198.614ZM317.738 197.003C345.113 185.632 363.486 164.88 374.185 149.434C376.029 140.337 377.579 130.861 378.833 121.291C375.66 117.311 358.763 96.5589 335.004 75.0487C311.171 53.4438 275.385 26.7219 239.82 21.0364C239.525 23.5001 238.787 26.5324 237.607 29.7542C239.451 32.7864 240.853 36.0082 241.739 39.5143C244.395 49.4639 242.919 59.7926 239.82 69.0789C240.779 70.8793 241.517 72.7745 242.181 74.6697C242.181 74.7644 242.2 74.8355 242.218 74.9066C242.237 74.9776 242.255 75.0487 242.255 75.1435C242.29 75.4574 243.135 82.754 244.453 94.1404C245.92 106.813 247.974 124.553 250.15 143.37C251.036 143.559 251.847 144.033 252.585 144.696C256.791 148.297 259.152 157.868 260.554 168.007C264.834 169.239 269.999 170.091 276.123 170.66C277.377 170.755 304.457 173.787 317.738 197.003ZM250.777 147.634C250.74 147.61 250.704 147.586 250.667 147.539C250.9 149.6 251.142 151.662 251.383 153.719C251.83 157.525 252.276 161.317 252.659 165.069C254.061 165.733 255.61 166.396 257.307 166.964C255.979 158.057 253.987 150.382 250.888 147.728C250.851 147.681 250.814 147.657 250.777 147.634ZM248.601 155.121C248.287 152.396 247.974 149.671 247.641 146.97C247.357 147.044 247.116 147.173 246.851 147.316C246.773 147.358 246.693 147.401 246.608 147.444C244.026 148.866 242.55 151.614 242.919 154.551C243.288 157.394 245.354 160.521 249.56 163.269C249.228 160.569 248.914 157.845 248.601 155.121ZM222.111 115.511C227.498 106.224 230.302 97.2222 230.597 88.5992C226.237 95.7494 222.242 100.707 221.22 101.976C221.117 102.103 221.045 102.193 221.005 102.244C220.414 103.002 219.455 102.908 218.939 102.15C218.348 101.392 218.422 100.16 219.012 99.4964L219.16 99.3069L219.381 99.0226C223.809 93.5266 225.653 87.6516 224.768 81.3975C222.923 67.5628 208.609 55.4337 202.411 52.0224C187.137 43.6837 175.7 43.9679 169.428 52.97C163.378 61.593 163.599 76.1858 166.477 82.8189C177.536 108.476 213.711 105.335 216.42 105.1C216.512 105.092 216.565 105.087 216.578 105.087C216.799 105.087 217.02 105.087 217.242 105.182L217.249 105.185C218.283 105.66 219.977 106.436 222.111 115.511ZM76.31 71.5427C77.1954 70.4056 84.8692 61.214 89.7391 61.214H90.1081C91.2886 61.3087 92.2478 61.972 92.9119 63.1091C93.3546 63.7725 93.3546 64.72 92.9857 65.3834C90.6983 69.5527 87.9682 75.9963 87.4517 79.9762L98.0769 66.6152L103.094 48.5163C103.316 47.853 103.685 47.3792 104.201 47.2845C124.197 41.8833 163.673 30.228 169.649 25.111C169.945 24.8267 170.387 24.732 170.756 24.8267L170.84 24.8512C173.114 25.5123 198.497 32.894 218.717 46.9054C227.055 42.5466 231.556 35.9135 234.065 30.1332C224.325 16.0142 203.001 7.10689 170.461 3.50606C166.403 4.73792 109.219 22.363 97.0439 36.482C96.8964 36.6715 96.7487 36.7663 96.6012 36.861C96.2322 37.0506 62.7334 54.9599 68.7838 82.1556C69.5955 82.1556 72.1042 80.45 76.0887 71.9217C76.1255 71.8743 76.1624 71.8032 76.1993 71.7322C76.2362 71.6611 76.2731 71.59 76.31 71.5427ZM232.589 78.081C233.991 75.333 235.245 72.3955 236.352 69.3632C232.294 62.4458 225.801 56.2865 218.422 51.0748C218.238 51.1696 218.035 51.2643 217.832 51.3591C217.629 51.4538 217.426 51.5486 217.242 51.6434C221.595 55.6232 229.859 64.5305 232.589 78.081ZM238.861 40.5566C238.197 37.9981 237.238 35.6292 235.983 33.2602C233.179 39.0405 228.752 45.0103 221.816 49.0849C228.088 53.8228 233.622 59.224 237.607 65.2886C240.042 57.2341 241.001 48.7059 238.861 40.5566Z" fill="#DDDDDD"/>
</svg>
