<svg width="652" height="880" viewBox="0 0 652 880" fill="none" xmlns="http://www.w3.org/2000/svg">
<mask id="mask0_691_2020" style="mask-type:alpha" maskUnits="userSpaceOnUse" x="0" y="0" width="652" height="880">
<rect width="652" height="880" fill="#0AB3CA"/>
</mask>
<g mask="url(#mask0_691_2020)">
<rect x="-96" y="-1" width="748" height="880" fill="#0AB3CA"/>
<g opacity="0.16">
<path fill-rule="evenodd" clip-rule="evenodd" d="M-171.378 239.336H-170.954L231.879 -146.444V-146.24L249.273 -163H236.121H231.879H223.075L-184 226.842V234.664V239.336V251.424L-171.378 239.336ZM-101.694 239.336L231.879 -80.1162V-79.912L318.534 -163H292.442L236.121 -108.969V-109.166L-122.908 234.664H-123.331L-184 292.765V317.752L-102.117 239.336H-101.694ZM-32.3275 239.336L231.879 -13.686V-13.5842L387.9 -163H361.808L236.122 -42.6345V-42.8379L-53.6473 234.664H-54.071L-184 359.093V384.08L-32.8573 239.336H-32.3275ZM231.879 52.6413L36.9317 239.336H36.4027L-184 450.408V425.421L15.189 234.664H15.718L236.121 23.5918V23.6945L431.068 -163H457.16L231.879 52.7441V52.6413ZM-184 633V624.506L223.075 234.664H223.499L236.122 222.576V222.778L638.848 -163H652V-150.506L244.925 239.336H244.425L231.879 251.424V251.221L-166.777 633H-166.499L-184 649.76V637V633ZM231.879 317.549L-97.5169 633H-97.2393L-184 716.088V691.101L-127.508 637H-127.786L236.121 288.499V288.695L292.442 234.664H292.971L652 -109.166V-84.1787L314.185 239.336H313.662L231.879 317.752V317.549ZM231.879 383.978L-28.1508 633H-27.9792L-184 782.416V757.429L-58.2477 637H-58.5254L236.122 354.826V355.03L361.808 234.664H362.232L652.001 -42.8379V-17.749L383.445 239.336H383.022L231.879 384.08V383.978ZM41.1085 633L231.879 450.305V450.408L452.282 239.336H452.705L652 48.5791V23.5918L431.494 234.664H431.068L236.121 421.358V421.256L10.8398 637H11.0123L-184 823.757V848.744L41.2809 633H41.1085ZM231.879 516.634L110.369 633H110.541L-184 915.072V890.085L80.2724 637H80.1006L236.121 487.584V487.686L500.328 234.664H500.858L652 89.9199V114.907L522.071 239.336H521.542L231.879 516.736V516.634ZM179.629 633L231.879 582.962V583.166L590.803 239.336H591.331L652 181.235V156.248L570.118 234.664H569.588L236.121 554.014V553.912L149.36 637H149.532L-184 956.413V981.502L179.907 633H179.629ZM236.122 620.24V620.442L638.848 234.664H639.378L652.001 222.576V239.336L652 247.158L249.102 633H249.273L231.879 649.76V649.556L-170.954 1035.34H-184V1022.84L218.899 637H218.621L236.122 620.24ZM-184 583.166L175.029 239.336H175.452L231.879 185.298V185.502L595.68 -163H569.588L236.121 156.35V156.248L154.239 234.664H153.709L-184 558.077V583.166ZM105.663 239.336L-184 516.736V491.749L84.4491 234.664H84.9787L236.121 89.9199V90.0218L500.328 -163H526.42L231.879 119.072V118.97L106.192 239.336H105.663ZM231.879 848.641L36.9317 1035.34H10.8398L236.121 819.592V819.694L426.891 637H426.613L652 421.256V446.243L456.884 633H457.16L231.879 848.744V848.641ZM-32.3275 1035.34L231.879 782.314V782.416L387.9 633H387.624L652 379.915V354.826L357.354 637H357.631L236.122 753.366V753.162L-58.5254 1035.34H-32.3275ZM-101.694 1035.34L231.879 715.885V716.088L318.534 633H318.362L652 313.486V288.499L288.093 637H288.272L236.121 687.031V686.835L-127.786 1035.34H-101.694ZM106.192 1035.34L231.879 914.97V915.072L526.42 633H526.248L652 512.571V487.584L495.979 637H496.151L236.121 886.022V885.92L80.1006 1035.34H106.192ZM231.879 981.298L175.452 1035.34H149.36L236.121 952.248V952.35L565.411 637H565.239L652 553.912V578.899L595.508 633H595.68L231.879 981.502V981.298ZM236.122 1018.78V1018.58L218.621 1035.34H231.879H236.122H244.925L652 645.494V637H652.001V620.24L634.5 637H634.672L236.122 1018.78ZM652 844.579L452.705 1035.34H426.613L652 819.592V844.579ZM383.445 1035.34L652 778.251V753.162L357.354 1035.34H383.445ZM652 711.822L314.185 1035.34H288.093L652 686.835V711.822ZM522.071 1035.34L652 910.907V885.92L495.979 1035.34H522.071ZM652 977.235L591.331 1035.34H565.239L652 952.248V977.235ZM652.001 1035.34V1018.58L634.5 1035.34H652.001ZM-97.2393 -163L-184 -79.912V-104.899L-123.331 -163H-97.2393ZM-184 185.502L179.907 -163H153.709L-184 160.413V185.502ZM-27.9792 -163L-184 -13.5842V-38.5714L-54.071 -163H-27.9792ZM-184 -146.24L-166.499 -163H-184V-146.24ZM110.541 -163L-184 119.072V94.0848L84.4491 -163H110.541ZM-184 52.7441L41.2809 -163H15.189L-184 27.7568V52.7441Z" fill="white"/>
</g>
</g>
</svg>
