<svg width="475" height="354" viewBox="0 0 475 354" fill="none" xmlns="http://www.w3.org/2000/svg">
<path fill-rule="evenodd" clip-rule="evenodd" d="M171.642 353.927H1.13336C0.510101 353.927 0 353.272 0 352.399C0 351.599 0.509888 350.944 1.13315 350.944H170.509C172.322 341.63 185.524 334.354 187.79 333.189L200.595 311.724C202.635 307.358 205.865 297.244 209.208 285.82C208.811 285.892 208.414 285.674 208.131 285.237L208.13 285.236C207.835 284.705 201.118 272.628 214.42 250.383L214.417 250.351C213.837 244.469 209.366 199.106 203.202 171.142C202.012 171.87 201.218 172.307 201.048 172.379C200.765 172.525 200.425 172.525 200.142 172.379C199.859 172.234 199.632 171.87 199.519 171.506C197.01 161.841 193.459 153.373 190.323 145.895L190.17 145.529L190.157 145.498C182.57 127.54 176.579 113.357 189.773 95.4672C190.736 94.1574 191.643 92.8477 192.493 91.5379C191.246 85.5712 190.34 84.0432 189.886 83.6066C188.3 83.7521 181.501 84.2615 173.625 82.6606C161.84 80.2594 153.511 74.1472 149.544 64.9788C147.108 59.3032 146.598 46.6421 152.151 38.7108C156.06 33.1807 164.049 28.5237 180.084 37.2555C185.41 40.1661 196.969 50.0621 198.612 61.9955C198.839 63.5963 198.895 65.1971 198.725 66.7252C198.952 66.3293 199.185 65.9334 199.421 65.534C199.835 64.8324 200.255 64.12 200.652 63.378V63.1597C198.839 48.6795 187.507 40.6027 187.393 40.5299C186.997 40.2388 186.77 39.6567 186.827 39.0746C186.883 38.4925 187.223 37.9831 187.677 37.8376C188.073 37.6921 188.47 37.5466 188.81 37.401C174.702 28.2327 157.817 22.9936 154.871 22.1205C147.942 27.1029 111.954 37.0986 105.244 38.9623L104.84 39.0746L101.043 52.6816C100.987 52.8999 100.874 53.1182 100.76 53.2637L90.8447 65.7065C90.618 66.0703 90.2781 66.2158 89.9381 66.1431C89.5982 66.0703 89.2582 65.852 89.0882 65.4882C87.1051 61.7044 90.6747 53.7003 92.4878 50.1348C90.3914 50.2804 86.2552 54.3552 83.9888 57.1202C81.2691 62.9414 78.8894 65.9248 76.793 66.2158C75.5464 66.3614 74.8665 65.5609 74.7532 65.4154C74.5833 65.2699 74.5266 65.0516 74.4699 64.8333C72.0335 54.8645 75.2065 44.9686 83.6488 36.0913C89.142 30.294 95.1573 26.8433 96.6331 25.9967C96.6948 25.9613 96.7485 25.9305 96.794 25.9042C107.163 14.2619 152.321 0.582117 154.247 0H154.587C179.574 2.69229 196.232 9.60493 204.448 20.5196C205.468 17.2452 205.638 14.844 205.638 14.5529C205.638 14.1891 205.808 13.8253 206.035 13.5342C206.261 13.2432 206.601 13.0976 206.884 13.1704C235.045 17.1725 263.375 38.347 282.186 55.3739C302.47 73.7833 316.408 91.5379 316.522 91.6835C316.805 91.9745 316.918 92.4839 316.862 92.9204C316.125 98.6689 315.275 104.272 314.255 109.802C317.938 103.835 319.695 99.8331 319.751 99.6876C319.921 99.3237 320.205 99.0327 320.488 98.9599C320.828 98.8872 321.111 98.9599 321.395 99.1782C336.183 111.33 345.588 134.396 350.914 151.642C356.694 170.269 359.017 186.205 359.017 186.35C359.073 186.714 359.017 187.151 358.79 187.514C358.62 187.806 358.28 188.024 357.94 188.024H352.331L353.068 192.608C355.164 192.608 357.147 192.681 359.017 192.826C359.64 192.899 360.093 193.554 360.093 194.282C360.093 195.009 359.64 195.664 359.073 195.737C359.044 195.775 358.46 195.872 357.459 196.039C356.539 196.192 355.267 196.404 353.747 196.683L359.98 234.812C374.768 258.023 378.848 319.073 379.074 322.711C380.661 332.753 382.134 337.555 382.644 338.938C390.69 342.576 392.56 348.324 393.013 351.089H473.867C474.49 351.089 475 351.744 475 352.545C475 353.345 474.49 354 473.867 354H391.936C391.653 354 391.37 353.854 391.143 353.563C390.916 353.345 390.803 352.909 390.803 352.545C390.803 352.254 390.69 345.487 381.398 341.557C381.114 341.484 380.888 341.193 380.774 340.902C380.769 340.884 380.752 340.835 380.722 340.753C380.4 339.871 378.675 335.148 376.808 323.293V323.148C376.808 322.493 372.672 259.042 358.054 236.485C357.94 236.267 357.884 236.049 357.827 235.83L351.481 197.192C343.435 198.793 331.31 201.922 326.324 206.361L345.928 252.857C345.985 253.003 346.042 253.221 346.042 253.367C346.044 253.38 346.051 253.443 346.063 253.554C346.395 256.553 350.576 294.364 364.4 314.853C364.456 314.925 364.513 315.071 364.569 315.216L364.57 315.216C364.796 315.871 370.009 331.952 369.499 342.43C369.474 342.526 369.46 342.608 369.448 342.682C369.431 342.776 369.417 342.858 369.386 342.94L365.986 353.127C365.816 353.636 365.419 354 364.966 354H201.785C201.445 354 201.105 353.782 200.879 353.418C200.652 353.054 200.595 352.545 200.709 352.108C200.709 352.103 200.713 352.081 200.72 352.042C200.824 351.504 201.549 347.746 200.652 339.884C200.595 339.52 200.652 339.156 200.822 338.865C200.871 338.773 200.982 338.561 201.151 338.24C203.911 332.994 221.935 298.727 229.945 287.275C230.512 286.329 237.878 272.94 239.747 262.171C239.804 261.88 239.974 261.589 240.144 261.371C240.314 261.225 255.782 244.78 272.667 215.82C275.443 211.017 278.333 205.778 281.279 200.03L260.712 185.259C256.009 198.284 250.739 212.036 247.793 217.057L247.623 217.275C247.617 217.283 247.581 217.324 247.515 217.397C246.271 218.785 234.685 231.719 230.002 243.471C230.172 248.2 230.795 275.341 225.526 280.362C225.299 280.581 225.072 280.653 224.789 280.653C223.769 280.581 221.786 279.635 221.22 276.797C220.997 275.509 220.938 274.08 220.882 272.718L220.88 272.649C220.87 272.47 220.86 272.289 220.851 272.108C220.751 270.228 220.65 268.299 220.03 267.701C219.633 267.337 218.953 267.41 218.387 267.556C217.763 268.429 216.913 269.666 216.063 271.048C211.247 288.075 205.751 306.776 202.692 313.325C202.692 313.397 202.635 313.397 202.635 313.47L189.603 335.372C189.547 335.421 189.49 335.477 189.433 335.534C189.32 335.647 189.207 335.76 189.093 335.809C184.73 337.992 173.285 345.268 172.775 352.617C172.718 353.345 172.209 353.927 171.642 353.927ZM203.088 351.017H364.23L367.233 341.921C367.629 332.68 363.21 318.345 362.586 316.453C348.365 295.279 344.229 257.805 343.832 253.876L323.888 206.506C323.661 205.851 323.774 205.124 324.171 204.687C327.627 200.903 335.673 197.993 343.095 196.028C332.678 196.966 322.554 198.87 319.8 199.388C319.349 199.473 319.095 199.521 319.071 199.521C318.732 199.593 318.392 199.448 318.165 199.157L303.15 182.275L290.855 205.342C290.515 205.924 289.892 206.142 289.382 205.778L283.206 201.34C280.203 207.234 277.256 212.546 274.423 217.421C258.672 244.416 244.11 260.716 241.844 263.19C239.691 274.832 232.042 288.366 231.702 288.948C231.702 288.985 231.687 289.003 231.673 289.021C231.659 289.039 231.645 289.058 231.645 289.094C223.713 300.372 205.241 335.518 202.918 339.956C203.485 345.414 203.315 349.052 203.088 351.017ZM208.981 279.707C210.114 276.215 212.267 272.431 214.024 269.593C216.95 259.05 219.571 249.194 221.15 243.255C221.925 240.34 222.45 238.369 222.636 237.722V186.569C222.396 184.876 221.734 179.242 220.789 171.196C220.393 167.828 219.948 164.038 219.463 159.937C214.874 164.012 209.208 167.65 205.411 169.905C211.984 199.521 216.63 248.127 216.857 250.601C216.913 251.038 216.8 251.402 216.63 251.693C208.358 265.373 208.131 274.832 208.981 279.707ZM245.909 215.108L245.923 215.092C248.756 210.144 253.969 196.61 258.615 183.803L255.272 181.402C254.932 181.184 254.706 180.675 254.706 180.165C254.706 173.616 258.049 169.76 259.692 168.232C257.765 160.955 262.808 153.752 263.035 153.461C263.148 153.242 263.318 153.097 263.545 153.024C263.885 152.915 264.21 152.788 264.536 152.66C264.862 152.533 265.188 152.406 265.528 152.296C255.725 136.288 235.951 134.032 235.724 134.032C231.192 133.669 227.452 133.014 224.279 132.213C225.356 141.818 225.356 151.278 225.356 153.17C225.356 153.533 225.242 153.824 225.072 154.116C224.109 155.498 222.919 156.881 221.559 158.19C222.079 162.578 222.558 166.642 222.984 170.246C223.997 178.834 224.703 184.813 224.902 186.35V186.569V238.013C224.902 238.159 224.902 238.304 224.846 238.45C224.562 239.541 221.559 251.038 217.763 264.791C219.236 264.354 220.37 264.572 221.276 265.373C222.803 266.773 222.913 269.52 223.02 272.189C223.024 272.294 223.028 272.399 223.033 272.504L223.037 272.598C223.092 273.807 223.15 275.076 223.316 276.069C223.486 277.015 223.996 277.452 224.392 277.597C227.509 273.377 228.019 254.531 227.622 243.179C227.622 242.888 227.622 242.67 227.735 242.452C232.591 229.98 244.537 216.64 245.909 215.108ZM302.697 178.637H302.867C303.15 178.637 303.433 178.71 303.547 179.074L319.185 196.61C322.244 196.028 337.656 193.117 350.744 192.681L349.781 186.86C349.725 186.423 349.781 185.986 350.008 185.623C350.234 185.332 350.574 185.113 350.914 185.113H356.524C354.881 175.072 345.248 123.482 321.225 102.453C320.091 104.781 317.485 109.947 313.122 116.351C306.436 149.24 295.218 177.327 284.339 199.011L289.438 202.65L301.903 179.292C302.073 178.928 302.357 178.71 302.697 178.637ZM282.412 197.483C292.611 177.255 303.093 151.278 309.836 120.935C309.46 121.369 309.11 121.835 308.751 122.312C308.568 122.554 308.384 122.8 308.193 123.045C300.374 132.941 287.398 145.966 269.154 153.752C269.551 154.552 269.891 155.353 270.23 156.226C270.4 156.59 270.4 157.099 270.287 157.463C270.207 157.686 269.932 158.486 269.499 159.746C268.094 163.834 265.026 172.76 261.561 182.494L282.412 197.483ZM267.098 159.475C267.483 158.351 267.778 157.492 267.964 156.953C267.624 156.153 267.284 155.425 266.831 154.698C266.038 155.061 265.244 155.353 264.394 155.644C263.545 157.026 260.088 162.847 262.015 168.086C262.298 168.741 262.071 169.614 261.561 169.978C261.554 169.985 261.539 169.997 261.516 170.014C261.037 170.389 257.297 173.309 256.972 179.219L259.578 181.111C262.774 172.095 265.612 163.813 267.098 159.475ZM201.388 169.105C201.785 168.887 202.182 168.668 202.692 168.377C201.388 162.92 200.085 158.336 198.669 154.989C198.612 154.843 198.555 154.625 198.555 154.407C198.555 154.261 197.762 136.943 196.176 119.48C195.156 108.128 194.136 100.342 193.229 95.0306C192.719 95.831 192.153 96.6314 191.53 97.4319C179.471 113.791 184.835 126.517 192.248 144.105L192.266 144.147C195.326 151.423 198.782 159.646 201.388 169.105ZM204.731 167.14C208.754 164.739 214.59 160.883 219.066 156.808C218.727 153.808 218.367 150.673 217.995 147.441C217.312 141.499 216.591 135.228 215.893 128.866C209.831 125.519 208.414 121.444 208.131 119.188C207.678 115.55 209.321 112.13 212.324 110.529C212.777 110.311 213.23 110.166 213.684 110.02C211.741 93.4327 209.958 77.9896 208.843 68.3295C208.202 62.7765 207.781 59.1344 207.678 58.2845C207.536 57.9207 207.394 57.575 207.253 57.2294C207.111 56.8838 206.969 56.5381 206.828 56.1743C205.695 59.0849 204.448 61.7772 203.088 64.2512C203.768 73.2012 201.105 82.5879 195.099 92.2656C196.119 97.8684 197.309 106.382 198.442 119.188C199.859 135.415 200.709 151.569 200.822 153.97C202.182 157.317 203.485 161.901 204.731 167.14ZM223.089 152.515L223.089 152.515C223.089 147.639 222.806 139.272 221.899 131.34C220.689 131.016 219.613 130.577 218.632 130.177C218.511 130.127 218.391 130.078 218.273 130.03C218.746 134.041 219.206 138.005 219.654 141.865C220.173 146.337 220.676 150.669 221.163 154.77C221.899 154.043 222.522 153.243 223.089 152.515ZM267.794 151.278C288.815 142.546 302.923 126.61 311.139 114.75C312.556 107.764 313.745 100.488 314.709 93.1387C312.272 90.0826 299.297 74.1472 281.053 57.6296C262.751 41.0393 235.271 20.5196 207.961 16.1538C207.734 18.0456 207.168 20.3741 206.261 22.8481C207.678 25.1766 208.754 27.6506 209.434 30.3429C211.474 37.9831 210.341 45.9145 207.961 53.0454C208.698 54.428 209.264 55.8832 209.774 57.3385C209.774 57.4113 209.788 57.4659 209.803 57.5205C209.817 57.575 209.831 57.6296 209.831 57.7024C209.858 57.9437 210.508 63.56 211.522 72.3218C212.649 82.0512 214.224 95.6591 215.893 110.093C216.573 110.238 217.197 110.602 217.763 111.112C220.993 113.877 222.806 121.226 223.883 129.012C227.169 129.958 231.135 130.613 235.838 131.049C236.801 131.122 257.595 133.45 267.794 151.278ZM216.375 113.367C216.347 113.349 216.318 113.331 216.29 113.295C216.469 114.879 216.655 116.463 216.841 118.043C217.184 120.965 217.526 123.876 217.82 126.756C218.896 127.265 220.086 127.775 221.389 128.211C220.37 121.371 218.84 115.477 216.46 113.44C216.432 113.404 216.403 113.386 216.375 113.367ZM214.704 119.117C214.463 117.025 214.222 114.932 213.967 112.858C213.748 112.914 213.563 113.014 213.36 113.123C213.3 113.155 213.238 113.189 213.174 113.222C211.191 114.313 210.057 116.423 210.341 118.679C210.624 120.862 212.211 123.263 215.44 125.373C215.185 123.3 214.944 121.209 214.704 119.117ZM194.363 88.7001C198.499 81.5692 200.652 74.6565 200.879 68.035C197.53 73.5257 194.463 77.3324 193.678 78.3069C193.599 78.4043 193.544 78.4734 193.513 78.5131C193.059 79.0952 192.323 79.0224 191.926 78.4403C191.473 77.8582 191.53 76.9122 191.983 76.4029L192.096 76.2573L192.266 76.0391C195.666 71.8187 197.082 67.3073 196.402 62.5048C194.986 51.8812 183.994 42.5673 179.234 39.9478C167.506 33.5445 158.723 33.7628 153.907 40.6754C149.261 47.297 149.431 58.5028 151.641 63.5963C160.134 83.2983 187.912 80.8863 189.992 80.7057C190.063 80.6996 190.104 80.696 190.113 80.696C190.283 80.696 190.453 80.696 190.623 80.7688L190.629 80.7715C191.423 81.1355 192.724 81.7321 194.363 88.7001ZM82.4023 54.9373C83.0822 54.0641 88.9749 47.006 92.7144 47.006H92.9978C93.9043 47.0787 94.6409 47.5881 95.1508 48.4613C95.4908 48.9706 95.4908 49.6983 95.2075 50.2076C93.451 53.4093 91.3546 58.3572 90.958 61.4134L99.117 51.1535L102.97 37.2555C103.14 36.7461 103.423 36.3823 103.82 36.3096C119.175 32.162 149.488 23.2119 154.077 19.2826C154.304 19.0643 154.644 18.9916 154.927 19.0643L154.992 19.0831C156.737 19.5908 176.229 25.2591 191.756 36.0185C198.159 32.6713 201.615 27.5778 203.542 23.1392C196.062 12.2972 179.688 5.45735 154.701 2.69229C151.584 3.63823 107.673 17.1725 98.3238 28.0144C98.2105 28.1599 98.0971 28.2327 97.9838 28.3054C97.7005 28.451 71.9769 42.2035 76.623 63.0869C77.2462 63.0869 79.1727 61.7772 82.2323 55.2284C82.2607 55.192 82.289 55.1375 82.3173 55.0829C82.3456 55.0283 82.374 54.9737 82.4023 54.9373ZM202.408 59.9581C203.485 57.8479 204.448 55.5922 205.298 53.2637C202.182 47.9519 197.196 43.2222 191.53 39.2201C191.388 39.2929 191.232 39.3657 191.076 39.4384C190.921 39.5112 190.765 39.584 190.623 39.6567C193.966 42.7128 200.312 49.5527 202.408 59.9581ZM207.224 31.1433C206.715 29.1786 205.978 27.3595 205.015 25.5404C202.862 29.979 199.462 34.5632 194.136 37.6921C198.952 41.3303 203.202 45.4779 206.261 50.1348C208.131 43.9498 208.868 37.401 207.224 31.1433Z" fill="#DDDDDD"/>
</svg>
