<svg width="546" height="572" viewBox="0 0 546 572" fill="none" xmlns="http://www.w3.org/2000/svg">
<path d="M265.415 23.6549L265.39 23.6147L265.368 23.5722C265.076 22.9859 264.237 21.8693 263.039 20.3753C262.568 19.7882 262.046 19.1471 261.5 18.4775C260.713 17.5113 259.877 16.4856 259.078 15.4764C257.715 13.7561 256.391 12.0032 255.45 10.4893C254.98 9.73398 254.585 9.00658 254.33 8.35126C254.099 7.75808 253.915 7.06163 254.051 6.4146C254.173 5.34251 253.845 4.42883 253.058 3.63903C252.227 2.80453 250.843 2.07663 248.837 1.57289C242.474 0.0629535 234.208 1.64846 226.638 5.0338C219.069 8.41859 212.428 13.4984 209.239 18.7166C206.308 23.622 206.731 30.9188 208.776 38.2099C210.806 45.4491 214.351 52.377 217.256 56.3202C220.097 60.1757 225.627 64.1359 232.32 67.3629C238.986 70.5764 246.681 73.0027 253.744 73.8687C260.877 74.5659 265.418 74.1081 268.307 72.965C271.11 71.8559 272.396 70.0886 273.019 67.9018C273.672 65.6096 273.683 63.1119 273.509 60.364C273.456 59.5289 273.385 58.6637 273.313 57.7771C273.151 55.8042 272.981 53.7249 272.981 51.6341C272.981 48.7318 271.519 45.4183 269.965 42.1667C269.845 41.9157 269.725 41.6649 269.605 41.415C268.968 40.0889 268.342 38.7869 267.872 37.6001C267.33 36.2331 266.922 34.8513 267.017 33.6425C267.017 31.8848 267.015 30.0243 266.805 28.2593C266.593 26.475 266.18 24.8828 265.415 23.6549Z" stroke="#DDDDDD" stroke-width="2"/>
<path d="M210.41 45.8565C209.908 46.1898 209.518 47.0347 209.674 48.5422C209.825 49.9951 210.475 51.7921 211.635 53.5497C212.794 55.3073 214.189 56.61 215.463 57.317C216.785 58.0507 217.713 58.0207 218.214 57.6875C218.716 57.3543 219.106 56.5093 218.95 55.0018C218.799 53.549 218.149 51.752 216.989 49.9943C215.83 48.2367 214.435 46.9341 213.161 46.227C211.839 45.4934 210.912 45.5233 210.41 45.8565Z" stroke="#DDDDDD" stroke-width="2"/>
<path d="M303.447 152.996L302.447 153.023L302.378 150.379L304.178 152.314L304.178 152.314L304.178 152.315L304.179 152.315L304.179 152.315L304.185 152.321C304.188 152.325 304.192 152.329 304.197 152.334C304.203 152.34 304.21 152.348 304.219 152.356C304.25 152.389 304.301 152.439 304.369 152.505C304.505 152.637 304.713 152.83 304.989 153.066C305.542 153.538 306.366 154.176 307.432 154.826C309.561 156.125 312.635 157.457 316.448 157.628C320.183 157.621 324.356 155.813 328.127 153.148C331.891 150.487 335.122 147.063 336.97 144.029C337.795 142.675 337.933 141.382 337.645 140.127C337.348 138.837 336.586 137.537 335.521 136.259C333.618 133.975 330.942 131.98 328.86 130.429C328.597 130.233 328.344 130.044 328.103 129.863C325.825 128.149 323.974 125.157 321.664 121.423L321.627 121.363L321.553 121.244C319.199 117.439 316.261 112.688 311.79 107.168C307.37 101.71 301.128 97.9191 295.196 95.3123C289.272 92.7096 283.73 91.3183 280.767 90.6188C280.439 90.5414 280.097 90.4617 279.743 90.3791C276.912 89.7184 273.323 88.8807 270.29 87.7198C268.585 87.0668 266.987 86.2871 265.776 85.3334C264.567 84.3813 263.63 83.1618 263.512 81.6271C263.159 77.0219 263.836 72.3912 265.571 68.4122C265.353 67.5855 264.63 66.549 263.277 65.3479C261.815 64.0507 259.767 62.6909 257.307 61.3374C252.392 58.6334 245.967 56.0285 239.653 54.0406C233.329 52.0495 227.194 50.7024 222.855 50.4724C220.654 50.3558 219.068 50.537 218.153 50.9487C217.716 51.1455 217.517 51.357 217.427 51.5322C217.344 51.6965 217.288 51.9635 217.415 52.4257L217.419 52.4412L217.423 52.4569C218.651 57.5629 219.354 60.5566 220.055 63.5489L220.056 63.5503C220.757 66.5407 221.458 69.53 222.685 74.6297L222.689 74.6456L222.692 74.6617C223.271 77.4671 222.782 79.8721 221.481 82.1131C220.207 84.3083 218.167 86.3241 215.696 88.4274C214.292 89.622 212.739 90.8543 211.07 92.1791C206.791 95.576 201.745 99.5807 196.479 105.117L196.47 105.125C192.841 108.851 189.7 114.661 187.167 121.608C184.641 128.539 182.748 136.522 181.572 144.519C180.396 152.517 179.94 160.502 180.277 167.433C180.614 174.392 181.745 180.176 183.66 183.854C184.729 185.862 185.651 188.733 186.455 192.18C187.263 195.645 187.967 199.755 188.578 204.275C189.8 213.314 190.657 224.045 191.228 234.639C192.368 255.801 192.372 276.541 191.839 282.253C191.839 282.253 191.839 282.253 191.839 282.252L303.447 152.996ZM303.447 152.996C302.447 153.023 302.447 153.023 302.447 153.023L302.447 153.023L302.447 153.025L302.447 153.032L302.448 153.061L302.451 153.174C302.454 153.274 302.457 153.422 302.462 153.614C302.47 153.999 302.483 154.56 302.496 155.265C302.524 156.676 302.557 158.663 302.578 160.969C302.622 165.583 302.622 171.461 302.447 176.543C302.337 179.759 301.876 184.796 301.351 190.532C301.048 193.845 300.724 197.392 300.433 200.956C300.038 205.802 299.707 210.662 299.586 214.955C299.465 219.231 299.549 223.011 300.006 225.667C300.887 230.796 302.909 240.582 304.927 249.519C305.937 253.989 306.948 258.256 307.817 261.63C308.252 263.316 308.653 264.786 309.002 265.95C309.336 267.061 309.641 267.959 309.899 268.491C310.175 269.175 310.531 269.862 310.855 270.487C310.967 270.704 311.075 270.913 311.175 271.111C311.593 271.945 311.885 272.641 311.971 273.277C312.05 273.859 311.955 274.396 311.537 274.965C311.091 275.572 310.232 276.272 308.65 277.026L303.447 152.996Z" stroke="#DDDDDD" stroke-width="2"/>
<path d="M221.258 75.7259C220.892 76.584 220.33 77.4306 219.666 78.2405C218.24 79.9802 216.145 81.7874 213.701 83.5485C208.804 87.0769 202.333 90.5425 196.494 93.0279L196.478 93.035L196.461 93.0415C190.657 95.268 184.359 99.6681 178.611 104.736C172.872 109.795 167.747 115.463 164.284 120.154C160.868 124.781 156.235 129.475 152.16 133.603C151.989 133.776 151.819 133.949 151.65 134.12C149.542 136.258 147.611 138.228 146.076 139.969C144.521 141.732 143.458 143.167 143 144.237L142.994 144.252L142.988 144.266C142.834 144.595 142.719 144.862 142.635 145.077C142.767 145.055 142.916 145.027 143.086 144.996C143.128 144.988 143.172 144.98 143.217 144.972C145.211 144.609 148.714 144.036 153.037 146.11C157.13 148.074 162.963 151.534 168.335 155.158C173.682 158.763 178.697 162.612 181.074 165.363C181.836 166.246 183.395 166.624 185.818 166.03C188.184 165.451 191.076 164 194.052 161.745C199.995 157.241 206.079 149.676 208.82 140.059C210.178 134.977 212.969 130.117 215.96 125.286C216.482 124.443 217.01 123.601 217.538 122.758C220.065 118.728 222.606 114.675 224.572 110.388C226.94 105.228 228.437 99.8003 228.025 93.8209C227.65 88.3899 225.694 82.4251 221.258 75.7259ZM142.444 145.718C142.445 145.717 142.446 145.708 142.446 145.691C142.443 145.711 142.444 145.719 142.444 145.718Z" stroke="#DDDDDD" stroke-width="2"/>
<path d="M382.374 245.91C381.858 245.053 381.858 245.053 381.859 245.053L381.859 245.052L381.861 245.051L381.864 245.049L381.872 245.044L381.897 245.03C381.906 245.025 381.917 245.019 381.928 245.012C381.943 245.004 381.959 244.995 381.977 244.986C382.044 244.95 382.136 244.902 382.253 244.846C382.484 244.737 382.812 244.598 383.215 244.472C384.013 244.221 385.143 244.01 386.397 244.219C386.981 244.317 387.455 244.05 387.864 243.605C388.065 243.386 388.222 243.153 388.328 242.97C388.381 242.88 388.419 242.805 388.443 242.757C388.455 242.733 388.464 242.715 388.468 242.705L388.47 242.701L388.47 242.701L388.47 242.7L388.471 242.699L388.472 242.697L388.472 242.697L388.729 242.094L389.387 242.094H389.388H389.388H389.389H389.389H389.39L389.392 242.094L389.42 242.094C389.448 242.093 389.494 242.092 389.559 242.089C389.69 242.084 389.898 242.074 390.195 242.053C390.789 242.01 391.736 241.924 393.124 241.75C393.651 241.684 393.965 241.513 394.161 241.343C394.363 241.168 394.497 240.944 394.585 240.695C394.674 240.441 394.707 240.183 394.716 239.979C394.72 239.88 394.717 239.8 394.715 239.749C394.713 239.724 394.712 239.706 394.711 239.697C394.711 239.695 394.711 239.693 394.711 239.692C394.711 239.691 394.711 239.69 394.711 239.69L394.633 239.072L395.163 238.733L395.164 238.733L395.165 238.732L395.165 238.732L395.166 238.732L395.166 238.731L395.188 238.717C395.209 238.703 395.242 238.68 395.287 238.648C395.377 238.583 395.51 238.484 395.672 238.351C395.998 238.083 396.434 237.686 396.869 237.17C397.744 236.132 398.562 234.682 398.562 232.888C398.562 228.89 396.888 222.47 391.838 217.404C389.138 214.694 385.236 209.615 381.498 204.011C377.755 198.4 374.122 192.183 371.983 187.175C369.915 182.334 365.746 175.181 361.252 168.745C359.008 165.533 356.696 162.518 354.542 160.074C352.368 157.609 350.417 155.798 348.897 154.916C345.347 152.853 343.573 150.212 341.901 147.697L341.852 147.623C340.211 145.152 338.653 142.809 335.583 140.849C327.21 136.844 317.805 138.947 312.232 142.983C309.428 145.013 307.76 147.41 307.514 149.588C307.283 151.638 308.285 153.825 311.625 155.627C319.226 159.446 325.219 166.756 330.309 173.976C331.772 176.051 333.192 178.166 334.554 180.195C335.549 181.677 336.513 183.113 337.44 184.454C339.674 187.683 341.752 190.448 343.778 192.396L343.779 192.397C346.923 195.426 350.469 198.585 353.836 201.585C355.147 202.753 356.432 203.898 357.655 205.001C359.828 206.961 361.808 208.791 363.38 210.38C364.914 211.93 366.142 213.329 366.749 214.432C367.534 215.692 367.609 217.331 367.44 218.957C367.267 220.626 366.809 222.498 366.328 224.341C366.242 224.672 366.154 225.002 366.068 225.331C365.663 226.862 365.267 228.363 364.994 229.778C364.66 231.505 364.539 232.972 364.761 234.093C365.223 236.244 367.043 238.526 368.91 240.356C369.823 241.251 370.706 241.998 371.362 242.522C371.689 242.783 371.958 242.988 372.144 243.126C372.237 243.196 372.308 243.248 372.356 243.283L372.41 243.321L372.422 243.33L372.425 243.332L372.425 243.332L372.425 243.332L372.768 243.573L372.836 243.984L372.836 243.984L372.836 243.985L372.836 243.985L372.836 243.986L372.837 243.987L372.841 244.011C372.843 244.022 372.846 244.037 372.85 244.054C372.853 244.073 372.858 244.095 372.864 244.121C372.885 244.22 372.92 244.367 372.971 244.549C373.074 244.914 373.24 245.402 373.49 245.904C374.004 246.934 374.778 247.845 375.926 248.101C377.07 248.356 378.426 247.786 379.656 246.935C380.242 246.53 380.741 246.101 381.095 245.772C381.271 245.608 381.409 245.47 381.502 245.376C381.548 245.329 381.582 245.292 381.605 245.268L381.628 245.243L381.633 245.238L381.633 245.238L381.633 245.238L381.633 245.237L381.732 245.129L381.858 245.053L382.374 245.91Z" stroke="#DDDDDD" stroke-width="2"/>
<path d="M206.059 282.475L206.06 282.473L206.06 282.472L206.061 282.471L206.061 282.47L206.062 282.468L206.062 282.467L206.703 280.967L207.744 282.221C207.744 282.221 207.745 282.222 207.745 282.222C207.745 282.223 207.746 282.223 207.747 282.224C207.747 282.225 207.747 282.225 207.748 282.225C207.748 282.226 207.748 282.226 207.748 282.226C207.748 282.226 207.749 282.226 207.749 282.226C207.751 282.229 207.755 282.234 207.761 282.239C207.768 282.247 207.777 282.257 207.788 282.268C207.827 282.31 207.893 282.376 207.985 282.46C208.171 282.628 208.463 282.865 208.867 283.116C209.671 283.615 210.925 284.172 212.679 284.333C214.443 284.479 215.242 283.834 215.645 283.286C215.868 282.982 216 282.663 216.075 282.415C216.112 282.293 216.134 282.193 216.146 282.129C216.152 282.097 216.156 282.074 216.157 282.062L216.158 282.061L216.158 282.06L216.158 282.058L216.158 282.056L216.158 282.055L216.159 282.053L216.186 281.78L216.358 281.555L216.358 281.555L216.359 281.554L216.362 281.549L216.378 281.528C216.392 281.509 216.414 281.481 216.442 281.443C216.499 281.367 216.583 281.254 216.69 281.107C216.905 280.813 217.212 280.385 217.579 279.852C218.313 278.784 219.283 277.302 220.23 275.64C221.179 273.974 222.092 272.148 222.723 270.391C223.361 268.614 223.675 267.005 223.526 265.737C223.216 263.093 221.147 260.045 218.309 257.022C215.512 254.042 212.14 251.265 209.511 249.154C208.079 248.005 206.032 245.499 203.757 242.463C201.454 239.39 198.836 235.659 196.251 231.967L195.886 231.446C193.421 227.924 191.001 224.468 188.911 221.65C187.815 220.173 186.817 218.882 185.957 217.856C185.083 216.814 184.396 216.1 183.918 215.731C182.614 214.724 181.437 213.06 180.359 211.153C179.268 209.224 178.221 206.94 177.209 204.602C176.726 203.485 176.252 202.359 175.786 201.25C174.273 197.655 172.835 194.239 171.397 191.879C169.459 188.697 167.741 185.446 166.914 182.865C166.506 181.592 166.272 180.356 166.428 179.33C166.509 178.8 166.701 178.279 167.072 177.849C167.446 177.415 167.942 177.142 168.51 177.012C168.999 176.886 169.881 176.388 171.131 175.465C172.345 174.567 173.788 173.358 175.357 171.959C178.455 169.196 181.987 165.743 185.113 162.608C185.852 161.125 185.935 159.698 185.524 158.303C185.093 156.837 184.097 155.347 182.604 153.873C179.611 150.917 174.83 148.228 169.552 146.092C164.292 143.964 158.634 142.424 153.966 141.722C151.629 141.37 149.572 141.234 147.952 141.326C146.315 141.419 145.332 141.737 144.883 142.104C143.862 143.223 142.81 145.006 141.727 147.297C140.638 149.601 139.554 152.34 138.46 155.281C137.79 157.084 137.115 158.966 136.435 160.863C134.913 165.106 133.365 169.421 131.782 173.089C127.629 183.513 128.516 191.684 133.908 195.834C135.516 196.976 137.009 198.628 138.501 200.599C140.001 202.579 141.545 204.942 143.229 207.531L143.409 207.808C146.75 212.946 150.704 219.026 156.162 225.187C161.296 230.982 167.926 236.34 173.599 240.924C174.053 241.291 174.501 241.653 174.942 242.01C177.894 244.402 180.533 246.579 182.412 248.453C183.352 249.39 184.135 250.284 184.678 251.121C185.207 251.936 185.595 252.831 185.526 253.73L185.523 253.774L185.516 253.818C185.184 255.815 185.193 257.747 185.911 259.789C186.633 261.841 188.101 264.087 190.827 266.651L190.839 266.662L190.85 266.674C193.817 269.651 193.947 273.85 193.727 277.169C193.675 277.951 193.601 278.706 193.534 279.398L193.518 279.558C193.445 280.301 193.384 280.957 193.361 281.526C193.337 282.105 193.357 282.526 193.418 282.818C193.458 283.008 193.502 283.079 193.515 283.098C194.266 283.594 195.099 283.614 195.821 283.469C196.18 283.397 196.488 283.288 196.706 283.197C196.814 283.152 196.897 283.112 196.95 283.085C196.962 283.079 196.972 283.074 196.981 283.07C196.992 283.064 197 283.06 197.006 283.057L197.011 283.054L197.012 283.054L197.012 283.053L197.013 283.053L197.015 283.052L197.015 283.052L197.384 282.84L197.797 282.964L197.797 282.964L197.798 282.964L197.805 282.966L197.833 282.975L197.945 283.008C198.044 283.037 198.188 283.079 198.368 283.13C198.73 283.233 199.238 283.374 199.821 283.526C200.971 283.825 202.382 284.157 203.538 284.328C204.363 284.307 204.972 283.895 205.413 283.418C205.639 283.174 205.806 282.927 205.917 282.74C205.972 282.648 206.011 282.574 206.035 282.525C206.047 282.501 206.055 282.484 206.059 282.475Z" stroke="#DDDDDD" stroke-width="2"/>
<path d="M264.242 285.31C244.342 287.865 220.468 287.416 197.232 279.066C199.112 302.64 196.779 327.363 194.248 349.017C193.83 352.591 193.407 356.078 192.997 359.463C192.134 366.578 191.326 373.238 190.737 379.293C189.899 387.891 189.512 395.176 190.018 400.71C197.186 402.782 210.479 403.348 223.611 402.368C230.35 401.864 236.996 400.957 242.685 399.657C248.098 398.419 252.548 396.847 255.397 394.99C254.96 388.977 255.758 378.917 257.116 368.741C258.522 358.206 260.547 347.416 262.496 340.661L263.039 338.779L264.245 340.322C269.41 346.935 274.099 356.09 277.838 364.875C281.432 373.315 284.176 381.477 285.644 386.832C293.657 387.66 305.416 385.452 316.558 381.868C327.7 378.284 337.964 373.409 343.049 369.071C340.023 353.382 332.941 332.264 325.624 313.586C318.511 295.427 311.233 279.723 307.312 273.599C299.66 277.352 283.842 282.793 264.242 285.31Z" stroke="#DDDDDD" stroke-width="2"/>
<path d="M296.665 370.5L296.669 370.51L296.673 370.521C300.087 380.258 299.19 386.897 297.523 392.727C297.122 394.131 296.687 395.464 296.262 396.766C294.912 400.902 293.663 404.73 293.921 409.512C294.02 411.349 294.156 413.223 294.294 415.132C295.126 426.628 296.051 439.407 289.616 452.934C287.965 456.404 288.706 459.517 290.808 462.134C292.951 464.8 296.506 466.922 300.329 468.137C304.159 469.354 308.081 469.604 310.91 468.723C312.311 468.287 313.393 467.591 314.1 466.651C314.796 465.725 315.193 464.475 315.078 462.791C313.654 447.401 318.303 432.776 325.671 414.472C329.292 405.477 330.336 396.283 330.598 387.802C330.712 384.111 330.677 380.57 330.644 377.236C330.639 376.737 330.634 376.244 330.63 375.755C330.598 372.104 330.596 368.707 330.844 365.716C328.376 359.357 324.603 355.45 320.488 353.383C316.316 351.288 311.715 351.044 307.609 352.152C303.496 353.262 299.934 355.715 297.821 358.944C295.725 362.147 295.028 366.147 296.665 370.5Z" stroke="#DDDDDD" stroke-width="2"/>
<path d="M186.927 436.929L186.927 436.937L186.928 436.945C188.333 455.97 188 479.727 182.314 495.773C181.015 499.522 181.801 502.189 183.488 503.937C185.234 505.747 188.104 506.737 191.23 506.717C194.343 506.696 197.555 505.669 199.907 503.643C202.229 501.642 203.769 498.623 203.524 494.445C203.251 489.788 204.275 484.335 205.942 478.689C207.614 473.03 209.956 467.104 212.374 461.48C213.938 457.842 215.545 454.306 217.025 451.05C217.828 449.282 218.595 447.596 219.296 446.021C221.311 441.498 222.765 437.945 223.181 435.792C223.914 431.045 226.524 424.855 230.075 417.994C233.609 411.167 238.128 403.572 242.813 395.908C242.815 390.663 240.5 386.673 237 383.801C233.413 380.857 228.571 379.085 223.729 378.443C218.878 377.8 214.153 378.306 210.82 379.784C209.159 380.521 207.897 381.475 207.11 382.593C206.338 383.689 205.987 384.993 206.214 386.546L206.217 386.569L206.22 386.593C206.597 390.47 205.366 394.409 203.455 398.355C201.816 401.74 199.625 405.23 197.399 408.774C197.031 409.36 196.662 409.948 196.294 410.536C191.052 418.935 186.084 427.632 186.927 436.929Z" stroke="#DDDDDD" stroke-width="2"/>
<path d="M317.543 459.697L317.531 459.62V459.542C317.531 458.197 317.156 457.719 316.925 457.559C316.685 457.393 316.248 457.326 315.597 457.573C314.964 457.813 314.306 458.295 313.834 458.882C313.352 459.48 313.163 460.057 313.21 460.487L313.217 460.542V460.597C313.217 461.959 312.395 462.887 311.33 463.442C310.305 463.976 308.96 464.231 307.545 464.323C304.697 464.507 301.173 464.049 298.299 463.329C294.843 462.509 292.474 459.314 291.158 455.946C289.84 452.57 289.432 448.662 290.198 445.928C290.199 445.92 290.201 445.912 290.203 445.904C289.923 446.139 289.595 446.454 289.225 446.85C287.33 448.878 284.661 452.667 282.232 457.192C279.799 461.901 279.201 464.718 280.219 467.366C280.744 468.731 281.73 470.137 283.301 471.772C284.872 473.407 286.98 475.222 289.693 477.417L289.7 477.423L289.706 477.428C295 481.854 298.06 485.002 300.502 488.586C302.743 491.875 304.444 495.508 306.893 500.739C307.093 501.167 307.298 501.605 307.509 502.055C310.223 507.841 314.092 511.529 318.635 513.578C323.195 515.635 328.515 516.076 334.166 515.217C335.487 515.016 336.417 514.612 337.068 514.094C337.71 513.582 338.137 512.915 338.384 512.082C338.896 510.359 338.629 507.955 337.785 505.046C336.951 502.171 335.606 498.97 334.145 495.731C333.63 494.589 333.099 493.439 332.572 492.3C331.619 490.235 330.682 488.206 329.887 486.327C327.823 481.444 325.51 477.194 323.429 473.369C323.058 472.689 322.695 472.021 322.342 471.366C320.032 467.081 318.1 463.237 317.543 459.697Z" stroke="#DDDDDD" stroke-width="2"/>
<path d="M220.034 557.169L220.037 557.156L220.04 557.144C221.187 552.538 219.976 547.687 217.859 542.874C216.49 539.764 214.811 536.802 213.211 533.978C212.31 532.388 211.434 530.843 210.652 529.339C208.466 525.136 207.045 518.835 206.079 512.802C205.223 507.452 204.71 502.207 204.361 498.637C204.334 498.359 204.308 498.091 204.282 497.834C201.267 496.364 198.36 497.542 195.286 499.105C195.028 499.236 194.768 499.371 194.506 499.506C193.201 500.181 191.854 500.877 190.575 501.275C188.995 501.767 187.314 501.873 185.74 500.858C184.199 499.864 183.386 498.139 182.935 496.385C182.478 494.611 182.345 492.627 182.301 490.893C182.281 490.119 182.278 489.418 182.276 488.797C182.274 488.376 182.272 487.993 182.266 487.647C181.517 488.517 180.82 489.404 180.213 490.681C179.368 492.457 178.683 495.041 178.511 499.354C178.341 503.623 179.107 508.004 179.986 512.633C180.048 512.963 180.111 513.294 180.175 513.626C180.995 517.923 181.854 522.423 182.02 527.082L182.02 527.083C182.369 537.261 183.42 551.79 192.718 565.264C194.953 568.503 197.609 570.12 200.337 570.658C203.09 571.202 206.022 570.667 208.803 569.408C211.582 568.15 214.158 566.191 216.163 563.974C218.176 561.748 219.557 559.325 220.034 557.169Z" stroke="#DDDDDD" stroke-width="2"/>
<path d="M542.91 196.787C542.118 196.303 541.056 196.081 540.06 196.214L-6.75311 320.788C-7.72974 321.074 -8.39288 321.62 -8.82727 322.324C-9.27631 323.052 -9.51141 324.002 -9.51141 325.099C-9.51141 325.9 -9.06824 326.58 -8.28009 327.061C-7.48816 327.544 -6.42578 327.767 -5.42969 327.634L541.383 203.059C542.36 202.773 543.023 202.227 543.457 201.523C543.906 200.795 544.142 199.846 544.142 198.749C544.142 197.947 543.698 197.268 542.91 196.787Z" stroke="#DDDDDD" stroke-width="2"/>
<path d="M479.545 151.884C452.62 151.884 431.443 179.673 432.486 214.557C433.529 249.432 456.779 277.289 483.754 277.289C510.677 277.289 531.854 249.503 530.813 214.621C529.42 179.731 506.512 151.884 479.545 151.884Z" stroke="#DDDDDD" stroke-width="2"/>
<path d="M426.169 214.203C425.126 179.319 446.304 151.53 473.228 151.53C500.2 151.53 523.453 179.736 524.496 214.263L426.169 214.203ZM426.169 214.203C427.212 249.078 450.462 276.936 477.438 276.936M426.169 214.203L477.438 276.936M477.438 276.936C504.362 276.936 525.539 249.147 524.496 214.263L477.438 276.936Z" stroke="#DDDDDD" stroke-width="2"/>
<path d="M16.8505 221.218C-24.4593 221.218 -57.2089 264.144 -55.4654 317.323C-53.7217 370.506 -18.1903 413.494 23.1647 413.494C64.4744 413.494 97.2241 370.568 95.4806 317.389C93.7369 264.206 58.2054 221.218 16.8505 221.218Z" stroke="#DDDDDD" stroke-width="2"/>
<path d="M86.0079 317.036L86.0079 317.036C84.2642 263.504 48.7349 220.865 7.37782 220.865C-33.9319 220.865 -66.6816 263.791 -64.938 316.971C-63.1944 370.153 -27.6629 413.141 13.6921 413.141C55.0018 413.141 87.7515 370.215 86.0079 317.036Z" stroke="#DDDDDD" stroke-width="2"/>
</svg>
