<svg width="479" height="629" viewBox="0 0 479 629" fill="none" xmlns="http://www.w3.org/2000/svg">
<g opacity="0.15">
<path d="M-91 28.0495V18.9619H570.868V28.0495H-91Z" stroke="white" stroke-width="2"/>
<path d="M187.982 156.563L187.962 156.568L187.942 156.574C186.052 157.177 183.261 157.499 179.877 157.55C176.513 157.602 172.632 157.385 168.601 156.949C160.529 156.076 151.934 154.331 145.752 152.145C141.148 150.517 136.411 148.894 131.838 147.328C123.902 144.609 116.463 142.061 111.087 139.953C107.379 138.431 105.041 135.384 103.439 131.012C101.824 126.607 101.002 120.986 100.263 114.504C99.5366 108.138 99.9888 98.3337 100.682 88.9826C100.99 84.8233 101.347 80.7467 101.663 77.1302C102.053 72.68 102.381 68.9263 102.483 66.5724C102.861 57.8821 99.8643 44.0384 95.7482 35.0405C93.7602 30.6945 92.2095 25.2245 91.1555 20.3116C90.0985 15.3849 89.5625 11.1205 89.5625 9.19279C89.5625 7.49556 90.5053 5.68492 91.7254 4.24413C92.3246 3.53662 92.9569 2.95925 93.5049 2.56782C93.7793 2.37184 94.0169 2.23361 94.2054 2.14803C94.2533 2.12624 94.2944 2.10955 94.329 2.09675C95.2053 2.50103 95.9678 2.69833 96.6548 2.71898C97.4426 2.74266 98.0595 2.53183 98.5603 2.24959C98.8776 2.07078 99.2112 1.81501 99.4351 1.64338C99.5104 1.58564 99.5733 1.53743 99.619 1.50487C99.8678 1.3275 99.9556 1.31492 100.008 1.31492H100.107L100.204 1.29543C100.309 1.27435 100.506 1.29364 100.878 1.50642C101.14 1.65626 101.37 1.82704 101.636 2.02374C101.766 2.12054 101.905 2.22362 102.061 2.33357C102.269 2.48108 102.513 2.64284 102.77 2.76453C103.02 2.88306 103.369 3.0069 103.769 2.97667C104.75 2.9025 105.193 2.055 105.4 1.32897C105.438 1.19603 105.488 1.14433 105.526 1.11572C105.574 1.07978 105.673 1.0292 105.865 1.00876C106.274 0.965257 106.908 1.08042 107.686 1.41745C109.23 2.08617 110.877 3.42438 111.675 4.85036C112.513 6.53661 112.765 8.13859 112.807 9.32089C112.828 9.91366 112.796 10.3968 112.76 10.7258C112.742 10.89 112.724 11.0152 112.71 11.0955C112.703 11.1357 112.698 11.1646 112.694 11.1816L112.691 11.197L112.691 11.1979L112.691 11.198L112.691 11.1992L112.198 13.4209L114.17 12.2773L114.17 12.2773L114.17 12.2773L114.17 12.277L114.173 12.2752L114.187 12.2674L114.243 12.2353C114.293 12.2068 114.368 12.1645 114.465 12.1103C114.658 12.0019 114.941 11.8461 115.292 11.6588C115.995 11.2839 116.969 10.7847 118.054 10.2865C119.141 9.78726 120.326 9.29552 121.453 8.93029C122.595 8.55993 123.608 8.34323 124.375 8.34323C124.39 8.34323 124.401 8.34357 124.43 8.36413C124.471 8.39286 124.551 8.46649 124.651 8.63347C124.857 8.97997 125.053 9.56399 125.201 10.4108C125.493 12.0863 125.544 14.4606 125.407 17.141C125.133 22.4776 124.132 28.7641 123.052 32.565C122.882 33.0514 122.71 33.5386 122.537 34.0279C120.089 40.9695 117.487 48.3454 117.837 60.2699C118.026 66.7041 120.281 75.3343 122.581 83.4926C122.936 84.751 123.292 85.9975 123.642 87.2238C125.586 94.0384 127.352 100.229 127.811 104.37C128.044 106.475 128.178 108.312 128.295 109.915C128.316 110.197 128.336 110.471 128.356 110.738C128.487 112.503 128.618 114.014 128.892 115.21C129.165 116.406 129.619 117.47 130.537 118.166C131.458 118.864 132.649 119.044 134.045 118.944L134.051 118.944C138.845 118.574 166.134 117.097 171.263 117.097C172.76 117.097 174.748 116.752 177.013 116.316C177.496 116.223 177.994 116.126 178.508 116.025C180.439 115.647 182.578 115.228 184.893 114.866C190.748 113.949 197.628 113.412 204.658 114.857C206.192 115.172 207.151 115.929 207.737 116.994C208.346 118.103 208.6 119.643 208.482 121.573C208.246 125.437 206.547 130.453 204.097 135.546C201.657 140.618 198.521 145.668 195.502 149.575C193.992 151.53 192.525 153.181 191.204 154.401C189.854 155.648 188.755 156.351 187.982 156.563Z" stroke="white" stroke-width="2"/>
<path d="M378.766 10.8082C376.647 9.67491 371.948 7.34323 369.153 7.34323C365.461 7.34323 367.307 25.099 369.522 32.8671M378.766 10.8082L305.282 157.527C297.16 155.308 274.27 116.837 288.668 113.878C298.715 111.813 308.402 113.71 315.221 115.045C318.175 115.624 320.591 116.097 322.265 116.097C327.434 116.097 354.755 117.577 359.554 117.947C363.623 118.238 363.803 115.778 364.235 109.845C364.352 108.242 364.487 106.385 364.723 104.26C365.192 100.027 366.988 93.7334 368.93 86.9292C371.57 77.68 374.479 67.4868 374.691 60.2405C375.036 48.505 372.487 41.2785 370.045 34.3536C369.87 33.8571 369.695 33.3621 369.522 32.8671M378.766 10.8082C378.77 10.8549 378.775 10.8998 378.779 10.9428C378.802 11.1484 378.826 11.3123 378.846 11.4284C378.856 11.4865 378.864 11.5327 378.871 11.5664L378.879 11.6073L378.882 11.6205L378.883 11.6253L378.883 11.6272L378.884 11.628C378.884 11.6284 378.884 11.6288 379.86 11.4123C380.362 10.5473 380.362 10.5472 380.361 10.5471L380.361 10.5468L380.36 10.5461L380.355 10.5434L380.338 10.5337L380.276 10.4978C380.221 10.4667 380.141 10.4216 380.039 10.3646C379.951 10.3151 379.846 10.2566 379.725 10.1904M378.766 10.8082L379.725 10.1904M369.522 32.8671L370.484 32.5929C370.481 32.5836 370.479 32.5744 370.476 32.5651M369.522 32.8671L370.467 32.5373C370.47 32.5466 370.473 32.5558 370.476 32.5651M370.476 32.5651C369.396 28.7642 368.395 22.4776 368.121 17.141C367.984 14.4606 368.035 12.0863 368.327 10.4108C368.475 9.56399 368.671 8.97997 368.877 8.63347C368.977 8.46649 369.057 8.39286 369.098 8.36413C369.127 8.34357 369.138 8.34323 369.153 8.34323C369.92 8.34323 370.933 8.55993 372.075 8.93029C373.202 9.29552 374.387 9.78726 375.474 10.2865C376.559 10.7847 377.533 11.2839 378.236 11.6588C378.587 11.8461 378.869 12.0019 379.063 12.1103C379.16 12.1645 379.235 12.2068 379.285 12.2353L379.341 12.2674L379.355 12.2752L379.358 12.277L379.358 12.2773M370.476 32.5651C370.646 33.0515 370.818 33.5386 370.991 34.0279C373.439 40.9695 376.041 48.3454 375.691 60.2699C375.502 66.7041 373.247 75.3343 370.946 83.4926C370.592 84.751 370.236 85.9975 369.886 87.2238C367.942 94.0385 366.176 100.229 365.717 104.37C365.483 106.475 365.35 108.312 365.233 109.915C365.212 110.197 365.192 110.471 365.172 110.738C365.041 112.503 364.91 114.014 364.636 115.21C364.363 116.406 363.909 117.47 362.991 118.166C362.07 118.864 360.879 119.044 359.483 118.944L359.477 118.944C354.683 118.574 327.394 117.097 322.265 117.097C320.768 117.097 318.779 116.752 316.515 116.316C316.032 116.223 315.533 116.126 315.02 116.025C313.089 115.647 310.95 115.228 308.635 114.866C302.78 113.949 295.9 113.412 288.87 114.857C287.336 115.172 286.377 115.929 285.791 116.994C285.182 118.103 284.928 119.643 285.046 121.573C285.282 125.437 286.981 130.453 289.431 135.546C291.871 140.618 295.007 145.668 298.026 149.575C299.536 151.53 301.003 153.181 302.324 154.401C303.674 155.648 304.773 156.351 305.546 156.563L305.566 156.568L305.586 156.574C307.476 157.177 310.267 157.499 313.65 157.55C317.015 157.602 320.896 157.385 324.927 156.949C332.999 156.076 341.594 154.331 347.776 152.145C352.379 150.517 357.117 148.894 361.69 147.328C369.626 144.609 377.065 142.061 382.441 139.953M379.358 12.2773L382.814 140.881M379.358 12.2773L379.43 12.1541C379.358 12.2773 379.358 12.2773 379.358 12.2773M379.358 12.2773L379.358 12.2773M382.441 139.953C382.439 139.954 382.437 139.955 382.434 139.956L382.814 140.881M382.441 139.953C382.444 139.952 382.446 139.951 382.449 139.95L382.814 140.881M382.441 139.953C386.149 138.431 388.486 135.383 390.089 131.012C391.704 126.607 392.526 120.986 393.265 114.504C393.991 108.138 393.539 98.3337 392.846 88.9826C392.538 84.8234 392.181 80.7468 391.865 77.1303C391.475 72.68 391.147 68.9263 391.044 66.5724C390.667 57.8821 393.664 44.0384 397.78 35.0405C399.768 30.6945 401.318 25.2245 402.372 20.3116C403.429 15.3849 403.965 11.1205 403.965 9.19279C403.965 7.49556 403.023 5.68492 401.802 4.24413C401.203 3.53662 400.571 2.95925 400.023 2.56782C399.749 2.37184 399.511 2.23361 399.323 2.14803C399.275 2.12624 399.233 2.10955 399.199 2.09675M382.814 140.881C390.936 137.552 392.782 127.564 394.259 114.617C395.329 105.232 393.878 88.6534 392.857 77.0019C392.47 72.5809 392.145 68.8693 392.043 66.529C391.674 58.0211 394.628 44.3344 398.689 35.4565C402.75 26.5786 404.965 13.2618 404.965 9.19279C404.965 5.12377 400.535 1.05474 399.058 1.05474M399.199 2.09675C399.3 2.0502 399.402 2.00091 399.506 1.94882L399.058 1.05474M399.199 2.09675C398.323 2.50103 397.56 2.69833 396.873 2.71898C396.085 2.74266 395.468 2.53183 394.968 2.24959C394.65 2.07078 394.317 1.81501 394.093 1.64338C394.017 1.58564 393.955 1.53743 393.909 1.50487C393.66 1.3275 393.572 1.31492 393.52 1.31492H393.397L393.29 1.28832M399.199 2.09675C399.116 2.06624 399.071 2.05789 399.059 2.0556C399.054 2.05476 399.054 2.05474 399.058 2.05474V1.05474M399.058 1.05474L393.29 1.28832M393.29 1.28832C393.29 1.28773 393.286 1.28707 393.277 1.28495L393.29 1.28832ZM393.29 1.28832C393.29 1.29146 393.164 1.29298 392.821 1.49769C392.645 1.60239 392.457 1.73219 392.245 1.8835C392.201 1.91482 392.155 1.94753 392.108 1.98108C391.941 2.10091 391.759 2.23156 391.584 2.34869C391.358 2.49938 391.099 2.65859 390.827 2.77738C390.561 2.89363 390.209 3.00425 389.817 2.97714C389.385 2.94732 388.995 2.75675 388.692 2.42426C388.415 2.11946 388.243 1.73176 388.128 1.32897C388.09 1.19604 388.04 1.14433 388.002 1.11572C387.954 1.07978 387.855 1.0292 387.663 1.00876C387.254 0.965257 386.62 1.08042 385.842 1.41745C384.298 2.08617 382.651 3.42439 381.852 4.85036C381.015 6.53661 380.763 8.13859 380.721 9.32089C380.7 9.91366 380.732 10.3968 380.768 10.7257C380.785 10.89 380.804 11.0152 380.818 11.0955C380.825 11.1357 380.83 11.1646 380.833 11.1816L380.836 11.1957L380.836 11.1964L380.837 11.197L380.837 11.1979L380.837 11.198L380.837 11.1992L381.33 13.4209L379.358 12.2773M393.29 1.28832L379.358 12.2773M380.968 4.38394C382.814 1.05474 388.352 -1.53464 389.09 1.05474C389.53 2.59895 390.496 1.90667 391.517 1.17468C392.208 0.679241 392.924 0.16561 393.52 0.314921L380.968 4.38394ZM380.968 4.38394C379.806 6.71175 379.668 8.89307 379.725 10.1904M380.968 4.38394L379.725 10.1904" stroke="white" stroke-width="2"/>
<path d="M248.182 42.7147L248.201 42.7195L248.221 42.7236C252.372 43.5901 256.63 46.4843 260.291 50.4247C263.942 54.3531 266.911 59.2282 268.524 63.896L268.528 63.908L268.533 63.92C271.839 72.753 273.622 79.6111 272.904 87.5233C272.553 91.3887 270.88 95.1241 269.172 98.5929C268.968 99.0066 268.763 99.418 268.56 99.8257C267.925 101.101 267.308 102.34 266.804 103.496C266.149 105.001 265.635 106.475 265.522 107.837C264.771 112.411 265.142 119.219 266.683 123.466C266.84 123.898 267.105 124.262 267.478 124.529C267.841 124.789 268.255 124.921 268.665 124.976C269.459 125.085 270.392 124.928 271.353 124.661C273.296 124.119 275.819 122.982 278.575 121.67C279.352 121.3 280.149 120.916 280.963 120.523C286.016 118.087 291.683 115.355 296.664 114.108C299.148 113.485 301.274 114.404 303.143 116.625C305.047 118.888 306.592 122.423 307.73 126.711C310.001 135.267 310.551 146.419 309.458 155.184L309.456 155.194L309.455 155.204C308.524 164.162 308.713 175.694 309.22 187.717C309.442 192.96 309.723 198.285 310.001 203.542C310.363 210.389 310.718 217.121 310.927 223.404C311.302 234.662 314.484 245.601 318.553 257.044C319.866 260.738 321.27 264.478 322.704 268.3C325.73 276.366 328.895 284.8 331.644 293.942C333.524 300.193 330.891 306.188 325.5 311.81C320.111 317.43 312.128 322.491 303.81 326.75C295.507 331.001 286.942 334.418 280.446 336.774C277.2 337.951 274.475 338.862 272.562 339.478C271.606 339.786 270.853 340.02 270.34 340.177C270.083 340.256 269.887 340.315 269.755 340.354L269.606 340.399L269.569 340.41L269.56 340.412L269.558 340.413C269.558 340.413 269.558 340.413 269.838 341.373L269.558 340.413L268.777 340.641L268.842 341.452L268.946 341.444C268.842 341.452 268.842 341.452 268.842 341.452L268.842 341.453L268.842 341.455L268.843 341.465L268.846 341.504L268.858 341.659C268.868 341.796 268.883 341.999 268.902 342.261C268.94 342.785 268.993 343.546 269.054 344.494C269.175 346.389 269.324 349.028 269.439 352C269.669 357.954 269.759 365.19 269.215 370.476C267.739 381.189 265.161 397.051 262.219 409.578C260.101 418.599 260.23 426.02 260.353 433.068C260.403 435.94 260.452 438.751 260.348 441.582L260.347 441.6V441.619C260.347 446.016 259.669 448.883 259.124 451.186C259.044 451.526 258.967 451.854 258.895 452.172C258.615 453.409 258.401 454.581 258.48 455.782C258.561 457.011 258.944 458.206 259.756 459.528C261.131 461.766 262.398 465.771 263.549 471.725C264.694 477.645 265.706 485.377 266.628 494.981C267.551 504.602 268.847 516.665 270.933 527.443C271.977 532.832 273.222 537.923 274.726 542.24C276.223 546.536 278.008 550.157 280.176 552.527C281.99 554.509 283.041 557.739 283.379 561.671C283.715 565.576 283.335 570.029 282.428 574.302C281.521 578.576 280.096 582.615 278.379 585.698C276.628 588.843 274.707 590.755 272.918 591.203C272.158 591.393 271.359 591.226 270.462 590.611C269.544 589.983 268.585 588.922 267.606 587.46C265.651 584.542 263.78 580.277 262.056 575.51C259.501 568.443 257.331 560.459 255.695 554.441C255.125 552.342 254.619 550.483 254.185 548.985L254.181 548.97L254.176 548.956C252.306 543.146 247.382 532.263 242.034 521.178C236.677 510.072 230.856 498.686 227.156 491.827C220.226 478.63 220.243 462.401 220.257 448.645C220.258 448.024 220.258 447.408 220.258 446.797C220.258 443.279 219.551 438.045 218.432 431.633C217.31 425.201 215.761 417.512 214.055 409.054L213.97 408.633C210.571 391.793 206.563 371.929 204.005 352.708C198.86 313.678 205.842 278.678 209.897 260.581C211.975 251.306 210.738 239.02 208.657 228.085C206.57 217.118 203.602 207.36 202.112 203.068L202.108 203.055C201.358 200.989 200.03 197.665 198.442 193.691C196.902 189.835 195.118 185.368 193.379 180.843C189.816 171.57 186.443 162.052 185.54 156.623C185.121 154.104 185.811 150.118 187.328 145.45C188.829 140.829 191.088 135.694 193.648 130.952C196.212 126.205 199.054 121.896 201.708 118.905C203.038 117.406 204.286 116.277 205.396 115.583C206.513 114.884 207.345 114.714 207.931 114.846C208.872 115.115 209.785 115.39 210.673 115.657L210.709 115.668C211.612 115.94 212.49 116.204 213.327 116.441C214.991 116.911 216.554 117.292 217.922 117.416C219.274 117.54 220.595 117.429 221.653 116.746C222.755 116.034 223.363 114.841 223.572 113.269L223.577 113.237L223.579 113.204C223.68 111.679 223.478 110.493 222.968 109.363C222.478 108.276 221.719 107.282 220.832 106.142C220.762 106.053 220.691 105.962 220.619 105.869C218.843 103.592 216.296 100.326 213.148 93.8453C210.064 87.1172 208.734 80.9104 209.18 75.0664C209.624 69.2283 211.846 63.6755 215.991 58.2585L215.998 58.2501L216.004 58.2415C219.964 52.8317 225.556 48.3106 231.417 45.4648C237.295 42.6107 243.322 41.4974 248.182 42.7147Z" stroke="white" stroke-width="2"/>
<path d="M301.499 420.258C302.494 420.16 302.494 420.16 302.494 420.16L302.494 420.159L302.493 420.155L302.492 420.144L302.488 420.099C302.484 420.061 302.478 420.004 302.47 419.93C302.453 419.782 302.429 419.564 302.395 419.285C302.328 418.725 302.224 417.915 302.077 416.909C301.782 414.897 301.313 412.094 300.615 408.93C299.225 402.626 296.906 394.783 293.186 388.903C286.917 378.994 275.155 353.546 265.904 333.53C264.525 330.545 263.201 327.681 261.959 325.007C259.828 320.313 260.239 313.059 262.853 305.09C265.452 297.168 270.165 288.745 276.344 281.836C282.526 274.922 290.118 269.589 298.456 267.722C306.674 265.882 315.727 267.383 325.051 274.262C326.462 279.187 328.609 285.775 331.068 293.319L331.224 293.796C333.806 301.718 336.724 310.685 339.51 319.934C345.092 338.459 350.113 358.012 350.869 372.498C351.072 376.391 351.335 380.525 351.607 384.792C352.359 396.611 353.176 409.452 352.967 421.03C352.824 428.904 352.206 436.13 350.788 442.003C349.364 447.905 347.171 452.267 344.019 454.625L344.012 454.63L344.004 454.636C340.699 457.203 335.386 459.654 329.024 462.06C323.361 464.201 316.956 466.275 310.544 468.351C309.779 468.599 309.014 468.847 308.249 469.095C301.1 471.414 294.051 473.748 288.213 476.173C282.424 478.578 277.635 481.147 275.174 484.015L275.168 484.021L275.162 484.028C273.16 486.447 269.974 487.305 266.402 486.907C262.832 486.51 259.037 484.864 256.096 482.503C253.14 480.131 251.187 477.156 251.013 474.161C250.843 471.245 252.349 467.991 257.013 464.959C266.943 458.632 273.113 454.146 277.429 450.078C281.773 445.985 284.217 442.334 286.731 437.728C289.137 433.32 292.96 429.157 296.223 426.072C297.848 424.536 299.32 423.28 300.385 422.409C300.917 421.974 301.347 421.635 301.642 421.406C301.79 421.292 301.904 421.205 301.981 421.147C302.019 421.118 302.048 421.096 302.067 421.082L302.088 421.066L302.092 421.063L302.093 421.062L302.093 421.062L302.549 420.725L302.494 420.16L301.499 420.258Z" stroke="white" stroke-width="2"/>
<path d="M274.108 459.637L274.011 459.697L273.931 459.778C273.696 460.013 273.462 460.247 273.23 460.478C270.404 463.303 267.821 465.885 266.212 468.571C264.42 471.563 263.799 474.741 265.203 478.57C266.39 482.128 268.513 484.317 271.039 485.319C273.538 486.31 276.298 486.087 278.703 485.087C280.991 484.208 282.346 484.429 282.861 484.765C283.081 484.909 283.14 485.056 283.147 485.194C283.155 485.364 283.085 485.683 282.731 486.109C282.407 486.497 282.114 487.053 281.845 487.665C281.567 488.296 281.284 489.06 280.999 489.918C280.428 491.633 279.833 493.775 279.253 496.075C278.093 500.677 276.981 505.969 276.241 509.866L276.239 509.874C275.9 511.739 275.677 513.922 275.448 516.145C275.422 516.403 275.395 516.661 275.369 516.92C275.109 519.431 274.825 521.974 274.351 524.278C273.876 526.593 273.226 528.572 272.287 529.997C271.376 531.378 270.224 532.201 268.664 532.359C268.137 532.372 267.409 532.024 266.486 530.898C265.577 529.789 264.643 528.119 263.705 525.984C261.835 521.726 260.052 515.849 258.44 509.528C255.464 497.855 253.115 484.837 251.9 478.105C251.801 477.554 251.709 477.045 251.625 476.582C250.565 470.745 252.246 462.535 254.802 456.042C256.075 452.806 257.532 450.085 258.901 448.354C259.591 447.482 260.207 446.928 260.706 446.659C261.178 446.404 261.421 446.457 261.581 446.551L261.623 446.575L261.666 446.595C262.743 447.093 263.815 447.88 264.929 448.826C265.585 449.383 266.203 449.948 266.835 450.526C267.308 450.958 267.79 451.399 268.302 451.849C270.54 453.817 273.139 455.781 276.187 455.563C276.775 455.521 277.175 455.553 277.432 455.612C277.587 455.648 277.665 455.688 277.7 455.709C277.703 455.768 277.689 455.924 277.528 456.246C277.274 456.755 276.782 457.383 276.141 458.015C275.508 458.638 274.78 459.216 274.108 459.637ZM277.694 455.681C277.694 455.681 277.696 455.684 277.697 455.69C277.694 455.684 277.694 455.681 277.694 455.681Z" stroke="white" stroke-width="2"/>
<path d="M257.141 568.224L257.127 568.175L257.108 568.127C256.847 567.474 256.705 566.977 256.642 566.613C256.616 566.459 256.605 566.341 256.603 566.252C256.918 566.356 257.374 566.626 257.842 567.053C258.333 567.5 258.736 568.027 258.944 568.503C259.268 569.356 259.986 570.625 260.923 572.016C261.881 573.439 263.11 575.049 264.483 576.567C265.853 578.081 267.389 579.529 268.964 580.606C270.521 581.67 272.223 582.445 273.901 582.445C275.04 582.445 275.923 581.752 276.571 580.894C277.221 580.032 277.752 578.856 278.191 577.528C279.072 574.859 279.67 571.307 280.019 567.669C280.369 564.02 280.475 560.23 280.352 557.061C280.29 555.478 280.171 554.035 279.993 552.836C279.821 551.672 279.581 550.645 279.234 549.941C278.72 548.823 278.545 548 278.541 547.469C278.539 547.181 278.582 547.032 278.614 546.962C278.663 546.977 278.743 547.011 278.86 547.09C279.177 547.306 279.609 547.774 280.021 548.6C280.565 549.69 281.435 550.647 282.454 551.528C283.474 552.41 284.697 553.26 285.994 554.119C286.472 554.436 286.961 554.754 287.458 555.078C289.691 556.531 292.077 558.084 294.29 560.005C296.654 562.058 297.269 565.935 296.721 570.554C296.183 575.094 294.559 579.988 292.925 583.625C291.116 587.653 291.749 591.085 292.738 594.529C292.909 595.124 293.089 595.718 293.271 596.316C294.147 599.199 295.053 602.179 295.053 605.859C295.053 610.151 292.812 614.732 289.308 618.648C285.813 622.553 281.164 625.679 276.56 627.098C271.936 628.524 268.823 628.119 266.593 626.859C264.327 625.58 262.778 623.311 261.516 620.603C260.324 618.044 259.856 613.62 259.764 608.799C259.676 604.212 259.927 599.448 260.111 595.957C260.118 595.821 260.125 595.686 260.132 595.554L260.132 595.552C260.321 591.769 259.944 586.247 259.342 581.053C258.741 575.863 257.903 570.895 257.141 568.224ZM278.549 546.953C278.549 546.953 278.554 546.952 278.564 546.952C278.555 546.954 278.55 546.954 278.549 546.953Z" stroke="white" stroke-width="2"/>
<path d="M221.685 42.0189L221.685 42.0189L221.691 42.0172C232.076 39.1365 240.055 39.4344 246.714 41.7913C253.363 44.1446 258.807 48.5889 264.066 54.2279C266.102 57.4461 268.69 63.7788 268.42 69.2061C268.285 71.91 267.449 74.2891 265.59 75.9922C263.728 77.6991 260.686 78.8671 255.849 78.8252C247.72 78.7547 240.205 77.8352 233.703 77.0397C232.275 76.8649 230.895 76.6962 229.569 76.5437C225.906 76.1226 222.622 75.823 219.868 75.8862C217.148 75.9486 214.784 76.3649 213.06 77.5084C210.009 79.3439 204.142 82.3096 199.031 83.5989C196.446 84.251 194.22 84.4297 192.674 83.9631C191.927 83.7378 191.373 83.3729 190.989 82.8632C190.603 82.3504 190.326 81.6079 190.282 80.5215C190.187 78.2259 190.797 75.0098 192.136 71.3471C193.47 67.701 195.504 63.6768 198.195 59.7786C203.586 51.9705 211.546 44.7618 221.685 42.0189Z" stroke="white" stroke-width="2"/>
</g>
</svg>
