<svg width="298" height="260" viewBox="0 0 298 260" fill="none" xmlns="http://www.w3.org/2000/svg">
<g clip-path="url(#clip0_962_4089)">
<path d="M60.9644 259.209L57.771 250.682L65.4767 247.871L68.6701 256.398L66.9646 256.973L64.3135 249.741L59.9869 251.307L62.6379 258.539L60.9644 259.209Z" fill="white"/>
<path d="M78.2955 251.145C77.7624 252.38 76.7852 253.237 75.3012 253.844C73.9118 254.418 72.5522 254.455 71.3489 254.016C70.1456 253.578 69.2255 252.727 68.7151 251.528C68.2048 250.328 68.2321 249.158 68.7652 247.922C69.2983 246.687 70.2755 245.83 71.7596 245.224C73.1489 244.649 74.5085 244.613 75.7118 245.051C76.9151 245.489 77.8352 246.34 78.3456 247.54C78.9187 248.613 78.9233 249.878 78.2955 251.145ZM72.229 252.558C73.0841 252.903 73.9061 252.837 74.8536 252.517C75.7691 252.103 76.4313 251.563 76.776 250.708C77.1207 249.853 77.1492 248.999 76.7668 248.178C76.3843 247.357 75.8763 246.79 75.0212 246.445C74.1661 246.1 73.3442 246.166 72.3966 246.486C71.4811 246.901 70.819 247.441 70.4742 248.296C70.1295 249.151 70.101 250.005 70.4835 250.826C70.7712 251.678 71.374 252.214 72.229 252.558Z" fill="white"/>
<path d="M86.3183 248.965C85.0557 249.602 83.6961 249.639 82.43 249.327C81.132 248.921 80.2438 248.165 79.7015 246.871C79.1912 245.671 79.0918 244.438 79.6249 243.203C80.158 241.967 81.0084 241.047 82.3658 240.378C83.1866 239.996 83.8498 239.772 84.4823 239.77C85.1147 239.767 85.7792 239.86 86.4755 240.047L85.9436 241.599C84.8043 241.35 83.8556 241.353 82.9401 241.768C82.1192 242.15 81.4891 242.785 81.2391 243.608C80.9891 244.431 80.9606 245.285 81.3431 246.106C81.7256 246.927 82.3284 247.462 83.1834 247.807C84.0385 248.151 84.8605 248.085 85.776 247.671C86.3126 247.384 86.7544 247.13 87.0375 246.717C87.3525 246.4 87.6037 245.893 87.8548 245.386L89.2796 245.855C88.9976 246.584 88.6837 247.217 88.2111 247.694C87.7385 248.17 87.0444 248.615 86.3183 248.965Z" fill="white"/>
<path d="M91.4645 246.385L87.2608 238.305L88.9652 237.413L93.6858 239.831L94.3626 234.643L96.067 233.751L100.271 241.831L98.7558 242.659L95.7623 236.914L94.896 242.167L94.8012 242.199L90.0178 239.908L93.0113 245.652L91.4645 246.385Z" fill="white"/>
<path d="M109.133 235.253C108.727 236.551 107.908 237.566 106.583 238.329C105.258 239.093 103.962 239.319 102.696 239.008C101.43 238.696 100.447 237.972 99.7469 236.836C99.0471 235.7 98.9477 234.468 99.3541 233.169C99.7604 231.871 100.579 230.857 101.904 230.093C103.23 229.329 104.525 229.103 105.791 229.414C107.058 229.726 108.04 230.45 108.74 231.586C109.345 232.754 109.54 233.955 109.133 235.253ZM103.228 237.456C104.146 237.674 104.936 237.513 105.819 237.004C106.703 236.495 107.206 235.797 107.456 234.974C107.706 234.151 107.608 233.234 107.163 232.54C106.685 231.751 106.083 231.216 105.165 230.998C104.247 230.78 103.457 230.941 102.573 231.45C101.69 231.959 101.186 232.657 100.936 233.48C100.686 234.303 100.785 235.22 101.23 235.914C101.707 236.703 102.405 237.206 103.228 237.456Z" fill="white"/>
<path d="M114.249 233.526L110.178 227.09L107.496 228.839L106.67 227.64L113.548 223.315L114.375 224.513L111.693 226.262L115.764 232.699L114.249 233.526Z" fill="white"/>
<path d="M119.867 229.838L114.685 222.299L117.934 220.042C118.881 219.406 119.828 219.086 120.682 219.115C121.536 219.143 122.234 219.646 122.805 220.403C123.377 221.16 123.476 222.077 123.131 222.932C122.786 223.787 122.22 224.611 121.274 225.247L119.633 226.328L121.286 228.726L119.867 229.838ZM118.839 225.224L120.542 224.017C121.046 223.635 121.424 223.191 121.581 222.716C121.737 222.241 121.704 221.83 121.355 221.421C121.1 220.979 120.72 220.79 120.182 220.761C119.644 220.731 119.171 220.891 118.666 221.272L116.963 222.48L118.839 225.224Z" fill="white"/>
<path d="M127.656 224.465L122.222 217.117L123.578 216.131L127.582 221.429L127.709 213.049L129.066 212.064L134.5 219.412L133.144 220.397L129.14 215.099L129.107 223.448L127.656 224.465Z" fill="white"/>
<path d="M138.314 216.331L133.581 210.434L131.09 212.436L130.169 211.269L136.475 206.186L137.396 207.353L134.905 209.354L139.638 215.251L138.314 216.331Z" fill="white"/>
<path d="M143.517 212.042L137.61 205.17L143.253 200.311L144.142 201.383L139.886 205.035L141.442 206.832L145.194 203.561L146.083 204.633L142.332 207.904L143.92 209.796L148.238 206.017L149.128 207.089L143.517 212.042Z" fill="white"/>
<path d="M153.856 202.96L147.54 196.438L150.817 193.327C151.605 192.533 152.426 192.151 153.247 192.084C153.88 192.082 154.355 192.238 154.831 192.711C155.466 193.341 155.532 194.163 155.219 195.113C156.482 194.476 157.462 194.567 158.256 195.355C158.764 195.922 158.988 196.586 158.832 197.377C158.677 198.168 158.206 198.96 157.291 199.691L153.856 202.96ZM151.435 197.973L153.2 196.322C153.61 195.973 153.893 195.561 153.954 195.118C154.048 194.769 153.92 194.39 153.697 194.043C153.412 193.823 153.158 193.697 152.748 193.731C152.337 193.764 151.989 193.986 151.612 194.43L149.784 196.208L151.435 197.973ZM154.07 200.778L156.15 198.809C156.622 198.333 156.811 197.953 156.904 197.605C156.998 197.257 156.87 196.878 156.647 196.531C156.139 195.963 155.349 196.124 154.309 197.109L152.324 199.045L154.07 200.778Z" fill="white"/>
<path d="M161.136 195.756L154.567 189.423L155.733 188.186L160.556 192.785L159.261 184.568L160.427 183.33L166.996 189.663L165.83 190.9L161.007 186.301L162.302 194.518L161.136 195.756Z" fill="white"/>
<path d="M169.431 190.002L166.893 187.797L167.491 187.068C166.948 185.457 165.613 183.691 163.52 181.865L162.599 181.014L167.166 175.78L172.876 180.818L173.727 179.898L176.107 182.261L175.099 183.34L173.608 182.049L168.947 187.316L170.28 188.765L169.431 190.002ZM168.688 185.609L171.743 182.151L167.079 178.025L164.717 180.722L165.479 181.415C167.096 182.769 168.208 184.188 168.688 185.609Z" fill="white"/>
<path d="M175.782 179.733L168.677 174.003L173.368 168.199L174.509 169.08L170.92 173.457L172.792 174.937L175.908 171.036L177.05 171.917L173.933 175.818L175.836 177.392L179.488 172.889L180.63 173.77L175.782 179.733Z" fill="white"/>
<path d="M185.909 164.706C186.04 166.034 185.634 167.332 184.785 168.569C183.935 169.805 182.8 170.505 181.409 170.763C180.113 170.989 178.879 170.772 177.864 169.954C176.849 169.135 176.182 168.094 176.05 166.766C175.919 165.439 176.325 164.141 177.175 162.904C178.024 161.668 179.16 160.968 180.55 160.71C181.941 160.452 183.08 160.701 184.095 161.519C185.11 162.338 185.778 163.379 185.909 164.706ZM181.371 169.087C182.288 168.989 182.982 168.544 183.548 167.719C184.115 166.895 184.365 166.072 184.298 165.25C184.2 164.333 183.755 163.639 183.057 163.136C182.36 162.632 181.537 162.382 180.652 162.575C179.735 162.673 179.073 163.213 178.475 163.943C177.909 164.767 177.659 165.59 177.725 166.412C177.823 167.329 178.268 168.023 178.966 168.527C179.663 169.03 180.455 169.185 181.371 169.087Z" fill="white"/>
<path d="M195 151.297C195.226 152.592 194.946 153.953 194.097 155.19C193.248 156.426 192.144 157.221 190.88 157.541C189.616 157.862 188.382 157.645 187.305 156.954C186.227 156.262 185.559 155.221 185.333 153.925C185.107 152.629 185.387 151.268 186.236 150.032C187.085 148.796 188.189 148.001 189.453 147.68C190.717 147.359 191.951 147.576 193.028 148.268C194.106 148.96 194.774 150.001 195 151.297ZM190.748 155.897C191.632 155.704 192.295 155.164 192.861 154.34C193.427 153.516 193.582 152.725 193.389 151.84C193.196 150.955 192.751 150.261 191.959 149.79C191.166 149.318 190.375 149.163 189.491 149.356C188.606 149.549 187.944 150.089 187.377 150.913C186.811 151.738 186.656 152.529 186.849 153.413C187.042 154.298 187.487 154.992 188.28 155.464C189.072 155.935 189.863 156.09 190.748 155.897Z" fill="white"/>
<path d="M200.162 145.333L192.303 140.808L193.152 139.255L197.081 141.518L195.445 135.104L196.513 133.266L197.862 138.827L204.53 137.632L203.461 139.47L198.184 140.407L198.666 142.46L200.916 143.812L200.162 145.333Z" fill="white"/>
<path d="M207.947 128.671C208.268 129.934 208.083 131.263 207.392 132.657C206.67 133.956 205.724 134.909 204.398 135.356C203.166 135.772 201.901 135.776 200.729 135.116C199.588 134.551 198.826 133.542 198.505 132.279C198.184 131.015 198.369 129.686 199.059 128.292C199.782 126.993 200.727 126.041 202.054 125.593C203.285 125.178 204.55 125.173 205.723 125.833C206.769 126.43 207.499 127.344 207.947 128.671ZM204.139 133.649C204.991 133.362 205.653 132.822 206.093 131.935C206.532 131.048 206.656 130.162 206.368 129.309C206.08 128.456 205.54 127.794 204.78 127.417C203.988 126.946 203.134 126.917 202.281 127.205C201.428 127.493 200.766 128.033 200.327 128.92C199.887 129.807 199.764 130.693 200.052 131.546C200.339 132.398 200.879 133.06 201.64 133.437C202.4 133.814 203.286 133.937 204.139 133.649Z" fill="white"/>
<path d="M210.561 126.1L202.293 122.24L203.015 120.625L206.404 122.225L208.444 117.949L205.054 116.348L205.776 114.733L214.044 118.592L213.322 120.208L209.806 118.544L207.766 122.821L211.282 124.484L210.561 126.1Z" fill="white"/>
<path d="M219.861 109.875L218.024 109.122L215.046 116.248L206.684 112.737L207.406 111.122L214.437 114.132L216.256 109.825L209.224 106.814L209.946 105.199L216.977 108.209L217.447 107.101L220.489 108.607L219.861 109.875Z" fill="white"/>
<path d="M219.247 106.177L210.76 102.919L213.391 96.0158L214.721 96.5169L212.716 101.837L214.901 102.683L216.687 97.9644L218.017 98.4655L216.231 103.184L218.511 103.998L220.516 98.6778L221.846 99.1789L219.247 106.177Z" fill="white"/>
<path d="M222.57 97.2473L213.894 94.3696L216.459 86.6442L225.134 89.5219L224.54 91.2001L217.289 88.7916L215.819 93.1925L223.07 95.6011L222.57 97.2473Z" fill="white"/>
<path d="M229.937 80.3022L228.069 79.7714L225.946 87.2422L217.177 84.7127L217.677 83.0665L225.053 85.2215L226.365 80.663L218.989 78.508L219.489 76.8617L226.865 79.0168L227.208 77.8455L230.438 78.9722L229.937 80.3022Z" fill="white"/>
<path d="M228.913 76.6377L220.051 74.4564L220.424 72.7474L226.881 74.3683L221.64 67.9047L222.045 66.2904L230.907 68.4717L230.534 70.1807L224.109 68.6546L229.351 75.1182L228.913 76.6377Z" fill="white"/>
<path d="M231.434 65.9714L222.509 64.2331L222.883 62.5241L229.433 63.7967L223.94 57.5238L224.25 55.9415L233.174 57.6799L232.801 59.3889L226.345 58.0842L231.839 64.3572L231.434 65.9714Z" fill="white"/>
<path d="M234.225 51.0984L225.239 49.803L225.485 48.0312L230.042 48.7103L226.227 43.3483L226.567 41.2283L229.842 45.9282L235.616 42.397L235.276 44.517L230.732 47.3164L231.94 49.0196L234.598 49.3894L234.225 51.0984Z" fill="white"/>
<path d="M235.74 40.8788C235.678 41.3217 235.585 41.6699 235.491 42.0181L234.225 41.7065C234.288 41.5798 234.319 41.3583 234.35 41.1368C234.38 40.9153 234.317 40.7258 234.347 40.5044C234.378 40.2829 234.125 40.1573 233.934 39.905C233.743 39.6527 233.395 39.5591 233.015 39.3708C232.635 39.1824 232.065 39.058 231.274 38.9028C230.483 38.7476 229.597 38.6243 228.616 38.533L226.877 38.3812L227.548 31.6115L236.627 32.5587L236.475 34.2985L228.819 33.5042L228.516 36.9839L229.275 37.0443C230.699 37.1973 231.806 37.3513 232.724 37.5693C233.642 37.7874 234.37 38.0693 234.814 38.4472C235.258 38.825 235.576 39.1401 235.704 39.5191C235.737 39.9301 235.77 40.3411 235.74 40.8788Z" fill="white"/>
<path d="M236.896 28.3518C236.803 29.0162 236.711 29.6807 236.27 30.2515L235.066 29.4969C235.254 29.1168 235.442 28.7366 235.409 28.3256C235.407 27.6932 235.12 27.1566 234.55 26.716L227.385 30.5053L227.473 28.5759L232.965 25.7731L227.831 22.756L227.919 20.8267L234.765 25.1657C236.381 25.8871 236.954 26.9602 236.896 28.3518Z" fill="white"/>
<path d="M237.241 19.6859L228.101 19.4979L228.232 12.066L229.718 12.0922L229.644 17.8163L231.763 17.8401L231.785 15.0889C231.844 14.0135 232.062 13.0956 232.598 12.4928C233.133 11.89 233.764 11.5715 234.618 11.6C235.472 11.6285 236.232 12.0052 236.646 12.6045C237.091 13.2986 237.379 14.1514 237.351 15.3216L237.241 19.6859ZM235.811 17.9519L235.866 15.6116C235.895 14.7577 235.83 14.2519 235.575 13.8101C235.352 13.4631 234.972 13.2747 234.434 13.2451C233.581 13.2166 233.077 13.9141 233.019 15.3057L232.965 17.9623L235.811 17.9519Z" fill="white"/>
<path d="M237.431 10.5461L228.182 6.27909L228.144 4.60321L237.266 0.0478614L237.273 1.94521L235.095 2.99672L235.207 7.70813L237.424 8.64873L237.431 10.5461ZM233.719 7.04948L233.611 3.60296L230.013 5.45022L233.719 7.04948Z" fill="white"/>
</g>
<defs>
<clipPath id="clip0_962_4089">
<rect width="250.2" height="189.2" fill="white" transform="translate(0.195312 80.0332) rotate(-18.6439)"/>
</clipPath>
</defs>
</svg>
