<svg width="454" height="364" viewBox="0 0 454 364" fill="none" xmlns="http://www.w3.org/2000/svg">
<g opacity="0.3" clip-path="url(#clip0_899_3623)">
<path d="M222.201 387C227.796 387 232.552 383.745 237.195 380.544C239.713 378.836 242.343 377.022 245.084 375.795C246.987 374.941 249.001 373.981 251.183 372.914C257.785 369.712 265.17 366.191 271.493 365.017C274.906 365.924 278.598 366.831 282.794 367.738C284.137 368.005 285.984 368.592 288.11 369.285C293.928 371.1 300.531 373.127 303.999 372.007C304.559 371.847 304.895 371.206 304.727 370.673C301.705 361.495 278.486 362.029 272.891 362.669C272.5 362.722 272.052 362.776 271.66 362.829C268.136 361.869 264.947 360.908 261.925 359.841C259.016 358.827 256.162 357.814 253.421 356.853C242.231 352.851 231.6 349.063 219.459 347.356C217.389 347.035 215.095 347.035 212.689 346.982C209.221 346.929 205.64 346.822 202.73 345.968C198.814 344.741 193.834 341.326 190.142 338.818L188.967 338.018C183.596 334.39 178.616 330.388 174.308 326.226C175.259 324.199 175.931 322.064 176.602 319.983C177.385 317.582 178.169 315.128 179.343 312.78C182.7 306.324 185.89 301.308 189.414 297.04L189.75 296.613C192.659 293.091 198.087 286.582 202.059 285.461C202.395 285.354 202.73 285.301 203.122 285.248C205.304 286.315 207.486 287.329 209.724 288.342C211.515 289.143 215.879 290.904 220.243 291.17C221.809 291.811 223.376 292.398 224.887 292.984C225.166 293.091 225.446 293.198 225.726 293.305C235.405 298.907 243.406 306.377 251.798 314.167C260.806 322.544 270.15 331.242 281.675 337.324C286.431 339.832 291.355 341.54 296.111 343.194C297.174 343.567 298.237 343.941 299.3 344.314C300.586 344.794 302.265 345.168 303.999 345.595C306.405 346.182 309.035 346.822 311.161 347.729C309.482 354.185 308.979 361.815 308.531 369.232C308.363 372.327 308.196 375.208 307.916 377.929C307.86 378.249 308.028 378.57 308.252 378.783C308.531 378.996 308.867 379.103 309.203 379.05C312.728 378.516 315.637 375.475 317.483 370.459C320.113 363.203 320.113 352.531 315.917 348.209C315.637 347.889 315.301 347.622 314.91 347.356C323.358 347.142 331.583 345.381 339.583 343.621C350.326 341.326 361.46 338.925 372.65 340.472C384.455 342.127 392.68 349.383 394.134 359.361C395.253 366.778 388.26 374.461 377.853 377.236C377.294 377.396 376.958 377.876 377.07 378.409C377.126 378.943 377.629 379.317 378.189 379.317H452.77C453.385 379.317 453.889 378.836 453.889 378.249C453.889 377.662 453.385 377.182 452.77 377.182H384.175C392.4 373.18 397.435 366.031 396.428 359.041C394.806 348.049 385.854 340.152 373.041 338.338C371.083 338.071 369.125 337.911 367.167 337.858C372.09 336.364 376.846 334.336 381.266 331.295C384.455 329.107 392.288 323.452 399.897 315.875C408.681 311.926 417.298 300.455 420.207 295.226C427.984 281.193 424.571 271.748 420.263 266.306C412.486 256.381 395.03 251.419 378.748 254.567C366.215 256.968 357.208 263.531 353.347 272.815C348.2 274.95 343.5 276.444 339.416 276.55C336.394 274.95 335.555 271.001 335.499 268.12C337.178 262.464 337.122 254.194 337.066 247.151C337.066 243.629 337.01 240.534 337.234 238.507C337.401 237.119 337.569 235.626 337.793 234.078C338.353 229.916 339.024 225.114 338.576 220.739C338.856 219.618 339.08 218.498 339.416 217.431C344.283 198.862 349.263 173.304 339.416 156.924C340.814 155.536 341.374 152.868 341.094 148.973C340.367 137.555 338.968 125.016 337.234 113.758C333.093 87.0789 321.176 61.7876 309.65 37.2966C304.839 27.052 299.076 19.0485 292.53 13.5527C287.83 9.55088 282.794 6.93637 277.423 5.70916C278.486 5.33565 279.493 4.85544 280.445 4.1618C280.724 3.94837 280.892 3.62822 280.892 3.25472C280.892 2.88122 280.668 2.56108 280.333 2.40101C273.283 -1.54743 265.226 -0.0534269 258.177 1.2805C256.106 1.654 254.148 2.02751 252.246 2.29429C248.721 2.72115 245.252 3.20136 241.839 3.62822C236.021 4.37522 229.978 5.12223 223.823 5.92258C216.158 6.98973 210.396 10.0844 204.297 13.3392C202.842 14.1396 201.276 14.94 199.709 15.7403C196.184 17.5545 192.324 19.2619 188.575 20.9693C183.26 23.3704 177.777 25.8248 172.741 28.6528C162.447 34.4687 154.39 41.832 146.613 48.8752C145.662 49.7289 144.767 50.4759 143.871 51.1695C140.57 53.8374 137.997 55.9183 138.388 61.2007C138.668 64.6689 140.85 68.2438 142.808 71.4453C143.536 72.6191 144.207 73.7396 144.767 74.8068L144.822 74.9135C150.306 85.3182 154.278 92.8415 163.286 101.432C164.629 102.713 166.027 104.047 167.314 105.327C175.315 113.011 182.812 120.267 191.82 127.044C201.22 134.14 210.172 140.863 217.725 149.774C218.229 150.361 218.788 151.001 219.403 151.641C219.348 154.256 218.956 156.924 218.117 159.591C216.83 163.913 213.92 167.755 211.347 171.01C211.011 171.437 211.067 172.024 211.403 172.397C211.794 172.771 212.354 172.877 212.801 172.557C216.774 170.156 220.299 167.488 223.32 164.554C223.656 168.075 224.159 171.81 224.831 175.439C224.271 176.826 223.768 178.213 223.544 179.707C222.145 189.258 226.006 200.196 235.125 212.148L235.685 212.842C237.475 215.19 239.042 217.271 240.608 219.031C241.727 222.873 242.343 226.822 242.063 231.09C241.951 232.904 241.671 234.558 241.336 236.052C240.105 237.813 239.042 239.681 238.259 241.708C237.811 242.775 237.531 243.949 237.251 245.176C236.524 246.297 235.797 247.417 235.013 248.538C233.391 250.939 231.656 253.447 230.09 256.488C228.915 258.729 228.355 261.824 227.908 265.239C226.061 265.879 224.719 267.693 222.984 271.001C220.858 275.003 218.844 282.687 220.802 287.169C220.914 287.435 221.138 287.649 221.474 287.756C221.753 287.862 222.089 287.862 222.369 287.702C228.076 284.981 228.915 276.871 229.754 269.08C229.81 268.387 229.922 267.747 229.978 267.053C231.153 267.053 232.719 267.48 235.013 268.227H235.069C234.846 268.547 234.566 268.867 234.342 269.241C233.503 270.308 232.496 271.642 231.321 273.669C230.202 275.59 229.81 278.045 229.418 280.339C228.971 283.167 228.523 285.835 226.901 287.329C225.782 288.396 224.215 288.876 222.425 289.036C221.809 288.769 221.25 288.449 220.634 288.182L220.243 288.022C218.005 287.009 214.872 285.568 211.626 284.501C208.941 282.953 206.087 281.139 203.178 279.325C187.624 269.507 168.265 257.289 150.977 269.614C140.514 277.084 138.276 288.556 144.655 301.895C149.298 311.553 162.223 325.372 172.014 328.681C172.518 328.841 173.077 328.681 173.357 328.2L173.413 328.147C177.721 332.202 182.589 336.097 187.848 339.672L188.967 340.472C192.715 343.034 197.863 346.555 202.115 347.889C204.353 348.583 206.815 348.85 209.388 348.956C208.158 349.543 207.15 350.45 206.311 351.571C203.57 355.413 203.122 362.136 205.08 369.445C205.584 371.313 206.199 373.127 206.927 374.781C206.031 375.848 205.36 376.755 204.968 377.289H-167.88C-168.496 377.289 -168.999 377.769 -168.999 378.356C-168.999 378.943 -168.496 379.423 -167.88 379.423H205.416C205.808 379.423 206.143 379.263 206.367 378.943C206.367 378.943 206.927 378.143 207.878 376.969C209.892 380.811 212.41 383.692 214.983 385.026C217.557 386.466 219.963 387 222.201 387ZM267.296 363.896C261.645 365.55 255.659 368.432 250.232 371.046C248.05 372.113 246.036 373.074 244.189 373.874C241.28 375.155 238.594 377.022 235.965 378.783C229.698 383.052 223.768 387.107 215.991 383.212C213.641 382.038 211.291 379.05 209.444 375.208C209.78 374.835 210.116 374.461 210.451 374.088C211.515 374.835 212.745 376.062 213.976 377.289C216.662 380.01 219.459 382.785 222.481 382.518C224.047 382.358 225.334 381.718 226.229 380.65C228.635 377.662 227.572 371.953 226.901 368.165C226.789 367.631 226.733 367.098 226.621 366.617C226.453 365.604 226.341 364.59 226.229 363.523C225.67 358.881 225.054 353.598 220.802 350.397C220.411 350.13 220.019 349.81 219.571 349.597C231.321 351.304 241.727 354.986 252.694 358.934C255.435 359.895 258.289 360.908 261.254 361.922C263.1 362.616 265.17 363.256 267.296 363.896ZM213.697 350.237C215.711 350.237 217.781 350.877 219.348 352.104C222.872 354.772 223.432 359.361 223.935 363.79C224.047 364.857 224.159 365.924 224.327 366.938C224.383 367.418 224.495 367.951 224.607 368.538C225.166 371.74 226.173 377.129 224.383 379.37C223.879 380.01 223.152 380.33 222.201 380.437C220.299 380.65 217.781 378.089 215.543 375.902C213.864 374.248 212.298 372.647 210.731 371.9C210.284 371.686 209.724 371.793 209.388 372.113C209.053 372.433 208.717 372.807 208.437 373.127C207.934 371.847 207.486 370.513 207.15 369.125C205.36 362.402 205.696 356.32 208.102 352.958C209.333 351.197 211.179 350.557 212.466 350.397C212.857 350.29 213.249 350.237 213.697 350.237ZM313.231 349.01C313.623 349.276 314.014 349.597 314.294 349.917C317.483 353.225 318.043 362.776 315.413 369.979C314.63 372.06 313.063 375.475 310.322 376.755C310.49 374.461 310.657 372.113 310.825 369.606C311.217 362.509 311.665 355.199 313.231 349.01ZM302.041 370.246C298.796 370.406 293.145 368.645 288.837 367.311C286.655 366.618 284.753 366.031 283.298 365.71C281.508 365.337 279.829 364.963 278.207 364.537C286.599 364.43 298.852 365.657 302.041 370.246ZM312.336 345.541C312.168 345.595 312 345.755 311.888 345.915C311.497 345.755 311.049 345.595 310.601 345.435C311.161 345.488 311.72 345.541 312.336 345.541ZM395.365 317.475C389.099 323.291 383.056 327.667 379.923 329.854C370.3 336.417 359.278 338.125 347.528 339.886C346.689 339.992 345.85 340.152 345.011 340.259C343.276 340.526 341.598 340.793 339.919 341.059C328.841 342.874 318.434 344.528 306.965 342.874C299.02 341.7 290.236 338.392 288.501 333.696C287.942 332.255 288.11 330.655 288.893 328.947C289.117 328.841 289.285 328.734 289.508 328.627C290.963 327.773 292.306 326.973 293.257 326.546C303.328 321.904 311.105 316.088 318.602 307.604C319.162 306.964 319.721 306.324 320.337 305.63C324.869 300.455 330.576 293.945 336.73 288.769C339.416 287.542 342.045 286.475 344.619 285.621C348.759 284.234 352.284 281.993 355.697 279.752C356.033 279.752 356.368 279.752 356.704 279.805C362.075 280.125 366.943 283.487 371.139 289.783C372.482 291.811 373.881 294.585 375.279 297.573C379.196 305.577 383.616 314.648 391.113 317.102C392.512 317.529 393.967 317.636 395.365 317.475ZM286.04 330.548C285.816 331.882 285.928 333.163 286.431 334.39C287.047 336.044 288.278 337.538 289.9 338.818C287.494 337.858 285.144 336.844 282.794 335.617C281.452 334.923 280.165 334.176 278.878 333.376C281.004 333.109 283.578 331.935 286.04 330.548ZM287.215 327.453C283.969 329.321 279.997 331.455 277.703 331.348C274.122 331.188 270.374 327.08 267.576 324.092C267.185 323.665 266.737 323.238 266.401 322.811C264.499 320.837 262.653 318.809 260.862 316.889C255.379 310.966 250.232 305.31 243.574 300.188C238.314 296.079 232.44 293.732 226.677 291.491C226.229 291.224 225.782 290.957 225.334 290.744C226.453 290.37 227.46 289.783 228.299 288.983C230.481 286.955 230.929 283.807 231.433 280.766C231.768 278.631 232.104 276.39 233.055 274.79C234.174 272.869 235.125 271.588 235.909 270.574C236.356 269.988 236.692 269.507 237.028 269.027C248.553 272.602 258.4 274.256 270.43 274.843H270.709C282.347 275.377 294.376 275.91 306.125 274.843C309.091 274.576 313.231 272.922 317.651 271.215C321.064 269.881 324.981 268.387 328.17 267.586C328.449 270.094 329.121 272.229 330.52 273.776C330.911 274.203 331.639 274.31 332.086 273.936C332.702 273.456 333.205 272.869 333.653 272.229C334.324 274.896 335.779 277.511 338.576 278.792C338.744 278.845 338.912 278.898 339.08 278.898C343.052 278.898 347.528 277.618 352.34 275.75C352.284 275.964 352.228 276.23 352.172 276.444C352.06 276.977 352.34 277.511 352.843 277.724C352.955 277.778 353.011 277.778 353.123 277.831C347.137 278.685 341.15 282.366 335.555 287.009C328.393 290.37 321.232 295.012 315.245 300.134C307.748 306.591 298.069 315.181 289.676 324.198C288.613 325.266 287.774 326.333 287.215 327.453ZM170.951 271.375C166.531 271.375 162.167 272.442 158.586 274.47C153.774 277.244 150.753 281.459 149.802 286.688C147.9 297.093 157.859 310.112 163.845 317.849L164.069 318.116C166.139 320.784 168.545 323.505 171.231 326.226C162.167 322.331 150.809 309.952 146.613 301.148C143.2 293.998 139.395 280.606 152.264 271.428C168.321 260.01 186.169 271.268 201.891 281.193C202.954 281.886 204.017 282.527 205.08 283.167C204.633 283.113 204.185 283.113 203.738 283.113C202.842 282.687 202.003 282.26 201.164 281.833C194.114 278.418 186.785 274.843 179.064 272.442C176.322 271.748 173.637 271.375 170.951 271.375ZM329.233 292.771C325.316 296.666 321.735 300.775 318.658 304.243C318.043 304.937 317.483 305.577 316.924 306.217C309.65 314.434 302.041 320.143 292.306 324.625C292.25 324.625 292.194 324.679 292.138 324.679C300.251 316.035 309.538 307.871 316.756 301.682C320.505 298.427 324.813 295.386 329.233 292.771ZM200.269 283.967C195.905 285.941 191.037 291.811 188.016 295.386L187.68 295.812C184.043 300.188 180.742 305.31 177.329 311.926C176.042 314.434 175.259 316.995 174.476 319.45C173.916 321.264 173.357 322.971 172.629 324.625C170.056 322.064 167.762 319.45 165.804 316.889L165.58 316.622C159.817 309.098 150.194 296.559 151.928 287.062C152.767 282.42 155.453 278.738 159.705 276.284C164.908 273.296 172.014 272.655 178.224 274.576C185.778 276.924 192.995 280.446 199.989 283.807C200.101 283.914 200.157 283.914 200.269 283.967ZM236.916 298.427C238.706 299.441 240.496 300.561 242.175 301.895C248.218 306.591 253.029 311.713 258.065 317.155C256.498 315.715 254.932 314.274 253.421 312.833C248.106 307.925 242.734 302.909 236.916 298.427ZM398.554 314.381C396.205 315.395 393.911 315.715 391.84 315.021C385.238 312.833 380.874 303.869 377.349 296.613C375.895 293.571 374.496 290.69 373.041 288.556C369.125 282.687 364.593 279.112 359.502 277.991C364.089 277.244 368.957 274.95 371.307 272.389C371.587 272.068 371.643 271.588 371.419 271.161C371.195 270.788 370.747 270.574 370.3 270.628C365.208 271.322 361.124 273.616 357.264 276.124C356.312 276.177 355.417 276.124 354.578 275.964C354.69 275.537 354.858 275.056 355.026 274.63C358.047 273.349 361.124 271.908 364.257 270.468C382.385 262.037 401.128 253.287 412.374 271.428C418.081 280.659 416.402 291.704 407.339 304.136C404.765 307.818 401.688 311.286 398.554 314.381ZM388.651 256.008C400.96 256.008 412.654 260.437 418.417 267.853C423.956 274.95 423.9 284.181 418.137 294.479C416.067 298.214 411.479 304.35 406.331 309.045C415.843 297.573 422.389 283.434 414.276 270.308C402.023 250.459 381.434 260.063 363.25 268.494C360.9 269.614 358.55 270.681 356.312 271.695C360.341 264.225 368.342 258.943 379.084 256.862C382.329 256.328 385.518 256.008 388.651 256.008ZM227.46 268.013C227.404 268.333 227.404 268.654 227.348 268.92C226.677 275.537 225.95 282.313 222.313 285.141C221.53 281.566 222.816 275.75 224.831 272.015C225.894 270.094 226.677 268.76 227.46 268.013ZM350.27 280.659C348.256 281.833 346.185 282.847 343.948 283.594H343.892C345.962 282.313 348.088 281.299 350.27 280.659ZM328.058 265.452C324.645 266.199 320.672 267.747 316.812 269.241C312.56 270.895 308.531 272.442 305.958 272.709C294.376 273.776 282.459 273.242 270.877 272.709H270.597C258.848 272.175 249.281 270.521 238.091 267.106C238.65 265.612 238.874 263.745 238.762 260.597C238.594 256.115 238.37 250.726 239.266 246.084C240.944 243.416 242.399 240.588 243.294 237.066C244.021 235.999 244.861 234.932 245.644 233.865C247.658 231.25 249.672 228.529 250.847 225.594C253.813 226.075 257.393 225.701 262.037 224.42C267.632 222.82 273.003 220.952 278.207 219.191C283.354 217.431 288.669 215.563 294.152 214.016C302.209 211.721 318.211 208.36 327.33 210.334C333.429 211.668 335.723 215.67 336.338 220.632C335.387 224.794 334.66 229.063 333.933 233.224C333.317 236.853 332.646 240.534 331.862 244.269C331.639 245.283 331.359 246.564 330.967 248.004C329.68 253.073 328.002 259.796 328.058 265.452ZM333.149 268.12C332.702 269.454 332.198 270.574 331.527 271.428C330.911 270.308 330.52 268.814 330.408 267.213C331.471 267.106 332.422 267.106 333.205 267.32C333.205 267.586 333.149 267.853 333.149 268.12ZM236.468 250.245C236.244 253.82 236.356 257.449 236.524 260.65C236.636 263.531 236.468 265.132 235.965 266.413C235.853 266.359 235.685 266.306 235.573 266.306C233.279 265.559 231.489 265.132 230.09 265.079C230.481 262.091 230.985 259.476 231.992 257.609C233.391 254.834 234.957 252.486 236.468 250.245ZM334.772 240.961C334.716 242.775 334.716 244.963 334.772 247.364C334.828 253.02 334.884 260.01 333.877 265.239C332.869 264.919 331.639 264.919 330.296 265.025C330.352 259.69 331.974 253.073 333.093 248.431C333.485 246.937 333.765 245.657 333.988 244.59C334.324 243.416 334.548 242.188 334.772 240.961ZM248.665 225.114C247.658 227.515 245.98 229.81 244.133 232.211C244.133 231.944 244.189 231.624 244.189 231.357C244.413 228.155 244.133 225.114 243.574 222.179C245.14 223.513 246.763 224.474 248.665 225.114ZM320.672 207.613C312.056 207.613 301.37 209.747 293.481 211.988C287.942 213.589 282.571 215.403 277.423 217.217C272.22 219.031 266.905 220.846 261.366 222.446C257.281 223.62 254.092 223.94 251.519 223.62C252.078 221.166 252.022 218.551 250.847 215.617C248.721 210.334 244.749 206.332 240.888 202.437C237.419 198.969 233.838 195.341 231.6 190.805C230.034 187.604 228.747 183.495 227.796 179.174C227.796 177.093 228.02 174.905 228.523 172.664C229.363 170.743 230.09 168.769 230.258 166.688C230.985 164.394 231.768 162.099 232.496 159.858C234.566 153.775 236.692 147.479 237.811 141.237C238.035 139.956 238.258 138.622 238.482 137.181C239.545 129.925 240.888 121.014 247.266 118.666C247.043 120.107 246.763 121.654 246.483 123.309C244.805 132.913 242.679 144.865 248.05 152.975C254.54 162.793 269.367 167.168 281.06 162.74C292.642 158.311 298.628 150.04 299.244 137.395C299.579 131.205 298.516 124.589 297.062 118.24C301.09 127.31 307.804 134.727 314.966 142.144L315.861 143.051C324.085 151.641 332.31 159.378 337.345 158.204C346.633 173.624 342.101 198.009 337.401 216.097C336.003 212.362 333.093 209.48 327.778 208.307C325.708 207.826 323.302 207.613 320.672 207.613ZM232.384 196.195C234.454 198.969 236.86 201.424 239.266 203.825C243.126 207.72 246.763 211.348 248.721 216.257C249.728 218.765 249.84 220.952 249.337 223.033C246.763 222.179 244.693 220.525 242.567 218.178C240.888 212.789 238.314 207.773 235.741 202.864C234.566 200.623 233.447 198.436 232.384 196.195ZM225.614 180.828C226.117 189.151 229.978 196.515 233.727 203.771C235.237 206.653 236.748 209.587 238.091 212.575C237.867 212.308 237.643 211.988 237.475 211.721L236.916 211.028C228.355 199.823 224.551 189.685 225.614 180.828ZM228.02 166.261C227.516 167.808 227.069 169.409 226.621 170.957C226.509 171.277 226.453 171.597 226.397 171.917C225.894 168.716 225.558 165.567 225.278 162.633C225.726 162.099 226.229 161.619 226.621 161.085C227.292 162.313 227.74 163.54 227.908 164.767C228.02 165.247 228.076 165.781 228.02 166.261ZM222.984 161.886C221.138 163.807 219.068 165.621 216.774 167.382C218.173 165.194 219.403 162.9 220.187 160.338C220.802 158.258 221.194 156.123 221.418 154.096C221.865 154.576 222.313 155.056 222.76 155.59C222.76 156.39 222.76 157.244 222.816 158.097C222.816 159.325 222.872 160.605 222.984 161.886ZM293.873 99.7246C292.754 100.098 291.355 100.578 290.963 100.792C290.516 101.059 290.348 101.539 290.46 101.966C290.795 103.246 291.187 104.527 291.579 105.914C297.062 125.123 304.559 151.428 280.277 160.659C269.702 164.66 255.827 160.605 249.952 151.748C245.028 144.331 246.987 133.286 248.665 123.575C249.057 121.494 249.393 119.52 249.672 117.653C250.232 116.852 249.896 116.372 249.616 116.105C249.337 115.839 248.777 115.572 247.994 116.159C240.273 117.813 238.035 125.763 236.804 133.286C236.748 126.297 234.957 118.987 231.6 111.463C228.355 104.207 223.208 97.2702 218.284 90.5472C217.501 89.48 216.662 88.3595 215.879 87.2924C219.012 91.0274 222.76 94.2288 226.061 96.79C231.824 101.272 250.064 114.611 264.667 114.611C266.457 114.611 268.248 114.398 269.926 113.971C275.465 112.477 279.493 108.422 281.787 101.966C283.578 97.0034 284.137 90.227 283.242 83.9309C282.571 79.1821 278.766 72.0856 277.647 70.058C279.829 66.5364 279.438 61.2007 276.64 54.9579C275.297 51.9699 270.877 47.8614 267.632 48.3949C266.793 48.5017 265.786 48.9819 265.058 50.2624C265.002 50.2091 264.947 50.1024 264.947 50.049C262.485 45.8338 259.855 41.4051 256.666 37.4567C260.079 36.3362 266.457 36.4963 269.702 37.4567C274.514 38.9507 276.136 42.6324 277.927 46.9543C278.263 47.7547 278.598 48.6084 278.99 49.4087C280.612 52.9837 282.627 56.5586 284.585 60.0268C288.278 66.6431 292.138 73.4728 293.705 80.516C294.88 85.6917 294.544 90.8139 294.208 95.7228C294.04 96.95 293.928 98.3373 293.873 99.7246ZM232.943 151.374C232.104 153.989 231.265 156.603 230.37 159.165C230.09 160.072 229.754 160.979 229.474 161.886C229.139 160.979 228.691 160.125 228.132 159.218C230.09 156.71 231.656 154.096 232.943 151.374ZM225.446 159.111C225.334 159.271 225.166 159.431 225.054 159.591C225.054 159.218 224.998 158.844 224.998 158.471C225.166 158.684 225.334 158.898 225.446 159.111ZM200.269 62.6947C202.73 73.1527 209.668 82.5969 216.438 91.7744C221.306 98.3907 226.397 105.22 229.53 112.317C237.084 129.178 236.021 144.865 226.845 157.35C226.229 156.497 225.558 155.696 224.887 154.896C224.942 151.481 225.278 148.173 225.558 144.918C226.229 138.088 226.957 130.992 224.831 123.469C222.425 114.665 218.061 107.621 213.529 100.151C212.41 98.3373 211.291 96.4698 210.172 94.6023C204.857 85.5849 201.779 74.8068 199.597 64.989C199.877 64.1353 200.045 63.4417 200.269 62.6947ZM296.278 107.088C301.761 121.334 313.511 132.966 324.869 144.331C328.058 147.479 331.023 150.467 333.821 153.455C334.66 154.309 335.387 155.216 336.059 156.177C331.247 155.963 321.064 145.292 317.539 141.61L316.644 140.703C307.86 131.579 300.307 123.095 297.118 111.677C296.726 110.076 296.446 108.582 296.278 107.088ZM269.982 7.1498C288.669 7.1498 300.586 23.7439 307.468 38.3104C318.938 62.6413 330.799 87.7726 334.884 114.184C336.618 125.389 337.961 137.875 338.744 149.24C338.912 151.961 338.688 153.989 338.017 155.109C337.234 154.042 336.394 152.975 335.443 151.961C332.59 148.92 329.568 145.932 326.435 142.784C313.567 130.032 300.307 116.799 296.39 100.151C296.334 99.938 296.222 99.7246 296.055 99.5645C296.111 98.284 296.222 97.0034 296.278 95.6695C296.614 90.6005 296.95 85.3715 295.719 79.9291C294.096 72.6191 290.18 65.6293 286.431 58.9063C284.529 55.4915 282.515 51.9165 280.892 48.4483C280.501 47.6479 280.165 46.8476 279.829 46.0472C277.983 41.6719 276.025 37.1366 270.206 35.3224C267.017 34.362 259.296 33.8284 255.043 35.5892C253.253 33.5616 251.295 31.7475 249.113 30.1468C251.183 29.6666 253.253 28.5994 256.162 26.3584C257.002 25.7181 257.785 25.0778 258.512 24.4909C261.813 21.7697 263.772 20.1156 268.863 20.4891C269.478 20.5425 269.982 20.1156 270.038 19.5287C270.318 16.4873 268.919 14.193 267.688 12.1654C266.737 10.618 265.842 9.12402 265.674 7.41659C267.24 7.25651 268.639 7.1498 269.982 7.1498ZM198.422 69.4711C200.604 78.275 203.57 87.5592 208.269 95.5628C209.388 97.4836 210.507 99.3511 211.626 101.112C216.102 108.422 220.355 115.358 222.704 123.895C224.663 131.099 224.047 137.662 223.32 144.651C223.096 147.159 222.816 149.774 222.704 152.388C222.313 151.961 221.977 151.588 221.641 151.214C221.585 151.161 221.53 151.108 221.474 151.054C221.53 138.729 214.983 127.204 208.661 115.945C204.297 108.208 200.101 100.845 197.975 93.3217C195.793 85.4782 196.352 78.0082 198.422 69.4711ZM197.359 64.829C194.897 73.6329 192.995 83.5574 195.905 93.8553C198.087 101.645 202.507 109.436 206.759 116.959C212.522 127.15 218.396 137.555 219.236 148.44C211.57 139.476 202.619 132.699 193.163 125.55C184.323 118.88 176.826 111.623 168.881 103.993C167.538 102.713 166.195 101.379 164.797 100.098C156.068 91.7744 152.152 84.3577 146.781 74.1131L146.725 74.0064C146.109 72.8859 145.438 71.7121 144.711 70.5382C142.808 67.3901 140.85 64.1887 140.57 61.2007C140.235 56.9855 142.137 55.4915 145.27 52.9837C146.109 52.29 147.116 51.4897 148.124 50.5826C155.789 43.5928 163.733 36.3362 173.804 30.627C178.728 27.8524 184.211 25.398 189.47 23.0503C193.219 21.3428 197.08 19.6354 200.716 17.8212C202.339 17.0209 203.849 16.1672 205.36 15.3668C211.515 12.0587 216.886 9.23073 224.159 8.21694C230.314 7.36323 236.3 6.61623 242.119 5.92258C245.588 5.49573 249.057 5.06887 252.582 4.58865C254.54 4.32187 256.61 3.94837 258.624 3.57487C265.002 2.34765 271.605 1.12043 277.535 3.57487C275.297 4.58865 272.612 4.58865 269.814 4.58865C267.017 4.58865 264.163 4.58865 261.422 5.54908C260.918 5.70915 260.638 6.18937 260.694 6.66959C260.918 9.28409 262.653 10.9915 264.275 12.6456C265.226 13.606 266.121 14.5131 266.681 15.5269C264.611 14.7265 262.541 13.7127 260.526 12.7523C257.785 11.4717 254.987 10.1378 252.246 9.17738C251.854 9.0173 251.351 9.12402 251.071 9.44416C250.791 9.71095 250.511 9.97773 250.232 10.2445C250.008 10.4579 249.896 10.7247 249.896 11.0449C249.896 11.365 250.064 11.6318 250.288 11.8452C252.805 13.8728 254.932 16.2205 256.498 18.675C255.267 19.3153 253.477 18.1947 250.288 15.847C248.441 14.4597 246.763 13.1792 245.084 12.7523C239.154 11.205 233.894 13.3392 228.859 15.4202C228.467 15.5802 228.02 15.7403 227.628 15.9004C222.593 17.928 217.669 19.7421 212.857 21.5029C207.99 23.2637 202.898 25.1312 197.975 27.1588C187.624 31.374 181.078 39.1108 175.315 45.8872C167.65 54.9579 165.971 62.8548 169.161 74.8601C169.384 75.6605 169.552 76.8877 169.776 78.275C170.671 83.8242 171.902 91.4542 177.105 90.9207C177.497 90.8673 177.833 90.6539 178.001 90.2804C179.343 87.3991 179.176 83.8775 179.008 80.4626C178.84 76.6743 178.672 73.046 180.63 71.2318C181.749 70.2181 183.54 69.7378 186.113 69.7912C185.89 70.2181 185.666 70.6449 185.442 71.1251C182.7 76.5142 178.56 84.7312 184.043 88.3062C184.491 88.5729 185.05 88.573 185.442 88.1994C195.345 79.5556 194.002 69.8979 192.492 59.7067C192.268 58.3194 192.1 56.9321 191.932 55.4915C191.093 48.8218 191.932 39.4309 197.024 34.8956C199.653 32.5478 203.234 31.6941 207.654 32.3878C207.934 33.3482 207.99 34.4687 207.878 35.6959C203.905 36.3896 200.828 38.097 198.758 40.7115C195.345 45.0334 194.73 51.8632 196.744 61.5742C196.856 62.588 197.08 63.7085 197.359 64.829ZM268.136 50.3692C270.094 50.3692 273.395 53.3572 274.458 55.7049C276.025 59.1198 278.151 65.4159 275.297 69.311C275.073 69.6311 275.017 70.058 275.241 70.4315C275.297 70.5382 280.221 79.0754 280.892 84.1443C281.731 90.1203 281.228 96.5232 279.549 101.219C277.479 106.981 274.01 110.556 269.199 111.89C255.099 115.732 233.615 100.045 227.348 95.1359C217.221 87.239 212.298 80.4093 211.794 73.793C211.403 68.564 213.697 63.3883 218.788 57.9992C230.258 45.9405 245.084 44.1264 260.526 52.8769C260.918 53.0904 261.422 53.0904 261.813 52.8236C262.149 52.5568 262.317 52.0766 262.205 51.6497C261.757 50.2624 260.582 47.7013 259.184 45.0334C260.415 47.0077 261.59 49.0352 262.82 51.0094C263.324 51.8632 263.828 52.7169 264.331 53.5172C264.555 53.9441 265.058 54.1042 265.562 54.0508C266.066 53.9441 266.401 53.5706 266.457 53.0904C266.569 51.9699 266.905 50.5292 267.856 50.4225C267.968 50.4225 268.08 50.3692 268.136 50.3692ZM293.817 102.019C293.817 103.3 293.817 104.633 293.928 105.967C293.873 105.754 293.817 105.594 293.761 105.38C293.481 104.367 293.201 103.353 292.921 102.339C293.145 102.232 293.481 102.126 293.817 102.019ZM185.666 67.6035C182.7 67.6035 180.518 68.2972 179.008 69.6311C176.266 72.1389 176.49 76.3541 176.714 80.4626C176.882 83.3439 176.994 86.2786 176.21 88.6263C173.581 87.986 172.574 81.6899 171.958 77.7948C171.734 76.3541 171.51 75.1269 171.287 74.2199C168.265 62.8014 169.72 55.7049 176.994 47.1144C182.868 40.1779 188.911 33.0281 198.758 29.0263C203.682 26.9987 208.493 25.2913 213.585 23.4238C218.396 21.663 223.376 19.8488 228.411 17.8212C228.803 17.6612 229.251 17.5011 229.642 17.2877C234.566 15.2601 239.21 13.3926 244.413 14.7265C245.588 15.0467 247.21 16.2739 248.777 17.4477C251.91 19.7955 255.883 22.7301 258.68 19.5287C258.96 19.2085 259.016 18.7283 258.792 18.3015C257.505 16.1138 255.827 14.0329 253.813 12.112C255.659 12.859 257.561 13.7661 259.407 14.6732C262.205 16.0071 265.114 17.3944 267.968 18.3548H268.024V18.4082C262.82 18.3548 260.303 20.4358 257.225 22.9969C256.498 23.5838 255.771 24.2241 254.932 24.811C251.239 27.639 249.393 28.386 246.427 28.4393C243.294 26.7319 239.713 25.5047 235.573 25.1312C228.411 24.4375 219.963 26.892 212.857 31.7475C211.85 32.4411 210.899 33.1348 210.004 33.8818C209.948 32.9213 209.78 32.0143 209.444 31.1606C209.333 30.7871 208.997 30.5203 208.605 30.4669C203.122 29.4531 198.646 30.4669 195.345 33.4016C189.638 38.4705 188.631 48.2882 189.582 55.8116C189.75 57.2522 189.974 58.6929 190.142 60.0802C191.54 69.8446 192.771 78.3284 184.491 86.0652C181.749 83.1305 185.106 76.5676 187.344 72.1389C187.904 71.0184 188.407 70.058 188.743 69.2576C188.855 68.9375 188.855 68.6173 188.687 68.2972C188.519 68.0304 188.184 67.817 187.848 67.7636C187.009 67.6569 186.337 67.6035 185.666 67.6035ZM241.895 45.3536C232.775 45.3536 224.271 49.1419 217.221 56.5586C211.738 62.3212 209.165 68.1905 209.612 73.8997C209.836 76.9944 210.955 79.9824 212.578 82.757C207.262 75.0736 202.786 67.1233 201.779 58.4795C202.395 56.9321 203.178 55.278 203.961 53.5706C206.367 48.2882 208.941 42.4723 209.724 37.5101C209.836 37.5101 209.948 37.5101 210.116 37.4567C215.375 36.9765 219.627 35.3758 223.656 33.8284C228.803 31.8542 233.671 29.9867 240.664 30.3068C241.168 30.3068 241.671 30.3602 242.119 30.3602C243.462 30.4136 244.637 30.5203 245.756 30.5203C248.609 32.1743 251.015 34.3086 253.253 36.7631C253.085 36.9231 252.973 37.0299 252.861 37.1899C252.582 37.5634 252.582 38.097 252.861 38.4705C254.428 40.3914 257.393 45.8338 259.072 49.5154C253.253 46.7409 247.49 45.3536 241.895 45.3536ZM199.541 58.2127C199.206 58.9597 198.926 59.7067 198.702 60.4003C196.968 51.7031 197.527 45.6737 200.437 41.9387C201.611 40.3914 203.234 39.2709 205.248 38.5239C202.227 42.1521 200.325 46.2073 199.709 50.2091C199.318 52.9303 199.262 55.5982 199.541 58.2127ZM206.927 39.9111C205.808 44.073 203.738 48.6617 201.891 52.7169C201.779 52.9303 201.723 53.1437 201.611 53.3038C201.667 52.3434 201.779 51.4363 201.891 50.4759C202.451 46.7942 204.297 43.1659 206.927 39.9111ZM239.098 28.1726C232.496 28.1726 227.628 30.0401 222.872 31.9076C219.292 33.2948 215.879 34.5754 211.794 35.1623C218.396 29.7733 227.292 26.4118 235.293 27.2121C237.084 27.3722 238.762 27.7457 240.329 28.1726C239.881 28.1726 239.489 28.1726 239.098 28.1726ZM263.548 7.09644C263.548 7.79009 263.716 8.48373 263.883 9.12402C263.436 8.53709 263.1 7.95016 262.876 7.25652C263.1 7.20316 263.324 7.1498 263.548 7.09644Z" fill="#020818"/>
</g>
<defs>
<clipPath id="clip0_899_3623">
<rect width="454" height="364" fill="white" transform="matrix(-1 0 0 1 454 0)"/>
</clipPath>
</defs>
</svg>
